<svg width="383" height="316" viewBox="0 0 383 316" fill="none" xmlns="http://www.w3.org/2000/svg">
<path d="M0 271V20C0 8.95431 8.95431 0 20 0H363C374.046 0 383 8.9543 383 20V271" fill="#FFE685"/>
<path d="M383 133H0V297H383V133Z" fill="#FFCA05"/>
<path d="M363 133H20C8.95431 133 0 141.954 0 153V296C0 307.046 8.95431 316 20 316H363C374.046 316 383 307.046 383 296V153C383 141.954 374.046 133 363 133Z" fill="#FFCA05"/>
<path d="M207.574 58.5018C207.574 35.9937 188.238 18.3262 163.812 18.3262C139.386 18.3262 119.587 36.5668 119.587 59.0871V96.3973H207.513V65.3786C207.513 65.3786 207.574 60.6355 207.574 58.5018Z" fill="#A4DBDE"/>
<path d="M0 133.525H47.5856V61.0622C47.5856 61.0622 47.6465 56.3313 47.6465 54.1854C47.6465 31.6773 24.6573 14.0098 0.231353 14.0098" fill="#954F22"/>
<path d="M119.59 96.3691L207.517 96.3691L207.517 72.8368L119.59 72.8368L119.59 96.3691Z" fill="#2D9D48"/>
<path d="M203.36 44.5029C201.74 44.5029 200.316 45.4296 199.451 46.8439C198.989 45.8197 198.234 44.954 197.26 44.4297C194.873 43.1373 192.036 44.32 190.916 47.0756C190.502 48.0876 190.38 49.185 190.514 50.2214C188.359 49.6239 186.069 50.831 185.083 53.233C183.963 55.9764 184.986 59.2563 187.372 60.5487C188.663 61.2437 190.075 61.2194 191.293 60.6097C191.634 62.1338 192.547 63.4872 193.887 64.2066C196.2 65.4503 198.94 64.3773 200.121 61.8046C200.474 62.1704 200.864 62.4874 201.314 62.7313C203.628 63.9871 206.368 62.8898 207.549 60.3171C207.561 59.5245 207.561 58.7686 207.561 58.1955C207.561 53.5378 206.721 49.0874 205.186 44.9662C204.638 44.6736 204.017 44.5029 203.36 44.5029Z" fill="white"/>
<path d="M123.873 54.1978C125.687 54.3441 127.343 53.4418 128.414 51.9299C128.865 53.1126 129.644 54.149 130.704 54.8318C133.297 56.49 136.56 55.4293 138.009 52.442C138.545 51.3324 138.752 50.1253 138.667 48.9548C141.041 49.8205 143.696 48.6744 144.962 46.0651C146.411 43.09 145.474 39.3224 142.892 37.6642C141.492 36.7619 139.897 36.6766 138.509 37.2374C138.229 35.4939 137.303 33.8966 135.842 32.9699C133.334 31.3605 130.192 32.3237 128.682 35.0915C128.439 34.7989 128.159 34.5306 127.854 34.299C123.824 39.1395 120.938 44.8458 119.599 51.052C120.439 52.8078 122.01 54.0515 123.873 54.1978Z" fill="white"/>
<path d="M207.757 93.9707H119.344V98.8235H207.757V93.9707Z" fill="#FFCA05"/>
<path d="M36.4779 85.0585C38.334 85.0585 39.8386 83.9012 39.8386 82.4736C39.8386 81.046 38.334 79.8887 36.4779 79.8887C34.6218 79.8887 33.1172 81.046 33.1172 82.4736C33.1172 83.9012 34.6218 85.0585 36.4779 85.0585Z" fill="#838383"/>
<path d="M274.675 94.1055C274.675 94.1055 286.495 102.182 276.432 112.76" stroke="#108AB2" stroke-width="1.7568" stroke-miterlimit="10" stroke-linecap="round"/>
<path d="M274.171 111.31C274.878 110.869 275.939 110.955 276.839 111.621C277.986 112.47 278.436 113.919 277.846 114.864L276.389 117.174C276.378 117.195 276.368 117.206 276.357 117.216C276.357 117.227 276.346 117.238 276.346 117.238L274.374 120.352C274.224 120.599 273.849 120.621 273.549 120.395C273.249 120.17 273.131 119.794 273.281 119.547L274.353 117.85C274.171 117.807 273.989 117.743 273.817 117.668L272.531 119.708C272.381 119.955 272.006 119.977 271.706 119.751C271.406 119.526 271.288 119.15 271.438 118.903L272.724 116.862C272.606 116.722 272.499 116.583 272.402 116.432L271.299 118.183C271.149 118.43 270.774 118.452 270.474 118.226C270.174 118 270.056 117.625 270.206 117.378L272.049 114.456C272.081 114.349 272.135 114.242 272.188 114.145L271.631 114.553C271.395 114.725 271.009 114.628 270.763 114.349C270.516 114.07 270.516 113.694 270.752 113.522" fill="#A1CBEC"/>
<path d="M231.874 209.814C231.874 209.814 241.058 223.969 231.863 239.821" stroke="#108AB2" stroke-width="3.073" stroke-miterlimit="10" stroke-linecap="round"/>
<path d="M229.431 234.419C230.417 233.345 232.26 233.001 234.082 233.699C236.407 234.591 237.843 236.835 237.275 238.693L235.882 243.269C235.871 243.301 235.861 243.333 235.85 243.365C235.85 243.387 235.85 243.397 235.839 243.419L233.964 249.594C233.814 250.078 233.203 250.282 232.592 250.056C231.981 249.82 231.606 249.24 231.756 248.746L232.774 245.384C232.453 245.395 232.121 245.374 231.778 245.32L230.556 249.358C230.406 249.841 229.795 250.045 229.184 249.82C228.574 249.584 228.199 249.004 228.349 248.51L229.57 244.471C229.302 244.3 229.056 244.106 228.831 243.902L227.781 247.371C227.631 247.854 227.02 248.058 226.409 247.833C225.798 247.597 225.423 247.017 225.573 246.523L227.32 240.745C227.331 240.541 227.363 240.347 227.406 240.154L226.645 241.099C226.323 241.497 225.627 241.518 225.091 241.153C224.555 240.788 224.373 240.165 224.694 239.767" fill="#A1CBEC"/>
<path d="M201.107 174.137C190.713 199.59 169.677 196.486 169.677 196.486" stroke="#0A8AB2" stroke-width="4.3132" stroke-miterlimit="10" stroke-linecap="round"/>
<path d="M216.186 162.13C216.571 161.496 216.303 160.637 215.596 160.218C214.889 159.799 213.999 159.971 213.624 160.605L210.977 165.008C210.742 164.654 210.463 164.31 210.152 163.998L213.335 158.725C213.721 158.092 213.453 157.232 212.746 156.814C212.038 156.395 211.149 156.567 210.774 157.2L207.591 162.473C207.205 162.355 206.82 162.28 206.434 162.237L209.166 157.705C209.552 157.071 209.284 156.212 208.577 155.793C207.87 155.374 206.98 155.546 206.605 156.18L202.051 163.73C201.847 163.934 201.676 164.17 201.515 164.407L201.901 162.667C202.062 161.936 201.547 161.163 200.765 160.948C199.983 160.734 199.211 161.152 199.05 161.883L197.004 171.173C196.929 171.527 197.014 171.892 197.207 172.204C196.864 174.309 197.925 176.618 200.047 177.874C202.737 179.474 206.134 178.809 207.602 176.381L211.213 170.399C211.235 170.356 211.256 170.313 211.278 170.27C211.288 170.249 211.31 170.238 211.32 170.206L216.186 162.13Z" fill="#A1CBEC"/>
<path d="M89.7663 98.6474C91.3998 98.6474 92.724 97.628 92.724 96.3706C92.724 95.1131 91.3998 94.0938 89.7663 94.0938C88.1328 94.0938 86.8086 95.1131 86.8086 96.3706C86.8086 97.628 88.1328 98.6474 89.7663 98.6474Z" fill="#838383"/>
<path d="M78.5036 153.946C79.7253 161.614 81.6006 169.25 83.3688 176.746C84.3225 180.806 85.362 184.371 84.8905 188.614C84.4726 192.33 82.5865 196.078 80.9469 199.396C76.5211 208.364 76.789 217.686 79.7574 227.405C81.7292 233.86 86.6908 239.058 92.2954 242.377C103.912 249.25 107.77 248.982 131.753 249.433C145.973 249.701 160.043 248.831 171.896 239.445C176.782 235.578 180.372 230.284 182.419 224.237C183.63 220.661 183.791 219.104 184.316 215.388C185.034 210.243 183.555 203.638 181.797 198.924C179.161 191.857 176.654 182.438 178.625 174.781C183.212 156.931 186.32 133.358 186.491 124.272C187.134 90.4203 162.54 82.7199 132.042 82.14C101.544 81.56 76.6604 89.0134 76.0175 122.865C75.9532 126.355 76.071 129.857 76.2961 133.358C76.2961 133.358 77.8285 150.058 78.5036 153.946Z" fill="#00A0CC"/>
<path d="M151.256 135.86C151.256 131.242 155.242 127.494 160.161 127.494C165.08 127.494 169.066 131.242 169.066 135.86" fill="white"/>
<path d="M159.765 135.861C159.765 133.713 161.501 131.984 163.633 131.984C165.766 131.984 167.502 133.724 167.502 135.861" fill="#0D3F60"/>
<path d="M124.786 135.86C124.786 131.242 128.794 127.494 133.734 127.494C138.674 127.494 142.682 131.242 142.682 135.86" fill="white"/>
<path d="M133.295 135.861C133.295 133.713 135.031 131.984 137.163 131.984C139.307 131.984 141.032 133.724 141.032 135.861" fill="#0D3F60"/>
<path d="M153.592 244.203L146.08 290.534H141.718L134.217 244.353" fill="#00A0CC"/>
<path d="M129.116 245.062L121.615 291.394H117.253L109.741 245.202" fill="#00A0CC"/>
<path d="M141.075 290.47L138.117 272.578H149.294L146.24 290.266L141.075 290.47Z" fill="#56C4CF"/>
<path d="M117.092 290.976L114.103 273.652H124.754L122.45 291.448L117.092 290.976Z" fill="#56C4CF"/>
<path d="M136.189 291.834C136.189 286.077 131.538 281.416 125.794 281.416C120.05 281.416 115.399 286.077 115.399 291.834" fill="#4F4A47"/>
<path d="M162.207 290.974C162.207 285.218 157.557 280.557 151.813 280.557C146.069 280.557 141.418 285.218 141.418 290.974" fill="#4F4A47"/>
<path d="M77.6885 294.519C78.6208 291.651 79.5424 288.784 80.4747 285.927C81.3427 283.263 82.2322 280.6 83.0895 277.936C83.1645 277.689 83.3038 277.421 83.1323 277.152C83.4538 277.12 83.6253 277.475 83.9682 277.432C85.5863 277.228 87.0973 277.904 88.6941 278.012C91.0088 278.151 93.2592 278.753 95.5632 278.989C96.3026 279.064 97.0634 279.118 97.7921 279.3C98.9816 279.601 100.225 279.848 101.404 279.945C103.236 280.106 105.026 280.578 106.858 280.686C108.09 280.761 109.248 281.255 110.459 281.287C112.066 281.33 113.599 281.771 115.185 281.953C115.024 283.833 115.313 285.691 115.388 287.559C115.581 291.759 115.806 295.958 116.031 300.146C116.063 300.769 115.999 301.091 115.195 300.952C112.677 300.501 110.137 300.146 107.608 299.76L77.6885 294.519Z" fill="#D5BA76"/>
<path d="M115.345 176.092C116.138 176.468 116.588 177.348 116.449 178.272C115.849 182.385 113.224 197.668 112.634 201.792C111.788 207.699 107.062 239.478 106.215 245.385C105.315 251.657 104.383 257.918 103.483 264.19C103.107 266.789 102.765 269.388 102.379 271.987C102.272 272.696 102.4 272.975 103.204 273.082C106.719 273.533 110.212 274.103 113.717 274.575C116.771 274.994 117.917 276.519 117.349 279.515C117.296 279.795 117.371 280.138 117.124 280.375C116.792 281.567 116.46 281.835 115.185 281.943C114.284 282.018 113.17 281.61 112.27 281.492C111.102 281.33 109.923 281.169 108.755 280.987C106.258 280.611 103.761 280.235 101.264 279.859C98.2209 279.397 95.1774 278.946 92.1447 278.484C89.4657 278.076 86.9367 277.55 84.2362 277.378C82.8752 277.292 81.7607 276.659 81.75 275.22C81.825 274.564 81.8679 273.899 81.975 273.254C82.318 271.353 83.9575 270.193 85.8972 270.483C89.7014 271.042 93.5057 271.59 97.2993 272.18C98.0173 272.298 98.178 272.041 98.2637 271.407C99.3139 263.997 100.396 256.597 101.457 249.197C102.604 241.164 107.651 207.269 108.798 199.236C109.291 195.799 111.798 181.204 112.323 177.778C112.559 176.199 113.963 175.448 115.345 176.092Z" fill="#969E9B"/>
<path d="M110.802 300.243L110.298 288.73L108.905 299.954L110.802 300.243Z" fill="#C9A362"/>
<path d="M102.036 298.784L101.768 291.631L99.9678 298.418L102.036 298.784Z" fill="#C9A362"/>
<path d="M86.4328 296.054L87.2901 285.465L84.1074 295.646L86.4328 296.054Z" fill="#C9A362"/>
<path d="M329.092 84.9652C329.092 101.408 324.12 119.01 300.941 119.601C278.929 120.17 272.789 101.741 272.789 85.2981C272.789 68.8556 285.391 65 300.941 65C316.49 65 329.092 68.5119 329.092 84.9652Z" fill="#00A0CC"/>
<path d="M282.144 79.4343C282.144 79.4343 283.976 75.5466 288.188 77.7589" stroke="#0D3F60" stroke-width="0.9238" stroke-miterlimit="10" stroke-linecap="round"/>
<path d="M304.852 79.4457C304.852 79.4457 303.544 75.4935 299.333 77.6736" stroke="#0D3F60" stroke-width="0.9238" stroke-miterlimit="10" stroke-linecap="round"/>
<path d="M300.64 89.1855C300.64 89.1855 300.801 92.7082 293.782 93.0089C288.006 93.2667 287.459 89.497 287.459 89.497L300.64 89.1855Z" fill="#0D3F60"/>
<path d="M296.568 86.2548C296.568 83.6235 298.84 81.4863 301.648 81.4863C304.456 81.4863 306.727 83.6235 306.727 86.2548" fill="white"/>
<path d="M281.469 86.2548C281.469 83.6235 283.751 81.4863 286.57 81.4863C289.388 81.4863 291.671 83.6235 291.671 86.2548" fill="white"/>
<path d="M281.994 83.8383L279.262 82.7536L281.684 84.6653C281.651 84.7727 281.63 84.8801 281.609 84.9767L279.24 84.676L281.501 85.6319C281.469 85.9326 281.48 86.1259 281.48 86.1259C282.819 81.8837 285.563 81.5185 286.109 81.4863C283.709 81.5185 282.552 82.6892 281.994 83.8383Z" fill="#0D3F60"/>
<path d="M286.108 81.4963C286.141 81.4963 286.173 81.4963 286.205 81.4963C286.205 81.4856 286.173 81.4856 286.108 81.4963Z" fill="#0D3F60"/>
<path d="M308.956 84.675L306.588 84.9758C306.566 84.8791 306.545 84.7717 306.513 84.6643L308.935 82.7526L306.202 83.8374C305.645 82.6775 304.487 81.5176 302.087 81.4961C302.633 81.5283 305.388 81.8935 306.716 86.1357C306.716 86.1357 306.727 85.9423 306.695 85.6416L308.956 84.675Z" fill="#0D3F60"/>
<path d="M319.5 93.9863C319.5 93.9863 320.068 108.313 305.591 106.52" stroke="#108AB2" stroke-width="1.7568" stroke-miterlimit="10" stroke-linecap="round"/>
<path d="M305.409 103.845C306.18 104.146 306.748 105.059 306.748 106.176C306.748 107.604 305.859 108.829 304.755 108.914L302.033 109.119C302.012 109.119 301.99 109.119 301.98 109.119C301.969 109.119 301.958 109.119 301.947 109.129L298.272 109.398C297.982 109.419 297.747 109.129 297.747 108.764C297.747 108.388 297.982 108.066 298.272 108.045L300.276 107.894C300.201 107.722 300.147 107.54 300.104 107.346L297.704 107.529C297.414 107.551 297.179 107.261 297.179 106.895C297.179 106.52 297.414 106.197 297.704 106.176L300.104 105.993C300.136 105.811 300.19 105.639 300.254 105.478L298.197 105.628C297.907 105.65 297.672 105.36 297.672 104.994C297.672 104.619 297.907 104.296 298.197 104.275L301.626 104.017C301.733 103.985 301.851 103.953 301.958 103.942L301.304 103.727C301.026 103.641 300.865 103.276 300.951 102.911C301.037 102.546 301.326 102.32 301.605 102.417" fill="#A1CBEC"/>
<path d="M303.169 117.937L305.044 138.428H307.305L309.181 117.926" fill="#00A0CC"/>
<path d="M292.56 117.871L294.435 138.427H296.685L298.571 117.936" fill="#00A0CC"/>
<path d="M292.999 128.172H297.939L296.728 138.375H294.21L292.999 128.172Z" fill="#5652A2"/>
<path d="M303.705 128.172H308.645L307.434 138.375H304.916L303.705 128.172Z" fill="#5652A2"/>
<path d="M288.616 138.429C288.616 136.002 290.577 134.025 293.01 134.025C295.432 134.025 297.404 135.991 297.404 138.429" fill="#4F4A47"/>
<path d="M299.312 138.429C299.312 136.002 301.273 134.025 303.705 134.025C306.127 134.025 308.099 135.991 308.099 138.429" fill="#4F4A47"/>
<path d="M125.558 131.918L120.929 129.878L125.033 133.465C124.979 133.669 124.936 133.862 124.904 134.056L120.886 133.497L124.722 135.291C124.669 135.86 124.679 136.225 124.679 136.225C126.823 128.664 131.13 127.655 132.352 127.526C128.419 127.644 126.49 129.781 125.558 131.918Z" fill="#0D3F60"/>
<path d="M173.085 133.498L169.066 134.056C169.023 133.863 168.991 133.669 168.937 133.465L173.042 129.878L168.412 131.919C167.48 129.782 165.551 127.655 161.607 127.526C162.84 127.655 167.137 128.665 169.28 136.226C169.28 136.226 169.291 135.86 169.237 135.291L173.085 133.498Z" fill="#0D3F60"/>
<path d="M175.228 127.526C175.345 127.526 175.453 127.505 175.57 127.505C175.57 127.505 175.442 127.505 175.228 127.526Z" fill="#0D3F60"/>
<path d="M202.672 127.526C202.458 127.505 202.329 127.505 202.329 127.505C202.458 127.494 202.554 127.516 202.672 127.526Z" fill="#0D3F60"/>
<path d="M303.062 86.2544C303.062 85.073 302.108 84.1172 300.929 84.1172C299.751 84.1172 298.797 85.073 298.797 86.2544" fill="#0D3F60"/>
<path d="M288.531 86.2544C288.531 85.073 287.577 84.1172 286.398 84.1172C285.219 84.1172 284.266 85.073 284.266 86.2544" fill="#0D3F60"/>
<path d="M100.804 229.576C82.0608 221.908 92.7235 191.805 92.7235 191.805" stroke="#0A8AB2" stroke-width="4.3132" stroke-miterlimit="10" stroke-linecap="round"/>
<path d="M112.999 244.01C113.62 244.408 114.488 244.172 114.928 243.484C115.367 242.797 115.217 241.895 114.596 241.497L110.288 238.705C110.652 238.479 110.995 238.211 111.316 237.91L116.482 241.25C117.103 241.648 117.971 241.411 118.411 240.724C118.85 240.037 118.7 239.135 118.078 238.737L112.913 235.397C113.042 235.021 113.127 234.635 113.181 234.248L117.618 237.126C118.239 237.524 119.107 237.287 119.546 236.6C119.986 235.913 119.836 235.011 119.214 234.613L111.82 229.823C111.616 229.619 111.402 229.437 111.156 229.265L112.881 229.705C113.599 229.888 114.392 229.404 114.628 228.62C114.863 227.836 114.478 227.052 113.749 226.87L104.554 224.539C104.201 224.453 103.836 224.518 103.515 224.711C101.425 224.303 99.0891 225.302 97.771 227.375C96.0886 230.017 96.6566 233.443 99.0248 234.978L104.887 238.769C104.929 238.802 104.972 238.812 105.015 238.845C105.037 238.855 105.047 238.877 105.069 238.888L112.999 244.01Z" fill="#A1CBEC"/>
<path d="M229.302 200.289V223.551C229.302 238.834 233.342 257.005 256.918 257.005H265.255C288.112 257.005 292.87 238.845 292.87 223.551V167.952C292.87 155.021 282.411 144.539 269.509 144.539H252.663C239.761 144.539 229.302 155.021 229.302 167.952V180.302V200.289Z" fill="#00A0CC"/>
<path d="M262.115 249.96L267.227 293.048H270.774L275.886 249.949" fill="#00A0CC"/>
<path d="M265.105 276.863H272.896L270.978 292.962H267.013L265.105 276.863Z" fill="#EC1651"/>
<path d="M258.172 293.047C258.172 289.213 261.269 286.109 265.095 286.109C268.92 286.109 272.017 289.213 272.017 293.047" fill="#4F4A47"/>
<path d="M245.602 249.96L250.713 293.048H254.271L259.372 249.949" fill="#00A0CC"/>
<path d="M248.592 276.863H256.393L254.475 292.962H250.499L248.592 276.863Z" fill="#EC1651"/>
<path d="M241.658 293.047C241.658 289.213 244.755 286.109 248.581 286.109C252.407 286.109 255.504 289.213 255.504 293.047" fill="#4F4A47"/>
<path d="M278.629 205.83C278.629 205.83 289.881 221.36 274.557 236.932" stroke="#108AB2" stroke-width="3.073" stroke-miterlimit="10" stroke-linecap="round"/>
<path d="M271.567 233.313C272.907 232.733 274.728 233.195 276.1 234.58C277.847 236.352 278.233 238.994 276.957 240.455L273.807 244.053C273.785 244.074 273.764 244.096 273.732 244.128C273.721 244.139 273.71 244.16 273.7 244.171L269.445 249.025C269.113 249.401 268.459 249.337 268.009 248.875C267.548 248.413 267.452 247.726 267.784 247.339L270.099 244.697C269.799 244.579 269.499 244.418 269.209 244.235L266.434 247.404C266.102 247.78 265.448 247.715 264.998 247.253C264.548 246.791 264.441 246.104 264.773 245.717L267.548 242.549C267.377 242.281 267.227 242.002 267.109 241.722L264.73 244.45C264.398 244.826 263.744 244.762 263.294 244.3C262.833 243.838 262.737 243.151 263.069 242.764L267.045 238.232C267.131 238.049 267.248 237.888 267.366 237.727L266.284 238.275C265.834 238.5 265.18 238.243 264.848 237.684C264.505 237.126 264.601 236.492 265.052 236.256" fill="#A1CBEC"/>
<path d="M306.834 268.325C307.017 268.529 307.338 268.551 307.542 268.357L325.427 252.097C325.631 251.915 325.652 251.593 325.459 251.388C325.277 251.184 324.956 251.163 324.752 251.356L306.867 267.616C306.663 267.799 306.642 268.121 306.834 268.325Z" fill="#515252"/>
<path d="M340.279 269.463H302.344V291.404H340.279V269.463Z" fill="#444445"/>
<path d="M311.582 266.585C316.768 266.585 321.944 266.574 327.131 266.595C330.86 266.606 334.6 266.703 338.33 266.671C340.816 266.649 342.005 268.271 341.898 270.301C341.855 271.149 341.952 271.89 342.841 272.309C343.173 272.459 343.248 272.846 343.28 273.2C343.516 275.219 343.516 277.239 343.28 279.247C343.227 279.676 343.098 280.074 342.691 280.299C341.984 280.686 341.887 281.33 341.898 282.061C341.919 284.885 341.898 287.71 341.909 290.534C341.909 291.265 341.855 291.984 341.641 292.682C340.891 294.025 339.712 294.497 338.222 294.497C326.66 294.487 315.086 294.487 303.523 294.497C302.023 294.497 300.866 293.982 300.083 292.682C299.826 291.834 299.794 290.964 299.794 290.083C299.805 283.349 299.805 276.626 299.794 269.893C300.083 267.809 301.058 266.778 302.848 266.714C303.759 266.681 304.681 266.8 305.591 266.671L311.582 266.585ZM323.616 280.342C323.788 275.832 320.069 270.483 313.843 270.472C305.784 270.451 300.587 279.827 306.449 287.377C314.497 294.218 323.82 288.204 323.616 280.342ZM335.265 276.959C336.101 276.959 336.926 276.959 337.762 276.959C338.758 276.959 338.758 276.959 338.662 274.994C338.662 274.919 338.662 274.844 338.651 274.768C338.63 274.457 338.555 274.285 338.383 274.274C338.244 274.274 338.115 274.264 337.976 274.264C336.24 274.264 334.493 274.242 332.757 274.274C331.75 274.285 331.868 273.888 331.868 276.143C331.868 276.938 331.878 276.959 332.307 276.959C333.293 276.97 334.279 276.959 335.265 276.959ZM335.233 272.792C336.079 272.792 336.926 272.814 337.783 272.792C338.769 272.76 338.662 273.211 338.672 270.924C338.672 270.848 338.672 270.773 338.672 270.698C338.672 270.322 338.565 270.14 338.383 270.129C338.233 270.118 338.072 270.118 337.922 270.118C336.208 270.118 334.493 270.107 332.768 270.118C331.793 270.129 331.889 269.839 331.878 272.03C331.878 272.642 331.996 272.814 332.286 272.803C333.261 272.771 334.247 272.792 335.233 272.792Z" fill="#656767"/>
<path d="M313.714 287.925C309.727 287.893 306.48 284.607 306.48 280.579C306.48 276.595 309.781 273.266 313.746 273.244C317.743 273.233 321.097 276.649 321.033 280.665C320.98 284.714 317.7 287.958 313.714 287.925Z" fill="#515252"/>
<path d="M342.648 280.643C342.155 280.643 341.748 280.235 341.748 279.741V271.59C341.748 271.096 342.155 270.688 342.648 270.688C343.141 270.688 343.548 271.096 343.548 271.59V279.741C343.548 280.235 343.141 280.643 342.648 280.643Z" fill="#444445"/>
<path d="M134.228 144.002C134.228 144.002 136.649 151.283 147.859 150.832C159.068 150.381 159.807 143.486 159.807 143.486L134.228 144.002Z" fill="#0D3F60"/>
<path d="M123.286 124.283C123.286 124.283 126.973 116.798 135.085 121.212" stroke="#0D3F60" stroke-width="1.5" stroke-miterlimit="10" stroke-linecap="round"/>
<path d="M169.537 124.283C169.537 124.283 166.848 116.647 158.735 121.061" stroke="#0D3F60" stroke-width="1.5" stroke-miterlimit="10" stroke-linecap="round"/>
<path d="M240.479 185.93C240.479 185.93 241.83 191.675 248.485 191.504C255.139 191.332 255.664 185.93 255.664 185.93H240.479Z" fill="#0D3F60"/>
<path d="M232.174 180.012C232.174 176.328 235.153 173.332 238.839 173.332C242.526 173.332 245.505 176.318 245.505 180.012" fill="white"/>
<path d="M253.274 180.012C253.274 176.328 256.254 173.332 259.94 173.332C263.626 173.332 266.605 176.318 266.605 180.012" fill="white"/>
<path d="M266.67 170.508C266.67 170.508 264.045 165.171 258.258 168.317" stroke="#0D3F60" stroke-width="1.2798" stroke-miterlimit="10" stroke-linecap="round"/>
<path d="M233.246 170.508C233.246 170.508 235.164 165.063 240.94 168.21" stroke="#0D3F60" stroke-width="1.2798" stroke-miterlimit="10" stroke-linecap="round"/>
<path d="M266.026 176.703L269.809 175.2L266.455 177.842C266.498 177.992 266.53 178.132 266.562 178.282L269.841 177.874L266.712 179.195C266.755 179.614 266.744 179.882 266.744 179.882C264.89 174.008 261.086 173.492 260.325 173.449C263.647 173.492 265.255 175.103 266.026 176.703Z" fill="#0D3F60"/>
<path d="M229.077 177.843L232.356 178.251C232.388 178.111 232.421 177.961 232.463 177.811L229.109 175.169L232.892 176.672C233.664 175.072 235.271 173.461 238.593 173.418C237.832 173.461 234.028 173.966 232.174 179.851C232.174 179.851 232.163 179.583 232.206 179.164L229.077 177.843Z" fill="#0D3F60"/>
<path d="M234.017 175.587C233.374 176.243 232.87 177.048 232.56 177.929C233.738 178.756 235.367 178.734 236.525 177.768C237.703 176.78 238.003 175.136 237.36 173.805C236.492 173.966 235.678 174.309 234.971 174.793L234.017 175.587Z" fill="#0D3F60"/>
<path d="M254.732 175.115C254.089 175.77 253.585 176.575 253.274 177.456C254.453 178.283 256.082 178.262 257.239 177.295C258.418 176.307 258.718 174.664 258.075 173.332C257.207 173.493 256.393 173.837 255.686 174.32L254.732 175.115Z" fill="#0D3F60"/>
</svg>
