<?xml version="1.0" encoding="utf-8"?>
<!-- Generator: Adobe Illustrator 25.0.1, SVG Export Plug-In . SVG Version: 6.00 Build 0)  -->
<svg version="1.1" id="Layer_1" xmlns="http://www.w3.org/2000/svg" xmlns:xlink="http://www.w3.org/1999/xlink" x="0px" y="0px"
	 viewBox="0 0 153.1 154.8" style="enable-background:new 0 0 153.1 154.8;" xml:space="preserve">
<style type="text/css">
	.st0{fill:#FFFFFF;}
</style>
<g>
	<path class="st0" d="M65.7,90c-1.1,0-2.2,0-3.2,0c-1.4,0-2.8,0-4.2,0.2C55.9,90.4,53.4,90,51,90c-0.2,0-0.4,0-0.6,0
		c-0.1,1.1-0.2,2.2-0.2,3.3c0,1.2,0,2.3,0,3.5c0,0.3-0.1,0.4-0.3,0.4c-0.9,0-1.8,0-2.7,0c-0.2,0-0.3-0.1-0.4-0.3
		c-0.2-0.7-0.2-1.4,0-2.1c0.5-1.3,0.7-2.7,0.8-4.1c0-0.2,0-0.5,0.1-0.7c0.5-1,0.4-2.1,0.5-3.2c0.1-1.9,0.1-3.7,0.2-5.6
		c0.1-1.6,0.5-3.1,1.2-4.5c0.7-1.3,0.9-2.7,0.9-4.1c0-1.6,0.1-3.1,0.1-4.7c0-0.7-0.1-1.5-0.1-2.2c-0.1-1.4-0.1-2.8,0.1-4.2
		c0.2-1.5,0.5-2.9,0.8-4.4c0-0.1,0-0.4-0.1-0.4C50,56,49.1,55.2,48.6,54c-0.6,0.1-1.1,0.2-1.7,0.2c-0.3,0-0.5-0.1-0.6-0.4
		c-0.2-0.4-0.6-0.7-0.7-1.1c-0.4-1.2-0.4-2.4-0.4-3.7c0-0.8-0.1-1.7-0.6-2.5c-0.4-0.5-0.5-1.3-0.7-1.9c0-0.1-0.1-0.3-0.2-0.4
		c-0.7-0.8-1.2-1.7-1.1-2.9c0.1-1.7,0.8-3.2,2.3-4.2c0.1-0.1,0.1-0.2,0.1-0.3c0-0.4,0-0.8,0.1-1.3c-0.8-0.5-1.3-1.3-1.6-2.3
		c-0.1-0.3-0.2-0.5-0.3-0.8c-0.1-0.4-0.2-0.8-0.3-1.3c-0.2,0-0.5,0.1-0.8,0.1c-0.3-0.1-0.6-0.4-0.9-0.6c-0.1-0.1-0.2-0.1-0.2-0.2
		c-0.1-0.2-0.3-0.3-0.3-0.5c0-0.4,0.1-0.7,0.1-1.1c0-0.1,0.1-0.1,0.1-0.1c0,0,0.1-0.1,0.2-0.1c0.2-0.6,1-0.7,1.4-1.3
		c0.2-0.3,0.7-0.3,1.1-0.2c0.1,0,0.1,0.1,0.2,0.1c0.4-0.2,0.7,0.2,1,0.3c0.1,0.1,0.2,0.3,0.3,0.4c0.1,0.1,0.1,0.2,0.1,0.3
		c0.9-0.5,1.7-0.4,2.6-0.1c0.8,0.3,1.6,0.7,2.1,1.4c0.9,1.4,1,2.8,0,4.3c0.3,0,0.6-0.1,0.8,0c0.7,0.4,1.4,0.1,2.1,0
		c0.6,0,1.2,0,1.7-0.1c0.6-0.1,0.7-0.2,0.6-0.8c0-0.4,0-0.8,0-1.3c-0.2-0.1-0.6-0.1-0.7-0.5c0,0-0.1-0.1-0.1-0.1
		c-0.9-0.3-1.1-1.2-1.5-1.9c-0.1-0.1-0.1-0.2-0.1-0.3c0-1.2,0.1-2.5,0.1-3.7c0-0.1,0.1-0.2,0.2-0.3c0.7-0.5,1.4-1.1,2.1-1.6
		c0.1-0.1,0.3-0.1,0.5-0.1c0.5,0,1,0,1.5-0.3c0.4-0.2,0.9,0,1.4,0c0.1,0,0.2,0.1,0.2,0.2c0.4,0.6,0.9,1,1.5,1.4
		c0.5,0.3,1,0.8,1.4,1.2c0.6,0.7,0.6,1.5,0.4,2.3c-0.1,0.4,0,0.7,0.3,1c0.6,0.4,0.6,0.8,0.3,1.3c0.4,0.5,0.4,1.2,0,1.7
		c-0.1,0.1-0.1,0.3-0.1,0.4c0,0.6-0.2,0.8-0.8,0.8c-0.7,0-1.4-0.1-2.2-0.2c-0.1,0.6,0,1.2,0.4,1.7c0.3,0.5,0.8,0.6,1.4,0.5
		c0.9-0.2,1.7-0.5,2.5-0.9c0.7-0.4,1.6-0.6,2.4-1c0.4-0.2,0.8-0.4,1.1-0.6c0.4-0.4,0.8-0.8,1.4-1c0.3-0.1,0.6-0.4,0.9-0.7
		c0.8-0.7,1.6-1.4,2.4-2.1c-0.8-0.5-1.6-1-2.4-1.5c-1.1-0.6-2.2-1.1-3.3-1.7c-0.9-0.6-2-0.9-3-1.2c-0.5-0.2-0.6-0.3-0.5-0.9
		c0.6-0.2,1.2,0.2,1.8,0.2c-0.1-0.1-0.2-0.2-0.3-0.2c-0.5-0.2-1-0.4-1.6-0.5C62.1,23.2,62,23,62,22.3c0.2,0,0.4,0,0.6-0.1
		c-0.1-0.1-0.3-0.2-0.4-0.3c-0.2-0.3,0-0.7,0.4-0.7c0.3,0,0.6,0.1,0.9,0.2c0.2,0,0.3,0.1,0.5,0.2c-0.3-0.2-0.6-0.3-0.8-0.5
		C63.1,21,63,20.9,63,20.8c-0.1-0.5,0-0.6,0.5-0.6c0.3,0,0.5,0.1,0.7,0.3c0.7,0.4,1.4,0.8,2.1,1.1c0,0,0,0,0.1,0
		c0-0.4-0.1-0.8-0.1-1.1c0-0.5,0.2-0.6,0.5-0.6c0.4,0.6,0.8,1.2,1.2,1.8c0.2,0.4,0.5,0.8,0.6,1.2c0.4,0.9,1.1,1.6,1.9,2
		c1.2,0.6,2.5,1.1,3.8,1.7c0.1,0,0.3,0,0.4-0.1c0.6-0.6,1.2-1.2,1.8-1.7c1.6-1.2,2.6-3,3.9-4.4c0.6-0.6,1.3-1.1,2-1.7
		c0.2-0.2,0.6-0.2,0.8-0.3c0.2,0.8,0.1,1.1-0.6,2.1c0.3,0,0.5,0,0.7,0c0.2,0,0.3,0.1,0.3,0.4c0,0.2,0,0.4-0.3,0.4
		c-0.4,0-0.8,0-1.2,0c-0.2,0-0.3,0.1-0.5,0.1c0,0,0,0.1,0,0.1c0.2,0,0.4,0,0.7,0c0.3,0,0.6,0,0.6,0.4c0,0.4-0.3,0.4-0.5,0.4
		c-0.3,0-0.7,0-1,0.1c-0.1,0-0.2,0.1-0.3,0.2c0,0.1,0,0.3,0.1,0.3c0.2,0.1,0.4,0.2,0.6,0.2c0.5,0,0.9,0.1,1.1,0.5
		c0.1,0.1,0.1,0.4,0.1,0.5c0,0.1-0.3,0.1-0.4,0.1c-1.1-0.2-2.1,0.1-3,0.7c-0.5,0.4-0.9,0.9-1.4,1.3c0.2,0.4,0.5,0.8,0.7,1.2
		c0.3,0.5,0.2,0.6-0.2,0.9c0.9,0.5,1.8,1,2.7,1.4c1,0.5,2.1,0.9,3.1,1.3c0.6,0.2,1.2,0.3,1.8,0.4c0.9,0.1,1.9,0.1,2.8,0.2
		c1.5,0.2,2.9,0.4,4.4,0.6c0.5,0.1,0.5,0.1,0.7-0.4c0-0.2,0.1-0.3,0.1-0.5c0.1-0.3,0.1-0.5-0.2-0.7c-0.5-0.4-0.6-1-0.8-1.6
		c0-0.1-0.2-0.2-0.2-0.4c-0.1-0.1-0.2-0.3-0.3-0.4c-0.1-0.5-0.2-1-0.3-1.6c0-0.2,0.1-0.4,0.2-0.5c0-0.1,0.1-0.2,0.1-0.3
		c0-0.5,0-1.1,0-1.6c0-0.5,0.1-1,0.2-1.4c0.2-0.8,0.6-1.4,1.4-1.8c0.7-0.4,1.4-0.5,2.1-0.5c1.1,0,2.3,0.2,3.1,1.2
		c0.4,0.5,0.6,1,0.7,1.6c0.1,0.6,0.1,1.2,0.1,1.8c0,0.1,0,0.2,0,0.3c0,0.3-0.1,0.6,0.1,0.9c0.1,0.1,0.1,0.4,0,0.5
		c-0.1,0.4-0.1,0.9-0.2,1.3c-0.1,0.2-0.2,0.4-0.4,0.6c-0.1,0.2-0.2,0.4-0.2,0.5c-0.2,0.4-0.3,0.8-0.4,1.2c0,0.1-0.1,0.2-0.1,0.4
		c-0.1,0.7,0,0.7,0.6,1c0.5,0.2,0.9,0.2,1.5,0c0.9-0.3,1.8-0.4,2.7-0.7c1.2-0.4,2.4-0.5,3.6-0.7c0.1,0,0.2-0.1,0.2-0.1
		c1.1-0.6,2.1-1.1,3.2-1.8c0.6-0.3,1-0.8,1.5-1.2c1.8-1.4,3.7-2.4,5.8-3.2c1.4-0.5,2.7-1.3,4.1-1.9c0.5-0.2,0.7-0.6,0.6-1.1
		c-0.1-0.8,0.1-1.7,0.2-2.5c0.1-0.5,0-1.1,0-1.6c0.6-0.2,1,0,1,0.5c0,0.4,0,0.9,0,1.3c0,0.2,0,0.3,0,0.5c0.7-0.4,1.3-0.8,1.8-1.4
		c0.4-0.4,0.7-0.8,1.1-1.2c0.1-0.1,0.4-0.2,0.6-0.3c0.2,0,0.5,0,0.5,0.2c0.1,0.2,0,0.5-0.1,0.6c-0.2,0.4-0.6,0.7-0.8,1
		c-0.1,0.1-0.1,0.1-0.2,0.3c0.4-0.3,0.9-0.6,1.3-0.9c0.1,0,0.1-0.1,0.2-0.1c0.3,0,0.5-0.1,0.8-0.1c0,0.2,0.1,0.4,0.1,0.7
		c0,0.2,0,0.4,0,0.6c0.1,0.5-0.1,1-0.6,1.3c-0.4,0.3-0.8,0.6-1.2,1c0,0,0,0.1,0,0.1c0.6-0.2,1.1-0.4,1.7-0.7c0,0.2,0,0.2,0,0.2
		c0,1.1,0.2,0.8-0.8,1.2c-0.8,0.3-1.5,0.6-2.2,1.2c-1.1,0.9-2.3,1.8-3.5,2.6c-1.5,1-3,2.1-4.5,3.1c-0.6,0.4-1.3,0.7-2,0.9
		c-1.8,0.6-3.2,1.8-4.6,3c-0.8,0.7-1.6,1.3-2.3,2c-0.1,0.1-0.2,0.3-0.3,0.4c-0.1,0.2-0.2,0.5-0.2,0.7c-0.1,0.4-0.4,0.7-0.8,0.7
		c-0.2,0-0.3,0-0.5,0.1c-0.7,0.1-1.2,0.5-1.5,1.1c-0.9,1.9-1.6,3.8-1.8,6c-0.2,2.1,0,4.1,0.1,6.2c0.1,1.6,0,3.2,0,4.8
		c0,0.2,0,0.3,0,0.5c0,0.3,0,0.5-0.4,0.6c-0.1,0-0.2,0.2-0.2,0.3c0,0.6,0,1.3,0,1.9c0.3,2.3,0.7,4.7,1,7c0.1,0.5,0.2,1,0.2,1.4
		c0,0.4-0.1,0.8-0.2,1.2c0,0.2-0.1,0.4-0.1,0.6c0.1,1.1,0.2,2.2,0.3,3.4c0.1,0.8,0.1,1.7-0.1,2.5c-0.1,0.6-0.2,1.4-0.1,2
		c0.3,1,0.3,2,0.5,3c0.2,1.2,0.2,2.4,0.2,3.7c-0.1,1.7-0.2,3.5-0.4,5.2c-0.2,1.5,0,2.9,0.4,4.4c0.2,0.6,0.6,1,1,1.4
		c0.8,0.7,1.5,1.5,1.4,2.7c0,0.6-0.1,0.7-0.7,0.7c-1,0-1.9,0-2.9,0c-0.2,0-0.3-0.1-0.5-0.2c-0.4-0.4-0.8-0.9-1.2-1.3
		c-0.5-0.5-0.9-1.1-0.8-1.9c0-0.2,0.1-0.4,0.2-0.6c0.3-0.3,0.3-0.7,0.3-1.1c-0.1-0.9-0.2-1.8-0.3-2.7c-0.1-1.6-0.5-3.1-0.9-4.7
		c-0.3-1.2-0.6-2.4-0.6-3.6c0-0.4-0.1-0.8-0.2-1.1c0-0.1-0.2-0.3-0.4-0.4c-1.1-0.4-1.3-1.2-1.5-2.3c-0.3-1.9-0.6-3.7-1.1-5.5
		c-0.4-1.3-1-2.6-1.6-3.8c-0.1,0-0.1,0-0.2,0c-0.4,1.3-0.9,2.6-1.3,3.9c-0.1,0.3-0.1,0.7-0.1,1c0,0.7-0.1,1.4-0.1,2.2
		c0,0.1,0,0.3,0.1,0.4c0.1,0.5,0.2,0.9-0.2,1.3c-0.5,0.5-0.6,1-0.6,1.7c0.1,1.6-0.2,3.1-0.6,4.7c-0.4,2-0.8,4.1-0.7,6.2
		c0,0.8,0.2,1.6,0.3,2.4c0.2,1,0,1.5-0.9,1.8c-0.9,0.2-1.7,0.5-2.6,0.7c-0.5,0.1-1,0.4-1.4,0.8c-0.9,0.9-2.8,1-3.9,0.3
		c-0.5-0.4-0.7-1.1-0.2-1.6c0.3-0.4,0.8-0.8,1.2-1.1c0.7-0.4,1.4-0.8,2.2-1.2c1.1-0.5,1.5-1.4,1.8-2.5c0.3-1.4,0.2-2.7,0-4.1
		c-0.2-1.4-0.4-2.9-0.6-4.3c-0.1-0.6,0-1.1,0-1.7c0-0.2-0.2-0.4-0.2-0.6c-0.1-0.2-0.1-0.4-0.1-0.5c0-1.4,0.1-2.7,0.1-4.1
		c0-1.3-0.2-2.6-0.7-3.8c-0.2-0.5-0.2-1.2-0.3-1.7c-0.3-1.3-0.1-2.5,0.1-3.8c0.2-1.5,0.4-3,0.6-4.5c0.1-0.7,0.2-1.5,0.5-2.2
		c0.4-1,0.4-2.1,0.6-3.1c0.3-1.6,0-3.3,0-4.9c0-2-0.3-4-0.4-6c0-0.6,0-1.2-0.1-1.8c0-0.4,0-0.9-0.1-1.3c-0.1-0.8-0.4-1.4-1.2-1.8
		c-0.5-0.2-0.9-0.5-1.4-0.8c-0.1-0.1-0.2-0.3-0.2-0.5c0-0.2-0.1-0.3-0.3-0.4c-3.2-1.7-6.3-3.5-9.5-5.2c-0.1-0.1-0.4-0.1-0.5,0
		c-1.5,1.2-3.1,2.4-4.6,3.7c-1.5,1.2-3,2.4-4.4,3.6c-0.2,0.2-0.4,0.4-0.5,0.5c-0.9,0.9-1.2,2-0.8,3.2c0.1,0.3,0.2,0.6,0.3,0.9
		c0.4,0.7,0.3,1.5,0.2,2.3c-0.1,0.8-0.3,1.6-0.4,2.5c-0.1,1.2-0.2,2.4-0.2,3.6c0,0.4,0.2,0.8,0.4,1.2c0.4,0.7,0.6,1.5,0.3,2.3
		c-0.1,0.5,0,1.1,0.1,1.6c0.7,2.4,1.1,4.8,1.5,7.3c0.1,0.9,0.2,1.8,0.3,2.7c0.1,1.7,0.3,3.4,0.4,5.1c0.1,1.7,0.3,3.3,0.4,5
		c0.1,1.2,0.2,2.4,0.2,3.6c0,1.3-0.2,2.6-0.3,3.9c-0.1,0.9-0.2,1.8-0.2,2.8c0,0.8,0.1,1.7,0.2,2.5c0.3,1.4,0.6,2.8,0.9,4.2
		c0.5-0.3,0.9-0.4,0.9-0.9c0-0.1,0.2-0.3,0.4-0.3c0.2-0.1,0.3-0.3,0.4-0.5c0.1-1.3,0.2-2.6,0.3-3.9c0-0.3,0-0.6-0.2-0.9
		c-0.2-0.3-0.1-0.7,0.1-1c0.1-0.1,0.1-0.3,0.1-0.4c0-0.3,0.1-0.6,0.4-0.8c0.1-0.1,0.2-0.4,0.3-0.6c0.1-2,0.2-4,0.3-6
		c0-0.5,0.1-1.1,0.3-1.6c0.1-0.2,0-0.3-0.2-0.4c-0.4-0.2-0.7-0.4-1-0.7c-0.2-0.2-0.2-0.6,0-1c0.6-1.1,1-2.2,1.3-3.4
		c0.2-1.1,0.2-2.2,0.4-3.3c0.2-0.9,0-1.8-0.1-2.7c0-0.4-0.2-0.5-0.6-0.5c-0.5,0-0.6-0.1-0.5-0.6c0.2-0.7,0-1.2-0.4-1.7
		c-0.5-0.7-1-1.4-1.5-2.1c-0.7-0.9-1-2-1.4-3c-0.2-0.4-0.4-0.8-0.6-1.2c-0.3-0.7-0.6-1.4-0.9-2.2c-0.1-0.2-0.1-0.4-0.1-0.6
		c0-0.2,0.2-0.3,0.4-0.4c0,0,0.1,0,0.1,0c0-0.1,0-0.2,0-0.3c0-0.5,0.2-0.7,0.6-0.8c0.3,0,0.7-0.1,1,0c0.1,0,0.3,0.2,0.4,0.3
		c0.1,0.2,0.2,0.4,0.2,0.6c0.4,0.1,0.6,0.2,0.7,0.8c0,0.6-0.1,1.1-0.1,1.7c0,0.2,0,0.4,0.1,0.5c0.8,1.9,2,3.6,3.3,5.2
		c0.4,0.4,0.9,0.7,1.5,0.9c0.2,0.1,0.6-0.1,0.9-0.2c0.3-0.2,0.3-0.5,0.1-0.8c-0.2-0.2-0.5-0.4-0.6-0.7c-0.2-0.4-0.3-0.8-0.4-1.2
		c-0.2-0.8-0.3-1.5-0.4-2.3c-0.1-0.4-0.1-0.8,0-1.1c0-0.2,0.1-0.4,0.3-0.6c0.6-1,1.6-1.7,2.8-1.8c0.5-0.1,1,0.1,1.5,0.2
		c0.5,0.2,1,0.5,1.5,0.9c0.6,0.5,0.9,1.2,0.9,2c0,0.8-0.2,1.5-0.4,2.2c0,0.1-0.1,0.2,0,0.3c0.1,0.6-0.3,1-0.4,1.5
		c0,0.1-0.1,0.1-0.1,0.1c-0.5,0.1-0.5,0.5-0.8,0.8c-0.1,0.1-0.1,0.3,0,0.4c0.3,1.3,0.6,1.4,2,1.1c0.4-0.1,0.8-0.4,1.1-0.7
		c1.3-1.2,1.7-2.9,2.1-4.5c0.3-1.1,0.6-2.1,0.8-3.2c0.1-0.3,0.2-0.5,0.5-0.7c0.3-0.2,0.6-0.5,1-0.8c0.3-0.2,0.6-0.3,0.9,0
		c0.1,0.1,0.2,0.1,0.3,0.1c0.3,0,0.4,0,0.4,0.3c0.5,0.1,0.6,0.4,0.3,0.8c0,0.1-0.1,0.2,0,0.2c0,0.3,0,0.5-0.2,0.8
		c-0.6,0.6-1.1,1.3-1.6,1.9c-0.2,0.3-0.2,0.7-0.2,1.1c-0.1,0.5-0.2,1-0.3,1.5c-0.2,1.5-1.1,2.6-1.9,3.8c-0.3,0.4-0.6,0.9-0.9,1.3
		c-0.1,0.1-0.1,0.3-0.1,0.5c0,0.3-0.1,0.7-0.5,0.7c-0.6,0.1-0.7,0.6-0.9,1c-0.4,1-0.3,2.1-0.3,3.2c0.1,1.9,0.2,3.9,0.4,5.8
		c0.1,0.7-0.2,1-0.8,1.3c-0.2,0.1-0.4,0.2-0.7,0.3c0.1,1.1,0.3,2.3,0.4,3.4c0,0.4,0,0.8,0,1.1c0,1.1,0,2.2,0,3.4
		c0,0.1,0,0.2,0.1,0.3c0.3,0.3,0.3,0.6,0.2,0.9c0,0.1,0,0.2,0.1,0.2c0.4,0.3,0.3,0.7,0.2,1c0,0.1,0,0.2,0.1,0.3
		c0.3,0.3,0.3,0.5,0,0.8c-0.1,0.1-0.1,0.3-0.1,0.4c0,1.3,0.1,2.6,0.2,3.9c0,0.1,0.1,0.3,0.2,0.4c0.2,0.2,0.4,0.4,0.6,0.6
		c0.1,0.1,0.2,0.3,0.1,0.4c0,0.3,0.1,0.6,0.3,0.8c0.6,0.6,0.6,1.3,0.6,2.1c-0.5,0-1,0-1.5,0c-0.5,0-1,0-1.4,0
		c-0.1,0-0.3-0.1-0.3-0.2c-0.2-0.2-0.3-0.5-0.5-0.7c-0.4-0.3-0.4-0.7-0.4-1.2c0.1-0.6,0.3-1.2,0.3-1.7c0-0.4-0.1-0.7-0.2-1.1
		c-0.3-1.1-0.5-2.2-1.2-3.1c-0.1-0.1-0.2-0.2-0.3-0.3c-0.1-0.2-0.2-0.4-0.3-0.6c0-0.1,0-0.3-0.1-0.4c-0.6-0.8-0.6-1.8-0.7-2.7
		c-0.2-1.1-0.3-2.1-0.5-3.2c0-0.1-0.1-0.3-0.2-0.4c-0.5,0.4-0.7,0.9-0.7,1.4c-0.1,0.7-0.2,1.5-0.3,2.2c-0.1,0.5-0.3,0.9-0.4,1.4
		c-0.1,0.3-0.1,0.6-0.1,1c0,0.2,0,0.5,0,0.7c0,0.3-0.1,0.5-0.4,0.5c-0.1,0-0.3,0.1-0.3,0.2c-0.5,1.1-0.9,2.3-1.1,3.6
		c0,0.2,0,0.5,0.1,0.8c0,0.5,0.1,1,0.1,1.5c0,0.5-0.4,0.9-1,0.9c-0.2,0-0.4,0.1-0.5,0.2c-0.5,0.3-0.9,0.5-1.4,0.8c0,0,0-0.1-0.1-0.1
		c0,0.2,0,0.4,0,0.7c-0.2,0-0.3,0-0.5,0c-0.9,0-1.7,0-2.6,0c-0.2,0-0.4-0.1-0.4-0.3c-0.2-0.7-0.4-1.3-0.7-2.1c0,0-0.1,0-0.2,0
		c-0.3,0-0.4-0.2-0.4-0.4c0-0.5-0.1-1-0.3-1.5c-0.3-0.6-0.3-1.3,0-1.9C65.4,90.6,65.6,90.3,65.7,90L65.7,90z"/>
	<path class="st0" d="M116.2,98.4c0.3-1.1,0.6-2.1,0.8-3.2c0.8-3.7,1.1-7.4,0.9-11.2c-0.5-8.4-3.2-16-8.1-22.8
		c-1.3-1.8-2.7-3.4-4.2-4.9c-0.4-0.4-0.5-0.7-0.5-1.2c0.2-1.9,0.1-3.7-0.1-5.6c0-0.2,0-0.4,0-0.7c0.1,0.1,0.2,0.2,0.3,0.2
		c6.1,4.9,10.7,10.9,13.9,18c1.7,3.8,2.9,7.8,3.5,11.9c0.5,3.6,0.7,7.2,0.4,10.9c-0.2,2.8-0.7,5.6-1.4,8.4c0,0.2-0.1,0.3-0.3,0.3
		C119.7,98.3,118,98.4,116.2,98.4L116.2,98.4z"/>
	<path class="st0" d="M45.1,49.6c-0.1,1.2,0.1,2.4,0.4,3.4c0.1,0.5,0.5,1,0.9,1.5c0.1,0.2,0.6,0.1,0.9,0.2c-6,5.5-10.2,12.2-12.4,20
		c-2.2,7.9-2.1,15.7,0.2,23.6c-0.7,0-1.4,0-2,0c-1,0-2.1,0-3.1,0c-0.3,0-0.4-0.1-0.4-0.4c-0.5-2.1-0.9-4.3-1.2-6.5
		c-0.3-2.4-0.4-4.8-0.3-7.2c0.4-9.6,3.4-18.2,8.9-26c2.2-3.1,4.8-5.9,7.7-8.3C44.8,49.8,44.9,49.7,45.1,49.6L45.1,49.6z"/>
	<path class="st0" d="M66,44.9c-0.2-0.5-0.3-1-0.5-1.4c-0.4-0.9-0.6-1.9-0.3-2.9c0.2-0.5,0.4-1,1.1-1.1c3.3-0.6,6.6-0.9,10-0.9
		c3.9,0,7.7,0.5,11.5,1.5c0.3,0.1,0.4,0.2,0.4,0.5c0,0.7,0.1,1.3,0.1,2c0.1,0.9,0.1,1.8,0.2,2.8c0,0.1,0,0.3,0,0.5
		C81,43.4,73.5,43.2,66,44.9L66,44.9z"/>
	<path class="st0" d="M88.3,130.2c-1.2,0-2.3,0-3.5,0c0-4.5,0-9,0-13.6c1.1,0,2.3,0,3.4,0c0,1.6,0,3.3,0,4.9c0.5,0,0.9,0,1.3,0
		c0-1.6,0-3.3,0-4.9c1.2,0,2.3,0,3.5,0c0,4.5,0,9,0,13.6c-1.1,0-2.3,0-3.5,0c0-1.9,0-3.8,0-5.7c-0.5,0-0.9,0-1.3,0
		C88.3,126.4,88.3,128.3,88.3,130.2L88.3,130.2z"/>
	<path class="st0" d="M128.4,124.5c-0.5,0-0.9,0-1.3,0c0,1.9,0,3.8,0,5.7c-1.2,0-2.3,0-3.5,0c0-4.5,0-9,0-13.6c1.1,0,2.3,0,3.4,0
		c0,1.6,0,3.3,0,4.9c0.5,0,0.9,0,1.3,0c0-1.6,0-3.2,0-4.9c1.2,0,2.3,0,3.5,0c0,4.5,0,9,0,13.6c-1.1,0-2.3,0-3.5,0
		C128.4,128.3,128.4,126.4,128.4,124.5L128.4,124.5z"/>
	<path class="st0" d="M110.2,107.2c0-1.2,0-2.3,0-3.5c0.1-1.4,0.6-2.6,1.9-3.1c1.5-0.6,3-0.6,4.4,0c1.2,0.5,1.7,1.6,1.9,2.8
		c0.1,0.7,0.1,1.4,0.1,2.2c0,1.8,0,3.6-0.1,5.4c-0.1,1.9-1.3,3.1-3.2,3.2c-0.7,0.1-1.3,0.1-2,0c-1.9-0.3-2.9-1.5-3-3.5
		C110.1,109.5,110.2,108.3,110.2,107.2L110.2,107.2z M115,107.2C115,107.2,115,107.2,115,107.2c0-1.3,0-2.6,0-3.8
		c0-0.2,0-0.4-0.1-0.6c-0.1-0.3-0.3-0.4-0.6-0.4c-0.3,0-0.5,0.2-0.6,0.5c0,0.2-0.1,0.4-0.1,0.6c0,2.5,0,5,0,7.4c0,0.2,0,0.4,0.1,0.6
		c0.1,0.3,0.3,0.5,0.6,0.5c0.4,0,0.7-0.3,0.7-0.8C115,109.8,115,108.5,115,107.2L115,107.2z"/>
	<path class="st0" d="M53.1,123.4c0-1.1,0-2.1,0-3.2c0.1-2.4,1.2-3.6,3.5-3.8c0.7-0.1,1.5,0,2.1,0.1c1.5,0.3,2.4,1.5,2.6,3.1
		c0.1,0.9,0.1,1.8,0.1,2.7c0,1.6,0,3.2-0.1,4.9c-0.1,1.9-1.3,3.1-3.2,3.3c-0.7,0.1-1.3,0.1-2,0c-1.9-0.3-2.9-1.6-3-3.5
		C53.1,125.8,53.2,124.6,53.1,123.4C53.2,123.4,53.1,123.4,53.1,123.4L53.1,123.4z M58,123.4C58,123.4,58,123.4,58,123.4
		c0-1.3,0-2.6,0-3.8c0-0.2,0-0.4-0.1-0.6c-0.1-0.3-0.3-0.4-0.6-0.4c-0.3,0-0.5,0.2-0.6,0.4c-0.1,0.2-0.1,0.4-0.1,0.6
		c0,2.5,0,5,0,7.5c0,0.2,0,0.4,0.1,0.6c0.1,0.3,0.3,0.5,0.6,0.5c0.4,0,0.7-0.3,0.7-0.8C58,126.1,58,124.8,58,123.4L58,123.4z"/>
	<path class="st0" d="M65.2,122.9c0,2.4,0,4.9,0,7.3c-1,0-2,0-2.9,0c0-4.5,0-9,0-13.6c0.6,0,1.2,0,1.9,0c0.4,0,0.8-0.1,1,0.1
		c0.2,0.2,0.2,0.6,0.3,1c0.5,1.8,1,3.5,1.6,5.3c0,0.1,0.1,0.2,0.1,0.2c0-2.2,0-4.3,0-6.5c1,0,2,0,3,0c0,4.5,0,9,0,13.6
		c-1,0-1.9,0-2.9,0c-0.6-2.4-1.3-4.9-1.9-7.3C65.3,122.9,65.3,122.9,65.2,122.9L65.2,122.9z"/>
	<path class="st0" d="M63.6,113.9c-1,0-2,0-3,0c0-4.5,0-9,0-13.6c0.1,0,0.3,0,0.4,0c0.7,0,1.4,0,2.1,0c0.3,0,0.4,0.1,0.5,0.4
		c0.6,2,1.2,4,1.7,6c0,0.1,0.1,0.1,0.1,0.2c0-2.2,0-4.3,0-6.5c1,0,2,0,3,0c0,4.5,0,9,0,13.6c-1,0-1.9,0-2.9,0
		c-0.6-2.4-1.3-4.9-1.9-7.3c0,0-0.1,0-0.1,0C63.6,109,63.6,111.5,63.6,113.9L63.6,113.9z"/>
	<path class="st0" d="M89.2,113.9c-1,0-1.9,0-2.9,0c-0.6-2.4-1.3-4.9-1.9-7.3c0,0-0.1,0-0.1,0c0,2.4,0,4.8,0,7.3c-1,0-2,0-2.9,0
		c0-4.5,0-9,0-13.6c0.9,0,1.8,0,2.8,0c0.1,0,0.2,0.2,0.2,0.3c0.6,1.9,1.1,3.9,1.7,5.8c0,0.2,0.1,0.3,0.2,0.4c0-2.2,0-4.3,0-6.5
		c1,0,2,0,3,0C89.2,104.9,89.2,109.4,89.2,113.9L89.2,113.9z"/>
	<path class="st0" d="M75.2,122.8c1.4,0,2.8,0,4.2,0c0,2.4,0,4.9,0,7.3c-0.8,0-1.5,0-2.2,0c-0.1-0.3-0.2-0.6-0.3-0.9
		c-0.1,0.1-0.1,0.1-0.2,0.2c-0.9,1-2.1,1.2-3.3,0.9c-1.3-0.3-1.9-1.4-2.1-2.6c-0.1-0.4-0.1-0.8-0.1-1.2c0-2.1,0-4.1,0-6.2
		c0-0.5,0.1-1,0.2-1.4c0.3-1.3,1.1-2.1,2.4-2.4c1.2-0.3,2.4-0.3,3.6,0.1c1,0.3,1.6,1,1.7,2c0.1,1,0.2,2,0.3,3c-1.2,0-2.4,0-3.5,0
		c0-0.4,0-0.8,0-1.1c0-0.4,0-0.9-0.1-1.3c0-0.4-0.3-0.5-0.6-0.5c-0.3,0-0.5,0.2-0.5,0.5c0,0.2-0.1,0.4-0.1,0.6c0,2.4,0,4.8,0,7.2
		c0,0.2,0,0.5,0.1,0.7c0.1,0.3,0.3,0.5,0.6,0.5c0.3,0,0.5-0.2,0.6-0.5c0-0.1,0.1-0.2,0.1-0.3c0-0.9,0-1.7,0-2.7c-0.2,0-0.4,0-0.7,0
		C75.2,124.2,75.2,123.5,75.2,122.8L75.2,122.8z"/>
	<path class="st0" d="M98.3,105.4c-1.3,0-2.4,0-3.5,0c0-0.4,0-0.8,0-1.2c0-0.4,0-0.9-0.1-1.3c0-0.4-0.3-0.5-0.6-0.5
		c-0.3,0-0.5,0.2-0.5,0.5c0,0.2-0.1,0.4-0.1,0.6c0,2.4,0,4.8,0,7.2c0,0.2,0,0.5,0.1,0.7c0.1,0.3,0.3,0.5,0.6,0.5
		c0.3,0,0.5-0.2,0.6-0.5c0-0.1,0.1-0.2,0.1-0.3c0-0.9,0-1.7,0-2.7c-0.2,0-0.4,0-0.7,0c0-0.7,0-1.3,0-2c1.4,0,2.8,0,4.2,0
		c0,2.4,0,4.9,0,7.3c-0.7,0-1.5,0-2.2,0c-0.1-0.3-0.2-0.6-0.2-0.8c-0.5,0.3-1,0.7-1.6,0.9c-1.7,0.5-3.6,0-4.1-2.5
		c-0.1-0.4-0.1-0.8-0.1-1.2c0-2,0-4.1,0-6.1c0-0.5,0.1-1,0.2-1.5c0.3-1.3,1.1-2.1,2.4-2.4c1.2-0.3,2.4-0.3,3.6,0.1
		c1,0.3,1.6,1,1.8,2C98.2,103.4,98.2,104.4,98.3,105.4L98.3,105.4z"/>
	<path class="st0" d="M45.1,100.3c1.9,0.1,3.8,0.1,5.6,0.2c1.3,0.1,1.8,0.6,2,1.9c0.1,0.8,0.2,1.7,0.1,2.5c0,0.9-0.5,1.5-1.4,1.7
		c-0.1,0-0.2,0.1-0.4,0.1c0.2,0.1,0.3,0.1,0.4,0.1c1,0.3,1.5,0.8,1.6,1.9c0,1.7,0,3.4,0,5.2c-1.1,0-2.1,0-3.2,0c0-0.1,0-0.3,0-0.4
		c0-1.5,0-2.9,0-4.4c0-0.2,0-0.4,0-0.6c-0.1-0.8-0.5-1.1-1.3-0.8c0,2.1,0,4.1,0,6.2c-1.1,0-2.2,0-3.3,0
		C45.1,109.4,45.1,104.9,45.1,100.3L45.1,100.3z M48.5,105.6c1,0.1,1.3-0.2,1.3-1.2c0-0.3,0-0.5,0-0.8c0-0.8-0.5-1.2-1.3-1
		C48.5,103.6,48.5,104.6,48.5,105.6L48.5,105.6z"/>
	<path class="st0" d="M119.3,100.3c1.9,0.1,3.8,0.1,5.6,0.2c1.3,0.1,1.8,0.6,2,1.9c0.1,0.8,0.2,1.7,0.1,2.5c0,0.9-0.5,1.5-1.4,1.7
		c-0.1,0-0.2,0.1-0.4,0.1c0.2,0.1,0.3,0.1,0.4,0.1c1,0.3,1.5,0.8,1.6,1.9c0,1.7,0,3.4,0,5.2c-1.1,0-2.1,0-3.2,0c0-0.1,0-0.3,0-0.4
		c0-1.5,0-2.9,0-4.4c0-0.2,0-0.4,0-0.6c-0.1-0.8-0.5-1.1-1.3-0.8c0,2.1,0,4.1,0,6.2c-1.1,0-2.2,0-3.3,0
		C119.3,109.4,119.3,104.9,119.3,100.3L119.3,100.3z M122.7,105.6c1,0.1,1.3-0.2,1.3-1.1c0-0.3,0-0.6,0-0.8c0-0.8-0.5-1.2-1.3-1
		C122.7,103.6,122.7,104.6,122.7,105.6L122.7,105.6z"/>
	<path class="st0" d="M37.6,100.3c1.7,0,3.3,0,5,0c0.6,4.5,1.2,9,1.9,13.6c-1.2,0-2.3,0-3.5,0c-0.1-0.8-0.1-1.6-0.2-2.4
		c-0.4,0-0.8,0-1.3,0c-0.1,0.8-0.1,1.6-0.2,2.4c-1.2,0-2.3,0-3.5,0C36.5,109.4,37.1,104.9,37.6,100.3L37.6,100.3z M40.8,109.1
		c-0.2-2-0.4-4-0.6-6c0,0,0,0-0.1,0c-0.2,2-0.4,4-0.6,6C40,109.1,40.4,109.1,40.8,109.1L40.8,109.1z"/>
	<path class="st0" d="M102,116.6c1.7,0,3.3,0,5,0c0.6,4.5,1.2,9,1.9,13.6c-1.2,0-2.3,0-3.5,0c-0.1-0.8-0.1-1.6-0.2-2.4
		c-0.4,0-0.8,0-1.3,0c-0.1,0.8-0.1,1.6-0.2,2.4c-1.2,0-2.3,0-3.5,0C100.9,125.7,101.5,121.1,102,116.6L102,116.6z M105.2,125.3
		c-0.2-2-0.4-4-0.6-6c0,0,0,0-0.1,0c-0.2,2-0.4,4-0.6,6C104.4,125.3,104.8,125.3,105.2,125.3L105.2,125.3z"/>
	<path class="st0" d="M31.2,108.4c0,1.8,0,3.7,0,5.5c-1.1,0-2.2,0-3.3,0c0-4.5,0-9,0-13.6c0.1,0,0.2,0,0.3,0c1.4,0,2.8,0,4.2,0
		c0.3,0,0.7,0,1,0.1c1.3,0.2,2.1,1,2.1,2.4c0.1,1.2,0.1,2.4-0.1,3.6c-0.1,1.2-0.8,1.7-2,1.9c-0.4,0.1-0.7,0.1-1.1,0.1
		C32,108.4,31.6,108.4,31.2,108.4L31.2,108.4z M31.2,106.1c0.3,0,0.5,0,0.7,0c0.4,0,0.7-0.3,0.7-0.7c0-0.7,0-1.4,0-2.1
		c0-0.4-0.2-0.7-0.6-0.7c-0.3,0-0.5,0-0.8,0C31.2,103.8,31.2,104.9,31.2,106.1L31.2,106.1z"/>
	<path class="st0" d="M59.6,108.2c-0.7,0-1.5,0-2.2,0c0,1,0,2,0,2.9c0.9,0,1.7,0,2.6,0c0,0.9,0,1.8,0,2.7c-2,0-4,0-6,0
		c0-4.5,0-9,0-13.6c1.9,0,3.9,0,5.8,0c0,0.9,0,1.8,0,2.7c-0.8,0-1.6,0-2.4,0c0,0.9,0,1.7,0,2.5c0.7,0,1.5,0,2.2,0
		C59.6,106.5,59.6,107.3,59.6,108.2L59.6,108.2z"/>
	<path class="st0" d="M97.5,119.3c0,0.9,0,1.7,0,2.5c0.7,0,1.5,0,2.2,0c0,0.9,0,1.7,0,2.6c-0.7,0-1.5,0-2.2,0c0,1,0,2,0,3
		c0.8,0,1.7,0,2.6,0c0,0.9,0,1.8,0,2.7c-2,0-4,0-6,0c0-4.5,0-9,0-13.6c1.9,0,3.9,0,5.8,0c0,0.9,0,1.8,0,2.7
		C99,119.3,98.3,119.3,97.5,119.3L97.5,119.3z"/>
	<path class="st0" d="M46,116.6c0,0.9,0,1.8,0,2.7c-0.8,0-1.6,0-2.4,0c0,0.9,0,1.7,0,2.5c0.7,0,1.5,0,2.2,0c0,0.9,0,1.8,0,2.7
		c-0.7,0-1.5,0-2.2,0c0,1,0,2,0,3c0.9,0,1.7,0,2.6,0c0,0.9,0,1.8,0,2.7c-2,0-4,0-6,0c0-4.5,0-9,0-13.6C42.1,116.6,44,116.6,46,116.6
		L46,116.6z"/>
	<path class="st0" d="M117.5,119.3c-0.7,0-1.4,0-2.1,0c0-0.9,0-1.8,0-2.7c2.5,0,5,0,7.6,0c0,0.9,0,1.8,0,2.7c-0.7,0-1.3,0-2,0
		c0,3.6,0,7.2,0,10.9c-1.2,0-2.3,0-3.5,0C117.5,126.6,117.5,123,117.5,119.3L117.5,119.3z"/>
	<path class="st0" d="M71,103.1c-0.7,0-1.4,0-2.1,0c0-0.9,0-1.8,0-2.7c2.5,0,5,0,7.6,0c0,0.9,0,1.8,0,2.7c-0.7,0-1.3,0-2,0
		c0,3.6,0,7.2,0,10.9c-1.2,0-2.3,0-3.5,0C71,110.3,71,106.7,71,103.1L71,103.1z"/>
	<path class="st0" d="M39.3,121.8c0,0.9,0,1.8,0,2.7c-0.7,0-1.3,0-2,0c0,1.9,0,3.8,0,5.7c-1.2,0-2.3,0-3.4,0c0-4.5,0-9,0-13.6
		c1.9,0,3.9,0,5.8,0c0,0.9,0,1.8,0,2.7c-0.8,0-1.6,0-2.4,0c0,0.8,0,1.7,0,2.5C37.9,121.8,38.6,121.8,39.3,121.8L39.3,121.8z"/>
	<path class="st0" d="M107.3,113.9c-1.2,0-2.3,0-3.5,0c0-4.5,0-9,0-13.6c1.9,0,3.9,0,5.8,0c0,0.9,0,1.8,0,2.7c-0.8,0-1.6,0-2.4,0
		c0,0.8,0,1.7,0,2.5c0.7,0,1.3,0,2,0c0,0.9,0,1.8,0,2.7c-0.7,0-1.3,0-2,0C107.3,110.1,107.3,112,107.3,113.9L107.3,113.9z"/>
	<path class="st0" d="M26.7,127.6c0.8,0,1.6,0,2.3,0c0,0.9,0,1.7,0,2.6c-1.9,0-3.8,0-5.8,0c0-4.5,0-9,0-13.6c1.1,0,2.3,0,3.4,0
		C26.7,120.2,26.7,123.9,26.7,127.6L26.7,127.6z"/>
	<path class="st0" d="M50.3,127.6c0.8,0,1.6,0,2.3,0c0,0.9,0,1.7,0,2.6c-1.9,0-3.8,0-5.8,0c0-4.5,0-9,0-13.5c1.1,0,2.3,0,3.4,0
		C50.3,120.3,50.3,123.9,50.3,127.6L50.3,127.6z"/>
	<path class="st0" d="M115.2,130.2c-1.9,0-3.8,0-5.7,0c0-4.5,0-9,0-13.6c1.1,0,2.3,0,3.4,0c0,3.6,0,7.3,0,10.9c0.8,0,1.5,0,2.3,0
		C115.2,128.4,115.2,129.3,115.2,130.2L115.2,130.2z"/>
	<path class="st0" d="M29.5,130.2c0-4.5,0-9,0-13.5c1.1,0,2.3,0,3.4,0c0,4.5,0,9,0,13.5C31.8,130.2,30.7,130.2,29.5,130.2
		L29.5,130.2z"/>
	<path class="st0" d="M80.5,113.9c-1.2,0-2.3,0-3.4,0c0-4.5,0-9,0-13.6c1.1,0,2.3,0,3.4,0C80.5,104.9,80.5,109.4,80.5,113.9
		L80.5,113.9z"/>
</g>
</svg>
