<svg width="195" height="168" viewBox="0 0 195 168" fill="none" xmlns="http://www.w3.org/2000/svg">
<path d="M195 160.5C195 164.642 151.348 168 97.5 168C43.6522 168 0 164.642 0 160.5C0 156.358 43.6522 153 97.5 153C151.348 153 195 156.358 195 160.5Z" fill="black" fill-opacity="0.11"/>
<g clip-path="url(#clip0)">
<path d="M70.3987 159.873H65.4486V138.546H25.5762V159.873H20.5176V136.551H20.5989V132.008H70.3987V136.617" fill="#FBAD18"/>
<path d="M71.1384 121.859H20.1844C18.2516 121.859 16.6829 123.428 16.6829 125.361V129.947C16.6829 131.88 18.2516 133.449 20.1844 133.449H71.1384C73.0713 133.449 74.64 131.88 74.64 129.947V125.361C74.64 123.428 73.0713 121.859 71.1384 121.859Z" fill="#FFCB05"/>
<path d="M162.62 160.199H157.669V138.872H117.797V160.199H112.738V136.877H112.82V132.334H162.62V136.943" fill="#FBAD18"/>
<path d="M163.359 122.189H112.405C110.473 122.189 108.904 123.758 108.904 125.691V130.277C108.904 132.21 110.473 133.779 112.405 133.779H163.359C165.292 133.779 166.861 132.21 166.861 130.277V125.691C166.861 123.754 165.292 122.189 163.359 122.189Z" fill="#FFCB05"/>
<path d="M110.046 96.9785C110.046 96.9785 105.375 104.257 92.2948 102.045" stroke="#108AB2" stroke-width="3" stroke-miterlimit="10" stroke-linecap="round"/>
<path d="M92.1553 98.8031C92.9726 99.2601 93.4568 100.364 93.2863 101.607C93.0733 103.192 91.8803 104.423 90.6408 104.342L87.577 104.144C87.5538 104.144 87.5344 104.137 87.5112 104.137C87.4995 104.137 87.4879 104.141 87.4763 104.141L83.3395 103.873C83.0142 103.854 82.7973 103.498 82.8515 103.083C82.9057 102.669 83.2195 102.347 83.5448 102.367L85.7953 102.51C85.7372 102.308 85.7023 102.099 85.6868 101.879L82.9871 101.704C82.6617 101.685 82.4448 101.329 82.499 100.914C82.5533 100.5 82.867 100.178 83.1924 100.197L85.8921 100.372C85.9618 100.178 86.0432 99.9961 86.14 99.8218L83.8198 99.6746C83.4945 99.6552 83.2776 99.2989 83.3318 98.8844C83.386 98.47 83.6998 98.1485 84.0251 98.1678L87.8907 98.4157C88.0186 98.3925 88.1464 98.3809 88.2742 98.3847L87.5731 98.0478C87.2788 97.9083 87.1587 97.4745 87.3097 97.0833C87.4569 96.6921 87.821 96.4907 88.1154 96.6301" fill="#A1CBEC"/>
<path d="M90.823 59.793C90.823 59.793 88.8437 70.7507 85.7721 73.9269C82.7005 77.1031 74.0397 77.1341 74.0397 77.1341" stroke="#0A8AB2" stroke-width="4" stroke-miterlimit="10" stroke-linecap="round"/>
<path d="M102.482 79.2486C101.382 80.2402 100.96 81.9522 101.552 83.5558C102.307 85.5932 104.426 86.7087 106.262 86.027L110.794 84.3498C110.825 84.3382 110.856 84.3227 110.887 84.3072C110.902 84.3034 110.922 84.2995 110.937 84.2956L117.057 82.0336C117.538 81.8554 117.77 81.2744 117.572 80.7399C117.375 80.2053 116.821 79.9148 116.341 80.093L113.01 81.3247C113.041 81.0304 113.037 80.7244 113.002 80.4184L116.995 78.9426C117.476 78.7644 117.708 78.1834 117.51 77.6489C117.313 77.1144 116.759 76.8239 116.279 77.002L112.285 78.4778C112.13 78.2493 111.956 78.0401 111.766 77.8503L115.198 76.5799C115.678 76.4017 115.911 75.8207 115.713 75.2861C115.516 74.7516 114.962 74.4611 114.481 74.6393L108.761 76.7542C108.563 76.7774 108.369 76.8277 108.176 76.8897L109.132 76.115C109.535 75.7897 109.593 75.1506 109.268 74.6896C108.939 74.2326 108.342 74.1241 107.939 74.4495" fill="#A1CBEC"/>
<path d="M48.5806 128.632L31.5688 126.052C19.0036 124.146 10.3621 112.418 12.264 99.8526L24.4302 19.5692C26.3359 7.00399 38.0644 -1.63751 50.6296 0.26432L67.6414 2.84399C80.2066 4.74969 88.8481 16.4783 86.9462 29.0435L74.78 109.331C72.8743 121.896 61.1458 130.538 48.5806 128.632Z" fill="#00A0CC"/>
<path d="M42.0922 31.1268C42.6112 27.7066 45.8028 25.3555 49.223 25.8745C52.6432 26.3936 54.9943 29.5852 54.4753 33.0054" fill="white"/>
<path d="M64.0735 34.4569C64.5925 31.0367 67.7842 28.6856 71.2043 29.2046C74.6245 29.7236 76.9757 32.9153 76.4566 36.3355" fill="white"/>
<path d="M43.1921 20.1641L53.809 20.3539" stroke="#0D3F60" stroke-width="2" stroke-miterlimit="10" stroke-linecap="round"/>
<path d="M79.3887 25.6647L68.4232 22.2871" stroke="#0D3F60" stroke-width="2" stroke-miterlimit="10" stroke-linecap="round"/>
<path d="M47.5613 31.9551C47.7859 30.4755 49.1649 29.4568 50.6445 29.6814C52.1241 29.9061 53.1428 31.285 52.9181 32.7646" fill="#0D3F60"/>
<path d="M69.5427 35.2871C69.7674 33.8075 71.1463 32.7888 72.6259 33.0135C74.1055 33.2381 75.1242 34.617 74.8996 36.0967" fill="#0D3F60"/>
<path d="M56.0924 31.0929C56.5633 27.7482 52.9595 24.4757 48.043 23.7836C43.1266 23.0914 38.7594 25.2418 38.2885 28.5865C37.8176 31.9312 41.4215 35.2037 46.3379 35.8958C51.2543 36.5879 55.6216 34.4376 56.0924 31.0929Z" stroke="#231F20" stroke-width="1.5" stroke-miterlimit="10" stroke-linecap="round"/>
<path d="M80.4511 34.5616C80.9219 31.2169 77.3181 27.9444 72.4017 27.2523C67.4853 26.5602 63.118 28.7105 62.6471 32.0552C62.1763 35.3999 65.7801 38.6724 70.6965 39.3645C75.613 40.0567 79.9802 37.9063 80.4511 34.5616Z" stroke="#231F20" stroke-width="1.5" stroke-miterlimit="10" stroke-linecap="round"/>
<path d="M56.0131 31.6913C56.0131 31.6913 60.2738 27.601 62.7256 32.6984" stroke="#231F20" stroke-width="1.5" stroke-miterlimit="10" stroke-linecap="round"/>
<path d="M37.5293 123.82L46.988 157.429L51.6748 156.67L50.0558 121.898" fill="#00A0CC"/>
<path d="M52.1667 161.027L48.1345 161.681L43.9397 147.044L51.8723 145.758L52.1667 161.027Z" fill="#5652A2"/>
<path d="M61.3079 159.742C60.6843 155.895 57.0627 153.281 53.2126 153.904C49.3663 154.528 46.7518 158.15 47.3754 162" fill="#4F4A47"/>
<path d="M55.494 121.085L64.9528 154.695L69.6434 153.935L68.0243 119.164" fill="#00A0CC"/>
<path d="M69.7324 158.511L65.7002 159.162L61.5054 144.528L69.4341 143.242L69.7324 158.511Z" fill="#5652A2"/>
<path d="M79.4624 157.318C78.8388 153.472 75.2172 150.857 71.3671 151.481C67.517 152.104 64.9063 155.726 65.5299 159.576" fill="#4F4A47"/>
<path d="M118.579 148.191L122.081 119.191L130.982 121.167L120.865 149.555L119.172 146.983" fill="#00A0CC"/>
<path d="M126.454 133.12L120.594 131.818L118.347 148.749L121.33 149.411L126.454 133.12Z" fill="#56C4CF"/>
<path d="M111.727 147.529C112.215 145.329 114.714 144.012 117.305 144.589C119.896 145.166 121.604 147.413 121.113 149.613" fill="#4F4A47"/>
<path d="M130.01 150.728L133.507 121.729L142.408 123.704L132.291 152.092L130.599 149.52" fill="#00A0CC"/>
<path d="M137.88 135.661L132.02 134.359L129.773 151.29L132.756 151.948L137.88 135.661Z" fill="#56C4CF"/>
<path d="M123.154 150.066C123.642 147.866 126.14 146.549 128.732 147.126C131.323 147.703 133.031 149.95 132.539 152.15" fill="#4F4A47"/>
<path d="M26.7923 72.6172C26.7923 72.6172 26.1377 89.8188 32.7418 94.8504C39.3459 99.8819 50.8575 101.64 50.8575 101.64" stroke="#0A8AB2" stroke-width="4" stroke-miterlimit="10" stroke-linecap="round"/>
<path d="M61.6216 107.21C62.1251 107.303 62.6209 106.924 62.7294 106.366C62.8378 105.808 62.5086 105.274 62.0051 105.177L58.5152 104.522C58.6933 104.286 58.8444 104.023 58.9722 103.74L63.1593 104.526C63.6629 104.619 64.1587 104.24 64.2671 103.682C64.3717 103.124 64.0463 102.59 63.5428 102.493L59.3557 101.706C59.3402 101.431 59.2976 101.16 59.2317 100.901L62.8301 101.575C63.3336 101.668 63.8294 101.288 63.9379 100.73C64.0425 100.173 63.7171 99.638 63.2136 99.5412L57.2176 98.414C57.0355 98.3327 56.8457 98.2746 56.6482 98.2281L57.8683 98.0538C58.3796 97.9802 58.7631 97.4612 58.7166 96.8996C58.6701 96.3379 58.213 95.9351 57.7018 96.0087L51.1751 96.9305C50.9234 96.9654 50.7065 97.1087 50.5515 97.314C49.099 97.6006 47.8557 98.8517 47.5419 100.529C47.1391 102.667 48.3863 104.708 50.3114 105.072L55.0601 105.963C55.095 105.971 55.126 105.971 55.1608 105.975C55.1763 105.979 55.1918 105.986 55.2112 105.99L61.6216 107.21Z" fill="#A1CBEC"/>
<path d="M99.1855 49.9516C99.3637 49.4713 99.0693 48.9174 98.5348 48.7199C98.0003 48.5223 97.4193 48.7586 97.245 49.2389L96.021 52.5739C95.8157 52.357 95.5833 52.1633 95.3277 51.9929L96.7957 47.9956C96.9738 47.5153 96.6795 46.9614 96.1449 46.7638C95.6104 46.5663 95.0294 46.8026 94.8551 47.2829L93.3871 51.2802C93.1121 51.2492 92.841 51.2453 92.5737 51.2686L93.8364 47.8329C94.0146 47.3526 93.7202 46.7987 93.1857 46.6011C92.6512 46.4036 92.0702 46.6399 91.8959 47.1202L89.7926 52.845C89.6842 53.0116 89.5951 53.1897 89.5176 53.3757L89.5486 52.1439C89.5602 51.6288 89.1148 51.164 88.5493 51.1175C87.9876 51.071 87.5151 51.4545 87.5035 51.9696L87.333 58.5582C87.3253 58.81 87.4337 59.0502 87.608 59.2361C87.6506 60.7157 88.6771 62.1489 90.2807 62.7376C92.3219 63.4852 94.5452 62.5943 95.2192 60.7583L96.8847 56.2226C96.8964 56.1916 96.9041 56.1567 96.9157 56.1258C96.9235 56.1103 96.9312 56.0948 96.939 56.0793L99.1855 49.9516Z" fill="#A1CBEC"/>
<path d="M65.6926 40.5511C65.6926 40.5511 63.5002 46.7021 56.9504 45.5478C50.4005 44.3935 50.6872 38.293 50.6872 38.293L65.6926 40.5511Z" fill="#0D3F60"/>
<path d="M138.918 125.141C161.055 125.141 179 107.333 179 85.3655C179 63.398 161.055 45.5898 138.918 45.5898C116.782 45.5898 98.8369 63.398 98.8369 85.3655C98.8369 107.333 116.782 125.141 138.918 125.141Z" fill="#00A0CC"/>
<path d="M107.974 71.9587C108.265 68.3487 111.425 65.6567 115.031 65.9472C118.641 66.2378 121.333 69.3984 121.043 73.0045" fill="white"/>
<path d="M127.43 73.5212C127.721 69.9112 130.881 67.2192 134.487 67.5097C138.097 67.8003 140.789 70.9609 140.499 74.567" fill="white"/>
<path d="M110.012 63.0357C110.012 63.0357 112.072 59.2166 116.209 61.6607" stroke="#0D3F60" stroke-width="2" stroke-miterlimit="10" stroke-linecap="round"/>
<path d="M140.503 65.1157C140.503 65.1157 138.454 61.1029 134.158 63.2642" stroke="#0D3F60" stroke-width="2" stroke-miterlimit="10" stroke-linecap="round"/>
<path d="M132.055 78.3008C132.055 78.3008 130.223 83.7003 122.828 83.0496C115.434 82.3988 115.159 77.1543 115.159 77.1543L132.055 78.3008Z" fill="#0D3F60"/>
<path d="M112.653 69.3832C114.385 68.8874 115.5 67.2915 115.469 65.5756C115.318 65.5524 115.167 65.5292 115.012 65.5137C112.514 65.3122 110.232 66.544 108.966 68.5155C109.926 69.3948 111.309 69.7705 112.653 69.3832Z" fill="#0D3F60"/>
<path d="M131.838 71.3402C133.569 70.8444 134.685 69.2486 134.654 67.5327C134.503 67.5094 134.352 67.4862 134.197 67.4707C131.699 67.2693 129.417 68.501 128.151 70.4726C129.111 71.348 130.49 71.7237 131.838 71.3402Z" fill="#0D3F60"/>
<path d="M163.669 98.4258C163.669 98.4258 172.249 102.628 168.41 119.443" stroke="#108AB2" stroke-width="3" stroke-miterlimit="10" stroke-linecap="round"/>
<path d="M165.11 118.459C165.598 117.661 166.718 117.219 167.957 117.432C169.533 117.707 170.719 118.943 170.591 120.178L170.277 123.231C170.273 123.254 170.269 123.273 170.266 123.293C170.266 123.304 170.269 123.316 170.266 123.328L169.843 127.449C169.808 127.774 169.444 127.979 169.034 127.906C168.623 127.832 168.313 127.511 168.344 127.185L168.573 124.943C168.371 124.993 168.158 125.02 167.938 125.028L167.663 127.72C167.628 128.045 167.264 128.251 166.853 128.177C166.443 128.103 166.133 127.782 166.164 127.457L166.439 124.765C166.249 124.687 166.067 124.598 165.9 124.497L165.664 126.81C165.629 127.135 165.265 127.34 164.854 127.267C164.444 127.193 164.134 126.872 164.165 126.546L164.56 122.692C164.541 122.564 164.537 122.437 164.545 122.305L164.184 122.994C164.033 123.285 163.596 123.386 163.208 123.223C162.825 123.06 162.635 122.692 162.786 122.402" fill="#A1CBEC"/>
</g>
<defs>
<clipPath id="clip0">
<rect width="167" height="162" fill="white" transform="translate(12)"/>
</clipPath>
</defs>
</svg>
