<svg width="177" height="149" viewBox="0 0 177 149" fill="none" xmlns="http://www.w3.org/2000/svg">
<path d="M177 142.5C177 146.09 140.063 149 94.5 149C48.9365 149 12 146.09 12 142.5C12 138.91 48.9365 136 94.5 136C140.063 136 177 138.91 177 142.5Z" fill="black" fill-opacity="0.11"/>
<path d="M85.9049 57.3153C87.7704 81.238 61.7248 116.948 47.4915 117.97C31.5352 119.107 1.99348 87.8503 0.127983 63.9276C-1.73751 40.0049 17.0313 33.0249 40.7772 31.3497C64.5301 29.6677 84.0608 33.3858 85.9049 57.3153Z" fill="#00A1CD"/>
<path d="M38.0182 64C37.7522 60.4141 40.4372 57.2906 44.0215 57.0182C47.6057 56.7521 50.7277 59.4384 51 63.0243" fill="white"/>
<path d="M56.0182 63C55.7522 59.4141 58.4372 56.2906 62.0215 56.0182C65.6057 55.7521 68.7277 58.4384 69 62.0243" fill="white"/>
<path d="M38 55C38 55 39.6183 50.3512 44 52.6275" stroke="#0D4060" stroke-miterlimit="10" stroke-linecap="round"/>
<path d="M68 54C68 54 65.6339 48.629 60 52.2602" stroke="#0D4060" stroke-miterlimit="10" stroke-linecap="round"/>
<path d="M64 66C64 66 62.6445 73.3619 53.8675 73.9619C45.0905 74.5618 44 67.8857 44 67.8857L64 66Z" fill="#0D4060"/>
<path d="M59 108L54.9464 135H51.1688L48 114.996" fill="#00A1CD"/>
<path d="M51.3404 141H53.8805L55 125H50L51.3404 141Z" fill="#CF2153"/>
<path d="M50.0052 142C49.8577 137.748 52.8705 134.168 56.7331 134.006C60.5957 133.843 63.8473 137.16 63.9947 141.412C64.0018 141.606 64.0018 141.807 63.9947 142" fill="#504B48"/>
<path d="M31 112L35.3489 135H38.9761L42 116.729" fill="#00A1CD"/>
<path d="M39.1979 141H35.7887L34 126H41L39.1979 141Z" fill="#CF2153"/>
<path d="M49.9944 142C50.1525 137.748 46.9244 134.168 42.786 134.006C38.6475 133.843 35.1637 137.16 35.0056 141.412C34.9981 141.606 34.9981 141.807 35.0056 142" fill="#504B48"/>
<path d="M33 89C33 89 40.0604 95.9674 46.7685 97.4819C53.4766 98.9963 68 100 68 100" stroke="#00A1CD" stroke-width="3.7184" stroke-miterlimit="10" stroke-linecap="round"/>
<path d="M49 63.5511C48.9419 62.0985 47.3313 60.9576 45.397 61.0012C43.4627 61.0449 41.9435 62.2544 42.0016 63.707C42.0016 63.8067 42.0182 63.9065 42.0348 64" fill="#0D4060"/>
<path d="M67 62.5511C66.9502 61.0985 65.5697 59.9576 63.9117 60.0012C62.2538 60.0449 60.9516 61.2544 61.0014 62.707C61.0014 62.8067 61.0156 62.9065 61.0299 63" fill="#0D4060"/>
<path d="M109 103L114.04 139H116.965L122 103.112" fill="#00A0CC"/>
<path d="M117.58 138L119 127H113L114.641 137.835L117.58 138Z" fill="#5652A2"/>
<path d="M119 139C119 135.685 115.868 133 112 133C108.132 133 105 135.685 105 139" fill="#4F4A47"/>
<path d="M127 103L132.04 139H134.965L140 103.108" fill="#00A0CC"/>
<path d="M134.58 138L136 127H130L131.641 137.84L134.58 138Z" fill="#5652A2"/>
<path d="M135 139C135 135.132 131.868 132 128 132C124.132 132 121 135.132 121 139" fill="#4F4A47"/>
<path d="M145.859 100.052C151.572 93.6166 154.053 85.007 156.58 76.9515C159.817 66.6284 163.049 56.1796 165.614 45.6749C167.974 36.0083 170.822 25.3127 167.46 15.5297C164.014 5.49529 155.449 0.727194 145.428 0.526971C136.519 0.345374 127.611 0.163776 118.703 0.252247C111.854 0.322092 101.596 -1.17725 95.5116 2.41279C88.7041 6.43121 83.2645 12.1213 81.6322 20.1209C80.3476 26.4069 81.1963 32.9351 82.6106 39.1932C86.4364 56.0818 92.7478 72.5047 99.0221 88.597C104.072 101.551 113.472 108 123.428 108C129.109 108 135.212 107.711 140.359 104.969C142.65 103.739 144.097 102.04 145.859 100.052Z" fill="#00A0CC"/>
<path d="M91 25L100 24" stroke="#0D3F60" stroke-miterlimit="10" stroke-linecap="round"/>
<path d="M122 25L114 24" stroke="#0D3F60" stroke-miterlimit="10" stroke-linecap="round"/>
<path d="M114 39C114 39 112.666 43.1233 106.093 42.9972C99.5202 42.871 99 39 99 39H114Z" fill="#0D3F60"/>
<path d="M109 34C109 30.6867 111.688 28 115 28C118.312 28 121 30.6867 121 34" fill="white"/>
<path d="M113 34C113 32.3405 114.122 31 115.5 31C116.883 31 118 32.3459 118 34" fill="#0D3F60"/>
<path d="M92 34C92 30.6867 94.6869 28 98 28C101.313 28 104 30.6867 104 34" fill="white"/>
<path d="M95 34C95 32.3405 96.3459 31 98 31C99.6595 31 101 32.3459 101 34" fill="#0D3F60"/>
<path d="M120.343 28.0907C120.38 28.0907 120.418 28.0859 120.461 28.0859C120.461 28.0859 120.418 28.0859 120.343 28.0907Z" fill="#0D3F60"/>
<path d="M128.138 28.0888C128.062 28.084 128.02 28.084 128.02 28.084C128.062 28.0888 128.1 28.0888 128.138 28.0888Z" fill="#0D3F60"/>
<path d="M67 95.4245C67 95.4245 49.6517 105.413 41 92" stroke="#0F8AB2" stroke-width="2" stroke-miterlimit="10" stroke-linecap="round"/>
<g clip-path="url(#clip0)">
<path d="M109.778 83.1491C108.231 83.1168 106.684 83.094 105.136 83.0859C104.732 83.0832 104.545 83.0092 104.576 82.5167C104.67 80.9976 104.714 79.4731 104.752 77.9513C104.776 77.0067 104.756 77.004 103.808 77.004C95.05 77.0013 86.2918 77.0013 77.5322 77C77.3331 77 77.1339 77.0067 76.9347 77.0013C76.6333 76.9946 76.4806 77.1346 76.4912 77.4454C76.5457 79.056 76.5722 80.6693 76.6678 82.2786C76.7169 83.1047 76.7395 83.1397 75.8911 83.1397C74.3428 83.141 72.7946 83.1276 71.2464 83.1464C70.2718 83.1585 69.8721 83.6523 70.0381 84.6158C70.2651 85.9384 70.4962 87.2611 70.7631 88.5757C71.4575 91.9987 72.2396 95.3949 73.5687 98.639C74.469 100.835 75.8764 102.423 78.236 103.019C79.419 103.317 80.6074 103.57 81.8197 103.639C82.3269 103.667 82.6071 103.869 82.8806 104.274C84.2191 106.257 86.9596 108.262 89.1731 109.282V115.73C89.027 118.541 83.6136 119.224 83.6136 119.854C83.6136 119.854 84.1181 119.853 84.7396 119.853H97.0018C97.6233 119.853 98.2699 119.854 98.2699 119.854C98.2699 119.224 93.2521 118.692 92.6241 115.73V109.297C94.4631 108.229 97.2873 105.959 98.4372 104.184C98.6643 103.833 98.9165 103.673 99.3388 103.632C100.171 103.55 101 103.398 101.824 103.251C104.464 102.781 106.368 101.368 107.349 98.7856C107.635 98.0335 107.952 97.2921 108.202 96.5265C109.471 92.6271 110.285 88.6174 110.97 84.5781C111.126 83.6591 110.706 83.168 109.778 83.1491ZM81.0071 101.288C80.8956 101.405 80.7123 101.335 80.5623 101.302C79.9807 101.171 79.3991 101.045 78.8202 100.902C77.3915 100.551 76.4116 99.6831 75.8034 98.3174C74.6602 95.7528 73.9591 93.0509 73.3297 90.3262C72.9978 88.8905 72.7561 87.4347 72.4361 85.9949C72.3126 85.4379 72.4972 85.2522 73.0217 85.267C73.574 85.2818 74.1264 85.271 74.6788 85.271C75.2086 85.2724 75.741 85.2926 76.2695 85.2657C76.7767 85.2387 76.952 85.45 77.0064 85.96C77.3915 89.527 78.1045 93.0267 79.2199 96.4377C79.7072 97.9258 80.2715 99.3831 80.9195 100.807C80.9885 100.956 81.1651 101.124 81.0071 101.288ZM108.559 85.8711C107.863 89.562 107.092 93.2326 105.808 96.7714C105.549 97.4858 105.234 98.1748 104.881 98.8475C103.966 100.594 102.288 100.936 100.598 101.232C100.106 101.318 100.252 100.971 100.368 100.723C101.107 99.1436 101.701 97.5074 102.223 95.8429C103.1 93.0456 103.693 90.1809 104.104 87.2772C104.175 86.7767 104.058 86.2667 104.273 85.7635C104.414 85.4352 104.568 85.3154 104.901 85.3275C105.431 85.345 105.961 85.3329 106.492 85.3329V85.3289C107.021 85.3289 107.553 85.3397 108.082 85.3249C108.475 85.3154 108.644 85.4204 108.559 85.8711Z" fill="#F49D04"/>
<path d="M83.1148 119.853C87.458 119.861 91.8013 119.872 96.1445 119.877C96.8058 119.878 97.4657 119.861 98.1269 119.852C98.7457 119.856 99.3658 119.881 99.9832 119.857C100.544 119.835 100.784 120.045 100.771 120.639C100.743 121.893 100.787 123.149 100.749 124.402C100.733 124.939 100.848 125.156 101.429 125.131C102.036 125.106 102.659 125.009 103.262 125.201C103.276 126.05 103.292 126.9 103.304 127.747C103.307 127.917 103.195 127.977 103.045 127.98C102.89 127.983 102.736 127.983 102.58 127.983C94.6428 127.983 86.7051 127.976 78.7688 127.996C78.17 127.997 77.919 127.855 78.0133 127.229C78.0518 126.967 78.02 126.692 78.02 126.423C78.02 125.114 78.02 125.114 79.3451 125.114C80.5786 125.114 80.5786 125.114 80.5786 123.895C80.5786 122.797 80.5959 121.699 80.5707 120.601C80.5574 120.04 80.7924 119.837 81.3222 119.854C81.9197 119.878 82.5172 119.856 83.1148 119.853Z" fill="#662F06"/>
<path d="M82.7562 78.3457C82.7562 78.3457 81.4682 96.4069 89.3049 107.867C89.3049 107.867 83.189 103.448 80.9198 96.5105C78.2137 88.2408 78.3226 78.3457 78.3226 78.3457H82.7562Z" fill="#F7B541"/>
</g>
<path d="M144.235 63.0395C144.235 63.0395 137.78 88.5607 114.204 86.6467" stroke="#0F8AB2" stroke-width="3" stroke-miterlimit="10" stroke-linecap="round"/>
<path d="M106.129 92.3611C105.562 92.3643 105.104 91.9016 105.104 91.3301C105.105 91.306 105.103 91.2762 105.105 91.2475C105.04 90.6254 105.451 90.0506 106.056 89.9154L109.835 89.5232C109.681 89.2156 109.561 88.8873 109.48 88.5545L104.957 89.0416C104.389 89.0495 103.925 88.5902 103.925 88.0187C103.923 87.9889 103.925 87.9602 103.928 87.9315C103.862 87.3094 104.278 86.7358 104.888 86.6017L109.411 86.1145C109.458 85.7944 109.532 85.4811 109.634 85.1747L105.744 85.5875C105.174 85.585 104.712 85.1166 104.717 84.5416C104.717 84.5221 104.719 84.498 104.719 84.4785C104.658 83.8576 105.069 83.2828 105.679 83.1488L112.154 82.4764C112.356 82.4053 112.567 82.3515 112.783 82.3228L111.523 81.9896C110.952 81.7621 110.65 81.1388 110.825 80.5433C110.89 79.9591 111.418 79.5358 111.995 79.6038C112.005 79.6061 112.019 79.6049 112.028 79.6072L118.728 81.3944C118.989 81.4702 119.208 81.6573 119.324 81.9064C120.965 82.5853 122.018 84.2142 121.966 86.008C122.042 88.5569 120.409 90.8252 118.328 91.0413L113.193 91.5788C113.161 91.5707 113.125 91.5615 113.093 91.5535L113.047 91.542L106.129 92.3611Z" fill="#A2CCED"/>
<path d="M65.6229 92.1689C64.4821 92.8998 63.853 94.329 64.0294 95.7778C64.1411 97.6639 65.5935 99.0932 67.2928 98.9953L71.2442 98.5058H71.3325H71.3736L76.701 97.8466C77.1773 97.7879 77.5183 97.3115 77.4654 96.7894C77.4125 96.2608 76.9832 95.8823 76.5128 95.941L73.6139 96.3065C73.6962 96.0454 73.7492 95.7778 73.7844 95.5037L77.2302 95.0665C77.7065 95.0078 78.0475 94.5313 77.9946 94.0092C77.9417 93.4806 77.5124 93.1021 77.042 93.1608L73.5963 93.5916C73.514 93.3566 73.4199 93.1347 73.3023 92.9259L76.2894 92.5604C76.7657 92.5017 77.1067 92.0253 77.0538 91.5032C77.0009 90.9746 76.5716 90.596 76.1012 90.6548L71.1266 91.2748C70.962 91.2617 70.7915 91.2617 70.6268 91.2748L71.55 90.7984C71.9499 90.5634 72.1204 90.0283 71.9381 89.5649C71.8029 89.1277 71.3795 88.8992 70.9914 89.0428C70.9738 89.0493 70.9502 89.0559 70.9326 89.0689" fill="#A2CCED"/>
<defs>
<clipPath id="clip0">
<rect width="41" height="51" fill="white" transform="translate(70 77)"/>
</clipPath>
</defs>
</svg>
