<svg width="176" height="162" viewBox="0 0 176 162" fill="none" xmlns="http://www.w3.org/2000/svg">
<path d="M175 155.5C175 159.09 135.825 162 87.5 162C39.1751 162 0 159.09 0 155.5C0 151.91 39.1751 149 87.5 149C135.825 149 175 151.91 175 155.5Z" fill="black" fill-opacity="0.12"/>
<g clip-path="url(#clip0)">
<path d="M101.389 81.8456C101.389 81.8456 90.972 83.9648 81.7925 62.9023" stroke="#108AB2" stroke-width="2" stroke-miterlimit="10" stroke-linecap="round"/>
<path d="M76.3717 64.569C77.3347 66.4337 80.146 67.0829 82.6157 66.0129C84.5572 65.1715 85.7273 63.5093 85.6755 61.9303L85.2924 54.191C85.2406 53.6456 84.6297 53.2976 83.9411 53.4222C83.2473 53.5469 82.9677 53.9105 83.0195 54.4611L83.0402 56.6218C82.9315 56.4349 82.6726 55.5882 82.5225 55.4272L79.9752 49.4591C79.7215 48.9708 78.9915 48.8046 78.3443 49.0799C77.6971 49.3604 77.3761 49.9889 77.6298 50.4771L78.976 54.1234C78.6446 54.1338 78.5773 54.0299 78.2356 54.0975L76.496 49.7603C76.2423 49.2721 75.5123 49.1058 74.8651 49.3811C74.2179 49.6616 73.8969 50.2901 74.1506 50.7784L75.8851 55.1155C75.5848 55.3337 75.678 55.3077 75.4398 55.5674L74.0523 52.6431C73.7986 52.1548 73.0634 51.9834 72.4214 52.2639C71.7742 52.5444 71.65 53.2041 71.9658 54.0923L74.1506 59.6293" fill="#A1CBEC"/>
<path d="M82.5481 59.7117C82.5481 59.7117 80.7464 56.4861 75.89 58.0444" stroke="#87B4D3" stroke-width="0.8794" stroke-miterlimit="10"/>
<path d="M30.3086 122.334L33.7981 150.783H37.2877L40.9636 118.781" fill="#00A0CC"/>
<path d="M37.0442 154.381H33.7514L32.426 138.736H38.7994L37.0442 154.381Z" fill="#56C4CF"/>
<path d="M33.7981 154.825C33.7981 151.978 36.0969 149.672 38.9341 149.672C41.7713 149.672 44.07 151.978 44.07 154.825" fill="#4F4A47"/>
<path d="M16.9354 122.246L20.425 150.783H23.9145L26.8294 122.334" fill="#00A0CC"/>
<path d="M23.9095 154.381H20.6167L18.8512 138.736H25.2245L23.9095 154.381Z" fill="#56C4CF"/>
<path d="M20.368 154.825C20.368 151.978 22.6668 149.672 25.504 149.672C28.3412 149.672 30.64 151.978 30.64 154.825" fill="#4F4A47"/>
<path d="M68.1499 68.6055C68.1499 68.6055 64.5516 81.3261 47.1453 88.1512" stroke="#108AB2" stroke-width="2" stroke-miterlimit="10" stroke-linecap="round"/>
<path d="M64.764 67.7375C64.4792 69.2542 65.8046 70.9112 67.7202 71.415C69.2217 71.815 70.6506 71.3838 71.3392 70.4489L74.6217 65.8001C74.8391 65.4573 74.6424 64.9846 74.1868 64.7405C73.7312 64.4963 73.3998 64.5794 73.1824 64.9223L72.2194 66.1844C72.2401 66.0234 72.4731 65.4157 72.4627 65.2599L73.6898 60.6474C73.7622 60.2527 73.4154 59.8164 72.9183 59.6865C72.4161 59.5567 71.9502 59.7696 71.8725 60.1644L71.0027 62.8861C70.806 62.7407 70.8163 62.6108 70.5885 62.4966L71.5463 59.1983C71.624 58.8035 71.2719 58.3672 70.7749 58.2373C70.2727 58.1023 69.8067 58.3204 69.7291 58.7152L68.7713 62.0135C68.4969 62.0031 68.3415 62.0135 68.0878 62.0499L68.7195 59.7488C68.7971 59.3541 68.559 58.9178 68.0568 58.7879C67.5546 58.6529 67.0834 58.871 67.011 59.2658L65.7218 63.873" fill="#A1CBEC"/>
<path d="M63.0864 45.6719C64.7121 46.986 66.3119 48.2794 67.9273 49.5935" stroke="#0D3F60" stroke-width="1.2356" stroke-miterlimit="10" stroke-linecap="round"/>
<path d="M61.7249 51.582C63.7855 51.8365 64.7795 51.9612 66.8401 52.2209" stroke="#0D3F60" stroke-width="1.2356" stroke-miterlimit="10" stroke-linecap="round"/>
<path d="M68.4141 43.0449C69.1493 44.9927 69.5065 45.9329 70.2417 47.8807" stroke="#0D3F60" stroke-width="1.2356" stroke-miterlimit="10" stroke-linecap="round"/>
<path d="M36.392 49.9102L30.702 49.4635C20.2903 48.6429 11.1885 56.4445 10.3705 66.8901L10.2669 68.2146C10.0598 69.5339 9.90966 70.8532 9.81129 72.1466L7.06211 107.228C6.24408 117.674 14.0205 126.805 24.4322 127.626L30.1222 128.072C40.5339 128.893 49.6357 121.091 50.4537 110.646L50.5573 109.321C50.7644 108.002 50.9145 106.683 51.0129 105.389L53.7621 70.3078C54.5801 59.8623 46.8037 50.7309 36.392 49.9102Z" fill="#00A0CC"/>
<path d="M42.4961 80.1471C42.4961 80.1471 41.4503 82.5312 37.2359 82.1312C33.0215 81.7313 32.8662 79.4043 32.8662 79.4043L42.4961 80.1471Z" fill="#0D3F60"/>
<path d="M24.163 67.037C24.163 67.037 25.8404 64.201 28.8951 66.1852" stroke="#0D3F60" stroke-width="0.5" stroke-miterlimit="10" stroke-linecap="round"/>
<path d="M51.95 69.1773C51.95 69.1773 51.1216 66.0867 47.7977 67.5827" stroke="#0D3F60" stroke-width="0.5" stroke-miterlimit="10" stroke-linecap="round"/>
<path d="M35.139 71.6649C34.7766 76.4332 30.6243 80.0016 25.8715 79.638C21.1187 79.2744 17.5618 75.1087 17.9242 70.3404C18.2866 65.5721 22.4389 62.0037 27.1917 62.3673C31.9446 62.7309 35.5014 66.8966 35.139 71.6649Z" stroke="#231F20" stroke-width="0.5" stroke-miterlimit="10" stroke-linecap="round"/>
<path d="M58.2147 73.4403C57.8523 78.2086 53.7 81.777 48.9472 81.4134C44.1943 81.0498 40.6375 76.884 40.9999 72.1158C41.3623 67.3475 45.5146 63.7791 50.2674 64.1427C55.0202 64.5115 58.5771 68.672 58.2147 73.4403Z" stroke="#231F20" stroke-width="0.5" stroke-miterlimit="10" stroke-linecap="round"/>
<path d="M35.201 70.6353C35.201 70.6353 38.3075 66.9526 40.803 71.0664" stroke="#231F20" stroke-width="0.5" stroke-miterlimit="10" stroke-linecap="round"/>
<path d="M42.3356 74.5165C42.4961 71.9039 44.8725 69.9249 47.6476 70.0963C50.4226 70.2677 52.5453 72.522 52.3848 75.1295" fill="white"/>
<path d="M22.8947 73.2536C23.0552 70.6409 25.4471 68.6671 28.2377 68.8385C31.0283 69.0099 33.1614 71.2642 33.0061 73.8769" fill="white"/>
<path d="M23.5571 70.891L20.9218 69.6496L23.1998 71.6909C23.1636 71.8 23.1325 71.8987 23.1066 71.9973L20.782 71.561L22.9668 72.6466C22.9202 72.9427 22.9151 73.1349 22.9151 73.1349C24.4113 69.2236 26.9534 68.8445 27.6782 68.8185C25.364 68.7406 24.168 69.8002 23.5571 70.891Z" fill="#0D3F60"/>
<path d="M54.6991 73.7065L52.3382 73.8571C52.3227 73.7532 52.3072 73.6493 52.2813 73.5402L54.7923 71.795L52.0224 72.7092C51.5461 71.5509 50.4899 70.3562 48.1912 70.1484C48.9056 70.2627 51.3856 70.9431 52.3952 75.0154C52.3952 75.0154 52.4107 74.8232 52.4004 74.5219L54.6991 73.7065Z" fill="#0D3F60"/>
<path d="M29.4853 68.8438C28.8899 69.8203 28.9157 71.098 29.6509 72.0642C30.4482 73.103 31.8151 73.4302 32.9696 72.9576C32.7884 71.0513 31.4009 69.4359 29.4853 68.8438Z" fill="#0D3F60"/>
<path d="M48.8643 70.4023C48.2689 71.3789 48.2948 72.6566 49.03 73.6228C49.8273 74.6616 51.1941 74.9888 52.3486 74.5162C52.1674 72.6099 50.7747 70.9945 48.8643 70.4023Z" fill="#0D3F60"/>
<path d="M15.8118 116.386C15.8118 116.386 11.5716 107.572 14.8747 93.4902" stroke="#108AB2" stroke-width="2" stroke-miterlimit="10" stroke-linecap="round"/>
<path d="M12.6847 117.904C12.6485 116.424 14.1706 115.068 16.0604 114.887C17.5463 114.746 18.8303 115.38 19.3325 116.372L21.7089 121.291C21.859 121.649 21.6002 122.07 21.129 122.226C20.6579 122.382 20.3628 122.257 20.2074 121.899L19.493 120.553C19.4878 120.709 19.6121 121.317 19.5758 121.468L20.0159 126.028C20.0262 126.418 19.6276 126.771 19.1357 126.818C18.6439 126.864 18.2297 126.584 18.2193 126.2L17.8207 123.483C17.6136 123.587 17.6032 123.712 17.3702 123.784L17.7585 127.057C17.7689 127.446 17.3702 127.799 16.8784 127.846C16.3865 127.893 15.9724 127.612 15.962 127.228L15.5737 123.956C15.3148 123.924 15.1699 123.888 14.9317 123.81L15.1699 126.09C15.1802 126.48 14.8851 126.849 14.3933 126.896C13.9014 126.942 13.4872 126.662 13.4769 126.277L12.9798 121.712" fill="#A1CBEC"/>
<path d="M126.784 0.339129C103.506 2.05841 85.0852 9.50169 86.9801 35.3584C87.4616 41.9135 88.7715 48.4686 90.1228 54.8834C91.6191 62.0046 94.068 69.0376 96.3771 75.9251C97.3918 78.9533 98.4325 81.6023 98.3703 84.8643C98.3134 87.7263 97.7801 90.7181 96.7602 93.3672C94.0214 100.514 93.6796 107.693 96.6256 114.892C98.5826 119.671 102.088 123.286 106.592 125.415C115.927 129.83 119.447 129.311 137.749 127.961C148.601 127.161 159.862 125.452 168.224 117.458C171.672 114.165 174.033 109.869 175.172 105.116C175.845 102.306 175.86 101.107 175.99 98.2341C176.171 94.2658 174.581 89.3261 172.909 85.8616C170.403 80.657 167.83 73.6552 168.793 67.6819C171.03 53.751 171.739 35.5558 171.226 28.6111C169.332 2.75962 150.056 -1.38015 126.784 0.339129Z" fill="#00A0CC"/>
<path d="M118.982 127.533L122.269 153.509H126.214L129.502 127.616" fill="#00A0CC"/>
<path d="M126.085 153.51L127.597 142.592H120.794L122.145 152.606L126.085 153.51Z" fill="#EC1651"/>
<path d="M126.39 154.158C126.39 150.486 123.424 147.51 119.763 147.51C116.103 147.51 113.136 150.486 113.136 154.158" fill="#4F4A47"/>
<path d="M138.024 127.392L141.317 153.368H145.257L148.544 124.904" fill="#00A0CC"/>
<path d="M145.127 153.369L146.644 142.451H139.836L141.187 152.466L145.127 153.369Z" fill="#EC1651"/>
<path d="M145.433 154.018C145.433 150.345 142.466 147.369 138.806 147.369C135.145 147.369 132.179 150.345 132.179 154.018" fill="#4F4A47"/>
<path d="M98.6448 34.3692C98.6448 34.3692 100.804 29.0192 106.608 31.6527" stroke="#0D3F60" stroke-miterlimit="10" stroke-linecap="round"/>
<path d="M131.247 31.9642C131.247 31.9642 129.005 26.8375 123.651 30.2916" stroke="#0D3F60" stroke-miterlimit="10" stroke-linecap="round"/>
<path d="M125.334 47.9277C125.334 47.9277 124.133 53.1012 116.393 53.5167C108.653 53.9322 107.695 49.2263 107.695 49.2263L125.334 47.9277Z" fill="#0D3F60"/>
<path d="M119.37 42.0889C119.111 38.562 121.943 35.4767 125.691 35.2014C129.44 34.9261 132.691 37.5596 132.95 41.0864" fill="white"/>
<path d="M120.84 41.9798C120.721 40.3437 121.943 38.9205 123.579 38.7958C125.215 38.6711 126.629 39.9022 126.753 41.5435" fill="#0D3F60"/>
<path d="M99.1728 43.5792C98.914 40.0523 101.762 36.967 105.536 36.6865C109.305 36.406 112.577 39.0395 112.831 42.5663" fill="white"/>
<path d="M101.844 43.3815C101.725 41.7454 102.947 40.3222 104.583 40.1975C106.214 40.078 107.633 41.3039 107.757 42.9452" fill="#0D3F60"/>
<path d="M99.5405 40.5198L95.8956 39.2212L99.2247 41.73C99.1988 41.8911 99.1781 42.0417 99.1574 42.1871L96.0613 41.9897L99.0901 43.1481C99.0849 43.5844 99.1108 43.8649 99.1108 43.8649C100.327 37.9694 103.548 36.9566 104.48 36.7852C101.482 37.102 100.131 38.8369 99.5405 40.5198Z" fill="#0D3F60"/>
<path d="M104.485 36.7844C104.578 36.774 104.656 36.7532 104.749 36.748C104.749 36.748 104.645 36.7532 104.485 36.7844Z" fill="#0D3F60"/>
<path d="M135.891 39.0498L132.857 39.6991C132.816 39.5537 132.774 39.4082 132.728 39.2576L135.658 36.2865L132.241 38.1097C131.413 36.5307 129.818 35.0088 126.805 35.1386C127.752 35.1698 131.086 35.6944 133.147 41.3509C133.147 41.3509 133.131 41.0704 133.064 40.6393L135.891 39.0498Z" fill="#0D3F60"/>
<path d="M125.427 35.2367C125.262 35.2315 125.163 35.2367 125.163 35.2367C125.257 35.2315 125.334 35.2419 125.427 35.2367Z" fill="#0D3F60"/>
<path d="M158.827 76.1465C158.827 76.1465 163.813 85.5636 146.292 100.377" stroke="#108AB2" stroke-width="2" stroke-miterlimit="10" stroke-linecap="round"/>
<path d="M146.644 105.843C148.244 104.493 148.26 101.599 146.681 99.4178C145.438 97.7037 143.564 96.9194 142.042 97.3194L134.602 99.3918C134.079 99.5633 133.877 100.233 134.151 100.883C134.426 101.532 134.84 101.729 135.363 101.558L137.46 101.059C137.299 101.205 136.533 101.646 136.409 101.828L131.164 105.63C130.745 105.983 130.739 106.742 131.154 107.308C131.568 107.879 132.246 108.056 132.665 107.703L135.917 105.583C136 105.905 135.917 105.994 136.057 106.311L132.22 108.96C131.801 109.313 131.796 110.071 132.21 110.637C132.624 111.209 133.302 111.385 133.722 111.032L137.558 108.383C137.838 108.632 137.791 108.544 138.091 108.721L135.554 110.72C135.135 111.074 135.13 111.832 135.544 112.398C135.958 112.969 136.626 112.949 137.418 112.44L142.326 109.084" fill="#A1CBEC"/>
</g>
<defs>
<clipPath id="clip0">
<rect width="169" height="155" fill="white" transform="translate(7)"/>
</clipPath>
</defs>
</svg>
