<svg width="369" height="281" viewBox="0 0 369 281" fill="none" xmlns="http://www.w3.org/2000/svg">
<rect width="369" height="239" rx="20" fill="url(#paint0_linear)"/>
<g clip-path="url(#clip0)">
<path d="M205.006 272.259L213.949 212.912H188.134L197.136 273.976L204.029 269.594" fill="#00A1CD"/>
<path d="M159.962 269.12L148.722 214.617H176.741L166.667 272.259L157.052 269.12" fill="#00A1CD"/>
<path d="M156.852 253.25H170.366L167.067 272.744H158.843L156.852 253.25Z" fill="#ED1651"/>
<path d="M193.837 254.02H207.352L205.349 273.514H197.124L193.837 254.02Z" fill="#ED1651"/>
<path d="M139.943 273.977C139.943 266.29 146.129 260.049 153.764 260.049C161.399 260.049 167.585 266.29 167.585 273.977" fill="#504B48"/>
<path d="M197.159 273.977C197.159 266.29 203.345 260.049 210.98 260.049C218.615 260.049 224.801 266.29 224.801 273.977" fill="#504B48"/>
<path d="M91.0215 148.532C91.0215 108.241 110.934 69.1224 136.714 41.2077C203.168 -30.7523 277.175 73.1373 277.175 151.86C277.175 209.963 231.411 224.045 185.624 224.045C139.825 224.045 91.0215 206.623 91.0215 148.532Z" fill="#00A1CD"/>
<path d="M157.146 66.7071C157.146 66.7071 161.493 57.8601 171.037 63.0712" stroke="#0D4060" stroke-width="3" stroke-miterlimit="10" stroke-linecap="round"/>
<path d="M212.936 66.7058C212.936 66.7058 209.767 57.6811 200.211 62.9041" stroke="#0D4060" stroke-width="3" stroke-miterlimit="10" stroke-linecap="round"/>
<path d="M200.882 93.1875C200.882 93.1875 198.196 101.857 184.964 101.596C171.732 101.336 170.695 93.1875 170.695 93.1875H200.882Z" fill="#0D4060"/>
<path d="M191.445 82.4824C191.445 76.4305 196.653 71.5273 203.063 71.5273C209.484 71.5273 214.681 76.4305 214.681 82.4824" fill="white"/>
<path d="M198.078 82.4812C198.078 79.6743 200.34 77.4004 203.133 77.4004C205.925 77.4004 208.188 79.6743 208.188 82.4812" fill="#0D4060"/>
<path d="M156.887 82.4824C156.887 76.4305 162.118 71.5273 168.575 71.5273C175.032 71.5273 180.263 76.4305 180.263 82.4824" fill="white"/>
<path d="M163.521 82.4812C163.521 79.6743 165.783 77.4004 168.575 77.4004C171.368 77.4004 173.63 79.6743 173.63 82.4812" fill="#0D4060"/>
<path d="M157.9 77.3193L151.856 74.6427L157.217 79.3445C157.146 79.6169 157.099 79.8657 157.052 80.1144L151.809 79.3801L156.816 81.7369C156.746 82.483 156.757 82.9568 156.757 82.9568C159.562 73.0557 165.17 71.7411 166.784 71.5635C161.635 71.7293 159.114 74.5243 157.9 77.3193Z" fill="#0D4060"/>
<path d="M166.772 71.5629C166.926 71.5629 167.067 71.5273 167.22 71.5273C167.232 71.5392 167.055 71.5392 166.772 71.5629Z" fill="#0D4060"/>
<path d="M219.959 79.3796L214.716 80.1139C214.669 79.8652 214.61 79.6046 214.551 79.3441L219.912 74.6423L213.867 77.3188C212.654 74.5238 210.132 71.7288 204.983 71.563C206.586 71.7406 212.206 73.0552 215.01 82.9563C215.01 82.9563 215.022 82.4825 214.951 81.7364L219.959 79.3796Z" fill="#0D4060"/>
<path d="M202.616 71.5629C202.333 71.5273 202.168 71.5273 202.168 71.5273C202.333 71.5273 202.463 71.5629 202.616 71.5629Z" fill="#0D4060"/>
<path d="M233.948 135.5H134.463V192.141H233.948V135.5Z" fill="#ED1651"/>
<path d="M139.008 131.7V190.266C139.008 190.266 166.488 179.162 184.166 190.266V131.7C184.154 131.7 158.636 121.867 139.008 131.7Z" fill="#F1EEC8"/>
<path d="M184.157 131.7V190.266C184.157 190.266 211.637 179.162 229.315 190.266V131.7C229.315 131.7 203.798 121.867 184.157 131.7Z" fill="#F1EEC8"/>
<path d="M184.157 131.701V188.91" stroke="#E5DFA0" stroke-miterlimit="10"/>
<path d="M190.354 140.864C190.354 140.864 207.783 132.154 223.126 140.864" stroke="#E5DFA0" stroke-width="0.8927" stroke-miterlimit="10"/>
<path d="M190.354 149.76C190.354 149.76 207.783 141.049 223.126 149.76" stroke="#E5DFA0" stroke-width="0.8927" stroke-miterlimit="10"/>
<path d="M190.354 158.152C190.354 158.152 207.783 149.442 223.126 158.152" stroke="#E5DFA0" stroke-width="0.8927" stroke-miterlimit="10"/>
<path d="M190.354 168.033C190.354 168.033 207.783 159.323 223.126 168.033" stroke="#E5DFA0" stroke-width="0.8927" stroke-miterlimit="10"/>
<path d="M190.354 177.1C190.354 177.1 207.783 168.389 223.126 177.1" stroke="#E5DFA0" stroke-width="0.8927" stroke-miterlimit="10"/>
<path d="M145.195 140.567C145.195 140.567 162.625 131.857 177.968 140.567" stroke="#E5DFA0" stroke-width="0.8927" stroke-miterlimit="10"/>
<path d="M145.195 149.467C145.195 149.467 162.625 140.757 177.968 149.467" stroke="#E5DFA0" stroke-width="0.8927" stroke-miterlimit="10"/>
<path d="M145.195 157.855C145.195 157.855 162.625 149.145 177.968 157.855" stroke="#E5DFA0" stroke-width="0.8927" stroke-miterlimit="10"/>
<path d="M145.195 167.736C145.195 167.736 162.625 159.025 177.968 167.736" stroke="#E5DFA0" stroke-width="0.8927" stroke-miterlimit="10"/>
<path d="M145.195 176.803C145.195 176.803 162.625 168.092 177.968 176.803" stroke="#E5DFA0" stroke-width="0.8927" stroke-miterlimit="10"/>
<path d="M265.561 137C265.561 137 284.123 176.767 235 184" stroke="#0F8AB2" stroke-width="6" stroke-miterlimit="10" stroke-linecap="round"/>
<path d="M240.712 175.594C243.382 175.962 245.836 178.469 246.692 182.061C247.785 186.633 245.877 191.278 242.475 192.394L234.062 195.144C234 195.165 233.938 195.175 233.876 195.186C233.845 195.196 233.825 195.217 233.794 195.228L222.432 198.936C221.546 199.231 220.576 198.483 220.298 197.292C220.009 196.102 220.515 194.88 221.401 194.596L227.587 192.573C227.226 192.089 226.907 191.541 226.628 190.962L219.216 193.385C218.329 193.679 217.36 192.932 217.081 191.741C216.793 190.551 217.298 189.329 218.185 189.045L225.597 186.622C225.577 186.022 225.608 185.432 225.68 184.852L219.308 186.938C218.422 187.233 217.453 186.485 217.174 185.295C216.886 184.105 217.391 182.883 218.277 182.598L228.897 179.133C229.206 178.933 229.546 178.764 229.897 178.638L227.67 178.469C226.732 178.395 225.958 177.342 225.948 176.11C225.938 174.877 226.69 173.94 227.629 174.003" fill="#A2CCED"/>
<path d="M102.493 137C102.493 137 86.6151 179.633 135 187" stroke="#0F8AB2" stroke-width="6" stroke-miterlimit="10" stroke-linecap="round"/>
<path d="M128.499 178.53C125.739 178.884 123.203 181.29 122.319 184.739C121.189 189.127 123.16 193.587 126.677 194.659L135.371 197.298C135.435 197.318 135.499 197.328 135.563 197.338C135.595 197.348 135.616 197.369 135.648 197.379L147.39 200.938C148.306 201.221 149.308 200.503 149.595 199.361C149.883 198.218 149.372 197.045 148.455 196.772L142.062 194.83C142.435 194.365 142.766 193.84 143.053 193.283L150.714 195.609C151.631 195.892 152.632 195.174 152.92 194.032C153.208 192.889 152.696 191.716 151.78 191.443L144.119 189.117C144.14 188.541 144.108 187.974 144.034 187.418L150.618 189.421C151.535 189.704 152.536 188.986 152.824 187.843C153.122 186.7 152.6 185.527 151.684 185.254L140.709 181.927C140.39 181.735 140.038 181.574 139.676 181.452L141.977 181.29C142.947 181.22 143.746 180.208 143.757 179.025C143.767 177.842 142.989 176.942 142.02 177.003" fill="#A2CCED"/>
</g>
<defs>
<linearGradient id="paint0_linear" x1="7.87501" y1="5.13978" x2="8.5267" y2="253.587" gradientUnits="userSpaceOnUse">
<stop offset="0.313373" stop-color="#FFE16A"/>
<stop offset="1" stop-color="#FFB833"/>
</linearGradient>
<clipPath id="clip0">
<rect width="285" height="271" fill="white" transform="translate(38 10)"/>
</clipPath>
</defs>
</svg>
