<svg width="289" height="292" viewBox="0 0 289 292" fill="none" xmlns="http://www.w3.org/2000/svg">
<g id="neighbour_Large">
<g id="Group 9">
<g id="right-leg">
<path id="Vector" d="M165.843 254.11L173.433 204H151.523L159.523 254.11H164.023" fill="#00A1CD"/>
<path id="Vector_2" d="M156.733 237.54H168.203L166.503 254H159.523L156.733 237.54Z" fill="#ED1651"/>
<path id="Vector_3" d="M160.603 253.98C160.603 247.49 165.853 242.22 172.333 242.22C178.813 242.22 184.063 247.49 184.063 253.98" fill="#504B48"/>
</g>
<g id="left-leg">
<path id="Vector_4" d="M123.513 250.02L113.973 204H137.753L129.203 252.67L121.043 250.02" fill="#00A1CD"/>
<path id="Vector_5" d="M120.873 236.62H132.343L129.543 253.08H122.563L120.873 236.62Z" fill="#ED1651"/>
<path id="Vector_6" d="M106.523 253.76C106.523 247.27 111.773 242 118.253 242C124.733 242 129.983 247.27 129.983 253.76" fill="#504B48"/>
</g>
<g id="right-arm">
<path id="Vector (Stroke)" fill-rule="evenodd" clip-rule="evenodd" d="M220.132 144.643C220.565 145.898 221.933 146.564 223.188 146.131L222.404 143.859C223.188 146.131 223.19 146.13 223.193 146.129L223.197 146.128L223.208 146.124L223.233 146.115C223.252 146.108 223.275 146.099 223.303 146.089C223.357 146.069 223.427 146.041 223.511 146.006C223.681 145.936 223.909 145.836 224.19 145.699C224.751 145.424 225.519 145.003 226.434 144.386C228.267 143.15 230.678 141.137 233.192 137.967C238.231 131.616 243.591 120.742 245.692 102.423C245.843 101.104 244.897 99.912 243.578 99.7607C242.259 99.6094 241.068 100.556 240.916 101.875C238.898 119.476 233.808 129.457 229.426 134.98C227.231 137.748 225.189 139.428 223.747 140.4C223.025 140.887 222.449 141.198 222.077 141.381C221.89 141.472 221.755 141.531 221.676 141.563C221.637 141.579 221.612 141.589 221.602 141.593C221.602 141.593 221.601 141.593 221.601 141.593C220.358 142.034 219.701 143.394 220.132 144.643Z" fill="#0F8AB2"/>
<path id="Vector_7" d="M236.424 103.679C237.134 106.049 239.704 107.929 243.014 108.209C247.224 108.559 251.084 106.199 251.584 102.949L252.834 94.9387C252.844 94.8787 252.844 94.8287 252.854 94.7687C252.864 94.7387 252.874 94.7187 252.874 94.6887L254.564 83.8687C254.694 83.0187 253.904 82.2487 252.804 82.1587C251.704 82.0687 250.694 82.6887 250.564 83.5387L249.644 89.4287C249.164 89.1687 248.634 88.9487 248.074 88.7787L249.174 81.7187C249.304 80.8687 248.514 80.0987 247.414 80.0087C246.314 79.9187 245.304 80.5387 245.174 81.3887L244.074 88.4487C243.534 88.5187 243.014 88.6187 242.514 88.7687L243.464 82.6987C243.594 81.8487 242.804 81.0787 241.704 80.9887C240.604 80.8987 239.594 81.5187 239.464 82.3687L237.884 92.4787C237.744 92.7887 237.654 93.1187 237.584 93.4487L237.124 91.4487C236.934 90.6087 235.874 90.0487 234.784 90.2087C233.694 90.3687 232.954 91.1887 233.154 92.0187" fill="#A2CCED"/>
</g>
<g id="left-arm">
<path id="Vector (Stroke)_2" fill-rule="evenodd" clip-rule="evenodd" d="M77.3783 139.081C78.6703 139.341 79.5136 140.595 79.2642 141.892C79.0135 143.195 77.7535 144.049 76.4499 143.798L76.9038 141.438C76.4499 143.798 76.4477 143.798 76.4455 143.797L76.4406 143.796L76.4297 143.794L76.4031 143.789C76.3833 143.784 76.3591 143.779 76.3309 143.773C76.2744 143.76 76.2013 143.743 76.1125 143.721C75.9349 143.675 75.6943 143.608 75.3972 143.512C74.8028 143.32 73.9828 143.012 72.9893 142.531C70.9995 141.567 68.328 139.917 65.3894 137.136C59.5012 131.563 52.6532 121.558 47.9757 103.722C47.639 102.438 48.4069 101.124 49.691 100.788C50.975 100.451 52.2889 101.219 52.6257 102.503C57.1198 119.64 63.5735 128.798 68.6939 133.644C71.2596 136.073 73.5192 137.446 75.0844 138.204C75.8684 138.584 76.4819 138.811 76.8766 138.938C77.0741 139.002 77.2169 139.041 77.2991 139.062C77.3402 139.073 77.3662 139.079 77.3762 139.081C77.377 139.081 77.3777 139.081 77.3783 139.081Z" fill="#0F8AB2"/>
<path id="Vector_8" d="M57.3281 103.652C56.9613 106.098 54.6839 108.324 51.447 109.07C47.3292 110.014 43.1736 108.225 42.2178 105.079L39.8446 97.3267C39.8262 97.2688 39.8191 97.2193 39.8007 97.1613C39.7866 97.133 39.7738 97.1146 39.7696 97.0849L36.5624 86.6139C36.3132 85.7909 36.986 84.9167 38.0622 84.6716C39.1383 84.4265 40.226 84.8971 40.4752 85.72L42.2211 91.4201C42.6594 91.0946 43.1528 90.8017 43.6831 90.554L41.5931 83.7213C41.3439 82.8984 42.0167 82.0241 43.0929 81.7791C44.169 81.534 45.2567 82.0045 45.5059 82.8275L47.5959 89.6602C48.1403 89.6529 48.6693 89.6782 49.1855 89.7557L47.3844 83.8818C47.1352 83.0588 47.808 82.1846 48.8841 81.9395C49.9602 81.6944 51.0479 82.165 51.2972 82.9879L54.2948 92.7717C54.4773 93.0588 54.6132 93.3727 54.7293 93.6894L54.901 91.6444C54.97 90.7859 55.9399 90.0813 57.0416 90.0851C58.1432 90.0889 58.992 90.7957 58.9117 91.6457" fill="#A2CCED"/>
</g>
<g id="torso">
<path id="torso_2" d="M66.5233 148.06C66.5233 114.04 83.4233 81.0099 105.303 57.4399C161.703 -3.32005 224.513 84.3999 224.513 150.87C224.513 199.93 185.673 211.82 146.813 211.82C107.943 211.82 66.5233 197.11 66.5233 148.06Z" fill="#00A1CD"/>
</g>
<path id="mouth" d="M159.763 101.33C159.763 101.33 157.483 108.65 146.253 108.43C135.023 108.21 134.143 101.33 134.143 101.33H159.763Z" fill="#0D4060"/>
<g id="eyes">
<g id="right-eye">
<path id="right-white-eye" d="M151.753 92.2899C151.753 87.1799 156.173 83.0399 161.613 83.0399C167.063 83.0399 171.473 87.1799 171.473 92.2899" fill="white"/>
<path id="right-eye-pupil" d="M157.383 92.2899C157.383 89.9199 159.303 87.9999 161.673 87.9999C164.043 87.9999 165.963 89.9199 165.963 92.2899" fill="#0D4060"/>
<path id="right-eye-lashes" d="M175.953 89.6699L171.503 90.2899C171.463 90.0799 171.413 89.8599 171.363 89.6399L175.913 85.6699L170.783 87.9299C169.753 85.5699 167.613 83.2099 163.243 83.0699C164.603 83.2199 169.373 84.3299 171.753 92.6899C171.753 92.6899 171.763 92.2899 171.703 91.6599L175.953 89.6699Z" fill="#0D4060"/>
<path id="Vector_9" d="M161.233 83.0699C160.993 83.0399 160.853 83.0399 160.853 83.0399C160.993 83.0399 161.103 83.0699 161.233 83.0699Z" fill="#0D4060"/>
<path id="right-eye-brow" fill-rule="evenodd" clip-rule="evenodd" d="M170.9 78.6486C170.9 78.6492 170.9 78.6497 169.993 78.97L170.9 78.6497C171.077 79.1507 170.815 79.7003 170.314 79.8771C169.813 80.0537 169.265 79.7921 169.087 79.2928C169.087 79.2923 169.087 79.2918 169.086 79.2912C169.086 79.2912 169.086 79.2912 169.086 79.2911M169.086 79.2912L169.087 79.2919L169.084 79.285C169.081 79.2764 169.075 79.2611 169.067 79.2398C169.05 79.1971 169.022 79.1303 168.984 79.0441C168.906 78.8714 168.785 78.623 168.617 78.3353C168.276 77.7546 167.757 77.0429 167.032 76.4614C166.317 75.8872 165.403 75.4398 164.237 75.3609C163.066 75.2817 161.558 75.5689 159.653 76.6051C159.186 76.8589 158.602 76.6863 158.348 76.2195C158.094 75.7528 158.267 75.1686 158.734 74.9148C160.883 73.746 162.753 73.332 164.367 73.4412C165.986 73.5507 167.266 74.1815 168.237 74.961C169.199 75.7333 169.859 76.6509 170.276 77.3612C170.486 77.7189 170.638 78.0314 170.74 78.2581C170.791 78.3717 170.829 78.4644 170.855 78.5311C170.869 78.5645 170.879 78.5915 170.886 78.6115L170.896 78.6361L170.899 78.6443L170.9 78.6473L170.9 78.6486" fill="#0D4060"/>
</g>
<g id="left-eye">
<path id="left-white-eye" d="M122.423 92.2899C122.423 87.1799 126.863 83.0399 132.343 83.0399C137.823 83.0399 142.263 87.1799 142.263 92.2899" fill="white"/>
<path id="left-eye-pupil" d="M128.053 92.2899C128.053 89.9199 129.973 87.9999 132.343 87.9999C134.713 87.9999 136.633 89.9199 136.633 92.2899" fill="#0D4060"/>
<path id="left-eye-lashes" d="M123.283 87.9299L118.153 85.6699L122.703 89.6399C122.643 89.8699 122.603 90.0799 122.563 90.2899L118.113 89.6699L122.363 91.6599C122.303 92.2899 122.313 92.6899 122.313 92.6899C124.693 84.3299 129.453 83.2199 130.823 83.0699C126.453 83.2099 124.313 85.5699 123.283 87.9299Z" fill="#0D4060"/>
<path id="Vector_10" d="M130.813 83.0699C130.943 83.0699 131.063 83.0399 131.193 83.0399C131.203 83.0499 131.053 83.0499 130.813 83.0699Z" fill="#0D4060"/>
<path id="left-eye-brow" fill-rule="evenodd" clip-rule="evenodd" d="M123.505 79.3982L123.509 79.39C123.513 79.3813 123.521 79.366 123.533 79.3447C123.556 79.3022 123.593 79.2359 123.644 79.1504C123.746 78.9792 123.903 78.733 124.117 78.4478C124.546 77.8737 125.187 77.1623 126.042 76.5802C126.891 76.002 127.946 75.5543 129.227 75.484C130.506 75.4137 132.08 75.7164 133.974 76.7453C134.441 76.9989 135.025 76.826 135.279 76.3592C135.532 75.8923 135.359 75.3082 134.892 75.0546C132.737 73.8835 130.811 73.4699 129.121 73.5628C127.432 73.6556 126.045 74.2504 124.959 74.9897C123.879 75.725 123.092 76.6062 122.576 77.2952C122.317 77.6415 122.123 77.9446 121.991 78.1647C121.926 78.2749 121.875 78.3648 121.84 78.4295C121.823 78.4619 121.809 78.488 121.799 78.5072L121.787 78.5309L121.783 78.5388L121.782 78.5417L121.781 78.5428C121.781 78.5434 121.781 78.5439 122.643 78.9699L121.781 78.5439C121.545 79.0202 121.741 79.5972 122.217 79.8325C122.693 80.0677 123.27 79.8726 123.505 79.3969M123.505 79.3984C123.504 79.3988 123.504 79.3987 123.505 79.3982L123.505 79.3984Z" fill="#0D4060"/>
</g>
</g>
</g>
</g>
</svg>
