<svg width="328" height="357" viewBox="0 0 328 357" fill="none" xmlns="http://www.w3.org/2000/svg">
<rect width="328" height="357" fill="#E5E5E5"/>
<g clip-path="url(#clip0)">
<rect width="411" height="731" transform="translate(-43 -77)" fill="white"/>
<g filter="url(#filter0_d)">
<rect x="-60" y="-35" width="444" height="694" fill="#FFF5CF"/>
</g>
<rect width="328" height="357" rx="20" fill="#CAE6FC"/>
<rect width="328" height="357" rx="20" fill="#CAE6FC"/>
<ellipse rx="11" ry="10.5" transform="matrix(1 0 0 -1 100 149.5)" fill="white"/>
<path d="M180.241 338.794L186.412 297.69H168.598L174.81 339.983L179.566 336.948" fill="#00A1CD"/>
<path d="M149.158 336.62L141.402 298.871H160.736L153.784 338.794L147.15 336.62" fill="#00A1CD"/>
<path d="M147.012 325.629H156.337L154.061 339.131H148.386L147.012 325.629Z" fill="#ED1651"/>
<path d="M172.533 326.162H181.859L180.477 339.664H174.802L172.533 326.162Z" fill="#ED1651"/>
<path d="M135.344 339.983C135.344 334.66 139.613 330.337 144.881 330.337C150.15 330.337 154.418 334.66 154.418 339.983" fill="#504B48"/>
<path d="M174.826 339.983C174.826 334.66 179.094 330.337 184.363 330.337C189.631 330.337 193.9 334.66 193.9 339.983" fill="#504B48"/>
<path d="M225.649 244.676C225.649 244.676 239.292 249.425 242.642 278.89" stroke="#0F8AB2" stroke-width="6" stroke-miterlimit="10" stroke-linecap="round"/>
<path d="M237.048 277.634C237.625 275.69 239.715 274.148 242.406 273.918C245.829 273.631 248.967 275.567 249.374 278.233L250.39 284.803C250.398 284.853 250.398 284.894 250.406 284.943C250.414 284.967 250.423 284.984 250.423 285.009L251.797 293.884C251.902 294.581 251.26 295.213 250.366 295.287C249.471 295.36 248.65 294.852 248.544 294.155L247.796 289.323C247.406 289.536 246.975 289.717 246.52 289.856L247.414 295.647C247.52 296.345 246.878 296.976 245.983 297.05C245.089 297.124 244.268 296.615 244.162 295.918L243.268 290.127C242.829 290.07 242.406 289.988 241.999 289.865L242.772 294.844C242.878 295.541 242.235 296.172 241.341 296.246C240.447 296.32 239.625 295.812 239.52 295.114L238.235 286.821C238.121 286.567 238.048 286.296 237.991 286.026L237.617 287.666C237.463 288.355 236.601 288.815 235.715 288.683C234.828 288.552 234.227 287.879 234.389 287.199" fill="#A2CCED"/>
<path d="M105.068 244.393C105.068 244.393 91.425 249.142 88.0753 278.607" stroke="#0F8AB2" stroke-width="6" stroke-miterlimit="10" stroke-linecap="round"/>
<path d="M101.587 253.1C101.587 225.194 115.327 198.1 133.117 178.766C178.972 128.926 230.04 200.881 230.04 255.405C230.04 295.648 198.461 305.401 166.866 305.401C135.263 305.401 101.587 293.334 101.587 253.1Z" fill="#00A1CD"/>
<path d="M93.669 277.352C93.0918 275.407 91.0022 273.865 88.3111 273.636C84.8881 273.349 81.7498 275.284 81.3433 277.95L80.327 284.521C80.3188 284.57 80.3188 284.611 80.3107 284.66C80.3026 284.685 80.2944 284.701 80.2944 284.726L78.9204 293.601C78.8147 294.298 79.457 294.93 80.3513 295.004C81.2457 295.078 82.0669 294.569 82.1726 293.872L82.9206 289.04C83.3108 289.254 83.7418 289.434 84.1971 289.574L83.3027 295.365C83.197 296.062 83.8393 296.694 84.7337 296.767C85.628 296.841 86.4492 296.333 86.5549 295.635L87.4492 289.844C87.8883 289.787 88.3111 289.705 88.7176 289.582L87.9452 294.561C87.8395 295.258 88.4818 295.89 89.3762 295.964C90.2705 296.037 91.0917 295.529 91.1974 294.832L92.482 286.539C92.5958 286.284 92.669 286.014 92.7259 285.743L93.0999 287.383C93.2544 288.073 94.1162 288.532 95.0024 288.401C95.8886 288.269 96.4903 287.597 96.3277 286.916" fill="#A2CCED"/>
<path d="M147.215 196.427C147.215 196.427 150.215 190.3 156.801 193.909" stroke="#0D4060" stroke-width="2" stroke-miterlimit="10" stroke-linecap="round"/>
<path d="M185.713 196.427C185.713 196.427 183.525 190.177 176.932 193.794" stroke="#0D4060" stroke-width="2" stroke-miterlimit="10" stroke-linecap="round"/>
<path d="M177 215C177 215 175.131 222.212 165.926 221.995C156.721 221.778 156 215 156 215H177Z" fill="#0D4060"/>
<path d="M170.883 207.353C170.883 203.162 174.476 199.766 178.899 199.766C183.33 199.766 186.916 203.162 186.916 207.353" fill="white"/>
<path d="M175.46 207.353C175.46 205.409 177.021 203.834 178.948 203.834C180.875 203.834 182.436 205.409 182.436 207.353" fill="#0D4060"/>
<path d="M147.036 207.353C147.036 203.162 150.646 199.766 155.102 199.766C159.557 199.766 163.167 203.162 163.167 207.353" fill="white"/>
<path d="M151.614 207.353C151.614 205.409 153.175 203.834 155.101 203.834C157.028 203.834 158.589 205.409 158.589 207.353" fill="#0D4060"/>
<path d="M147.735 203.777L143.564 201.923L147.264 205.18C147.215 205.368 147.182 205.541 147.15 205.713L143.532 205.204L146.987 206.837C146.938 207.353 146.947 207.682 146.947 207.682C148.882 200.824 152.752 199.914 153.866 199.791C150.313 199.905 148.573 201.841 147.735 203.777Z" fill="#0D4060"/>
<path d="M153.857 199.79C153.963 199.79 154.061 199.766 154.166 199.766C154.174 199.774 154.053 199.774 153.857 199.79Z" fill="#0D4060"/>
<path d="M190.558 205.204L186.94 205.712C186.908 205.54 186.867 205.36 186.826 205.179L190.526 201.923L186.355 203.777C185.517 201.841 183.777 199.905 180.224 199.79C181.33 199.913 185.208 200.824 187.143 207.681C187.143 207.681 187.151 207.353 187.103 206.836L190.558 205.204Z" fill="#0D4060"/>
<path d="M178.59 199.79C178.395 199.766 178.281 199.766 178.281 199.766C178.395 199.766 178.485 199.79 178.59 199.79Z" fill="#0D4060"/>
<ellipse rx="6.73874" ry="6.74882" transform="matrix(1 0 0 -1 118.91 171.28)" fill="white"/>
<g clip-path="url(#clip1)">
<path d="M119.102 21.4838C124.759 21.378 129.94 23.0017 134.799 25.7132C135.852 26.3004 136.229 25.9795 136.696 25.081C138.823 20.9993 141.623 17.4406 145.302 14.6393C152.577 9.1039 160.732 6.93148 169.808 8.49742C178.549 10.0024 185.202 14.7227 190.258 21.824C190.812 22.6038 191.202 22.5492 191.917 22.1353C198.196 18.4867 204.953 17.0074 212.173 17.9829C219.912 19.029 226.33 22.5813 231.456 28.4407C235.503 33.068 237.794 38.5103 238.66 44.5334C238.838 45.772 239.405 45.9068 240.362 45.9549C246.367 46.2502 251.928 47.9926 256.764 51.5545C266.237 58.5306 270.941 67.9006 269.839 79.6805C268.83 90.4303 263.237 98.4205 253.855 103.776C253.001 104.264 252.589 104.777 252.54 105.814C252.225 112.472 249.489 117.921 243.948 121.759C237.836 125.991 231.247 126.563 224.352 123.838C223.385 123.456 222.432 123.033 221.497 122.577C220.827 122.25 220.54 122.304 220.318 123.126C219.654 125.571 219.007 128.039 217.644 130.224C213.194 137.348 206.812 140.833 198.341 140.326C193.286 140.024 189.12 137.742 185.467 134.412C184.709 133.722 184.278 133.657 183.582 134.537C180.26 138.74 176.262 142.151 171.287 144.279C162.188 148.168 153.183 147.908 144.348 143.438C138.858 140.659 134.741 136.414 131.619 131.187C131.123 130.355 130.713 130.407 130.021 130.853C126.448 133.16 122.626 134.806 118.332 135.252C111.826 135.923 106.014 134.197 100.862 130.272C95.8297 126.434 92.7914 121.335 91.7249 115.126C91.4994 113.814 90.9581 113.425 89.679 113.3C82.2686 112.575 75.7442 109.777 70.2187 104.768C64.3644 99.4602 60.6979 92.9236 59.4349 85.1324C56.8606 69.2516 65.7853 53.8809 80.8639 48.1113C83.0322 47.2802 85.2747 46.693 87.5622 46.3496C88.5514 46.202 88.9058 45.7303 89.1313 44.8575C90.2106 40.718 91.9795 36.8962 94.6666 33.5397C100.927 25.7132 109.075 21.6924 119.102 21.4838Z" fill="#FEFEFE"/>
</g>
<g clip-path="url(#clip2)">
<path d="M119.102 21.4838C124.759 21.378 129.94 23.0017 134.799 25.7132C135.852 26.3004 136.229 25.9795 136.696 25.081C138.823 20.9993 141.623 17.4406 145.302 14.6393C152.577 9.1039 160.732 6.93148 169.808 8.49742C178.549 10.0024 185.202 14.7227 190.258 21.824C190.812 22.6038 191.202 22.5492 191.917 22.1353C198.196 18.4867 204.953 17.0074 212.173 17.9829C219.912 19.029 226.33 22.5813 231.456 28.4407C235.503 33.068 237.794 38.5103 238.66 44.5334C238.838 45.772 239.405 45.9068 240.362 45.9549C246.367 46.2502 251.928 47.9926 256.764 51.5545C266.237 58.5306 270.941 67.9006 269.839 79.6805C268.83 90.4303 263.237 98.4205 253.855 103.776C253.001 104.264 252.589 104.777 252.54 105.814C252.225 112.472 249.489 117.921 243.948 121.759C237.836 125.991 231.247 126.563 224.352 123.838C223.385 123.456 222.432 123.033 221.497 122.577C220.827 122.25 220.54 122.304 220.318 123.126C219.654 125.571 219.007 128.039 217.644 130.224C213.194 137.348 206.812 140.833 198.341 140.326C193.286 140.024 189.12 137.742 185.467 134.412C184.709 133.722 184.278 133.657 183.582 134.537C180.26 138.74 176.262 142.151 171.287 144.279C162.188 148.168 153.183 147.908 144.348 143.438C138.858 140.659 134.741 136.414 131.619 131.187C131.123 130.355 130.713 130.407 130.021 130.853C126.448 133.16 122.626 134.806 118.332 135.252C111.826 135.923 106.014 134.197 100.862 130.272C95.8297 126.434 92.7914 121.335 91.7249 115.126C91.4994 113.814 90.9581 113.425 89.679 113.3C82.2686 112.575 75.7442 109.777 70.2187 104.768C64.3644 99.4602 60.6979 92.9236 59.4349 85.1324C56.8606 69.2516 65.7853 53.8809 80.8639 48.1113C83.0322 47.2802 85.2747 46.693 87.5622 46.3496C88.5514 46.202 88.9058 45.7303 89.1313 44.8575C90.2106 40.718 91.9795 36.8962 94.6666 33.5397C100.927 25.7132 109.075 21.6924 119.102 21.4838Z" fill="#FEFEFE"/>
</g>
</g>
<defs>
<filter id="filter0_d" x="-64" y="-35" width="452" height="702" filterUnits="userSpaceOnUse" color-interpolation-filters="sRGB">
<feFlood flood-opacity="0" result="BackgroundImageFix"/>
<feColorMatrix in="SourceAlpha" type="matrix" values="0 0 0 0 0 0 0 0 0 0 0 0 0 0 0 0 0 0 127 0"/>
<feOffset dy="4"/>
<feGaussianBlur stdDeviation="2"/>
<feColorMatrix type="matrix" values="0 0 0 0 0 0 0 0 0 0 0 0 0 0 0 0 0 0 0.25 0"/>
<feBlend mode="normal" in2="BackgroundImageFix" result="effect1_dropShadow"/>
<feBlend mode="normal" in="SourceGraphic" in2="effect1_dropShadow" result="shape"/>
</filter>
<clipPath id="clip0">
<rect width="411" height="731" fill="white" transform="translate(-43 -77)"/>
</clipPath>
<clipPath id="clip1">
<rect width="211" height="139" fill="white" transform="translate(59 8)"/>
</clipPath>
<clipPath id="clip2">
<rect width="211" height="139" fill="white" transform="translate(59 8)"/>
</clipPath>
</defs>
</svg>
