<svg width="328" height="400" viewBox="0 0 328 400" fill="none" xmlns="http://www.w3.org/2000/svg">
<rect width="328" height="400" fill="#E5E5E5"/>
<g clip-path="url(#clip0)">
<rect width="411" height="731" transform="translate(-43 -77)" fill="white"/>
<g filter="url(#filter0_d)">
<rect x="-50" y="-27" width="444" height="694" fill="#FFF5CF"/>
</g>
<path fill-rule="evenodd" clip-rule="evenodd" d="M328 288V359C328 370.046 319.046 379 308 379H20C8.95431 379 0 370.046 0 359V288H328Z" fill="#F8C911"/>
<rect width="328" height="379" rx="20" fill="#F3D668"/>
<rect width="328" height="400" rx="20" fill="#CAE6FC"/>
<g clip-path="url(#clip1)">
<path d="M103.472 27.9455C110.953 27.8045 117.804 29.9656 124.228 33.5744C125.622 34.356 126.12 33.9289 126.738 32.7331C129.549 27.3006 133.252 22.5642 138.117 18.8358C147.737 11.4686 158.519 8.57722 170.52 10.6614C182.078 12.6644 190.876 18.9468 197.56 28.3982C198.293 29.436 198.808 29.3634 199.754 28.8125C208.057 23.9565 216.991 21.9877 226.538 23.286C236.772 24.6783 245.258 29.4061 252.036 37.2047C257.387 43.3632 260.416 50.6066 261.562 58.6229C261.796 60.2715 262.546 60.4508 263.812 60.5149C271.753 60.9078 279.106 63.2269 285.5 67.9675C298.026 77.2523 304.246 89.7232 302.789 105.401C301.455 119.709 294.059 130.343 281.653 137.471C280.525 138.12 279.979 138.804 279.915 140.183C279.498 149.045 275.881 156.297 268.553 161.405C260.471 167.038 251.759 167.798 242.642 164.172C241.364 163.664 240.103 163.1 238.868 162.494C237.982 162.058 237.602 162.131 237.308 163.224C236.431 166.479 235.575 169.763 233.772 172.671C227.889 182.153 219.449 186.791 208.249 186.116C201.565 185.715 196.056 182.678 191.225 178.245C190.224 177.327 189.653 177.241 188.733 178.411C184.341 184.006 179.054 188.546 172.476 191.378C160.445 196.554 148.537 196.208 136.856 190.259C129.596 186.56 124.152 180.91 120.024 173.953C119.367 172.847 118.826 172.915 117.91 173.509C113.186 176.579 108.133 178.77 102.454 179.364C93.8528 180.256 86.1673 177.959 79.3551 172.736C72.7006 167.628 68.6832 160.841 67.273 152.577C66.9748 150.83 66.2591 150.314 64.5678 150.147C54.7692 149.182 46.1422 145.458 38.8358 138.791C31.0949 131.727 26.2468 123.027 24.5767 112.658C21.1728 91.5212 32.9737 71.0639 52.9117 63.3849C55.7789 62.2788 58.744 61.4972 61.7688 61.0402C63.0767 60.8438 63.5453 60.216 63.8435 59.0543C65.2707 53.5449 67.6096 48.4583 71.1626 43.991C79.4403 33.5744 90.2145 28.2231 103.472 27.9455Z" fill="#FEFEFE"/>
</g>
<ellipse rx="11" ry="10.5" transform="matrix(1 0 0 -1 91 198.5)" fill="white"/>
<path d="M179.241 381.794L185.412 340.69H167.598L173.81 382.983L178.566 379.948" fill="#00A1CD"/>
<path d="M148.158 379.62L140.402 341.871H159.736L152.784 381.794L146.15 379.62" fill="#00A1CD"/>
<path d="M146.012 368.629H155.337L153.061 382.131H147.386L146.012 368.629Z" fill="#ED1651"/>
<path d="M171.533 369.162H180.859L179.477 382.664H173.802L171.533 369.162Z" fill="#ED1651"/>
<path d="M134.344 382.983C134.344 377.66 138.613 373.337 143.881 373.337C149.15 373.337 153.418 377.66 153.418 382.983" fill="#504B48"/>
<path d="M173.826 382.983C173.826 377.66 178.094 373.337 183.363 373.337C188.631 373.337 192.9 377.66 192.9 382.983" fill="#504B48"/>
<path d="M224.649 287.676C224.649 287.676 238.292 292.425 241.642 321.89" stroke="#0F8AB2" stroke-width="6" stroke-miterlimit="10" stroke-linecap="round"/>
<path d="M236.048 320.634C236.625 318.69 238.715 317.148 241.406 316.918C244.829 316.631 247.967 318.567 248.374 321.233L249.39 327.803C249.398 327.853 249.398 327.894 249.406 327.943C249.414 327.967 249.423 327.984 249.423 328.009L250.797 336.884C250.902 337.581 250.26 338.213 249.366 338.287C248.471 338.36 247.65 337.852 247.544 337.155L246.796 332.323C246.406 332.536 245.975 332.717 245.52 332.856L246.414 338.647C246.52 339.345 245.878 339.976 244.983 340.05C244.089 340.124 243.268 339.615 243.162 338.918L242.268 333.127C241.829 333.07 241.406 332.988 240.999 332.865L241.772 337.844C241.878 338.541 241.235 339.172 240.341 339.246C239.447 339.32 238.625 338.812 238.52 338.114L237.235 329.821C237.121 329.567 237.048 329.296 236.991 329.026L236.617 330.666C236.463 331.355 235.601 331.815 234.715 331.683C233.828 331.552 233.227 330.879 233.389 330.199" fill="#A2CCED"/>
<path d="M104.068 287.393C104.068 287.393 90.425 292.142 87.0753 321.607" stroke="#0F8AB2" stroke-width="6" stroke-miterlimit="10" stroke-linecap="round"/>
<path d="M100.587 296.1C100.587 268.194 114.327 241.1 132.117 221.766C177.972 171.926 229.04 243.881 229.04 298.405C229.04 338.648 197.461 348.401 165.866 348.401C134.263 348.401 100.587 336.334 100.587 296.1Z" fill="#00A1CD"/>
<path d="M92.669 320.352C92.0918 318.407 90.0022 316.865 87.3111 316.636C83.8881 316.349 80.7498 318.284 80.3433 320.95L79.327 327.521C79.3188 327.57 79.3188 327.611 79.3107 327.66C79.3026 327.685 79.2944 327.701 79.2944 327.726L77.9204 336.601C77.8147 337.298 78.457 337.93 79.3513 338.004C80.2457 338.078 81.0669 337.569 81.1726 336.872L81.9206 332.04C82.3108 332.254 82.7418 332.434 83.1971 332.574L82.3027 338.365C82.197 339.062 82.8393 339.694 83.7337 339.767C84.628 339.841 85.4492 339.333 85.5549 338.635L86.4492 332.844C86.8883 332.787 87.3111 332.705 87.7176 332.582L86.9452 337.561C86.8395 338.258 87.4818 338.89 88.3762 338.964C89.2705 339.037 90.0917 338.529 90.1974 337.832L91.482 329.539C91.5958 329.284 91.669 329.014 91.7259 328.743L92.0999 330.383C92.2544 331.073 93.1162 331.532 94.0024 331.401C94.8886 331.269 95.4903 330.597 95.3277 329.916" fill="#A2CCED"/>
<ellipse rx="6.73874" ry="6.74882" transform="matrix(1 0 0 -1 117.91 214.28)" fill="white"/>
<g clip-path="url(#clip2)">
<path d="M174.79 264.718C173.702 264.785 172.513 265.123 171.324 265.47C170.135 265.816 168.955 266.171 167.741 266.432C165.506 266.914 163.33 266.762 161.162 266.103C159.37 265.554 157.579 265.039 155.704 264.819C153.435 264.557 151.426 265.123 149.66 266.559C149.166 266.965 148.739 267.446 148.287 267.902C148.078 268.113 147.869 268.367 148.22 268.612C148.513 268.814 148.806 269.228 149.233 268.857C149.476 268.654 149.693 268.409 149.911 268.181C151.644 266.39 153.779 265.892 156.148 266.272C157.646 266.517 159.128 266.888 160.567 267.387C163.338 268.341 166.117 268.35 168.922 267.606C170.32 267.235 171.709 266.804 173.107 266.424C175.66 265.731 177.795 266.382 179.411 268.527C179.729 268.958 179.98 269.068 180.449 268.738C180.867 268.443 180.942 268.206 180.624 267.801C179.176 265.926 177.36 264.76 174.79 264.718Z" fill="#0A4467"/>
<path d="M144.152 250.19C144.152 254.54 147.886 258.07 152.49 258.07C157.094 258.07 160.827 254.54 160.827 250.19" fill="white"/>
<path d="M148.907 250.19C148.907 252.209 150.531 253.847 152.531 253.847C154.532 253.847 156.156 252.209 156.156 250.19" fill="#0D4060"/>
<path d="M168.846 250.19C168.846 254.54 172.597 258.07 177.226 258.07C181.855 258.07 185.605 254.54 185.605 250.19H168.846Z" fill="white"/>
<path d="M173.601 250.19C173.601 252.209 175.225 253.847 177.226 253.847C179.226 253.847 180.85 252.209 180.85 250.19" fill="#0D4060"/>
<path d="M182.491 236.709C182.491 236.709 179.017 240.493 172.421 237.47" stroke="#0D4060" stroke-width="1.6727" stroke-miterlimit="10" stroke-linecap="round"/>
<path d="M156.357 236.709C156.357 236.709 152.883 240.493 146.287 237.47" stroke="#0D4060" stroke-width="1.6727" stroke-miterlimit="10" stroke-linecap="round"/>
<path d="M185.48 247.724L189.958 245.925L185.982 249.083C186.032 249.261 186.074 249.438 186.107 249.607L190 249.117L185.932 250.688C185.982 251.187 185.756 251.524 185.756 251.524C185.48 245.223 180.08 243.982 178.892 243.872C182.709 243.973 184.576 245.849 185.48 247.724Z" fill="#0D4060"/>
<path d="M144.52 247.724L140.042 245.925L144.018 249.083C143.968 249.261 143.926 249.438 143.893 249.607L140 249.117L144.068 250.688C144.018 251.187 144.244 251.524 144.244 251.524C144.52 245.223 149.92 243.982 151.108 243.872C147.291 243.973 145.424 245.849 144.52 247.724Z" fill="#0D4060"/>
</g>
<g clip-path="url(#clip3)">
<path d="M143.539 118.184H131.588V136.986H143.539V118.184Z" fill="#959799"/>
<path d="M184.223 118.122H172.272V136.924H184.223V118.122Z" fill="#959799"/>
<path d="M195.732 93.6021C195.732 73.5338 177.73 57.2676 155.522 57.2676C134.771 57.2676 117.697 71.4723 115.543 89.7052H115.317V139H133.369V123.927C139.723 127.725 147.336 129.94 155.526 129.94C157.151 129.94 158.75 129.849 160.324 129.681V139.004H178.377V123.5C188.86 116.94 195.732 105.997 195.732 93.6021Z" fill="#B0B4B7"/>
<path d="M194.333 96.7542C194.333 96.7542 195.126 106.912 202.728 106.376C202.728 106.376 202.279 109.251 198.646 108.346C195.013 107.441 189.707 104.453 188.9 96.5718L194.333 96.7542Z" fill="#FFFBE6"/>
<path d="M167.546 96.7542C167.546 96.7542 166.754 106.912 159.152 106.376C159.152 106.376 159.601 109.251 163.234 108.346C166.864 107.445 172.173 104.453 172.98 96.5718L167.546 96.7542Z" fill="#FAF7E2"/>
<path d="M174.652 71.5268C174.652 85.6257 168.365 97.0537 156.556 97.0537C144.747 97.0537 131.887 78.693 131.887 64.5942C131.887 50.4953 141.461 46 153.27 46C165.078 46 174.652 57.428 174.652 71.5268Z" fill="#BCBFC1"/>
<path d="M186.239 72.9863C186.239 87.0852 192.526 98.5131 204.335 98.5131C216.144 98.5131 229.004 80.8823 229.004 66.7834C229.004 52.6845 219.426 47.4595 207.618 47.4595C195.809 47.4595 186.239 58.8874 186.239 72.9863Z" fill="#BCBFC1"/>
<path d="M206.394 72.636C206.394 89.1613 190.489 102.556 180.666 102.556C169.654 102.556 155.304 89.1613 155.304 72.636C155.304 56.1107 165.853 48.9189 180.666 48.9189C195.48 48.9189 206.394 56.1107 206.394 72.636Z" fill="#CED6DC"/>
<path d="M196.926 116.345L196.9 116.224C196.9 116.224 185.179 114.918 186.103 100.476L175.01 100.111C175.01 100.111 174.937 125.054 197.696 125.054C199.811 125.054 201.341 122.248 200.789 119.851C200.249 117.505 198.942 115.969 196.926 116.345Z" fill="#CED6DC"/>
<path d="M154.968 73.8437C154.968 73.8437 171.655 68.2063 172.498 75.7374C173.342 83.2685 175.01 101.538 175.01 101.538C175.01 101.538 154.409 93.6894 154.968 73.8437Z" fill="#C2C8CC"/>
<path d="M206.373 73.8437C206.373 73.8437 189.32 68.2063 188.477 75.7374C187.634 83.2685 185.965 101.538 185.965 101.538C185.965 101.538 206.931 93.6894 206.373 73.8437Z" fill="#C2C8CC"/>
<path d="M165.586 81.4953C166.645 81.4953 167.503 80.6376 167.503 79.5797C167.503 78.5217 166.645 77.6641 165.586 77.6641C164.527 77.6641 163.669 78.5217 163.669 79.5797C163.669 80.6376 164.527 81.4953 165.586 81.4953Z" fill="#0A0A0A"/>
<path d="M193.636 81.4953C194.695 81.4953 195.553 80.6376 195.553 79.5797C195.553 78.5217 194.695 77.6641 193.636 77.6641C192.577 77.6641 191.719 78.5217 191.719 79.5797C191.719 80.6376 192.577 81.4953 193.636 81.4953Z" fill="#0A0A0A"/>
<path d="M198.368 125.055C199.969 125.055 201.267 123.104 201.267 120.698C201.267 118.292 199.969 116.341 198.368 116.341C196.767 116.341 195.469 118.292 195.469 120.698C195.469 123.104 196.767 125.055 198.368 125.055Z" fill="#C2C8CC"/>
<path d="M191.719 115.878C191.719 115.878 188.677 118.297 190.755 122.329L191.719 115.878Z" fill="#C2C8CC"/>
<path d="M189.43 114.327C189.43 114.327 186.198 116.487 187.936 120.68L189.43 114.327Z" fill="#C2C8CC"/>
<path d="M187.761 112.809C187.761 112.809 184.033 113.911 184.445 118.428L187.761 112.809Z" fill="#C2C8CC"/>
<path d="M115.547 89.7051C115.547 89.7051 109.694 92.7153 109 105.161L115.547 89.7051Z" fill="#B0B4B7"/>
</g>
<g clip-path="url(#clip4)">
<path d="M140.856 131.498H127.411V152.726H140.856V131.498Z" fill="#959799"/>
<path d="M186.626 131.428H173.181V152.656H186.626V131.428Z" fill="#959799"/>
<path d="M199.573 103.744C199.573 81.0863 179.322 62.7212 154.338 62.7212C130.993 62.7212 111.785 78.7587 109.361 99.3443H109.106V155H129.416V137.982C136.563 142.27 145.128 144.771 154.342 144.771C156.17 144.771 157.969 144.668 159.74 144.478V155.004H180.049V137.5C191.842 130.093 199.573 117.738 199.573 103.744Z" fill="#B0B4B7"/>
<path d="M198 107.303C198 107.303 198.892 118.772 207.444 118.167C207.444 118.167 206.939 121.413 202.852 120.391C198.764 119.369 192.796 115.995 191.888 107.097L198 107.303Z" fill="#FFFBE6"/>
<path d="M167.865 107.303C167.865 107.303 166.973 118.772 158.421 118.167C158.421 118.167 158.926 121.413 163.013 120.391C167.097 119.374 173.069 115.995 173.977 107.097L167.865 107.303Z" fill="#FAF7E2"/>
<path d="M175.859 78.8206C175.859 94.7387 168.785 107.641 155.501 107.641C142.216 107.641 127.748 86.9115 127.748 70.9934C127.748 55.0753 138.519 50 151.804 50C165.088 50 175.859 62.9025 175.859 78.8206Z" fill="#BCBFC1"/>
<path d="M188.893 80.4686C188.893 96.3866 195.967 109.289 209.252 109.289C222.536 109.289 237.004 89.3833 237.004 73.4653C237.004 57.5472 226.229 51.6479 212.945 51.6479C199.66 51.6479 188.893 64.5505 188.893 80.4686Z" fill="#BCBFC1"/>
<path d="M211.568 80.0727C211.568 98.7303 193.675 113.853 182.625 113.853C170.235 113.853 154.092 98.7303 154.092 80.0727C154.092 61.4151 165.959 53.2954 182.625 53.2954C199.29 53.2954 211.568 61.4151 211.568 80.0727Z" fill="#CED6DC"/>
<path d="M200.917 129.421L200.888 129.285C200.888 129.285 187.702 127.811 188.741 111.505L176.261 111.093C176.261 111.093 176.179 139.255 201.783 139.255C204.162 139.255 205.883 136.087 205.263 133.38C204.655 130.731 203.184 128.997 200.917 129.421Z" fill="#CED6DC"/>
<path d="M153.714 81.4367C153.714 81.4367 172.487 75.0719 173.435 83.5748C174.384 92.0776 176.262 112.704 176.262 112.704C176.262 112.704 153.085 103.843 153.714 81.4367Z" fill="#C2C8CC"/>
<path d="M211.544 81.4367C211.544 81.4367 192.361 75.0719 191.412 83.5748C190.463 92.0776 188.585 112.704 188.585 112.704C188.585 112.704 212.173 103.843 211.544 81.4367Z" fill="#C2C8CC"/>
<path d="M165.659 90.0756C166.85 90.0756 167.816 89.1073 167.816 87.9128C167.816 86.7183 166.85 85.75 165.659 85.75C164.468 85.75 163.503 86.7183 163.503 87.9128C163.503 89.1073 164.468 90.0756 165.659 90.0756Z" fill="#0A0A0A"/>
<path d="M197.215 90.0756C198.407 90.0756 199.372 89.1073 199.372 87.9128C199.372 86.7183 198.407 85.75 197.215 85.75C196.024 85.75 195.059 86.7183 195.059 87.9128C195.059 89.1073 196.024 90.0756 197.215 90.0756Z" fill="#0A0A0A"/>
<path d="M202.539 139.255C204.341 139.255 205.801 137.053 205.801 134.336C205.801 131.62 204.341 129.417 202.539 129.417C200.738 129.417 199.278 131.62 199.278 134.336C199.278 137.053 200.738 139.255 202.539 139.255Z" fill="#C2C8CC"/>
<path d="M195.059 128.894C195.059 128.894 191.637 131.625 193.975 136.177L195.059 128.894Z" fill="#C2C8CC"/>
<path d="M192.483 127.144C192.483 127.144 188.848 129.582 190.803 134.316L192.483 127.144Z" fill="#C2C8CC"/>
<path d="M190.606 125.43C190.606 125.43 186.412 126.674 186.876 131.774L190.606 125.43Z" fill="#C2C8CC"/>
<path d="M109.365 99.3442C109.365 99.3442 102.78 102.743 102 116.795L109.365 99.3442Z" fill="#B0B4B7"/>
</g>
</g>
<defs>
<filter id="filter0_d" x="-54" y="-27" width="452" height="702" filterUnits="userSpaceOnUse" color-interpolation-filters="sRGB">
<feFlood flood-opacity="0" result="BackgroundImageFix"/>
<feColorMatrix in="SourceAlpha" type="matrix" values="0 0 0 0 0 0 0 0 0 0 0 0 0 0 0 0 0 0 127 0"/>
<feOffset dy="4"/>
<feGaussianBlur stdDeviation="2"/>
<feColorMatrix type="matrix" values="0 0 0 0 0 0 0 0 0 0 0 0 0 0 0 0 0 0 0.25 0"/>
<feBlend mode="normal" in2="BackgroundImageFix" result="effect1_dropShadow"/>
<feBlend mode="normal" in="SourceGraphic" in2="effect1_dropShadow" result="shape"/>
</filter>
<clipPath id="clip0">
<rect width="411" height="731" fill="white" transform="translate(-43 -77)"/>
</clipPath>
<clipPath id="clip1">
<rect width="279" height="185" fill="white" transform="translate(24 10)"/>
</clipPath>
<clipPath id="clip2">
<rect width="50" height="33" fill="white" transform="translate(140 236)"/>
</clipPath>
<clipPath id="clip3">
<rect width="120" height="93" fill="white" transform="translate(109 46)"/>
</clipPath>
<clipPath id="clip4">
<rect width="135" height="105" fill="white" transform="translate(102 50)"/>
</clipPath>
</defs>
</svg>
