<svg xmlns="http://www.w3.org/2000/svg" viewBox="0 0 70 70" width="70" height="70" preserveAspectRatio="xMidYMid meet"
    style="width: 100%; height: 100%; transform: translate3d(0px, 0px, 0px);">
    <defs>
        <clipPath id="__lottie_element_5">
            <rect width="70" height="70" x="0" y="0"></rect>
        </clipPath>
    </defs>
    <g clip-path="url(#__lottie_element_5)">
        <g transform="matrix(1.0000019073486328,0,0,1.0000019073486328,35,35)" opacity="1" style="display: block;">
            <g opacity="1" transform="matrix(1.0553499460220337,0,0,1.0553499460220337,0,0)">
                <path fill="rgb(0,194,51)" fill-opacity="1"
                    d=" M0,-23.56599998474121 C-13.015000343322754,-23.56599998474121 -23.56599998474121,-13.015000343322754 -23.56599998474121,0 C-23.56599998474121,13.015000343322754 -13.015000343322754,23.56599998474121 0,23.56599998474121 C13.015000343322754,23.56599998474121 23.56599998474121,13.015000343322754 23.56599998474121,0 C23.56599998474121,-13.015000343322754 13.015000343322754,-23.56599998474121 0,-23.56599998474121z">
                </path>
                <path stroke-linecap="butt" stroke-linejoin="miter" fill-opacity="0" stroke-miterlimit="4"
                    stroke="rgb(229,229,229)" stroke-opacity="1" stroke-width="0"
                    d=" M0,-23.56599998474121 C-13.015000343322754,-23.56599998474121 -23.56599998474121,-13.015000343322754 -23.56599998474121,0 C-23.56599998474121,13.015000343322754 -13.015000343322754,23.56599998474121 0,23.56599998474121 C13.015000343322754,23.56599998474121 23.56599998474121,13.015000343322754 23.56599998474121,0 C23.56599998474121,-13.015000343322754 13.015000343322754,-23.56599998474121 0,-23.56599998474121z">
                </path>
            </g>
        </g>
        <g transform="matrix(1.0000009536743164,0,0,1.0000009536743164,35,35)" opacity="1" style="display: block;">
            <g opacity="1" transform="matrix(1,0,0,1,0,0)">
                <path stroke-linecap="round" stroke-linejoin="round" fill-opacity="0" stroke="rgb(255,255,255)"
                    stroke-opacity="1" stroke-width="3"
                    d=" M-7,1.437999963760376 C-7,1.437999963760376 -2.6559998989105225,5.781000137329102 -2.6559998989105225,5.781000137329102 C-2.6559998989105225,5.781000137329102 7.421999931335449,-4.296999931335449 7.421999931335449,-4.296999931335449">
                </path>
            </g>
        </g>
    </g>
</svg>