<svg width="1219" height="830" viewBox="0 0 1219 830" fill="none" xmlns="http://www.w3.org/2000/svg">
<path d="M1215.41 440.785C1237.33 563.054 1155.99 679.948 1033.72 701.877C911.451 723.805 794.558 642.462 772.629 520.192C750.701 397.922 832.045 281.028 954.314 259.099C1076.58 237.173 1193.48 318.514 1215.41 440.785Z" fill="#00A1CD"/>
<path d="M944.928 690.42L958.708 781.002H975.227L989.009 690.698" fill="#00A1CD"/>
<path d="M974.891 802.949H958.698L951.56 729.843H983.407L974.891 802.949Z" fill="#CF2153"/>
<path d="M841.041 479.822C837.969 462.693 849.364 446.317 866.493 443.246C883.622 440.174 899.997 451.569 903.069 468.698" fill="white"/>
<path d="M921.315 465.426C918.243 448.297 929.638 431.922 946.767 428.85C963.896 425.778 980.271 437.173 983.343 454.302" fill="white"/>
<path d="M840.512 438.477C840.512 438.477 846.301 418.432 868.216 425.706" stroke="#0D4060" stroke-width="3" stroke-miterlimit="10"/>
<path d="M964.909 416.168C964.909 416.168 954.901 398.586 936.88 413.022" stroke="#0D4060" stroke-width="3" stroke-miterlimit="10"/>
<path d="M848.821 479.121C847.492 471.712 852.421 464.628 859.83 463.299C867.24 461.971 874.323 466.899 875.651 474.309" fill="#0D4060"/>
<path d="M929.095 464.724C927.766 457.315 932.695 450.231 940.104 448.902C947.513 447.574 954.597 452.502 955.925 459.912" fill="#0D4060"/>
<path d="M957.129 488.175C957.129 488.175 954.102 512.36 918.869 517.951C883.637 523.545 877.01 502.544 877.01 502.544L957.129 488.175Z" fill="#0D4060"/>
<g opacity="0.7">
<g opacity="0.7">
<path opacity="0.7" d="M845.719 505.909C846.383 509.614 837.702 514.27 826.329 516.31C814.957 518.349 805.199 516.999 804.534 513.294C803.87 509.589 812.551 504.931 823.923 502.892C835.297 500.852 845.054 502.204 845.719 505.909Z" fill="#A2CCED"/>
</g>
</g>
<g opacity="0.7">
<g opacity="0.7">
<path opacity="0.7" d="M1021.67 474.354C1022.33 478.059 1013.65 482.715 1002.28 484.754C990.908 486.794 981.15 485.444 980.485 481.739C979.821 478.034 988.502 473.376 999.875 471.336C1011.25 469.298 1021.01 470.648 1021.67 474.354Z" fill="#A2CCED"/>
</g>
</g>
<path d="M978.937 806.69C978.937 789.086 964.666 774.815 947.062 774.815C929.457 774.815 915.186 789.086 915.186 806.69" fill="#504B48"/>
<path d="M1065.4 690.458L1051.62 780.761H1035.1L1021.32 690.42" fill="#00A1CD"/>
<path d="M1035.26 803.208H1051.46L1059.97 730.101H1026.66L1035.26 803.208Z" fill="#CF2153"/>
<path d="M993.008 806.45C993.008 788.846 1007.28 774.574 1024.88 774.574C1042.49 774.574 1056.76 788.845 1056.76 806.45" fill="#504B48"/>
<path d="M310.572 445.608C310.572 445.608 365.674 421.354 399.312 429.297C432.95 437.241 497.569 468.228 497.569 468.228" stroke="#00A1CD" stroke-width="10" stroke-miterlimit="10"/>
<path d="M298.85 6.45006C172.833 -12.2759 66.0515 3.68005 46.2865 136.694C41.2735 170.428 40.7015 205.109 40.4665 239.147C40.2055 276.936 41.2405 314.806 45.5815 352.375C47.4905 368.89 50.4725 383.575 46.3595 400.008C42.7545 414.411 36.4575 428.664 27.9795 440.873C5.11247 473.806 -4.99753 509.702 2.38147 549.596C7.27747 576.068 25.2105 599.252 46.7465 615.33C91.3955 648.663 149.491 655.923 202.996 663.874C261.761 672.604 330.562 678.242 384.366 647.675C406.554 635.071 424.093 616.132 435.64 593.426C442.468 580.002 446.122 566.113 450.138 551.751C455.694 531.885 452.682 513.585 447.787 494.084C440.44 464.809 432.874 425.66 444.92 396.56C472.935 328.722 497.726 237.521 503.033 201.812C522.797 68.8001 424.867 25.1761 298.85 6.45006Z" fill="#00A1CD"/>
<g opacity="0.7">
<g opacity="0.7">
<path opacity="0.7" d="M245.154 229.192C244.594 232.96 234.766 234.621 223.203 232.902C211.639 231.184 202.719 226.737 203.279 222.969C203.839 219.201 213.667 217.54 225.23 219.258C236.794 220.977 245.714 225.424 245.154 229.192Z" fill="#A2CCED"/>
</g>
</g>
<g opacity="0.7">
<g opacity="0.7">
<path opacity="0.7" d="M428.31 256.407C427.75 260.175 417.922 261.836 406.359 260.118C394.795 258.398 385.875 253.953 386.435 250.184C386.995 246.417 396.823 244.756 408.386 246.473C419.95 248.192 428.87 252.638 428.31 256.407Z" fill="#A2CCED"/>
</g>
</g>
<path d="M249.615 656.43L266.729 768.568H287.241L305.428 642.418" fill="#00A1CD"/>
<path d="M226.114 656.083L209 768.567H188.488L171.374 656.43" fill="#00A1CD"/>
<path d="M287.04 796.442H266.93L256.355 705.658H297.718L287.04 796.442Z" fill="#5652A3"/>
<path d="M188.905 795.822H209.014L219.693 705.038H178.331L188.905 795.822Z" fill="#5652A3"/>
<path d="M257.11 796.892C257.11 777.847 241.672 762.409 222.628 762.409C203.583 762.409 188.145 777.847 188.145 796.892" fill="#504B48"/>
<path d="M267.125 796.892C267.125 777.847 282.564 762.409 301.608 762.409C320.653 762.409 336.091 777.847 336.091 796.892" fill="#504B48"/>
<path d="M350.224 262.126C350.224 262.126 340.63 282.015 308.763 276.625C276.895 271.234 277.28 251.287 277.28 251.287L350.224 262.126Z" fill="#0D4060"/>
<path d="M249.167 213.038C251.793 195.361 268.251 183.161 285.928 185.787C303.604 188.414 315.805 204.873 313.178 222.55" fill="white"/>
<path d="M332.009 225.347C334.635 207.67 351.094 195.47 368.771 198.096C386.447 200.723 398.648 217.182 396.021 234.859" fill="white"/>
<path d="M262.208 172.629C262.208 172.629 274.415 155.019 293.357 169.284" stroke="#0D4060" stroke-width="3" stroke-miterlimit="10"/>
<path d="M390.583 191.704C390.583 191.704 386.608 171.311 364.337 179.453" stroke="#0D4060" stroke-width="3" stroke-miterlimit="10"/>
<path d="M274.262 217.214C275.398 209.568 282.518 204.29 290.164 205.426C297.81 206.563 303.088 213.682 301.951 221.327" fill="#0D4060"/>
<path d="M357.105 229.523C358.241 221.877 365.361 216.599 373.007 217.735C380.653 218.872 385.931 225.991 384.794 233.637" fill="#0D4060"/>
<path d="M475.919 492.218H454.802V716.058H475.919V492.218Z" fill="#C2C4C4"/>
<path d="M477.641 491.06H413.345V509.234H477.641V491.06Z" fill="#353230"/>
<path d="M671.106 816.159C740.052 816.159 795.945 760.267 795.945 691.32C795.945 622.373 740.052 566.481 671.106 566.481C602.159 566.481 546.267 622.373 546.267 691.32C546.267 760.267 602.159 816.159 671.106 816.159Z" stroke="#353230" stroke-width="10" stroke-miterlimit="10"/>
<path d="M671.562 800.716C731.806 800.716 780.645 751.878 780.645 691.633C780.645 631.388 731.806 582.55 671.562 582.55C611.317 582.55 562.479 631.388 562.479 691.633C562.479 751.878 611.317 800.716 671.562 800.716Z" stroke="#C2C4C4" stroke-width="7" stroke-miterlimit="10"/>
<path d="M672.519 581.848V803.933" stroke="#C2C4C4" stroke-width="7" stroke-miterlimit="10"/>
<path d="M784.099 692.891H562.015" stroke="#C2C4C4" stroke-width="7" stroke-miterlimit="10"/>
<path d="M750.009 613.992L592.971 771.029" stroke="#C2C4C4" stroke-width="7" stroke-miterlimit="10"/>
<path d="M750.391 771.41L593.353 614.372" stroke="#C2C4C4" stroke-width="7" stroke-miterlimit="10"/>
<path d="M688.343 524.428H476.323V681H688.343V524.428Z" fill="#504B48"/>
<path d="M695.238 670.799H476.323V706.985H695.238V670.799Z" fill="#353230"/>
<path d="M718.09 750.266H477.642V772.292H718.09V750.266Z" fill="#C2C4C4"/>
<path d="M477.642 699.954H466.143V772.293H477.642V699.954Z" fill="#C2C4C4"/>
<path d="M771.4 567.137C769.862 481.325 707.43 365.491 620.565 367.044C523.863 368.773 475.428 484.866 476.966 570.678C478.504 656.489 544.768 675.394 626.066 673.937C707.362 672.479 772.938 652.947 771.4 567.137Z" fill="#00A1CD"/>
<path d="M706.044 495.917C705.797 482.128 694.418 471.148 680.628 471.396C666.838 471.644 655.86 483.022 656.107 496.813" fill="white"/>
<path d="M641.418 497.076C641.171 483.286 629.792 472.306 616.002 472.555C602.212 472.802 591.233 484.181 591.481 497.971" fill="white"/>
<path d="M700.093 463.691C700.093 463.691 692.509 448.998 676.59 458.026" stroke="#0D4060" stroke-width="3" stroke-miterlimit="10"/>
<path d="M599.947 465.487C599.947 465.487 605.022 450.277 621.255 458.729" stroke="#0D4060" stroke-width="3" stroke-miterlimit="10"/>
<path d="M702.075 496.171C701.968 490.206 697.046 485.458 691.081 485.565C685.116 485.672 680.367 490.594 680.474 496.559" fill="#0D4060"/>
<path d="M637.449 497.33C637.342 491.365 632.42 486.616 626.455 486.723C620.49 486.83 615.74 491.752 615.848 497.717" fill="#0D4060"/>
<path d="M617.074 520.273C617.074 520.273 623.149 538.61 651.401 537.537C679.653 536.464 681.576 519.117 681.576 519.117L617.074 520.273Z" fill="#0D4060"/>
<path d="M630.485 668.059L619.019 739.543L605.928 739.445L595.549 667.763" fill="#00A1CD"/>
<path d="M680.037 669.469L670.403 741.443L657.314 741.679L645.11 670.316" fill="#00A1CD"/>
<path d="M605.921 757.235L618.755 757.333L626.347 696.889L599.054 696.683L605.921 757.235Z" fill="#56C5D0"/>
<path d="M657.892 759.065L670.725 758.835L676.965 698.214L649.675 698.704L657.892 759.065Z" fill="#56C5D0"/>
<path d="M701.077 759.001C700.877 746.848 690.863 737.157 678.71 737.356C666.558 737.557 656.868 747.57 657.068 759.724" fill="#504B48"/>
<path d="M648.668 760.019C648.543 747.865 638.587 738.114 626.434 738.239C614.28 738.364 604.53 748.318 604.655 760.471" fill="#504B48"/>
<g opacity="0.7">
<g opacity="0.7">
<path opacity="0.7" d="M706.421 516.919C706.474 519.901 713.94 522.188 723.095 522.023C732.25 521.859 739.63 519.308 739.575 516.326C739.522 513.343 732.056 511.057 722.901 511.222C713.746 511.385 706.367 513.936 706.421 516.919Z" fill="#A2CCED"/>
</g>
</g>
<g opacity="0.7">
<g opacity="0.7">
<path opacity="0.7" d="M564.768 519.458C564.822 522.44 572.287 524.727 581.443 524.562C590.598 524.398 597.977 521.847 597.924 518.864C597.869 515.882 590.405 513.596 581.249 513.76C572.093 513.924 564.715 516.475 564.768 519.458Z" fill="#A2CCED"/>
</g>
</g>
<path d="M464.551 824.832C533.499 824.832 589.391 768.939 589.391 699.992C589.391 631.045 533.499 575.152 464.551 575.152C395.604 575.152 339.711 631.045 339.711 699.992C339.711 768.939 395.604 824.832 464.551 824.832Z" stroke="#353230" stroke-width="10" stroke-miterlimit="10"/>
<path d="M465.009 809.388C525.254 809.388 574.092 760.55 574.092 700.305C574.092 640.06 525.254 591.222 465.009 591.222C404.765 591.222 355.927 640.06 355.927 700.305C355.927 760.55 404.765 809.388 465.009 809.388Z" stroke="#C2C4C4" stroke-width="7" stroke-miterlimit="10"/>
<path d="M465.965 590.52V812.605" stroke="#C2C4C4" stroke-width="7" stroke-miterlimit="10"/>
<path d="M577.545 701.562H355.461" stroke="#C2C4C4" stroke-width="7" stroke-miterlimit="10"/>
<path d="M543.457 622.663L386.418 779.701" stroke="#C2C4C4" stroke-width="7" stroke-miterlimit="10"/>
<path d="M543.836 780.082L386.798 623.044" stroke="#C2C4C4" stroke-width="7" stroke-miterlimit="10"/>
<path d="M826.354 655.025H683.057C677.557 655.025 673.057 650.525 673.057 645.025V563.251C673.057 557.751 677.557 553.251 683.057 553.251H826.354C831.854 553.251 836.354 557.751 836.354 563.251V645.025C836.354 650.525 831.854 655.025 826.354 655.025Z" fill="#4C4C4B"/>
<path d="M700.241 570.136H687.427C686.03 570.136 684.887 568.991 684.887 567.595V563.919C684.887 562.522 686.03 561.379 687.427 561.379H700.241C701.637 561.379 702.781 562.522 702.781 563.919V567.595C702.78 568.991 701.637 570.136 700.241 570.136Z" fill="#6B6767"/>
<path d="M692.136 567.79C691.013 569.139 689.01 569.321 687.662 568.198C686.312 567.076 686.13 565.072 687.253 563.723C688.376 562.375 690.379 562.191 691.727 563.314C693.077 564.437 693.259 566.44 692.136 567.79Z" fill="#9F9F9F"/>
<path d="M576.828 581.659C576.828 581.659 595.274 603.971 612.784 608.805C630.295 613.638 668.251 616.847 668.251 616.847" stroke="#00A1CD" stroke-width="8" stroke-miterlimit="10"/>
<path d="M702.96 638.667C704.639 639.071 706.38 637.879 706.83 636.016C707.28 634.152 706.274 632.296 704.596 631.891L692.951 629.08C693.593 628.31 694.15 627.451 694.628 626.529L708.587 629.899C710.266 630.305 712.008 629.111 712.458 627.249C712.906 625.386 711.901 623.528 710.223 623.124L696.264 619.755C696.259 618.821 696.168 617.907 695.99 617.023L707.987 619.919C709.667 620.323 711.407 619.131 711.857 617.268C712.307 615.404 711.301 613.549 709.623 613.144L689.631 608.317C689.035 608.019 688.399 607.786 687.74 607.598L691.882 607.228C693.619 607.072 694.991 605.391 694.933 603.49V603.489C694.874 601.59 693.405 600.162 691.668 600.316L669.538 602.296C668.686 602.372 667.925 602.817 667.375 603.474C662.437 604.187 658.033 608.188 656.682 613.787C654.962 620.912 658.807 628.01 665.227 629.559L681.069 633.383C681.182 633.41 681.296 633.421 681.408 633.444C681.464 633.463 681.514 633.49 681.572 633.505L702.96 638.667Z" fill="#A2CCED"/>
<path d="M991.73 562.139C991.73 562.139 965.845 593.449 941.274 600.231C916.703 607.013 863.441 611.517 863.441 611.517" stroke="#00A1CD" stroke-width="10" stroke-miterlimit="10"/>
<path d="M814.735 642.135C812.38 642.703 809.935 641.03 809.304 638.414C808.673 635.8 810.084 633.195 812.439 632.626L828.778 628.683C827.878 627.603 827.095 626.398 826.425 625.105L806.837 629.834C804.481 630.402 802.037 628.729 801.406 626.114C800.775 623.498 802.184 620.894 804.541 620.325L824.13 615.597C824.136 614.288 824.263 613.006 824.514 611.764L807.679 615.827C805.324 616.396 802.88 614.723 802.249 612.108C801.618 609.492 803.028 606.888 805.384 606.32L833.437 599.549C834.274 599.129 835.165 598.802 836.088 598.538L830.278 598.019C827.84 597.8 825.915 595.44 825.998 592.774V592.773C826.08 590.107 828.142 588.103 830.579 588.321L861.632 591.098C862.827 591.203 863.896 591.829 864.669 592.751C871.597 593.751 877.775 599.364 879.672 607.221C882.086 617.22 876.691 627.18 867.683 629.355L845.452 634.72C845.294 634.759 845.134 634.775 844.975 634.807C844.896 634.83 844.827 634.87 844.746 634.891L814.735 642.135Z" fill="#A2CCED"/>
<path d="M221.669 410.065C221.669 410.065 249.683 463.354 280.95 478.084C312.218 492.814 382.075 508.804 382.075 508.804" stroke="#00A1CD" stroke-width="6" stroke-miterlimit="10"/>
<path d="M408.569 544.812C411.146 545.589 413.88 543.465 414.644 540.091C415.409 536.716 413.926 533.32 411.35 532.54L393.477 527.142C394.497 525.76 395.39 524.212 396.162 522.55L417.589 529.024C420.165 529.801 422.899 527.678 423.664 524.303C424.428 520.93 422.946 517.532 420.369 516.753L398.942 510.28C398.971 508.586 398.865 506.923 398.623 505.31L417.038 510.873C419.614 511.651 422.348 509.527 423.112 506.153C423.878 502.779 422.395 499.381 419.819 498.602L389.133 489.331C388.223 488.773 387.251 488.333 386.242 487.977L392.649 487.408C395.337 487.169 397.52 484.147 397.501 480.693C397.481 477.238 395.267 474.607 392.579 474.845L358.335 477.886C357.017 478.001 355.825 478.793 354.95 479.972C347.299 481.143 340.35 488.301 338.052 498.441C335.128 511.344 340.797 524.337 350.65 527.313L374.967 534.66C375.141 534.711 375.315 534.735 375.489 534.781C375.575 534.813 375.651 534.866 375.739 534.892L408.569 544.812Z" fill="#A2CCED"/>
</svg>
