<svg width="1342" height="1056" viewBox="0 0 1342 1056" fill="none" xmlns="http://www.w3.org/2000/svg">
<path d="M904.342 588.868C895.196 711.418 1022.82 894.391 1092.55 899.597C1170.71 905.43 1315.46 745.283 1324.61 622.732C1333.76 500.181 1241.78 464.469 1125.67 455.803C1009.57 447.136 913.49 466.317 904.342 588.868Z" fill="#00A1CD"/>
<path d="M1141.87 623.406C1143.34 603.712 1128.57 586.555 1108.88 585.085C1089.18 583.615 1072.03 598.388 1070.56 618.082" fill="white"/>
<path d="M1049.58 616.517C1051.05 596.823 1036.27 579.665 1016.58 578.197C996.888 576.726 979.729 591.5 978.261 611.194" fill="white"/>
<path d="M1137.65 576.673C1137.65 576.673 1128.78 554.721 1104.89 565.487" stroke="#0D4060" stroke-width="3" stroke-miterlimit="10"/>
<path d="M994.622 565.997C994.622 565.997 1003.87 544.981 1025.9 559.178" stroke="#0D4060" stroke-width="3" stroke-miterlimit="10"/>
<path d="M1012 646C1012 646 1018.3 702.115 1059.11 706.707C1099.92 711.3 1105 660.32 1105 660.32L1012 646Z" fill="#0D4060"/>
<path d="M1209.5 806.068C1209.5 806.068 1241.39 810.68 1259.44 801.578C1277.5 792.474 1311.2 766.748 1311.2 766.748" stroke="#00A1CD" stroke-width="6" stroke-miterlimit="10"/>
<path d="M1340.33 765.095C1341.72 764.336 1342.16 762.456 1341.32 760.92C1340.48 759.382 1338.65 758.745 1337.27 759.504L1327.66 764.768C1327.62 763.853 1327.47 762.928 1327.23 762.011L1338.75 755.7C1340.13 754.941 1340.58 753.062 1339.73 751.525C1338.89 749.987 1337.07 749.35 1335.68 750.109L1324.17 756.42C1323.59 755.792 1322.96 755.23 1322.3 754.741L1332.2 749.317C1333.58 748.557 1334.03 746.679 1333.18 745.141C1332.34 743.604 1330.52 742.967 1329.13 743.726L1312.64 752.763C1312.05 752.928 1311.48 753.16 1310.92 753.44L1313.49 750.641C1314.57 749.467 1314.46 747.484 1313.25 746.235C1312.05 744.985 1310.17 744.923 1309.09 746.097L1295.34 761.054C1294.81 761.63 1294.57 762.4 1294.6 763.183C1291.7 766.704 1291.18 772.12 1293.71 776.741C1296.93 782.618 1303.9 785.054 1309.2 782.153L1322.27 774.991C1322.36 774.94 1322.45 774.878 1322.54 774.823C1322.59 774.802 1322.64 774.79 1322.68 774.763L1340.33 765.095Z" fill="#A2CCED"/>
<path d="M1041.38 869.131L938.358 857.585L937.611 838.855L1039.43 819.144" fill="#00A1CD"/>
<path d="M1138.99 873.065L1112.73 973.675L1094.09 971.723L1089.21 868.171" fill="#00A1CD"/>
<path d="M912.164 840.052L912.896 858.415L985.977 862.944L984.597 828.323L912.164 840.052Z" fill="#56C5D0"/>
<path d="M1091.92 996.118L1110.2 998.032L1123.62 926.198L1092.11 922.898L1091.92 996.118Z" fill="#56C5D0"/>
<path d="M909.547 858.37C926.94 857.677 940.474 843.016 939.78 825.628C939.087 808.237 924.427 794.702 907.037 795.396" fill="#504B48"/>
<path d="M1112.16 1008.11C1113.98 990.803 1101.41 975.301 1084.1 973.489C1066.79 971.676 1051.29 984.239 1049.48 1001.55" fill="#504B48"/>
<g opacity="0.7">
<g opacity="0.7">
<path opacity="0.7" d="M1139.64 653.399C1139.32 657.66 1149.66 661.904 1162.74 662.879C1175.81 663.856 1186.67 661.193 1186.99 656.934C1187.3 652.672 1176.96 648.428 1163.89 647.453C1150.81 646.478 1139.95 649.14 1139.64 653.399Z" fill="#A2CCED"/>
</g>
</g>
<g opacity="0.7">
<g opacity="0.7">
<path opacity="0.7" d="M920.419 637.036C920.104 641.297 930.443 645.541 943.52 646.516C956.596 647.493 967.453 644.83 967.772 640.571C968.089 636.309 957.747 632.065 944.672 631.09C931.596 630.114 920.738 632.776 920.419 637.036Z" fill="#A2CCED"/>
</g>
</g>
<path d="M972.681 758.923C972.681 758.923 941.05 752.759 927.008 738.209C912.966 723.659 889.633 688.257 889.633 688.257" stroke="#00A1CD" stroke-width="6" stroke-miterlimit="10"/>
<path d="M862.677 677.088C861.621 675.914 861.822 673.993 863.123 672.821C864.425 671.647 866.356 671.647 867.413 672.819L874.746 680.958C875.086 680.107 875.534 679.284 876.067 678.499L867.275 668.743C866.216 667.569 866.418 665.649 867.72 664.475C869.023 663.302 870.952 663.301 872.009 664.475L880.801 674.231C881.554 673.829 882.328 673.503 883.117 673.261L875.562 664.876C874.504 663.702 874.704 661.781 876.006 660.607C877.31 659.435 879.238 659.434 880.296 660.607L892.888 674.58C893.389 674.93 893.854 675.339 894.289 675.786L892.782 672.296C892.151 670.831 892.906 668.995 894.46 668.214C896.014 667.433 897.802 667.992 898.434 669.456L906.487 688.113C906.795 688.832 906.768 689.637 906.481 690.365C908.059 694.647 906.761 699.931 902.848 703.457C897.867 707.945 890.485 707.945 886.442 703.46L876.463 692.388C876.394 692.309 876.333 692.222 876.267 692.141C876.228 692.104 876.184 692.077 876.148 692.037L862.677 677.088Z" fill="#A2CCED"/>
<path d="M1003.07 598.55C996.441 603.071 987.887 602.586 981.845 597.959C987.537 587.523 997.853 579.961 1010.13 578.085C1012.49 585.521 1009.85 593.928 1003.07 598.55Z" fill="#0D4060"/>
<path d="M1098.92 602.127C1091.48 605.157 1083.22 602.89 1078.29 597.1C1086.04 588.089 1097.71 582.857 1110.1 583.595C1110.86 591.362 1106.51 599.026 1098.92 602.127Z" fill="#0D4060"/>
<path d="M349.199 209C224.55 209 123.502 241.048 123.502 377.959C123.502 412.683 127.935 447.692 132.603 482.006C137.786 520.103 144.232 558.086 153.836 595.27C158.058 611.615 163.055 625.957 161.438 643.123C160.02 658.167 155.976 673.464 149.527 687.028C132.133 723.614 127.51 761.278 140.388 800.349C148.934 826.274 169.623 846.939 192.777 859.908C240.779 886.795 298.049 885.414 350.973 885.414C409.101 885.414 476.494 880.794 524.17 841.96C543.831 825.944 558.081 804.248 565.991 779.654C570.668 765.113 572.208 750.579 574.029 735.515C576.549 714.677 571.002 696.698 563.461 677.792C552.14 649.41 539.189 611.116 546.663 580.009C564.02 507.499 574.897 411.943 574.897 375.188C574.897 238.278 473.848 209 349.199 209Z" fill="#00A1CD"/>
<path d="M179.643 688.884C179.643 688.884 140.626 689.496 122.537 676.282C104.445 663.066 73.6547 628.29 73.6547 628.29" stroke="#00A1CD" stroke-width="20" stroke-miterlimit="10"/>
<path d="M13.4617 576.086C12.0412 573.768 13.4152 570.555 16.5148 568.945C19.6158 567.334 23.313 567.912 24.7335 570.23L34.5817 586.303C35.6718 584.954 36.9535 583.686 38.3789 582.507L26.5715 563.235C25.1517 560.918 26.5257 557.704 29.6253 556.094C32.7256 554.483 36.4242 555.061 37.8427 557.379L49.6514 576.649C51.298 576.188 52.9502 575.865 54.5861 575.69L44.4388 559.127C43.019 556.81 44.393 553.596 47.4933 551.984C50.5936 550.374 54.2915 550.953 55.7113 553.27L72.6203 580.867C73.399 581.612 74.0773 582.45 74.6849 583.344L73.6005 576.94C73.145 574.254 75.5366 571.348 78.9162 570.483C82.295 569.617 85.4324 571.106 85.8873 573.792L91.6856 608.018C91.9088 609.334 91.4408 610.701 90.5143 611.857C91.3295 619.63 86.1164 628.25 76.803 633.09C64.9487 639.249 50.8061 637.04 45.3766 628.178L31.977 606.308C31.8812 606.152 31.8149 605.986 31.7248 605.829C31.672 605.754 31.6005 605.693 31.5526 605.614L13.4617 576.086Z" fill="#A2CCED"/>
<path d="M312.982 433.899C312.982 414.749 328.505 399.223 347.657 399.223C366.808 399.223 382.333 414.748 382.333 433.899" fill="white"/>
<path d="M402.734 433.899C402.734 414.749 418.259 399.223 437.41 399.223C456.561 399.223 472.085 414.748 472.085 433.899" fill="white"/>
<path d="M320.441 389.01C320.441 389.01 330.606 368.423 352.931 380.56" stroke="#0D4060" stroke-width="5" stroke-miterlimit="10"/>
<path d="M459.525 389.01C459.525 389.01 452.1 368.021 429.775 380.158" stroke="#0D4060" stroke-width="5" stroke-miterlimit="10"/>
<path d="M342.658 433.899C342.658 425.616 349.374 418.899 357.658 418.899C365.942 418.899 372.657 425.616 372.657 433.899" fill="#0D4060"/>
<path d="M432.41 433.899C432.41 425.616 439.126 418.899 447.41 418.899C455.694 418.899 462.408 425.616 462.408 433.899" fill="#0D4060"/>
<path d="M420.825 459C420.825 459 419.583 510.305 395.008 510.533C370.433 510.761 365 463.088 365 463.088L420.825 459Z" fill="#0D4060"/>
<g opacity="0.7">
<g opacity="0.7">
<path opacity="0.7" d="M312.982 463.066C312.982 467.209 302.673 470.567 289.959 470.567C277.245 470.567 266.936 467.209 266.936 463.066C266.936 458.923 277.244 455.565 289.959 455.565C302.674 455.565 312.982 458.923 312.982 463.066Z" fill="#A2CCED"/>
</g>
</g>
<g opacity="0.7">
<g opacity="0.7">
<path opacity="0.7" d="M509.706 463.066C509.706 467.209 499.398 470.567 486.683 470.567C473.968 470.567 463.661 467.209 463.661 463.066C463.661 458.923 473.968 455.565 486.683 455.565C499.398 455.565 509.706 458.923 509.706 463.066Z" fill="#A2CCED"/>
</g>
</g>
<path d="M640.921 683.995C640.921 683.995 624.295 745.103 554.176 727.528" stroke="#00A1CD" stroke-width="20" stroke-miterlimit="10"/>
<path d="M688.214 623.486C689.104 620.909 687.223 618.093 684.034 617.231C680.844 616.369 677.506 617.773 676.616 620.351L670.442 638.235C669.174 637.17 667.743 636.227 666.194 635.404L673.596 613.963C674.487 611.384 672.605 608.569 669.416 607.708C666.226 606.845 662.888 608.249 661.998 610.827L654.595 632.268C652.975 632.194 651.375 632.256 649.817 632.457L656.178 614.03C657.068 611.452 655.188 608.636 651.998 607.774C648.809 606.912 645.471 608.315 644.581 610.894L633.979 641.599C633.393 642.503 632.916 643.471 632.519 644.48L632.332 638.001C632.254 635.284 629.484 632.999 626.172 632.926C622.862 632.851 620.217 635.015 620.295 637.733L621.285 672.361C621.323 673.693 622.015 674.917 623.095 675.832C623.787 683.581 630.255 690.786 639.838 693.376C652.034 696.674 664.798 691.306 668.203 681.446L676.604 657.112C676.664 656.939 676.696 656.763 676.749 656.589C676.786 656.504 676.841 656.428 676.872 656.34L688.214 623.486Z" fill="#A2CCED"/>
<path d="M234.604 827L213.752 994.339L241.405 1001.88L308.265 847.625" fill="#00A1CD"/>
<path d="M230.2 1040.75L203.089 1033.35L224.144 899.45L279.907 914.659L230.2 1040.75Z" fill="#5652A3"/>
<path d="M202.464 1033.33C208.967 1009.49 232.441 995.121 254.894 1001.24C277.347 1007.37 290.276 1031.66 283.773 1055.51" fill="#504B48"/>
<path d="M460.039 858.151L570.709 984.712L594.75 969.106L524.161 816.442" fill="#00A1CD"/>
<path d="M617.038 1003.95L593.468 1019.25L507.718 914.299L556.199 882.828L617.038 1003.95Z" fill="#5652A3"/>
<path d="M593.085 1018.57C579.628 997.844 584.545 970.766 604.066 958.094C623.586 945.422 650.319 951.955 663.776 972.685" fill="#504B48"/>
<path fill-rule="evenodd" clip-rule="evenodd" d="M650.675 369.194L675.292 267.008L713.882 284.019L682.473 284.167L653.091 393.321L652.918 393.16C648.113 405.983 634.387 413.502 620.735 410.213C605.97 406.656 596.884 391.803 600.441 377.037C603.998 362.272 618.851 353.186 633.617 356.743C641.026 358.528 647.006 363.158 650.675 369.194Z" fill="#FF7A00"/>
<path fill-rule="evenodd" clip-rule="evenodd" d="M765.287 235.798L732.681 135.874L774.461 130.13L747.792 146.721L779.993 255.078L779.761 255.031C782.392 268.47 774.644 282.068 761.295 286.424C746.856 291.136 731.332 283.25 726.62 268.812C721.909 254.373 729.795 238.849 744.233 234.137C751.479 231.773 758.998 232.581 765.287 235.798Z" fill="#FF7A00" fill-opacity="0.6"/>
<path fill-rule="evenodd" clip-rule="evenodd" d="M686.377 113.009L710.121 10.6169L748.854 27.2976L717.448 27.714L689 137.116L688.825 136.956C684.13 149.819 670.468 157.455 656.789 154.283C641.994 150.852 632.781 136.077 636.212 121.282C639.643 106.487 654.418 97.274 669.213 100.705C676.638 102.426 682.657 107.005 686.377 113.009Z" fill="#FF7A00" fill-opacity="0.25"/>
<path fill-rule="evenodd" clip-rule="evenodd" d="M933.41 424.21L889.219 345.448L923.47 333.62L903.768 352.063L949.029 438L948.826 437.999C953.29 448.885 949.035 461.642 938.513 467.545C927.132 473.931 912.729 469.881 906.344 458.501C899.958 447.12 904.008 432.717 915.389 426.332C921.1 423.128 927.572 422.551 933.41 424.21Z" fill="#FA00FF"/>
<path fill-rule="evenodd" clip-rule="evenodd" d="M968.694 294.575L986.229 234.878L1008.11 245.932L989.857 245.198L969.334 308.885L969.238 308.786C966.041 316.232 957.83 320.313 950.004 318.014C941.539 315.528 936.732 306.519 939.265 297.893C941.799 289.268 950.715 284.291 959.179 286.777C963.427 288.025 966.754 290.915 968.694 294.575Z" fill="#FA00FF" fill-opacity="0.6"/>
<path fill-rule="evenodd" clip-rule="evenodd" d="M1076.93 214.407L1058.64 154.94L1082.98 152.094L1067.35 161.547L1085.36 225.991L1085.23 225.961C1086.67 233.935 1082.07 241.869 1074.27 244.267C1065.84 246.862 1056.86 241.999 1054.22 233.407C1051.57 224.814 1056.26 215.745 1064.7 213.15C1068.93 211.848 1073.3 212.424 1076.93 214.407Z" fill="#FA00FF" fill-opacity="0.3"/>
</svg>
