<svg width="334" height="333" viewBox="0 0 334 333" fill="none" xmlns="http://www.w3.org/2000/svg">
<rect width="334" height="333" fill="#E5E5E5"/>
<g clip-path="url(#clip0)">
<rect width="411" height="731" transform="translate(-39 -88)" fill="white"/>
<rect width="334" height="333" fill="#F8E397"/>
<path fill-rule="evenodd" clip-rule="evenodd" d="M196.551 114.259V207.165H22.144V114.259V113.497H22.1702C23.3148 96.8352 61.9071 83.4526 109.347 83.4526C156.788 83.4526 195.38 96.8352 196.524 113.497H196.551V114.259Z" fill="#F8C911"/>
<path fill-rule="evenodd" clip-rule="evenodd" d="M196.539 100.03C196.547 99.6895 196.551 99.3468 196.551 99.002C196.551 64.2517 157.508 36.0811 109.347 36.0811C61.1863 36.0811 22.144 64.2517 22.144 99.002C22.144 99.3468 22.1479 99.6895 22.1555 100.03H22.144V153.515H196.551V100.03H196.539Z" fill="#F3D668"/>
<g clip-path="url(#clip1)">
<path d="M68.021 158.592C68.021 158.592 54.9064 158.385 49.3914 130.863" stroke="#0F8AB2" stroke-width="6" stroke-miterlimit="10" stroke-linecap="round"/>
<path d="M146.075 158.641C146.075 158.641 160.465 159.229 167.953 133.014" stroke="#0F8AB2" stroke-width="6" stroke-miterlimit="10" stroke-linecap="round"/>
<path d="M162.132 121.242C162.069 120.647 162.655 120.156 163.421 120.142C164.188 120.128 164.865 120.605 164.927 121.193L165.067 122.604C165.144 122.383 165.241 122.169 165.36 121.961L167.347 115.169C167.514 114.602 168.267 114.263 169.02 114.422C169.773 114.581 170.254 115.183 170.087 115.75L168.895 119.824C169.25 119.768 169.62 119.741 169.996 119.741L171.384 114.996C171.551 114.429 172.304 114.09 173.057 114.249C173.81 114.408 174.291 115.01 174.124 115.577L172.736 120.322C173.106 120.488 173.454 120.681 173.761 120.903L174.919 116.946C175.086 116.379 175.839 116.04 176.592 116.199C177.345 116.358 177.826 116.96 177.659 117.527L175.532 124.797C175.525 124.818 175.518 124.832 175.511 124.852C175.504 124.894 175.497 124.928 175.483 124.97L173.908 130.351C173.266 132.53 170.394 133.817 167.514 133.201C165.255 132.717 163.645 131.202 163.366 129.514L162.132 121.242Z" fill="#A2CCED"/>
<path d="M108.867 60C80.5324 60 57.5591 66.9445 57.5591 96.6177C57.5591 104.143 58.57 111.731 59.6298 119.167C60.8081 127.425 63.1508 135.656 65.333 143.715C66.2952 147.256 67.3201 150.368 66.9506 154.083C66.6299 157.341 64.9426 160.661 63.4715 163.6C59.5183 171.527 58.4655 179.696 61.3938 188.162C63.339 193.779 68.0382 198.261 73.3022 201.069C84.2137 206.9 88.5225 206.595 110.805 206.595C124.018 206.595 137.802 205.593 148.643 197.175C153.113 193.702 156.355 188.999 158.153 183.673C159.213 180.519 159.339 179.156 159.757 175.892C160.329 171.375 158.844 165.606 157.129 161.505C154.556 155.356 152.06 147.145 153.761 140.401C157.707 124.686 160.182 103.977 160.182 96.0091C160.182 66.3427 137.209 60 108.867 60Z" fill="#00A1CD"/>
<path d="M91.29 205.959L95.0968 235.694H99.6566L103.463 206.049" fill="#00A1CD"/>
<path d="M115.456 205.959L119.262 235.694H123.822L127.629 205.288" fill="#00A1CD"/>
<path d="M57.1164 121.324C57.2629 120.75 56.7678 120.169 56.0079 120.045C55.2479 119.92 54.5088 120.287 54.3624 120.861L54.0068 122.237C53.965 122.002 53.9023 121.781 53.8116 121.56L52.8774 114.546C52.8007 113.958 52.1034 113.515 51.3365 113.557C50.5696 113.605 50.0048 114.124 50.0815 114.712L50.6463 118.917C50.2976 118.807 49.9421 118.724 49.5656 118.668L48.9102 113.771C48.8335 113.183 48.1363 112.741 47.3693 112.782C46.6024 112.824 46.0377 113.349 46.1144 113.937L46.7697 118.834C46.3793 118.945 46.0028 119.083 45.6681 119.256L45.1243 115.175C45.0476 114.587 44.3504 114.145 43.5835 114.186C42.8165 114.228 42.2518 114.753 42.3285 115.341L43.3325 122.846C43.3325 122.867 43.3464 122.888 43.3464 122.901C43.3534 122.943 43.3464 122.977 43.3534 123.019L44.0924 128.573C44.3922 130.828 47.0417 132.523 49.9769 132.343C52.2847 132.205 54.1045 130.946 54.6343 129.32L57.1164 121.324Z" fill="#A2CCED"/>
<path d="M112.242 109.234C112.242 105.188 115.77 101.902 120.127 101.902C124.478 101.902 128.013 105.188 128.013 109.234" fill="white"/>
<path d="M118.241 109.234C118.241 107.353 119.775 105.831 121.672 105.831C123.568 105.831 125.102 107.353 125.102 109.234" fill="#0D4060"/>
<path d="M88.8008 109.234C88.8008 105.188 92.3496 101.902 96.7281 101.902C101.107 101.902 104.655 105.181 104.655 109.234" fill="white"/>
<path d="M94.8008 109.234C94.8008 107.353 96.3347 105.831 98.2311 105.831C100.128 105.831 101.661 107.353 101.661 109.234" fill="#0D4060"/>
<path d="M89.4914 105.777L85.3918 103.986L89.0243 107.133C88.9755 107.313 88.9406 107.485 88.9127 107.651L85.3569 107.16L88.7524 108.737C88.7105 109.235 88.7175 109.554 88.7175 109.554C90.6209 102.92 94.4277 102.042 95.5154 101.924C92.0223 102.035 90.3142 103.903 89.4914 105.777Z" fill="#0D4060"/>
<path d="M95.5083 101.924C95.6129 101.924 95.7035 101.902 95.8151 101.902C95.8151 101.909 95.7035 101.909 95.5083 101.924Z" fill="#0D4060"/>
<path d="M131.575 107.16L128.02 107.651C127.985 107.485 127.95 107.312 127.908 107.132L131.541 103.985L127.441 105.777C126.618 103.902 124.91 102.034 121.417 101.924C122.505 102.041 126.311 102.92 128.215 109.553C128.215 109.553 128.222 109.235 128.18 108.737L131.575 107.16Z" fill="#0D4060"/>
<path d="M119.82 101.924C119.632 101.902 119.514 101.902 119.514 101.902C119.618 101.902 119.716 101.924 119.82 101.924Z" fill="#0D4060"/>
<path d="M108.953 115.691C102.542 115.691 100.048 120.206 99.603 122.464H117.635C117.412 120.206 115.364 115.691 108.953 115.691Z" fill="#0D4060"/>
</g>
<path d="M123 97L112 103" stroke="#0D4060" stroke-width="2" stroke-miterlimit="10" stroke-linecap="round"/>
<path d="M104 102L93 97" stroke="#0D4060" stroke-width="2" stroke-miterlimit="10" stroke-linecap="round"/>
<path d="M214.686 221.81C214.686 221.81 191.318 229.576 172.422 210.513" stroke="#108AB2" stroke-width="7" stroke-miterlimit="10" stroke-linecap="round"/>
<path d="M241.489 200.565C241.489 197.356 239.015 194.849 235.824 194.838C232.72 194.827 230.125 197.445 230.136 200.576C230.147 203.717 232.743 206.313 235.835 206.313C238.993 206.313 241.489 203.762 241.489 200.565Z" fill="#393939"/>
<path d="M261.897 111H237.292C218.452 111 203.179 126.408 203.179 145.415V163.575C202.792 163.509 202.406 163.464 201.997 163.464C198.364 163.464 195.415 166.439 195.415 170.104C195.415 173.77 198.364 176.744 201.997 176.744C202.395 176.744 202.792 176.7 203.179 176.633V183.585C203.179 183.585 217.438 178.058 217.657 188.191C217.876 198.324 215.481 193.378 204.802 193.077C204.228 193.066 203.698 193.011 203.179 192.944V227.147C203.179 249.619 209.076 276.313 243.499 276.313H255.669C289.043 276.313 295.989 249.608 295.989 227.147V145.415C296 126.408 280.727 111 261.897 111Z" fill="#00A0CC"/>
<path d="M244.708 222.026C244.708 222.026 235.123 248.529 203.806 242.611" stroke="#108AB2" stroke-width="7" stroke-miterlimit="10" stroke-linecap="round"/>
<path d="M214.057 167.686C214.057 161.782 218.794 157.002 224.647 157.002C230.501 157.002 235.227 161.782 235.227 167.686" fill="white"/>
<g clip-path="url(#clip2)">
<path d="M234.394 162.608L241.847 159.957L235.25 164.612C235.337 164.87 235.395 165.129 235.467 165.375L241.934 164.651L235.757 166.978C235.844 167.715 235.815 168.193 235.815 168.193C232.161 157.875 224.636 156.983 223.142 156.905C229.711 156.983 232.872 159.802 234.394 162.608Z" fill="#0D3F60"/>
</g>
<path d="M205.718 235.985C207.506 237.15 208.439 239.733 207.881 242.558C207.164 246.145 204.285 248.794 201.489 248.432L194.574 247.536C194.53 247.527 194.475 247.514 194.43 247.505C194.406 247.505 194.381 247.506 194.356 247.507L185.023 246.303C184.289 246.202 183.839 245.362 184.033 244.42C184.213 243.483 184.976 242.786 185.7 242.882L190.785 243.541C190.685 243.075 190.633 242.583 190.626 242.075L184.539 241.287C183.805 241.186 183.355 240.346 183.549 239.404C183.743 238.462 184.492 237.77 185.216 237.866L191.302 238.654C191.489 238.225 191.692 237.816 191.944 237.431L186.71 236.752C185.976 236.651 185.526 235.81 185.72 234.868C185.899 233.932 186.663 233.235 187.387 233.331L196.11 234.455C196.396 234.418 196.692 234.41 196.984 234.438L195.446 233.575C194.8 233.207 194.597 232.201 194.981 231.324C195.374 230.452 196.224 230.041 196.87 230.409" fill="#BAD9F1"/>
<path d="M180.948 209.087C182.096 210.892 181.886 213.644 180.219 215.973C178.099 218.947 174.399 220.15 171.991 218.658L166.061 214.959C166.017 214.936 165.984 214.903 165.94 214.87C165.917 214.858 165.895 214.847 165.873 214.836L157.867 209.845C157.237 209.455 157.182 208.497 157.734 207.717C158.286 206.937 159.258 206.625 159.888 207.015L164.25 209.733C164.349 209.266 164.504 208.798 164.703 208.33L159.479 205.076C158.85 204.687 158.794 203.728 159.347 202.948C159.899 202.169 160.871 201.857 161.5 202.247L166.724 205.5C167.066 205.188 167.43 204.898 167.806 204.653L163.311 201.857C162.682 201.467 162.626 200.509 163.179 199.729C163.731 198.949 164.703 198.637 165.332 199.027L172.809 203.695C173.085 203.784 173.361 203.907 173.615 204.051L172.566 202.614C172.124 202.013 172.356 201.01 173.063 200.375C173.78 199.751 174.719 199.718 175.161 200.319" fill="#BAD9F1"/>
<path d="M228.072 151.294C228.072 151.294 221.549 154.295 214 157.797" stroke="#0D3F60" stroke-width="2.1773" stroke-miterlimit="10" stroke-linecap="round"/>
<path d="M214.129 165.451C216.106 166.186 218.392 166.008 220.302 164.749C222.931 163.022 223.991 159.791 223.129 156.905C218.613 157.518 214.99 160.983 214.129 165.451Z" fill="#0D3F60"/>
<path d="M173.131 221.522L160.425 223.355C158.976 223.562 157.623 222.537 157.419 221.068L153.518 193.283C153.314 191.814 154.325 190.444 155.775 190.237L168.48 188.404C169.93 188.197 171.282 189.222 171.487 190.691L175.388 218.476C175.602 219.945 174.58 221.315 173.131 221.522Z" fill="#282827"/>
<path d="M160.307 169.046C160.053 167.23 159.799 165.436 159.545 163.62C157.778 164.121 156.033 164.634 154.277 165.135C154.277 165.18 154.277 165.213 154.277 165.247C154.487 166.673 154.686 168.088 154.896 169.514C154.995 170.216 155.106 170.918 155.194 171.619C155.249 172.121 155.061 172.533 154.686 172.867C154.079 173.402 153.107 173.525 152.389 173.146C151.439 172.656 151.307 171.497 152.113 170.806C152.775 170.238 153.725 170.149 154.487 170.572C154.509 170.583 154.531 170.594 154.564 170.617C154.222 168.199 153.88 165.781 153.537 163.342C155.569 162.784 157.624 162.227 159.7 161.659C159.711 161.726 159.722 161.782 159.733 161.837C160.064 164.177 160.396 166.506 160.727 168.845C160.782 169.213 160.826 169.592 160.892 169.959C161.014 170.639 160.738 171.14 160.197 171.497C159.446 171.998 158.408 171.943 157.789 171.385C157.193 170.84 157.149 170.037 157.668 169.425C158.242 168.745 159.346 168.544 160.13 168.968C160.186 168.99 160.241 169.012 160.307 169.046ZM154.189 164.634C155.945 164.133 157.69 163.631 159.435 163.13C159.413 162.996 159.402 162.874 159.379 162.74C157.624 163.23 155.879 163.72 154.123 164.211C154.145 164.355 154.167 164.489 154.189 164.634Z" fill="black"/>
<path d="M164.449 149.215C164.084 146.596 163.72 144.012 163.344 141.393C162.947 141.505 162.571 141.605 162.207 141.705C160.484 142.185 158.761 142.675 157.027 143.154C156.851 143.198 156.795 143.265 156.829 143.455C157.149 145.627 157.458 147.811 157.767 149.995C157.867 150.708 157.955 151.432 158.087 152.145C158.286 153.203 157.679 153.95 156.939 154.284C156.078 154.674 155.216 154.674 154.41 154.139C153.571 153.582 153.405 152.49 154.034 151.688C154.741 150.786 156.122 150.496 157.149 151.042C157.215 151.075 157.27 151.109 157.348 151.153C156.928 148.145 156.497 145.148 156.078 142.14C158.607 141.449 161.147 140.747 163.709 140.045C163.72 140.146 163.731 140.224 163.742 140.313C164.029 142.285 164.305 144.257 164.592 146.229C164.78 147.566 164.957 148.914 165.189 150.251C165.354 151.253 164.813 151.978 164.106 152.323C163.333 152.702 162.538 152.746 161.754 152.368C160.628 151.822 160.418 150.496 161.279 149.593C162.03 148.814 163.333 148.624 164.283 149.148C164.338 149.159 164.382 149.181 164.449 149.215Z" fill="black"/>
<path d="M144.869 164.612C144.438 161.592 144.018 158.595 143.599 155.587C143.775 155.565 143.952 155.532 144.151 155.509C144.195 155.855 144.25 156.178 144.294 156.512C144.416 157.37 144.537 158.228 144.67 159.097C144.957 161.058 145.244 163.018 145.531 164.979C145.575 165.269 145.619 165.57 145.642 165.871C145.697 166.662 145.343 167.263 144.681 167.642C143.841 168.132 142.947 168.199 142.075 167.731C141.003 167.163 140.816 165.859 141.666 164.99C142.439 164.188 143.753 163.988 144.725 164.523C144.758 164.556 144.802 164.578 144.869 164.612Z" fill="black"/>
<path d="M246.304 269.116L237.999 290.117C236.961 292.736 236.674 295.577 237.171 298.329L242.604 328.633C242.968 330.638 241.411 332.51 239.313 332.61C237.789 332.677 236.397 331.775 235.901 330.371L224.989 299.755C223.797 296.412 223.598 292.814 224.393 289.349L228.844 264.983" fill="#00A0CC"/>
<path d="M235.812 331.407L243.278 332.432L238.617 305.303L227.143 305.827L235.812 331.407Z" fill="#FFCA05"/>
<path d="M221.412 333C221.412 327.708 226.271 323.385 232.267 323.341C238.264 323.296 243.123 327.563 243.123 332.855" fill="#4F4A47"/>
<path d="M271.218 263.2L267.607 289.649C267.839 292.446 268.844 292.546 270.522 294.852L291.892 318.773C293.118 320.455 291.185 321.045 289.33 321.97L287.618 323.34C286.271 324.009 287.673 324.098 286.602 323.029L260.153 301.013C257.59 298.451 255.79 295.265 254.973 291.789L252.058 265.952" fill="#00A0CC"/>
<path d="M286.978 323.998L293.007 318.672L275.305 299.699L267.74 308.634L286.978 323.998Z" fill="#FFCA05"/>
<path d="M276.508 332.543C273.261 328.276 274.554 322.026 279.369 318.595C284.195 315.163 290.732 315.843 293.979 320.11" fill="#4F4A47"/>
<path d="M167.873 176.488C171.031 175.876 174.543 176.811 177.326 179.073C183.532 184.109 183.488 191.596 180.606 197.868" stroke="black" stroke-width="0.5" stroke-miterlimit="10" stroke-linecap="round"/>
<path d="M168.093 170.171C172.422 169.302 177.259 170.55 181.103 173.636C189.661 180.51 190.457 190.481 186.536 199.127" stroke="black" stroke-width="0.5" stroke-miterlimit="10" stroke-linecap="round"/>
<path d="M169.143 164.389C174.333 163.286 180.164 164.746 184.802 168.411C195.15 176.577 197.16 189.189 192.544 199.64" stroke="black" stroke-width="0.5" stroke-miterlimit="10" stroke-linecap="round"/>
<path d="M147.729 206.435C144.714 205.321 142.185 202.681 140.959 199.283C138.242 191.74 142.108 185.356 147.795 181.49" stroke="black" stroke-width="0.5" stroke-miterlimit="10" stroke-linecap="round"/>
<path d="M144.294 211.728C140.142 210.213 136.652 206.614 134.94 201.968C131.152 191.618 135.581 182.671 143.377 177.312" stroke="black" stroke-width="0.5" stroke-miterlimit="10" stroke-linecap="round"/>
<path d="M140.418 216.117C135.415 214.346 131.175 210.057 129.087 204.486C124.427 192.097 129.176 180.254 138.485 173.725" stroke="black" stroke-width="0.5" stroke-miterlimit="10" stroke-linecap="round"/>
</g>
<defs>
<clipPath id="clip0">
<rect width="411" height="731" fill="white" transform="translate(-39 -88)"/>
</clipPath>
<clipPath id="clip1">
<rect width="142" height="146" fill="white" transform="translate(41 60)"/>
</clipPath>
<clipPath id="clip2">
<rect width="18.7778" height="11.2881" fill="white" transform="translate(223.142 156.905)"/>
</clipPath>
</defs>
</svg>
