<svg width="296" height="297" viewBox="0 0 296 297" fill="none" xmlns="http://www.w3.org/2000/svg">
<g clip-path="url(#clip0)">
<path d="M0 296V0H296V296" fill="#F8D978"/>
<path d="M296 117.471H0.151123V297H296V117.471Z" fill="#FFCA05"/>
<path d="M161.802 53.6379C161.802 33.683 144.666 18.0195 123.019 18.0195C101.372 18.0195 83.8253 34.191 83.8253 54.1568V87.2349H161.748V59.7347C161.748 59.7347 161.802 55.5296 161.802 53.6379Z" fill="#A4DBDE"/>
<path d="M0 117.492H42.1716V53.2493C42.1716 53.2493 42.2256 49.0551 42.2256 47.1526C42.2256 27.1976 21.852 11.5342 0.205031 11.5342" fill="#954F22"/>
<path d="M83.8287 87.21L161.751 87.21L161.751 66.347L83.8287 66.347L83.8287 87.21Z" fill="#2D9D48"/>
<path d="M158.068 41.2282C156.633 41.2282 155.37 42.0497 154.604 43.3037C154.194 42.3956 153.525 41.6281 152.662 41.1633C150.547 40.0175 148.032 41.066 147.04 43.5091C146.673 44.4063 146.565 45.3792 146.683 46.298C144.773 45.7683 142.745 46.8385 141.871 48.968C140.878 51.4002 141.784 54.3081 143.899 55.4539C145.043 56.0701 146.295 56.0484 147.374 55.508C147.676 56.8592 148.486 58.0591 149.673 58.6969C151.723 59.7995 154.151 58.8482 155.198 56.5673C155.511 56.8916 155.856 57.1727 156.255 57.3889C158.306 58.5023 160.734 57.5294 161.78 55.2485C161.791 54.5459 161.791 53.8757 161.791 53.3676C161.791 49.2383 161.046 45.2927 159.687 41.639C159.201 41.3795 158.651 41.2282 158.068 41.2282Z" fill="white"/>
<path d="M87.6237 49.8224C89.2316 49.9521 90.6992 49.1522 91.6488 47.8118C92.0481 48.8603 92.7387 49.7792 93.6775 50.3845C95.9761 51.8547 98.8681 50.9142 100.152 48.2658C100.627 47.2821 100.81 46.2119 100.735 45.1742C102.839 45.9417 105.192 44.9255 106.314 42.6122C107.598 39.9746 106.767 36.6344 104.479 35.1643C103.238 34.3643 101.825 34.2887 100.595 34.7859C100.346 33.2401 99.5263 31.824 98.2314 31.0025C96.0084 29.5756 93.2243 30.4296 91.8862 32.8834C91.6704 32.624 91.4222 32.3862 91.1524 32.1808C87.5806 36.4723 85.0231 41.5313 83.8361 47.0335C84.5806 48.5901 85.9727 49.6927 87.6237 49.8224Z" fill="white"/>
<path d="M161.964 85.084H83.6095V89.3863H161.964V85.084Z" fill="#FFCA05"/>
<path d="M34.0999 75.4095C35.7448 75.4095 37.0783 74.3835 37.0783 73.1179C37.0783 71.8522 35.7448 70.8262 34.0999 70.8262C32.455 70.8262 31.1216 71.8522 31.1216 73.1179C31.1216 74.3835 32.455 75.4095 34.0999 75.4095Z" fill="#838383"/>
<path d="M145.971 206.122C145.971 206.122 130.605 210.37 125.317 181.454" stroke="#108AB2" stroke-width="2.7001" stroke-miterlimit="10" stroke-linecap="round"/>
<path d="M129.234 180.092C128.997 181.356 127.777 182.481 126.083 182.816C123.925 183.237 121.788 182.232 121.346 180.567L120.245 176.481C120.234 176.449 120.234 176.427 120.224 176.395C120.224 176.384 120.213 176.362 120.202 176.351L118.724 170.838C118.605 170.406 118.972 169.963 119.544 169.855C120.105 169.747 120.666 170.006 120.785 170.438L121.594 173.444C121.832 173.281 122.091 173.141 122.371 173.022L121.4 169.422C121.281 168.99 121.648 168.547 122.22 168.439C122.781 168.33 123.342 168.59 123.461 169.022L124.432 172.622C124.713 172.622 124.993 172.654 125.252 172.698L124.421 169.606C124.303 169.174 124.67 168.73 125.242 168.622C125.803 168.514 126.364 168.774 126.483 169.206L127.864 174.362C127.95 174.514 128.015 174.676 128.069 174.849L128.198 173.789C128.252 173.346 128.759 173 129.342 173.022C129.914 173.044 130.346 173.422 130.292 173.876" fill="#A1CBEC"/>
<path d="M228.577 209.818C228.577 209.818 243.879 214.585 250.969 193.279" stroke="#108AB2" stroke-width="2.7001" stroke-miterlimit="10" stroke-linecap="round"/>
<path d="M248.336 190.059C248.346 191.345 249.361 192.664 250.98 193.28C253.03 194.069 255.307 193.442 256.03 191.886L257.81 188.048C257.821 188.016 257.832 187.994 257.843 187.962C257.853 187.951 257.864 187.94 257.864 187.918L260.271 182.74C260.465 182.33 260.174 181.832 259.634 181.627C259.094 181.422 258.501 181.584 258.317 181.995L257.012 184.816C256.807 184.611 256.58 184.427 256.321 184.265L257.897 180.881C258.091 180.47 257.799 179.973 257.26 179.768C256.72 179.562 256.127 179.724 255.943 180.135L254.368 183.519C254.087 183.475 253.818 183.454 253.548 183.454L254.897 180.546C255.091 180.135 254.8 179.638 254.26 179.433C253.72 179.227 253.127 179.389 252.943 179.8L250.699 184.643C250.58 184.783 250.494 184.935 250.408 185.086L250.462 184.016C250.483 183.573 250.041 183.14 249.469 183.054C248.897 182.978 248.411 183.281 248.39 183.724" fill="#A1CBEC"/>
<path d="M235.192 188.167C235.192 216.413 226.646 246.626 186.826 247.653C149.014 248.626 138.461 216.986 138.461 188.74C138.461 160.494 160.118 153.889 186.826 153.889C213.545 153.878 235.192 159.921 235.192 188.167Z" fill="#00A0CC"/>
<path d="M152.651 178.6C152.651 178.6 155.91 171.984 163.075 175.886" stroke="#0D3F60" stroke-width="1.5761" stroke-miterlimit="10" stroke-linecap="round"/>
<path d="M195.427 178.6C195.427 178.6 193.042 171.855 185.877 175.757" stroke="#0D3F60" stroke-width="1.5761" stroke-miterlimit="10" stroke-linecap="round"/>
<path d="M186.384 198.393C186.384 198.393 184.366 204.878 174.438 204.684C164.51 204.489 163.723 198.393 163.723 198.393H186.384Z" fill="#0D3F60"/>
<path d="M179.305 190.393C179.305 185.875 183.211 182.199 188.024 182.199C192.837 182.199 196.743 185.864 196.743 190.393" fill="white"/>
<path d="M153.374 190.393C153.374 185.875 157.302 182.199 162.147 182.199C166.992 182.199 170.92 185.864 170.92 190.393" fill="white"/>
<path d="M154.27 186.231L149.576 184.361L153.73 187.647C153.676 187.831 153.633 188.015 153.601 188.188L149.532 187.68L153.417 189.323C153.363 189.842 153.374 190.177 153.374 190.177C155.662 182.891 160.388 182.264 161.338 182.21C157.216 182.253 155.219 184.253 154.27 186.231Z" fill="#0D3F60"/>
<path d="M161.338 182.21C161.392 182.21 161.446 182.21 161.51 182.21C161.51 182.199 161.446 182.199 161.338 182.21Z" fill="#0D3F60"/>
<path d="M200.596 187.68L196.528 188.188C196.484 188.015 196.452 187.831 196.398 187.647L200.553 184.361L195.859 186.231C194.898 184.253 192.913 182.253 188.78 182.199C189.718 182.253 194.445 182.88 196.743 190.166C196.743 190.166 196.754 189.831 196.7 189.312L200.596 187.68Z" fill="#0D3F60"/>
<path d="M176.64 235.957L169.766 248.626C168.913 250.205 168.514 251.977 168.622 253.761L169.809 273.359C169.884 274.656 168.762 275.727 167.413 275.629C166.431 275.554 165.622 274.873 165.406 273.954L160.755 253.75C160.248 251.545 160.388 249.253 161.154 247.113L165.428 235.309" fill="#00A0CC"/>
<path d="M165.277 274.603L169.96 275.813L169.021 258.29L161.672 257.75L165.277 274.603Z" fill="#5652A2"/>
<path d="M156.061 274.797C156.331 271.435 159.654 268.938 163.496 269.219C167.338 269.5 170.23 272.451 169.96 275.824" fill="#4F4A47"/>
<path d="M199.333 231.601L202.312 249.058C202.668 250.81 203.499 252.442 204.74 253.782L218.174 265.1C219.07 266.073 217.894 266.592 216.772 267.316L215.779 268.311C214.97 268.84 215.865 268.786 215.11 268.181L198.556 258.441C196.733 257.004 195.362 255.112 194.585 252.982L190.128 237.741" fill="#00A0CC"/>
<path d="M215.423 268.765L218.887 264.949L207.222 255.782L201.125 259.717L215.423 268.765Z" fill="#5652A2"/>
<path d="M209.358 274.948C206.984 272.483 207.351 268.429 210.178 265.9C213.006 263.37 217.225 263.327 219.61 265.792" fill="#4F4A47"/>
<path d="M247.667 250.291C247.85 250.497 248.174 250.518 248.379 250.324L266.389 233.957C266.594 233.774 266.616 233.449 266.422 233.244C266.238 233.039 265.914 233.017 265.709 233.212L247.699 249.578C247.494 249.772 247.483 250.086 247.667 250.291Z" fill="#515252"/>
<path d="M281.357 251.447H243.156V273.532H281.357V251.447Z" fill="#444445"/>
<path d="M252.458 248.551C257.681 248.551 262.893 248.54 268.116 248.561C271.871 248.572 275.637 248.669 279.392 248.637C281.896 248.615 283.094 250.248 282.986 252.291C282.943 253.145 283.04 253.891 283.936 254.312C284.27 254.464 284.346 254.853 284.378 255.209C284.615 257.242 284.615 259.274 284.378 261.295C284.324 261.728 284.195 262.128 283.784 262.355C283.072 262.744 282.975 263.392 282.986 264.128C283.007 266.971 282.986 269.813 282.997 272.656C282.997 273.392 282.943 274.116 282.727 274.818C281.972 276.17 280.785 276.645 279.285 276.645C267.641 276.635 255.987 276.635 244.343 276.645C242.832 276.645 241.667 276.126 240.879 274.818C240.62 273.964 240.588 273.089 240.588 272.202C240.598 265.425 240.598 258.658 240.588 251.88C240.879 249.783 241.861 248.745 243.663 248.68C244.58 248.648 245.508 248.767 246.426 248.637L252.458 248.551ZM264.576 262.398C264.749 257.858 261.004 252.475 254.735 252.464C246.62 252.442 241.386 261.879 247.289 269.478C255.393 276.364 264.781 270.311 264.576 262.398ZM276.306 258.993C277.148 258.993 277.979 258.993 278.821 258.993C279.824 258.993 279.824 258.993 279.727 257.015C279.727 256.939 279.727 256.863 279.716 256.788C279.695 256.474 279.619 256.301 279.446 256.29C279.306 256.29 279.177 256.28 279.036 256.28C277.288 256.28 275.529 256.258 273.781 256.29C272.767 256.301 272.885 255.901 272.885 258.171C272.885 258.971 272.896 258.993 273.328 258.993C274.321 259.004 275.313 258.993 276.306 258.993ZM276.274 254.788C277.126 254.788 277.979 254.809 278.842 254.788C279.835 254.755 279.727 255.209 279.738 252.907C279.738 252.831 279.738 252.756 279.738 252.68C279.738 252.302 279.63 252.118 279.446 252.107C279.295 252.096 279.133 252.096 278.982 252.096C277.256 252.096 275.529 252.085 273.792 252.096C272.81 252.107 272.907 251.815 272.896 254.02C272.896 254.636 273.015 254.809 273.306 254.799C274.288 254.777 275.281 254.788 276.274 254.788Z" fill="#656767"/>
<path d="M254.595 270.029C250.58 269.997 247.311 266.689 247.311 262.635C247.311 258.625 250.634 255.274 254.627 255.252C258.652 255.241 262.03 258.679 261.965 262.722C261.911 266.786 258.609 270.061 254.595 270.029Z" fill="#515252"/>
<path d="M283.731 262.7C283.234 262.7 282.824 262.29 282.824 261.792V253.588C282.824 253.09 283.234 252.68 283.731 252.68C284.227 252.68 284.637 253.09 284.637 253.588V261.792C284.648 262.29 284.238 262.7 283.731 262.7Z" fill="#444445"/>
<path d="M244.354 243.902V229.677" stroke="black" stroke-width="0.4594" stroke-miterlimit="10"/>
<path d="M239.8 245.739L231.836 233.232" stroke="black" stroke-width="0.4594" stroke-miterlimit="10"/>
<path d="M235.818 248.291L225.254 245.74" stroke="black" stroke-width="0.4594" stroke-miterlimit="10"/>
<path d="M81.4944 196.631C81.4944 196.631 97.8213 192.015 101.339 173.897" stroke="#108AB2" stroke-width="3.073" stroke-miterlimit="10" stroke-linecap="round"/>
<path d="M88.541 181.172V204.586C88.541 219.969 84.4728 238.259 60.7323 238.259H52.3369C29.3194 238.259 24.5282 219.98 24.5282 204.586V148.624C24.5282 135.609 35.0603 125.059 48.0528 125.059H65.0164C78.0089 125.059 88.541 135.609 88.541 148.624V161.066V181.172Z" fill="#00A0CC"/>
<path d="M28.9849 198.371C28.9849 198.371 10.6185 192.48 13.8018 170.709" stroke="#108AB2" stroke-width="3.073" stroke-miterlimit="10" stroke-linecap="round"/>
<path d="M17.9564 171.563C17.3413 172.892 15.6795 173.79 13.7155 173.671C11.212 173.53 9.1509 171.811 9.12931 169.866L9.06457 165.055C9.06457 165.023 9.06457 164.99 9.06457 164.958C9.06457 164.936 9.05378 164.926 9.05378 164.904L8.96745 158.407C8.95666 157.899 9.48542 157.51 10.1437 157.553C10.8019 157.586 11.3415 158.04 11.3415 158.548L11.3847 162.083C11.6868 161.974 12.0213 161.888 12.3559 161.834L12.3019 157.597C12.2911 157.088 12.8199 156.699 13.4781 156.743C14.1364 156.775 14.6759 157.229 14.6759 157.737L14.7299 161.974C15.0428 162.061 15.3342 162.169 15.6148 162.288L15.5716 158.645C15.5608 158.137 16.0896 157.748 16.7478 157.791C17.4061 157.824 17.9456 158.278 17.9456 158.786L18.0212 164.861C18.0751 165.055 18.1075 165.261 18.1183 165.455L18.5607 164.32C18.7442 163.845 19.4132 163.607 20.0391 163.791C20.665 163.974 21.0319 164.515 20.8485 164.99" fill="#A1CBEC"/>
<path d="M95.9221 176.373C95.9545 177.843 97.1307 179.324 98.976 180.005C101.328 180.87 103.897 180.124 104.706 178.351L106.681 173.962C106.692 173.93 106.702 173.898 106.713 173.865C106.724 173.854 106.735 173.833 106.746 173.822L109.411 167.898C109.616 167.433 109.292 166.871 108.677 166.644C108.062 166.417 107.393 166.612 107.177 167.077L105.72 170.298C105.483 170.071 105.213 169.866 104.922 169.682L106.659 165.812C106.864 165.347 106.541 164.785 105.925 164.558C105.31 164.331 104.641 164.525 104.426 164.99L102.688 168.86C102.375 168.817 102.051 168.795 101.749 168.795L103.249 165.477C103.454 165.012 103.131 164.45 102.516 164.223C101.9 163.996 101.231 164.19 101.016 164.655L98.5228 170.19C98.3933 170.352 98.2854 170.514 98.1991 170.698L98.253 169.476C98.2746 168.968 97.7566 168.482 97.1092 168.395C96.4617 168.309 95.9114 168.666 95.8898 169.174" fill="#A1CBEC"/>
<path d="M61.4877 167.401C61.4877 167.401 62.8473 173.185 69.5486 173.012C76.2499 172.839 76.7787 167.401 76.7787 167.401H61.4877Z" fill="#0D3F60"/>
<path d="M66.4084 232.185L74.4694 246.962C75.473 248.81 75.9478 250.875 75.8183 252.961L74.4802 275.846C74.3939 277.359 75.7104 278.602 77.2859 278.483C78.4297 278.397 79.3794 277.597 79.6275 276.516L85.0123 252.907C85.595 250.334 85.4332 247.653 84.5267 245.167L79.4981 231.396" fill="#00A0CC"/>
<path d="M79.7895 277.283L74.3184 278.71L75.3651 258.236L83.944 257.588L79.7895 277.283Z" fill="#EC1651"/>
<path d="M90.5374 277.478C90.2137 273.554 86.3289 270.635 81.8398 270.981C77.3615 271.316 73.9839 274.775 74.3076 278.71" fill="#4F4A47"/>
<path d="M41.9126 224.672L43.0025 245.329C43.0565 247.416 42.5169 249.491 41.4486 251.34L27.7439 264.106C26.9669 265.447 27.5712 267.122 29.0388 267.652C30.0964 268.041 31.3157 267.706 32.028 266.819L49.6714 255.048C51.3764 252.94 52.4663 250.432 52.79 247.805L53.9555 229.298" fill="#00A0CC"/>
<path d="M29.9885 269.954L25.0677 266.506L38.5458 254.042L43.4234 259.22L29.9885 269.954Z" fill="#EC1651"/>
<path d="M34.3481 278.018C37.5639 275.64 37.9308 270.905 35.1683 267.446C32.4057 263.987 27.5497 263.1 24.334 265.478" fill="#4F4A47"/>
<path d="M156.018 183.951C155.219 184.762 154.604 185.746 154.226 186.837C155.683 187.854 157.69 187.832 159.115 186.632C160.572 185.411 160.939 183.389 160.14 181.757C159.061 181.962 158.068 182.373 157.194 182.968L156.018 183.951Z" fill="#0D3F60"/>
<path d="M181.334 184.61C180.535 185.421 179.92 186.405 179.542 187.497C180.999 188.513 183.006 188.491 184.431 187.291C185.888 186.07 186.254 184.048 185.456 182.416C184.377 182.621 183.384 183.032 182.51 183.627L181.334 184.61Z" fill="#0D3F60"/>
<path d="M266.303 62.6758C265.623 66.9348 264.587 71.1723 263.605 75.3341C263.076 77.5933 262.494 79.5715 262.763 81.9173C262.99 83.9819 264.048 86.0574 264.954 87.9059C267.414 92.8784 267.263 98.0563 265.612 103.461C264.522 107.039 261.76 109.936 258.641 111.774C252.188 115.59 250.041 115.439 236.724 115.698C228.825 115.849 221.002 115.363 214.419 110.153C211.7 108.001 209.714 105.061 208.57 101.71C207.901 99.721 207.804 98.8563 207.524 96.8024C207.124 93.9486 207.945 90.2733 208.927 87.6573C210.394 83.7333 211.786 78.5014 210.686 74.2531C208.139 64.3405 206.412 51.2498 206.315 46.2124C205.959 27.4141 219.621 23.1334 236.563 22.8199C253.505 22.4956 267.328 26.6358 267.684 45.4341C267.717 47.3691 267.652 49.3148 267.533 51.2606C267.533 51.239 266.681 60.5138 266.303 62.6758Z" fill="#00A0CC"/>
<path d="M237.674 112.854L241.203 137.198L244.915 137.122L247.559 112.119" fill="#00A0CC"/>
<path d="M245.206 137.036L246.005 126.854L239.724 126.962L241.009 137.804L245.206 137.036Z" fill="#56C4CF"/>
<path d="M223.538 112.854L227.066 137.198L230.768 137.122L233.422 112.119" fill="#00A0CC"/>
<path d="M231.059 137.036L231.858 126.854L225.577 126.962L226.861 137.804L231.059 137.036Z" fill="#56C4CF"/>
<path d="M231.426 138.842C231.404 135.393 228.588 132.615 225.146 132.648C221.703 132.68 218.93 135.491 218.962 138.939" fill="#4F4A47"/>
<path d="M233.023 138.636C233.077 135.188 235.904 132.431 239.347 132.485C242.789 132.539 245.541 135.371 245.487 138.82" fill="#4F4A47"/>
<path d="M234.739 59.3781C234.739 59.3781 233.563 55.7136 227.94 55.8649C222.318 56.0163 221.897 59.4754 221.897 59.4754L234.739 59.3781Z" fill="#0D3F60"/>
<path d="M225.89 52.6326C225.89 50.0707 223.678 47.9844 220.948 47.9844C218.218 47.9844 216.006 50.0599 216.006 52.6326" fill="white"/>
<path d="M221.757 52.6326C221.757 51.4435 220.797 50.4814 219.61 50.4814C218.423 50.4814 217.462 51.4435 217.462 52.6326" fill="#0D3F60"/>
<path d="M240.598 52.6326C240.598 50.0707 238.375 47.9844 235.624 47.9844C232.872 47.9844 230.649 50.0599 230.649 52.6326" fill="white"/>
<path d="M236.466 52.6326C236.466 51.4435 235.505 50.4814 234.318 50.4814C233.131 50.4814 232.171 51.4435 232.171 52.6326" fill="#0D3F60"/>
<path d="M240.167 50.4382L242.735 49.3032L240.458 51.2922C240.491 51.4111 240.512 51.5192 240.534 51.6165L242.767 51.303L240.631 52.2975C240.663 52.611 240.652 52.8164 240.652 52.8164C239.455 48.6113 237.07 48.06 236.39 47.9844C238.58 48.0709 239.649 49.2599 240.167 50.4382Z" fill="#0D3F60"/>
<path d="M236.39 48.0059C236.325 48.0059 236.271 47.9951 236.196 47.9951C236.196 47.9951 236.271 47.9951 236.39 48.0059Z" fill="#0D3F60"/>
<path d="M213.761 51.3146L215.995 51.6281C216.016 51.52 216.038 51.4119 216.07 51.3038L213.793 49.3148L216.362 50.4499C216.88 49.2608 217.948 48.0825 220.139 48.0068C219.459 48.0825 217.063 48.6338 215.876 52.8388C215.876 52.8388 215.876 52.6334 215.898 52.32L213.761 51.3146Z" fill="#0D3F60"/>
<path d="M221.131 48.0059C221.25 47.9951 221.326 47.9951 221.326 47.9951C221.261 47.9951 221.207 48.0059 221.131 48.0059Z" fill="#0D3F60"/>
<path d="M212.013 92.8129C212.013 92.8129 206.563 88.8565 206.898 85.2784C207.232 81.7004 213.265 78.2412 213.265 78.2412" stroke="#0A8AB2" stroke-width="2.0688" stroke-miterlimit="10" stroke-linecap="round"/>
<path d="M211.149 143.035C211.592 141.263 212.034 139.479 212.477 137.706C212.887 136.052 213.286 134.398 213.696 132.744C213.729 132.593 213.75 132.409 213.923 132.323C213.772 132.204 213.567 132.334 213.405 132.193C212.639 131.566 211.635 131.426 210.783 130.961C209.542 130.291 208.193 129.869 206.919 129.242C206.52 129.037 206.11 128.82 205.668 128.68C204.955 128.453 204.243 128.172 203.596 127.848C202.592 127.34 201.524 127.004 200.542 126.464C199.884 126.107 199.128 125.988 198.492 125.61C197.65 125.113 196.711 124.842 195.837 124.421C195.319 125.437 194.564 126.313 193.927 127.242C192.481 129.339 191.003 131.436 189.535 133.523C189.319 133.836 189.244 134.02 189.708 134.204C191.154 134.788 192.578 135.425 194.002 136.041L211.149 143.035Z" fill="#D5BA76"/>
<path d="M229.883 69.8317C229.354 69.7668 228.836 70.0803 228.61 70.5992C227.584 72.9125 224.023 81.636 222.998 83.9493C221.531 87.268 213.729 105.169 212.261 108.488C210.707 112.012 209.164 115.536 207.61 119.06C206.963 120.519 206.304 121.967 205.668 123.438C205.495 123.838 205.344 123.946 204.891 123.74C202.938 122.843 200.952 122 198.988 121.114C197.283 120.346 196.193 120.757 195.524 122.486C195.459 122.649 195.319 122.8 195.362 123.005C195.146 123.729 195.233 123.967 195.859 124.443C196.301 124.778 197.002 124.919 197.51 125.156C198.168 125.459 198.826 125.751 199.484 126.032C200.887 126.648 202.301 127.253 203.704 127.87C205.42 128.616 207.135 129.361 208.851 130.107C210.362 130.767 211.829 131.307 213.286 132.096C214.02 132.496 214.797 132.529 215.261 131.783C215.434 131.415 215.628 131.069 215.779 130.691C216.211 129.599 215.736 128.475 214.646 127.999C212.509 127.059 210.373 126.108 208.214 125.189C207.804 125.016 207.804 124.832 207.966 124.475C209.812 120.314 211.635 116.152 213.48 112.001C215.477 107.493 223.797 88.3922 225.793 83.8845C226.646 81.9603 230.056 73.6259 230.887 71.691C231.286 70.783 230.8 69.9398 229.883 69.8317Z" fill="#969E9B"/>
<path d="M217.214 101.266C217.484 101.504 217.916 101.461 218.175 101.169C218.444 100.877 218.444 100.445 218.175 100.196L216.34 98.5208C216.534 98.4451 216.718 98.3478 216.901 98.2289L219.103 100.24C219.372 100.477 219.804 100.434 220.063 100.142C220.333 99.8504 220.333 99.418 220.063 99.1693L217.862 97.1587C217.948 96.9858 218.023 96.8128 218.077 96.6398L219.966 98.3586C220.236 98.5964 220.667 98.5532 220.926 98.2613C221.196 97.9695 221.196 97.5371 220.926 97.2884L217.775 94.413C217.7 94.2941 217.603 94.1968 217.506 94.0887L218.293 94.4346C218.628 94.5752 219.038 94.413 219.211 94.0671C219.383 93.7212 219.264 93.3104 218.93 93.1699L214.721 91.3106C214.56 91.2349 214.376 91.2457 214.214 91.3106C213.243 90.9431 212.056 91.2349 211.257 92.1105C210.243 93.2239 210.243 94.8995 211.257 95.8183L213.761 98.0992C213.783 98.1208 213.793 98.1316 213.815 98.1424C213.826 98.1532 213.826 98.164 213.837 98.1748L217.214 101.266Z" fill="#A1CBEC"/>
<path d="M226.311 89.6779C242.325 101.861 248.854 81.3867 248.854 81.3867" stroke="#0A8AB2" stroke-width="2.0688" stroke-miterlimit="10" stroke-linecap="round"/>
<path d="M217.527 87.2682C217.225 87.0737 217.149 86.6521 217.365 86.317C217.581 85.9819 218.002 85.863 218.304 86.0575L220.398 87.3763C220.419 87.171 220.473 86.9656 220.538 86.7602L218.023 85.1711C217.721 84.9766 217.646 84.555 217.862 84.2199C218.077 83.8848 218.498 83.7659 218.8 83.9604L221.315 85.5495C221.455 85.4198 221.606 85.3009 221.757 85.2036L219.599 83.8415C219.297 83.6469 219.221 83.2254 219.437 82.8903C219.653 82.5552 220.074 82.4363 220.376 82.6308L223.969 84.9009C224.099 84.9441 224.228 85.009 224.347 85.0738L223.808 84.4036C223.581 84.1226 223.635 83.6794 223.926 83.4199C224.218 83.1605 224.638 83.1713 224.865 83.4524L227.757 87.0196C227.865 87.1601 227.908 87.3331 227.897 87.5061C228.502 88.3384 228.545 89.5707 227.897 90.5652C227.088 91.8408 225.469 92.2948 224.315 91.5597L221.466 89.7653C221.444 89.7545 221.423 89.7329 221.412 89.7221C221.401 89.7113 221.39 89.7113 221.38 89.7113L217.527 87.2682Z" fill="#A1CBEC"/>
<path d="M192.222 135.274L196.193 129.502L193.301 135.739L192.222 135.274Z" fill="#C9A362"/>
<path d="M197.218 137.36L199.657 133.761L198.405 137.847L197.218 137.36Z" fill="#C9A362"/>
<path d="M206.142 140.993L209.11 135.264L207.47 141.544L206.142 140.993Z" fill="#C9A362"/>
<path d="M209.898 83.8306C209.898 83.8306 211.732 79.8742 210.286 72.3938C208.84 64.9134 217.635 77.1826 217.635 77.1826L209.898 83.8306Z" fill="#00A0CC"/>
<path d="M226.279 49.077L219.135 44.418" stroke="#0D3F60" stroke-width="0.8939" stroke-miterlimit="10" stroke-linecap="round"/>
<path d="M230.649 49.0878L237.145 44.418" stroke="#0D3F60" stroke-width="0.8939" stroke-miterlimit="10" stroke-linecap="round"/>
<path d="M86.7929 161.25C86.7929 157.542 83.7929 154.526 80.0808 154.526C76.3687 154.526 73.3795 157.542 73.3795 161.25" fill="white"/>
<path d="M65.5344 161.25C65.5344 157.542 62.5344 154.526 58.8223 154.526C55.1209 154.526 52.1102 157.532 52.1102 161.25" fill="white"/>
<path d="M79.0125 161.315C79.0125 159.629 80.3721 158.267 82.0555 158.267C83.739 158.267 85.0986 159.629 85.0986 161.315" fill="#0D3F60"/>
<path d="M57.5706 161.315C57.5706 159.629 58.9302 158.267 60.6136 158.267C62.2971 158.267 63.6567 159.629 63.6567 161.315" fill="#0D3F60"/>
<path d="M52.0455 151.694C52.0455 151.694 54.6894 146.322 60.5166 149.489" stroke="#0D3F60" stroke-width="1.2798" stroke-miterlimit="10" stroke-linecap="round"/>
<path d="M85.703 151.694C85.703 151.694 83.7714 146.214 77.955 149.381" stroke="#0D3F60" stroke-width="1.2798" stroke-miterlimit="10" stroke-linecap="round"/>
<path d="M52.7038 157.932L48.8946 156.418L52.2722 159.077C52.229 159.229 52.1966 159.369 52.1643 159.521L48.8622 159.11L52.0132 160.44C51.97 160.861 51.9808 161.131 51.9808 161.131C53.8477 155.218 57.6785 154.699 58.4447 154.656C55.0994 154.699 53.4808 156.321 52.7038 157.932Z" fill="#0D3F60"/>
<path d="M89.9007 159.067L86.5987 159.478C86.5663 159.337 86.5339 159.186 86.4907 159.034L89.8684 156.375L86.0591 157.889C85.2821 156.278 83.6635 154.657 80.3182 154.613C81.0844 154.657 84.9152 155.165 86.7821 161.088C86.7821 161.088 86.7929 160.818 86.7497 160.397L89.9007 159.067Z" fill="#0D3F60"/>
</g>
<defs>
<clipPath id="clip0">
<rect width="296" height="297" fill="white"/>
</clipPath>
</defs>
</svg>
