<svg width="304" height="304" viewBox="0 0 304 304" fill="none" xmlns="http://www.w3.org/2000/svg">
<g clip-path="url(#clip0)">
<path d="M0.210571 302.894V0H304V302.894" fill="#F8D978"/>
<path d="M223.997 78.0391C223.997 78.0391 236.219 86.3596 225.814 97.2583" stroke="#108AB2" stroke-width="1.7568" stroke-miterlimit="10" stroke-linecap="round"/>
<path d="M223.476 95.7642C224.208 95.3105 225.305 95.399 226.235 96.085C227.421 96.9591 227.886 98.4529 227.277 99.4265L225.77 101.805C225.759 101.828 225.748 101.839 225.737 101.85C225.737 101.861 225.726 101.872 225.726 101.872L223.687 105.081C223.532 105.335 223.144 105.357 222.834 105.125C222.523 104.892 222.401 104.505 222.557 104.251L223.665 102.503C223.476 102.458 223.288 102.392 223.111 102.314L221.781 104.417C221.626 104.671 221.238 104.693 220.928 104.461C220.617 104.229 220.495 103.841 220.651 103.587L221.98 101.485C221.858 101.341 221.748 101.197 221.648 101.042L220.507 102.846C220.351 103.1 219.964 103.122 219.653 102.89C219.343 102.657 219.221 102.27 219.376 102.016L221.282 99.0061C221.315 98.8954 221.371 98.7848 221.426 98.6852L220.85 99.1057C220.606 99.2827 220.207 99.1831 219.953 98.8954C219.698 98.6078 219.698 98.2205 219.941 98.0435" fill="#A1CBEC"/>
<path d="M304 119.066H0.210571V304.011H304V119.066Z" fill="#FFCA05"/>
<path d="M186.3 201.553C186.3 201.553 170.278 194.715 169.081 175.872" stroke="#108AB2" stroke-width="3.073" stroke-miterlimit="10" stroke-linecap="round"/>
<path d="M174.278 179.092C174.056 180.574 172.66 181.924 170.699 182.378C168.194 182.953 165.668 181.858 165.081 179.944L163.64 175.23C163.629 175.197 163.629 175.164 163.618 175.13C163.607 175.119 163.596 175.097 163.596 175.086L161.657 168.724C161.502 168.226 161.912 167.695 162.577 167.54C163.23 167.385 163.895 167.673 164.05 168.182L165.103 171.645C165.369 171.446 165.668 171.269 165.989 171.125L164.726 166.976C164.571 166.478 164.981 165.947 165.646 165.792C166.3 165.637 166.964 165.925 167.12 166.434L168.383 170.583C168.715 170.572 169.037 170.594 169.347 170.638L168.261 167.064C168.106 166.566 168.516 166.035 169.181 165.88C169.834 165.726 170.499 166.013 170.643 166.522L172.461 172.475C172.571 172.652 172.66 172.84 172.726 173.039L172.837 171.8C172.882 171.28 173.469 170.848 174.145 170.86C174.821 170.86 175.33 171.291 175.286 171.811" fill="#A1CBEC"/>
<path d="M147.928 160.492C137.179 186.715 115.428 183.518 115.428 183.518" stroke="#0A8AB2" stroke-width="4.3132" stroke-miterlimit="10" stroke-linecap="round"/>
<path d="M163.518 148.122C163.917 147.469 163.64 146.584 162.909 146.153C162.178 145.721 161.258 145.898 160.87 146.551L158.133 151.088C157.889 150.722 157.601 150.368 157.28 150.048L160.571 144.615C160.97 143.962 160.693 143.077 159.961 142.645C159.23 142.214 158.31 142.391 157.923 143.044L154.632 148.476C154.233 148.355 153.834 148.277 153.435 148.233L156.261 143.564C156.659 142.911 156.382 142.026 155.651 141.594C154.92 141.163 154 141.34 153.612 141.993L148.903 149.771C148.692 149.981 148.515 150.225 148.349 150.468L148.748 148.676C148.914 147.923 148.382 147.126 147.573 146.905C146.764 146.684 145.967 147.115 145.8 147.868L143.684 157.439C143.606 157.804 143.695 158.18 143.894 158.501C143.54 160.67 144.637 163.048 146.831 164.343C149.612 165.992 153.125 165.306 154.643 162.805L158.377 156.642C158.399 156.598 158.421 156.554 158.443 156.509C158.455 156.487 158.477 156.476 158.488 156.443L163.518 148.122Z" fill="#A1CBEC"/>
<path d="M165.036 54.9027C165.036 34.4774 147.44 18.4448 125.212 18.4448C102.984 18.4448 84.967 34.9975 84.967 55.4338V89.2915H164.981V61.1431C164.981 61.1431 165.036 56.839 165.036 54.9027Z" fill="#A4DBDE"/>
<path d="M0 120.261H43.3035V54.5045C43.3035 54.5045 43.3589 50.2114 43.3589 48.264C43.3589 27.8388 22.4385 11.8062 0.210534 11.8062" fill="#954F22"/>
<path d="M84.9705 89.2656L164.984 89.2656L164.984 67.9109L84.9705 67.9109L84.9705 89.2656Z" fill="#2D9D48"/>
<path d="M161.202 42.2006C159.729 42.2006 158.432 43.0415 157.646 44.325C157.225 43.3956 156.537 42.61 155.651 42.1342C153.479 40.9614 150.897 42.0346 149.878 44.5352C149.501 45.4536 149.39 46.4494 149.512 47.3899C147.551 46.8477 145.468 47.9431 144.57 50.1229C143.551 52.6124 144.482 55.5888 146.653 56.7616C147.828 57.3923 149.113 57.3702 150.221 56.8169C150.532 58.2 151.363 59.4282 152.582 60.081C154.687 61.2096 157.18 60.2359 158.255 57.9013C158.576 58.2332 158.931 58.5209 159.341 58.7422C161.446 59.8818 163.939 58.886 165.014 56.5514C165.025 55.8322 165.025 55.1462 165.025 54.6262C165.025 50.3995 164.261 46.3609 162.865 42.6211C162.366 42.3555 161.801 42.2006 161.202 42.2006Z" fill="white"/>
<path d="M89.9755 50.9966C91.6265 51.1294 93.1335 50.3106 94.1086 48.9386C94.5186 50.0119 95.2278 50.9524 96.1918 51.572C98.552 53.0768 101.522 52.1142 102.84 49.4033C103.328 48.3965 103.516 47.3011 103.439 46.2389C105.599 47.0244 108.015 45.9844 109.167 43.6165C110.486 40.9168 109.633 37.4978 107.284 35.993C106.009 35.1742 104.558 35.0968 103.295 35.6058C103.04 34.0235 102.198 32.5741 100.868 31.7332C98.5852 30.2726 95.7264 31.1467 94.3524 33.6584C94.1308 33.3928 93.8759 33.1494 93.5989 32.9392C89.9312 37.3318 87.3051 42.5101 86.0862 48.142C86.8508 49.7353 88.2802 50.8639 89.9755 50.9966Z" fill="white"/>
<path d="M165.203 85.9834H84.7455V90.3871H165.203V85.9834Z" fill="#FFCA05"/>
<path d="M32.799 82.7187C34.4881 82.7187 35.8573 81.6685 35.8573 80.373C35.8573 79.0775 34.4881 78.0273 32.799 78.0273C31.11 78.0273 29.7407 79.0775 29.7407 80.373C29.7407 81.6685 31.11 82.7187 32.799 82.7187Z" fill="#838383"/>
<path d="M130.232 139.69C128.969 147.59 127.03 155.457 125.201 163.18C124.215 167.363 123.14 171.036 123.628 175.407C124.06 179.235 126.01 183.097 127.706 186.516C132.282 195.755 132.005 205.359 128.935 215.372C126.897 222.022 121.766 227.377 115.971 230.796C103.96 237.877 99.9704 237.601 75.1717 238.066C60.4676 238.342 45.9186 237.446 33.6633 227.775C28.6105 223.792 24.8984 218.337 22.782 212.108C21.5299 208.423 21.3637 206.819 20.8207 202.991C20.0783 197.691 21.6075 190.886 23.4247 186.029C26.1506 178.748 28.7435 169.045 26.7046 161.155C21.962 142.766 18.7486 118.479 18.5713 109.119C17.9065 74.243 43.3368 66.3097 74.8726 65.7122C106.408 65.1147 132.138 72.7935 132.803 107.669C132.869 111.265 132.747 114.872 132.515 118.479C132.526 118.479 130.93 135.685 130.232 139.69Z" fill="#00A0CC"/>
<path d="M82.8617 133.594C81.4323 133.583 80.6899 131.879 81.665 130.839C83.3936 128.98 86.6624 126.889 92.5684 127.055C98.4523 127.221 101.278 129.323 102.619 131.127C103.428 132.211 102.641 133.749 101.278 133.738L82.8617 133.594Z" fill="#0D3F60"/>
<path d="M96.3802 121.058C96.3802 116.3 100.502 112.438 105.588 112.438C110.674 112.438 114.796 116.3 114.796 121.058" fill="white"/>
<path d="M104.07 121.058C104.07 118.845 105.865 117.063 108.07 117.063C110.276 117.063 112.071 118.856 112.071 121.058" fill="#0D3F60"/>
<path d="M69.0109 121.058C69.0109 116.3 73.1551 112.438 78.2633 112.438C83.3715 112.438 87.5157 116.3 87.5157 121.058" fill="white"/>
<path d="M76.7008 121.058C76.7008 118.845 78.4959 117.063 80.701 117.063C82.9171 117.063 84.7011 118.856 84.7011 121.058" fill="#0D3F60"/>
<path d="M95.66 114.452L108.957 105.811" stroke="#0D3F60" stroke-width="1.6204" stroke-miterlimit="10" stroke-linecap="round"/>
<path d="M87.5156 114.474L75.4265 105.811" stroke="#0D3F60" stroke-width="1.6204" stroke-miterlimit="10" stroke-linecap="round"/>
<path d="M98.7958 232.678L91.0282 280.41H86.5184L78.7618 232.833" fill="#00A0CC"/>
<path d="M73.4874 233.562L65.7309 281.295H61.2211L53.4535 233.706" fill="#00A0CC"/>
<path d="M85.8536 280.344L82.7953 261.91H94.3525L91.1945 280.134L85.8536 280.344Z" fill="#56C4CF"/>
<path d="M61.0549 280.864L57.9634 263.017H68.9776L66.5953 281.351L61.0549 280.864Z" fill="#56C4CF"/>
<path d="M80.8007 281.749C80.8007 275.819 75.9917 271.017 70.0524 271.017C64.1131 271.017 59.3041 275.819 59.3041 281.749" fill="#4F4A47"/>
<path d="M107.705 280.864C107.705 274.933 102.896 270.131 96.9565 270.131C91.0172 270.131 86.2081 274.933 86.2081 280.864" fill="#4F4A47"/>
<path d="M20.311 284.516C21.2751 281.561 22.228 278.607 23.192 275.664C24.0896 272.92 25.0093 270.176 25.8957 267.432C25.9733 267.177 26.1173 266.901 25.94 266.624C26.2725 266.591 26.4498 266.956 26.8043 266.912C28.4775 266.702 30.0399 267.399 31.691 267.509C34.0844 267.653 36.4113 268.273 38.7937 268.516C39.5583 268.594 40.345 268.649 41.0985 268.837C42.3285 269.147 43.6138 269.401 44.8327 269.501C46.7275 269.667 48.578 270.154 50.4728 270.264C51.7471 270.342 52.9438 270.851 54.1959 270.884C55.858 270.928 57.4426 271.382 59.0825 271.57C58.9163 273.506 59.2155 275.421 59.2931 277.346C59.4925 281.672 59.7252 285.998 59.9579 290.314C59.9911 290.955 59.9247 291.287 59.0936 291.143C56.4896 290.679 53.8635 290.314 51.2484 289.915L20.311 284.516Z" fill="#D5BA76"/>
<path d="M59.2487 162.506C60.0687 162.893 60.5341 163.801 60.39 164.752C59.7695 168.99 57.0547 184.735 56.4453 188.984C55.5699 195.069 50.6833 227.809 49.8079 233.895C48.8772 240.357 47.9131 246.807 46.9824 253.269C46.5945 255.947 46.2399 258.624 45.841 261.302C45.7302 262.032 45.8632 262.32 46.6943 262.431C50.3287 262.895 53.9411 263.482 57.5645 263.969C60.7225 264.4 61.9081 265.971 61.3208 269.058C61.2654 269.346 61.343 269.7 61.0881 269.943C60.7446 271.172 60.4011 271.448 59.0825 271.559C58.1517 271.636 56.9993 271.216 56.0686 271.094C54.8608 270.928 53.6419 270.762 52.4341 270.574C49.8523 270.187 47.2705 269.8 44.6886 269.412C41.5417 268.937 38.3948 268.472 35.2589 267.996C32.4887 267.576 29.8737 267.033 27.0814 266.856C25.6741 266.768 24.5217 266.115 24.5106 264.632C24.5882 263.957 24.6325 263.271 24.7433 262.608C25.0979 260.649 26.7933 259.454 28.7989 259.753C32.7325 260.328 36.6662 260.893 40.5888 261.501C41.3312 261.623 41.4974 261.357 41.586 260.704C42.6719 253.07 43.7911 245.446 44.8881 237.823C46.0737 229.547 51.2928 194.627 52.4784 186.35C52.9881 182.81 55.581 167.773 56.124 164.243C56.3677 162.617 57.8193 161.842 59.2487 162.506Z" fill="#969E9B"/>
<path d="M54.5504 290.413L54.0296 278.552L52.5891 290.114L54.5504 290.413Z" fill="#C9A362"/>
<path d="M45.4864 288.908L45.2093 281.539L43.3478 288.532L45.4864 288.908Z" fill="#C9A362"/>
<path d="M29.3529 286.097L30.2393 275.188L26.9484 285.677L29.3529 286.097Z" fill="#C9A362"/>
<path d="M280.265 68.6228C280.265 85.5627 275.124 103.698 251.156 104.306C228.396 104.893 222.047 85.9057 222.047 68.9658C222.047 52.0259 235.078 48.0537 251.156 48.0537C267.234 48.0537 280.265 51.6718 280.265 68.6228Z" fill="#00A0CC"/>
<path d="M231.244 63.9422C231.244 63.9422 231.61 59.5275 236.474 60.1249" stroke="#0D3F60" stroke-width="0.9238" stroke-miterlimit="10" stroke-linecap="round"/>
<path d="M255.876 63.6432C255.876 63.6432 255.644 59.3612 250.846 60.3791" stroke="#0D3F60" stroke-width="0.9238" stroke-miterlimit="10" stroke-linecap="round"/>
<path d="M237.216 76.7549C237.216 76.7549 237.216 73.1257 244.485 73.1367C250.458 73.1478 250.846 77.0425 250.846 77.0425L237.216 76.7549Z" fill="#0D3F60"/>
<path d="M246.635 69.9508C246.635 67.2399 248.984 65.0381 251.887 65.0381C254.79 65.0381 257.14 67.2399 257.14 69.9508" fill="white"/>
<path d="M231.022 69.9508C231.022 67.2399 233.383 65.0381 236.297 65.0381C239.211 65.0381 241.571 67.2399 241.571 69.9508" fill="white"/>
<path d="M231.565 67.4612L228.74 66.3437L231.244 68.3132C231.211 68.4239 231.189 68.5345 231.166 68.6341L228.718 68.3243L231.056 69.309C231.022 69.6188 231.033 69.818 231.033 69.818C232.418 65.4475 235.255 65.0713 235.82 65.0381C233.338 65.0713 232.141 66.2773 231.565 67.4612Z" fill="#0D3F60"/>
<path d="M235.82 65.0483C235.854 65.0483 235.887 65.0483 235.92 65.0483C235.92 65.0373 235.887 65.0373 235.82 65.0483Z" fill="#0D3F60"/>
<path d="M259.444 68.3239L256.995 68.6338C256.973 68.5342 256.951 68.4235 256.918 68.3129L259.422 66.3434L256.597 67.4609C256.02 66.2659 254.824 65.071 252.342 65.0488C252.907 65.082 255.754 65.4582 257.128 69.8287C257.128 69.8287 257.14 69.6296 257.106 69.3198L259.444 68.3239Z" fill="#0D3F60"/>
<path d="M270.348 77.917C270.348 77.917 270.935 92.6772 255.965 90.8294" stroke="#108AB2" stroke-width="1.7568" stroke-miterlimit="10" stroke-linecap="round"/>
<path d="M255.777 88.0738C256.574 88.3836 257.162 89.3241 257.162 90.4748C257.162 91.9464 256.242 93.2078 255.101 93.2963L252.286 93.5065C252.264 93.5065 252.242 93.5065 252.231 93.5065C252.22 93.5065 252.209 93.5065 252.198 93.5176L248.397 93.7942C248.098 93.8163 247.854 93.5176 247.854 93.1414C247.854 92.7541 248.098 92.4222 248.397 92.4001L250.469 92.2451C250.391 92.0681 250.336 91.88 250.292 91.6808L247.81 91.8689C247.51 91.8911 247.267 91.5923 247.267 91.2161C247.267 90.8289 247.51 90.4969 247.81 90.4748L250.292 90.2867C250.325 90.0986 250.38 89.9216 250.447 89.7556L248.319 89.9105C248.02 89.9326 247.776 89.6339 247.776 89.2577C247.776 88.8704 248.02 88.5385 248.319 88.5164L251.865 88.2508C251.976 88.2176 252.098 88.1844 252.209 88.1734L251.533 87.9521C251.245 87.8636 251.078 87.4874 251.167 87.1112C251.256 86.735 251.555 86.5026 251.843 86.6022" fill="#A1CBEC"/>
<path d="M253.461 102.591L255.4 123.702H257.738L259.677 102.58" fill="#00A0CC"/>
<path d="M242.491 102.524L244.43 123.702H246.757L248.707 102.591" fill="#00A0CC"/>
<path d="M242.945 113.136H248.053L246.801 123.647H244.197L242.945 113.136Z" fill="#5652A2"/>
<path d="M254.015 113.136H259.123L257.871 123.647H255.267L254.015 113.136Z" fill="#5652A2"/>
<path d="M238.413 123.703C238.413 121.202 240.441 119.166 242.956 119.166C245.46 119.166 247.499 121.191 247.499 123.703" fill="#4F4A47"/>
<path d="M249.472 123.703C249.472 121.202 251.499 119.166 254.015 119.166C256.519 119.166 258.558 121.191 258.558 123.703" fill="#4F4A47"/>
<path d="M69.8086 116.997L65.0217 114.895L69.2657 118.59C69.2103 118.801 69.1659 119 69.1327 119.199L64.9774 118.624L68.9443 120.471C68.8889 121.058 68.9 121.434 68.9 121.434C71.1161 113.645 75.5706 112.604 76.8338 112.472C72.7672 112.593 70.7726 114.795 69.8086 116.997Z" fill="#0D3F60"/>
<path d="M118.952 118.624L114.796 119.199C114.752 119 114.719 118.801 114.663 118.59L118.907 114.895L114.121 116.997C113.156 114.795 111.162 112.604 107.084 112.472C108.359 112.604 112.802 113.645 115.018 121.434C115.018 121.434 115.029 121.058 114.974 120.471L118.952 118.624Z" fill="#0D3F60"/>
<path d="M121.168 112.471C121.29 112.471 121.401 112.449 121.522 112.449C121.522 112.449 121.389 112.449 121.168 112.471Z" fill="#0D3F60"/>
<path d="M149.546 112.471C149.324 112.449 149.191 112.449 149.191 112.449C149.324 112.438 149.424 112.46 149.546 112.471Z" fill="#0D3F60"/>
<path d="M253.35 69.9509C253.35 68.7338 252.364 67.749 251.145 67.749C249.926 67.749 248.94 68.7338 248.94 69.9509" fill="#0D3F60"/>
<path d="M238.324 69.9509C238.324 68.7338 237.338 67.749 236.119 67.749C234.9 67.749 233.914 68.7338 233.914 69.9509" fill="#0D3F60"/>
<path d="M44.2121 217.608C24.8319 209.707 35.8572 178.693 35.8572 178.693" stroke="#0A8AB2" stroke-width="4.3132" stroke-miterlimit="10" stroke-linecap="round"/>
<path d="M56.822 232.478C57.4647 232.888 58.3623 232.644 58.8166 231.936C59.2709 231.228 59.1158 230.299 58.4731 229.889L54.0186 227.013C54.3954 226.78 54.7499 226.504 55.0824 226.194L60.4233 229.635C61.066 230.044 61.9635 229.801 62.4178 229.093C62.8721 228.385 62.717 227.455 62.0743 227.046L56.7334 223.605C56.8664 223.217 56.955 222.819 57.0104 222.421L61.5978 225.386C62.2405 225.795 63.1381 225.552 63.5924 224.844C64.0467 224.136 63.8916 223.206 63.2489 222.797L55.6032 217.862C55.3926 217.652 55.171 217.464 54.9162 217.287L56.7002 217.74C57.4426 217.929 58.2625 217.431 58.5063 216.623C58.7501 215.815 58.3512 215.007 57.5977 214.819L48.0904 212.418C47.7248 212.33 47.348 212.396 47.0156 212.595C44.8548 212.175 42.4392 213.204 41.0763 215.339C39.3366 218.061 39.9239 221.591 42.3728 223.173L48.4339 227.079C48.4782 227.112 48.5226 227.123 48.5669 227.156C48.5891 227.167 48.6001 227.19 48.6223 227.201L56.822 232.478Z" fill="#A1CBEC"/>
<path d="M182.622 187.434V211.4C182.622 227.145 186.799 245.867 211.177 245.867H219.797C243.433 245.867 248.353 227.156 248.353 211.4V154.119C248.353 140.797 237.538 129.998 224.197 129.998H206.778C193.436 129.998 182.622 140.797 182.622 154.119V166.843V187.434Z" fill="#00A0CC"/>
<path d="M195.187 178.383C194.301 178.339 193.736 177.398 194.157 176.613C195.165 174.71 197.448 171.91 202.013 172.253C206.589 172.596 208.24 175.484 208.816 177.376C209.06 178.173 208.429 178.97 207.598 178.936L195.187 178.383Z" fill="#0D3F60"/>
<path d="M190.81 157.438L199.675 162.152" stroke="#0D3F60" stroke-width="1.4114" stroke-miterlimit="10" stroke-linecap="round"/>
<path d="M216.551 238.608L221.836 282.999H225.504L230.79 238.597" fill="#00A0CC"/>
<path d="M219.642 266.325H227.698L225.715 282.911H221.615L219.642 266.325Z" fill="#EC1651"/>
<path d="M212.473 282.999C212.473 279.049 215.675 275.852 219.631 275.852C223.587 275.852 226.789 279.049 226.789 282.999" fill="#4F4A47"/>
<path d="M199.475 238.608L204.761 282.999H208.44L213.714 238.597" fill="#00A0CC"/>
<path d="M202.567 266.325H210.634L208.65 282.911H204.539L202.567 266.325Z" fill="#EC1651"/>
<path d="M195.398 282.999C195.398 279.049 198.6 275.852 202.556 275.852C206.512 275.852 209.714 279.049 209.714 282.999" fill="#4F4A47"/>
<path d="M214.368 157.228L205.78 162.439" stroke="#0D3F60" stroke-width="1.4114" stroke-miterlimit="10" stroke-linecap="round"/>
<path d="M239.3 202.106C239.3 202.106 259.101 202.228 262.924 180.032" stroke="#108AB2" stroke-width="3.073" stroke-miterlimit="10" stroke-linecap="round"/>
<path d="M258.093 179.678C258.414 181.149 259.888 182.4 261.882 182.721C264.42 183.13 266.869 181.869 267.323 179.921L268.442 175.119C268.453 175.086 268.453 175.053 268.464 175.02C268.464 174.998 268.475 174.986 268.486 174.975L269.993 168.492C270.115 167.983 269.661 167.485 269.007 167.374C268.353 167.263 267.7 167.595 267.589 168.104L266.769 171.634C266.492 171.457 266.182 171.302 265.849 171.169L266.835 166.943C266.957 166.434 266.503 165.936 265.849 165.825C265.195 165.714 264.542 166.046 264.431 166.555L263.445 170.782C263.112 170.793 262.791 170.837 262.481 170.904L263.323 167.263C263.445 166.754 262.99 166.257 262.336 166.146C261.672 166.035 261.029 166.367 260.918 166.876L259.511 172.928C259.411 173.117 259.345 173.305 259.289 173.504L259.101 172.276C259.023 171.756 258.403 171.368 257.738 171.424C257.073 171.468 256.586 171.933 256.663 172.453" fill="#A1CBEC"/>
<path d="M257.25 257.529C257.439 257.739 257.771 257.761 257.982 257.562L276.475 240.81C276.686 240.622 276.708 240.29 276.509 240.08C276.32 239.87 275.988 239.848 275.777 240.047L257.284 256.799C257.073 256.987 257.051 257.319 257.25 257.529Z" fill="#515252"/>
<path d="M291.833 258.701H252.608V281.306H291.833V258.701Z" fill="#444445"/>
<path d="M262.159 255.736C267.522 255.736 272.874 255.725 278.237 255.747C282.093 255.758 285.961 255.858 289.817 255.825C292.387 255.803 293.617 257.473 293.507 259.565C293.462 260.439 293.562 261.202 294.482 261.634C294.825 261.789 294.903 262.187 294.936 262.552C295.18 264.632 295.18 266.712 294.936 268.781C294.881 269.224 294.748 269.633 294.327 269.866C293.595 270.264 293.495 270.928 293.507 271.68C293.529 274.59 293.507 277.5 293.518 280.41C293.518 281.163 293.462 281.904 293.241 282.623C292.465 284.006 291.246 284.493 289.706 284.493C277.75 284.482 265.783 284.482 253.826 284.493C252.275 284.493 251.078 283.962 250.27 282.623C250.004 281.749 249.97 280.853 249.97 279.946C249.981 273.008 249.981 266.082 249.97 259.144C250.27 256.998 251.278 255.935 253.128 255.869C254.07 255.836 255.023 255.957 255.965 255.825L262.159 255.736ZM274.603 269.91C274.78 265.263 270.935 259.753 264.497 259.742C256.164 259.719 250.79 269.379 256.851 277.157C265.173 284.205 274.813 278.009 274.603 269.91ZM286.648 266.425C287.512 266.425 288.365 266.425 289.229 266.425C290.26 266.425 290.26 266.425 290.16 264.4C290.16 264.322 290.16 264.245 290.149 264.167C290.127 263.847 290.049 263.669 289.872 263.658C289.728 263.658 289.595 263.647 289.451 263.647C287.656 263.647 285.85 263.625 284.055 263.658C283.013 263.669 283.135 263.26 283.135 265.584C283.135 266.402 283.146 266.425 283.589 266.425C284.609 266.436 285.628 266.425 286.648 266.425ZM286.614 262.132C287.49 262.132 288.365 262.154 289.252 262.132C290.271 262.098 290.16 262.563 290.171 260.206C290.171 260.129 290.171 260.051 290.171 259.974C290.171 259.587 290.06 259.399 289.872 259.387C289.717 259.376 289.551 259.376 289.396 259.376C287.623 259.376 285.85 259.365 284.066 259.376C283.057 259.387 283.157 259.089 283.146 261.346C283.146 261.977 283.268 262.154 283.567 262.143C284.575 262.109 285.595 262.132 286.614 262.132Z" fill="#656767"/>
<path d="M264.364 277.721C260.242 277.688 256.885 274.302 256.885 270.153C256.885 266.048 260.298 262.618 264.397 262.596C268.531 262.585 271.999 266.103 271.932 270.241C271.877 274.413 268.486 277.754 264.364 277.721Z" fill="#515252"/>
<path d="M294.282 270.22C293.773 270.22 293.351 269.799 293.351 269.29V260.892C293.351 260.383 293.773 259.963 294.282 259.963C294.792 259.963 295.213 260.383 295.213 260.892V269.29C295.213 269.799 294.792 270.22 294.282 270.22Z" fill="#444445"/>
<path d="M184.295 168.105C184.295 164.31 187.375 161.223 191.187 161.223C194.999 161.223 198.079 164.299 198.079 168.105" fill="white"/>
<path d="M206.124 168.105C206.124 164.31 209.204 161.223 213.016 161.223C216.828 161.223 219.908 164.299 219.908 168.105" fill="white"/>
<path d="M219.299 164.708L223.21 163.159L219.742 165.881C219.786 166.036 219.82 166.18 219.853 166.335L223.244 165.914L220.008 167.275C220.052 167.707 220.041 167.983 220.041 167.983C218.124 161.931 214.191 161.4 213.404 161.355C216.839 161.4 218.501 163.059 219.299 164.708Z" fill="#0D3F60"/>
<path d="M181.104 165.869L184.494 166.29C184.527 166.146 184.561 165.991 184.605 165.836L181.137 163.114L185.048 164.663C185.846 163.015 187.508 161.355 190.943 161.311C190.156 161.355 186.223 161.875 184.306 167.938C184.306 167.938 184.295 167.662 184.339 167.23L181.104 165.869Z" fill="#0D3F60"/>
<path d="M186.201 163.557C185.536 164.232 185.015 165.062 184.694 165.969C185.913 166.821 187.597 166.799 188.794 165.804C190.013 164.786 190.323 163.093 189.658 161.721C188.76 161.887 187.918 162.241 187.187 162.739L186.201 163.557Z" fill="#0D3F60"/>
<path d="M208.118 163.07C207.454 163.745 206.933 164.575 206.611 165.482C207.83 166.334 209.515 166.312 210.711 165.316C211.93 164.298 212.24 162.605 211.576 161.233C210.678 161.399 209.836 161.753 209.105 162.251L208.118 163.07Z" fill="#0D3F60"/>
</g>
<defs>
<clipPath id="clip0">
<rect width="304" height="304" fill="white"/>
</clipPath>
</defs>
</svg>
