<svg width="300" height="303" viewBox="0 0 300 303" fill="none" xmlns="http://www.w3.org/2000/svg">
<path d="M0 299.715V0H300V299.715" fill="#F3E1B4"/>
<path d="M300 126.642H0V303H300V126.642Z" fill="#2D9D48"/>
<path d="M180.584 199.865C180.584 199.865 164.707 199.865 167.278 228.988" stroke="#108AB2" stroke-width="2.6518" stroke-miterlimit="10" stroke-linecap="round"/>
<path d="M171.393 229.251C170.835 228.102 169.357 227.346 167.65 227.478C165.462 227.642 163.689 229.175 163.7 230.883L163.722 235.087C163.722 235.12 163.722 235.142 163.733 235.174C163.733 235.185 163.733 235.207 163.733 235.218L163.766 240.901C163.766 241.349 164.236 241.678 164.805 241.634C165.374 241.59 165.845 241.185 165.834 240.747L165.812 237.66C166.085 237.758 166.37 237.824 166.665 237.857L166.687 241.568C166.687 242.017 167.158 242.346 167.727 242.302C168.296 242.258 168.766 241.853 168.755 241.415L168.734 237.704C169.007 237.627 169.259 237.528 169.5 237.408L169.521 240.594C169.521 241.043 169.992 241.371 170.561 241.328C171.13 241.284 171.6 240.879 171.59 240.441L171.557 235.131C171.6 234.956 171.622 234.78 171.633 234.605L172.038 235.591C172.202 236.007 172.793 236.204 173.34 236.028C173.887 235.853 174.194 235.383 174.03 234.966" fill="#A1CBEC"/>
<path d="M143.719 55.4215C143.719 35.2106 161.096 19.3462 183.046 19.3462C204.997 19.3462 222.79 35.7361 222.79 55.9471V89.4495H143.774V61.5965C143.774 61.5965 143.719 57.3375 143.719 55.4215Z" fill="#F8D978"/>
<path d="M108.396 55.4215C108.396 35.2106 91.0198 19.3462 69.0691 19.3462C47.1184 19.3462 29.3149 35.7252 29.3149 55.9471V126.674H108.331V61.5965C108.342 61.5965 108.396 57.3375 108.396 55.4215Z" fill="#954F22"/>
<path d="M222.79 68.2861H143.774V89.4168H222.79V68.2861Z" fill="#FFCA05"/>
<path d="M97.837 82.9459C99.505 82.9459 100.857 81.9067 100.857 80.6248C100.857 79.3429 99.505 78.3037 97.837 78.3037C96.1691 78.3037 94.8169 79.3429 94.8169 80.6248C94.8169 81.9067 96.1691 82.9459 97.837 82.9459Z" fill="#838383"/>
<path d="M263.321 200.905C263.321 200.905 279.242 199.876 278.268 177.562" stroke="#108AB2" stroke-width="2.6518" stroke-miterlimit="10" stroke-linecap="round"/>
<path d="M274.668 175.505C275.139 176.698 276.55 177.552 278.268 177.552C280.457 177.552 282.35 176.161 282.47 174.454L282.766 170.26C282.766 170.227 282.766 170.206 282.766 170.173C282.766 170.162 282.777 170.14 282.777 170.129L283.17 164.458C283.203 164.009 282.755 163.647 282.186 163.647C281.617 163.647 281.113 164.009 281.091 164.458L280.873 167.545C280.61 167.436 280.325 167.348 280.03 167.282L280.293 163.582C280.325 163.133 279.877 162.771 279.308 162.771C278.739 162.771 278.246 163.133 278.213 163.582L277.951 167.282C277.677 167.337 277.415 167.414 277.163 167.512L277.382 164.337C277.415 163.888 276.966 163.527 276.397 163.527C275.828 163.527 275.325 163.888 275.303 164.337L274.931 169.636C274.876 169.8 274.843 169.976 274.821 170.151L274.493 169.133C274.351 168.706 273.793 168.465 273.235 168.596C272.677 168.727 272.337 169.176 272.469 169.603" fill="#A1CBEC"/>
<path d="M267.917 182.249C267.917 210.343 259.403 240.397 219.748 241.426C182.083 242.389 171.579 210.912 171.579 182.818C171.579 154.725 193.146 148.145 219.748 148.145C246.349 148.145 267.917 154.155 267.917 182.249Z" fill="#00A0CC"/>
<path d="M185.706 172.734C185.706 172.734 188.955 166.154 196.09 170.03" stroke="#0D3F60" stroke-width="1.5479" stroke-miterlimit="10" stroke-linecap="round"/>
<path d="M228.316 172.735C228.316 172.735 225.941 166.024 218.807 169.91" stroke="#0D3F60" stroke-width="1.5479" stroke-miterlimit="10" stroke-linecap="round"/>
<path d="M219.299 192.431C219.299 192.431 217.285 197.62 207.404 197.456C197.523 197.292 196.735 192.431 196.735 192.431H219.299Z" fill="#0D3F60"/>
<path d="M212.263 184.46C212.263 179.96 216.148 176.314 220.951 176.314C225.744 176.314 229.64 179.96 229.64 184.46" fill="white"/>
<path d="M186.428 184.46C186.428 179.96 190.334 176.314 195.16 176.314C199.986 176.314 203.892 179.96 203.892 184.46" fill="white"/>
<path d="M187.325 180.333L182.652 178.472L186.789 181.735C186.734 181.921 186.69 182.096 186.657 182.271L182.609 181.768L186.482 183.399C186.428 183.913 186.439 184.253 186.439 184.253C188.726 177.005 193.431 176.381 194.361 176.326C190.257 176.381 188.277 178.363 187.325 180.333Z" fill="#0D3F60"/>
<path d="M194.372 176.326C194.427 176.326 194.481 176.326 194.536 176.326C194.536 176.315 194.47 176.315 194.372 176.326Z" fill="#0D3F60"/>
<path d="M233.459 181.768L229.41 182.271C229.377 182.096 229.333 181.921 229.278 181.735L233.415 178.472L228.742 180.333C227.79 178.363 225.81 176.381 221.695 176.326C222.636 176.381 227.342 177.005 229.618 184.253C229.618 184.253 229.629 183.924 229.574 183.399L233.459 181.768Z" fill="#0D3F60"/>
<path d="M211.136 229.93L205.621 243.166C204.931 244.82 204.724 246.615 205.008 248.367L208.181 267.636C208.389 268.917 207.383 270.078 206.037 270.122C205.063 270.154 204.176 269.563 203.881 268.666L197.217 249.144C196.495 247.02 196.396 244.732 196.943 242.542L199.975 230.422" fill="#00A0CC"/>
<path d="M203.804 269.322L208.575 270.045L205.862 252.801L198.53 253.02L203.804 269.322Z" fill="#5652A2"/>
<path d="M194.7 270.462C194.624 267.1 197.666 264.298 201.495 264.177C205.325 264.068 208.499 266.695 208.575 270.046" fill="#4F4A47"/>
<path d="M233.174 223.306L237.901 240.276C238.426 241.973 239.422 243.506 240.779 244.699L255.245 254.52C256.241 255.396 255.114 256.02 254.085 256.852L253.199 257.936C252.444 258.538 253.341 258.396 252.52 257.881L235.144 249.932C233.196 248.695 231.642 246.965 230.657 244.929L224.694 230.302" fill="#00A0CC"/>
<path d="M252.892 258.439L255.935 254.312L243.449 246.418L237.814 250.94L252.892 258.439Z" fill="#5652A2"/>
<path d="M247.52 265.173C244.915 262.972 244.861 258.932 247.41 256.141C249.96 253.349 254.129 252.878 256.744 255.079" fill="#4F4A47"/>
<path d="M53.3995 253.907C53.2135 254.115 52.8962 254.126 52.6882 253.94L34.7535 237.66C34.5456 237.473 34.5346 237.156 34.7206 236.948C34.9067 236.74 35.224 236.729 35.4319 236.915L53.3667 253.195C53.5746 253.382 53.5855 253.699 53.3995 253.907Z" fill="#515252"/>
<path d="M19.8572 277.021L57.9043 277.021L57.9043 255.048L19.8572 255.048L19.8572 277.021Z" fill="#444445"/>
<path d="M54.6359 252.253C55.555 252.374 56.4633 252.264 57.3824 252.297C59.177 252.352 60.1618 253.392 60.4463 255.483C60.4354 262.227 60.4354 268.961 60.4463 275.705C60.4463 276.592 60.4135 277.457 60.1509 278.311C59.374 279.614 58.2031 280.128 56.704 280.128C45.1049 280.117 33.5059 280.117 21.9068 280.128C20.4186 280.128 19.2259 279.657 18.4818 278.311C18.2629 277.61 18.2082 276.898 18.2082 276.165C18.2192 273.34 18.2082 270.504 18.2192 267.68C18.2192 266.946 18.1316 266.311 17.4204 265.917C17.0155 265.698 16.8732 265.293 16.8295 264.866C16.5887 262.851 16.5887 260.826 16.8295 258.811C16.8732 258.461 16.9498 258.078 17.2781 257.925C18.1754 257.508 18.2739 256.764 18.2301 255.91C18.1207 253.885 19.3134 252.253 21.8083 252.275C25.5507 252.308 29.293 252.209 33.0353 252.198C38.233 252.177 43.4307 252.198 48.6284 252.188L54.6359 252.253ZM53.7824 272.979C59.6585 265.424 54.4498 256.041 46.3633 256.063C40.1261 256.074 36.3838 261.428 36.5588 265.95C36.3619 273.822 45.7068 279.833 53.7824 272.979ZM27.8486 262.556C28.2753 262.556 28.2863 262.534 28.2863 261.735C28.2863 259.479 28.3957 259.873 27.389 259.862C25.6491 259.841 23.8983 259.851 22.1585 259.851C22.0272 259.851 21.8849 259.862 21.7536 259.862C21.5895 259.862 21.5129 260.049 21.491 260.355C21.491 260.432 21.491 260.508 21.48 260.585C21.3925 262.556 21.3925 262.556 22.3883 262.556C23.2199 262.556 24.0515 262.556 24.8941 262.556C25.868 262.556 26.8638 262.567 27.8486 262.556ZM27.8814 258.384C28.1769 258.395 28.2972 258.209 28.2972 257.607C28.2863 255.417 28.3738 255.702 27.3999 255.691C25.682 255.68 23.9531 255.691 22.2351 255.691C22.0819 255.691 21.9287 255.691 21.7755 255.702C21.5895 255.713 21.491 255.899 21.491 256.271C21.491 256.348 21.491 256.425 21.491 256.501C21.5019 258.789 21.3925 258.341 22.3883 258.373C23.2418 258.395 24.0953 258.373 24.9379 258.373C25.9008 258.384 26.8856 258.362 27.8814 258.384Z" fill="#656767"/>
<path d="M46.5057 273.538C50.4997 273.516 53.7606 270.209 53.7606 266.18C53.7606 262.195 50.445 258.856 46.4729 258.845C42.4679 258.834 39.1085 262.25 39.1633 266.279C39.218 270.319 42.5007 273.57 46.5057 273.538Z" fill="#515252"/>
<path d="M17.4861 266.246C17.9895 266.246 18.3943 265.84 18.3943 265.337V257.18C18.3943 256.677 17.9895 256.271 17.4861 256.271C16.9828 256.271 16.5779 256.677 16.5779 257.18V265.337C16.5779 265.83 16.9828 266.246 17.4861 266.246Z" fill="#444445"/>
<path d="M57.4481 249.484L55.96 235.415" stroke="black" stroke-width="0.4512" stroke-miterlimit="10"/>
<path d="M61.2344 249.374L67.6576 239.323" stroke="black" stroke-width="0.4512" stroke-miterlimit="10"/>
<path d="M74.0371 252.922L63.3135 254.29" stroke="black" stroke-width="0.4512" stroke-miterlimit="10"/>
<path d="M140.841 186.651C140.841 186.651 157.397 181.976 160.964 163.626" stroke="#108AB2" stroke-width="3.073" stroke-miterlimit="10" stroke-linecap="round"/>
<path d="M147.987 170.983V194.698C147.987 210.277 143.861 228.802 119.788 228.802H111.275C87.9342 228.802 83.0757 210.288 83.0757 194.698V138.017C83.0757 124.835 93.7556 114.149 106.93 114.149H124.132C137.307 114.149 147.987 124.835 147.987 138.017V150.608V170.983Z" fill="#00A0CC"/>
<path d="M87.5948 188.402C87.5948 188.402 68.9706 182.435 72.1986 160.385" stroke="#108AB2" stroke-width="3.073" stroke-miterlimit="10" stroke-linecap="round"/>
<path d="M76.4117 161.261C75.7879 162.607 74.1028 163.516 72.1113 163.396C69.5726 163.253 67.4826 161.513 67.4607 159.542L67.395 154.67C67.395 154.637 67.395 154.604 67.395 154.571C67.395 154.549 67.3841 154.538 67.3841 154.517L67.2966 147.936C67.2856 147.422 67.8218 147.028 68.4893 147.072C69.1568 147.104 69.7039 147.564 69.7039 148.079L69.7477 151.659C70.0541 151.549 70.3933 151.462 70.7325 151.407L70.6778 147.115C70.6668 146.601 71.203 146.207 71.8705 146.25C72.538 146.294 73.0851 146.743 73.0851 147.258L73.1398 151.549C73.4572 151.637 73.7526 151.747 74.0371 151.867L73.9934 148.177C73.9824 147.663 74.5186 147.269 75.1861 147.312C75.8536 147.345 76.4007 147.805 76.4007 148.32L76.4773 154.473C76.532 154.67 76.5649 154.878 76.5758 155.075L77.0244 153.925C77.2105 153.444 77.8889 153.203 78.5236 153.389C79.1582 153.575 79.5303 154.122 79.3443 154.604" fill="#A1CBEC"/>
<path d="M155.471 166.133C155.504 167.622 156.697 169.122 158.568 169.811C160.954 170.687 163.558 169.932 164.379 168.136L166.381 163.691C166.392 163.658 166.403 163.625 166.414 163.593C166.425 163.582 166.436 163.56 166.447 163.549L169.149 157.549C169.357 157.078 169.029 156.509 168.405 156.279C167.782 156.049 167.103 156.246 166.884 156.717L165.407 159.98C165.166 159.75 164.893 159.542 164.597 159.356L166.359 155.436C166.567 154.965 166.239 154.396 165.615 154.166C164.991 153.936 164.313 154.133 164.094 154.604L162.332 158.523C162.015 158.48 161.687 158.458 161.38 158.458L162.901 155.097C163.109 154.626 162.781 154.056 162.157 153.827C161.533 153.597 160.855 153.794 160.636 154.264L158.108 159.87C157.977 160.034 157.868 160.199 157.78 160.385L157.835 159.148C157.857 158.633 157.332 158.14 156.675 158.053C156.018 157.965 155.46 158.326 155.438 158.841" fill="#A1CBEC"/>
<path d="M120.554 157.034C120.554 157.034 121.932 162.892 128.728 162.716C135.523 162.541 136.059 157.034 136.059 157.034H120.554Z" fill="#0D3F60"/>
<path d="M125.543 222.66L133.717 237.626C134.735 239.498 135.217 241.59 135.085 243.703L133.728 266.881C133.641 268.413 134.976 269.672 136.573 269.552C137.733 269.464 138.696 268.654 138.948 267.559L144.408 243.648C144.999 241.042 144.835 238.327 143.916 235.809L138.817 221.86" fill="#00A0CC"/>
<path d="M139.112 268.326L133.564 269.771L134.626 249.046L143.336 248.378L139.112 268.326Z" fill="#EC1651"/>
<path d="M150.011 268.534C149.683 264.56 145.743 261.604 141.191 261.954C136.65 262.293 133.225 265.797 133.553 269.782" fill="#4F4A47"/>
<path d="M100.704 215.04L101.809 235.963C101.864 238.076 101.317 240.178 100.234 242.05L86.3366 254.98C85.5487 256.338 86.1615 258.035 87.6497 258.571C88.722 258.965 89.9585 258.626 90.6807 257.728L108.572 245.805C110.301 243.67 111.406 241.13 111.734 238.47L112.916 219.726" fill="#00A0CC"/>
<path d="M88.6124 260.914L83.6226 257.411L97.2898 244.787L102.236 250.031L88.6124 260.914Z" fill="#EC1651"/>
<path d="M93.0333 269.071C96.2942 266.662 96.6662 261.867 93.8649 258.363C91.0637 254.86 86.1395 253.962 82.8787 256.371" fill="#4F4A47"/>
<path d="M189.513 178.549C188.704 179.37 188.08 180.366 187.697 181.472C189.174 182.501 191.21 182.479 192.654 181.264C194.131 180.027 194.503 177.979 193.694 176.326C192.599 176.534 191.593 176.95 190.706 177.552L189.513 178.549Z" fill="#0D3F60"/>
<path d="M214.616 178.549C213.806 179.37 213.182 180.366 212.799 181.472C214.276 182.501 216.312 182.479 217.756 181.264C219.233 180.027 219.605 177.979 218.796 176.326C217.701 176.534 216.695 176.95 215.808 177.552L214.616 178.549Z" fill="#0D3F60"/>
<path d="M200.686 50.0238C200.664 52.6076 200.434 55.2243 200.237 57.7863C200.128 59.1767 199.963 60.403 200.335 61.7715C200.664 62.9758 201.473 64.1145 202.185 65.1327C204.1 67.8698 204.483 70.9464 203.99 74.3076C203.662 76.5301 202.283 78.5008 200.609 79.8804C197.118 82.7379 195.827 82.8365 187.927 84.205C183.243 85.0152 178.549 85.4422 174.161 82.9459C172.355 81.9168 170.9 80.3511 169.915 78.468C169.335 77.3512 169.204 76.8476 168.843 75.6433C168.35 73.9791 168.504 71.7237 168.843 70.0814C169.357 67.618 169.707 64.3882 168.668 61.9576C166.25 56.3082 164.028 48.688 163.514 45.6991C161.588 34.5645 169.324 30.7763 179.37 29.0464C189.415 27.3056 198.005 28.5099 199.931 39.6336C200.128 40.7832 200.27 41.9438 200.368 43.1043C200.379 43.1262 200.718 48.7099 200.686 50.0238Z" fill="#00A0CC"/>
<path d="M186.876 83.395L188.999 98.0222L191.231 97.9784L192.818 82.957" fill="#00A0CC"/>
<path d="M191.396 97.9229L191.877 91.8027L188.102 91.8684L188.879 98.3828L191.396 97.9229Z" fill="#5652A2"/>
<path d="M178.374 83.395L180.486 98.0222L182.718 97.9784L184.316 82.957" fill="#00A0CC"/>
<path d="M182.893 97.9229L183.375 91.8027L179.6 91.8684L180.366 98.3828L182.893 97.9229Z" fill="#5652A2"/>
<path d="M183.112 99.0077C183.101 96.9384 181.405 95.2743 179.337 95.2852C177.269 95.2962 175.606 96.9932 175.617 99.0625" fill="#4F4A47"/>
<path d="M184.075 98.8873C184.108 96.8181 185.804 95.1648 187.883 95.1867C189.951 95.2196 191.603 96.9166 191.582 98.9968" fill="#4F4A47"/>
<path d="M173.647 50.1109C173.647 50.1109 174.708 52.1692 178.024 51.5233C181.35 50.8773 181.252 48.7861 181.252 48.7861L173.647 50.1109Z" fill="#0D3F60"/>
<path d="M175.748 47.7465C175.518 46.2246 174.008 45.1955 172.388 45.4363C170.769 45.6881 169.642 47.1224 169.872 48.6442" fill="white"/>
<path d="M173.286 48.1297C173.176 47.418 172.52 46.9363 171.809 47.0458C171.097 47.1553 170.616 47.8122 170.725 48.5238" fill="#0D3F60"/>
<path d="M184.491 46.4108C184.261 44.889 182.74 43.8598 181.11 44.1116C179.479 44.3635 178.341 45.7977 178.571 47.3196" fill="white"/>
<path d="M182.029 46.783C181.919 46.0713 181.263 45.5896 180.551 45.6991C179.84 45.8086 179.359 46.4655 179.468 47.1772" fill="#0D3F60"/>
<path d="M184.031 45.1407L185.454 44.2319L184.283 45.6224C184.316 45.6881 184.338 45.7538 184.36 45.8085L185.662 45.4253L184.48 46.2136C184.524 46.3997 184.546 46.5202 184.546 46.5202C183.451 44.1334 181.985 44.0239 181.569 44.0349C182.871 43.8816 183.616 44.4837 184.031 45.1407Z" fill="#0D3F60"/>
<path d="M181.569 44.0459C181.526 44.0459 181.493 44.0459 181.449 44.0568C181.449 44.0459 181.493 44.0459 181.569 44.0459Z" fill="#0D3F60"/>
<path d="M168.416 48.0749L169.773 48.053C169.773 47.9873 169.784 47.9217 169.784 47.856L168.252 46.8815L169.883 47.3195C170.08 46.564 170.616 45.7648 171.907 45.5239C171.502 45.6334 170.134 46.1808 169.806 48.7866C169.806 48.7866 169.784 48.6662 169.773 48.48L168.416 48.0749Z" fill="#0D3F60"/>
<path d="M172.498 45.4365C172.563 45.4146 172.607 45.4146 172.607 45.4146C172.574 45.4146 172.542 45.4255 172.498 45.4365Z" fill="#0D3F60"/>
<path d="M171.152 72.8733C171.152 72.8733 167.552 71.023 167.431 68.8661C167.3 66.7093 170.572 64.1035 170.572 64.1035" stroke="#0A8AB2" stroke-width="1.2272" stroke-miterlimit="10" stroke-linecap="round"/>
<path d="M175.212 102.785C175.31 101.69 175.419 100.595 175.518 99.5C175.605 98.4818 175.693 97.4635 175.791 96.4344C175.802 96.3468 175.792 96.2264 175.89 96.1607C175.792 96.1059 175.682 96.1935 175.573 96.1278C175.058 95.8213 174.446 95.8322 173.898 95.6351C173.1 95.3505 172.257 95.2191 171.447 94.9673C171.185 94.8797 170.922 94.7921 170.659 94.7483C170.211 94.6826 169.762 94.5841 169.357 94.4418C168.712 94.2337 168.044 94.1242 167.42 93.9053C166.994 93.752 166.534 93.752 166.118 93.5878C165.571 93.3688 164.991 93.2922 164.433 93.1279C164.214 93.7848 163.853 94.3651 163.547 94.9782C162.879 96.3577 162.19 97.7373 161.512 99.1058C161.413 99.3138 161.391 99.4233 161.676 99.5C162.584 99.7189 163.492 99.9598 164.4 100.201L175.212 102.785Z" fill="#D5BA76"/>
<path d="M179.687 57.5891C179.37 57.6 179.085 57.8299 178.998 58.1584C178.604 59.6255 177.28 65.1326 176.875 66.5997C176.306 68.7018 173.297 80.0445 172.728 82.1575C172.126 84.391 171.524 86.6245 170.922 88.858C170.67 89.7886 170.408 90.7083 170.167 91.628C170.101 91.8798 170.014 91.9564 169.729 91.8798C168.482 91.5185 167.223 91.201 165.976 90.8616C164.893 90.555 164.28 90.9054 164.039 91.9893C164.017 92.0878 163.941 92.1973 163.995 92.3068C163.941 92.7557 164.006 92.8871 164.422 93.117C164.718 93.2703 165.144 93.2922 165.462 93.3907C165.878 93.5111 166.293 93.6206 166.72 93.7301C167.617 93.971 168.504 94.2009 169.401 94.4418C170.484 94.7264 171.579 95.022 172.662 95.3067C173.625 95.5585 174.544 95.7446 175.485 96.084C175.956 96.2483 176.426 96.2045 176.634 95.7227C176.7 95.4928 176.787 95.2629 176.842 95.033C177.006 94.3432 176.612 93.7192 175.923 93.533C174.566 93.1717 173.209 92.7995 171.841 92.4491C171.579 92.3834 171.568 92.274 171.622 92.055C172.345 89.4164 173.045 86.7778 173.767 84.1392C174.544 81.2816 177.75 69.1726 178.527 66.315C178.855 65.0888 180.125 59.8335 180.453 58.6073C180.606 58.027 180.245 57.5781 179.687 57.5891Z" fill="#969E9B"/>
<path d="M175.015 77.4167C175.19 77.5371 175.452 77.4714 175.584 77.2743C175.715 77.0773 175.671 76.8145 175.496 76.6941L174.249 75.8729C174.358 75.8072 174.456 75.7306 174.555 75.643L176.043 76.6284C176.218 76.7488 176.481 76.6831 176.612 76.486C176.743 76.289 176.7 76.0262 176.525 75.9058L175.036 74.9204C175.08 74.8109 175.102 74.7014 175.124 74.5919L176.404 75.4459C176.579 75.5664 176.842 75.5007 176.973 75.3036C177.105 75.1065 177.061 74.8438 176.886 74.7233L174.752 73.3C174.697 73.2343 174.632 73.1905 174.566 73.1358L175.069 73.2672C175.277 73.3219 175.507 73.1905 175.584 72.9606C175.66 72.7416 175.54 72.5117 175.332 72.446L172.662 71.7234C172.563 71.6906 172.454 71.7125 172.356 71.7672C171.743 71.6359 171.064 71.9205 170.67 72.5117C170.167 73.2672 170.32 74.2635 171.01 74.7124L172.706 75.8401C172.717 75.851 172.728 75.851 172.739 75.862C172.749 75.862 172.749 75.8729 172.76 75.8729L175.015 77.4167Z" fill="#A1CBEC"/>
<path d="M179.37 69.7088C189.995 75.4787 192.019 62.7236 192.019 62.7236" stroke="#0A8AB2" stroke-width="1.2272" stroke-miterlimit="10" stroke-linecap="round"/>
<path d="M173.92 69.0745C173.723 68.9869 173.636 68.746 173.734 68.527C173.833 68.3081 174.073 68.1986 174.27 68.2862L175.638 68.8774C175.638 68.757 175.638 68.6256 175.66 68.5052L174.019 67.7935C173.822 67.7059 173.734 67.465 173.833 67.2461C173.931 67.0271 174.172 66.9176 174.369 67.0052L176.01 67.7169C176.076 67.6293 176.163 67.5417 176.24 67.465L174.829 66.8519C174.632 66.7643 174.544 66.5235 174.642 66.3045C174.741 66.0855 174.982 65.976 175.179 66.0636L177.52 67.0818C177.597 67.0928 177.684 67.1256 177.761 67.1475L177.378 66.7972C177.214 66.6549 177.214 66.3811 177.356 66.195C177.509 66.0089 177.761 65.976 177.914 66.1293L179.961 67.9796C180.037 68.0563 180.081 68.1548 180.081 68.2533C180.519 68.6913 180.65 69.4139 180.365 70.0708C179.993 70.9029 179.085 71.3189 178.33 70.9905L176.47 70.1803C176.459 70.1693 176.448 70.1693 176.426 70.1584C176.415 70.1584 176.415 70.1584 176.404 70.1474L173.92 69.0745Z" fill="#A1CBEC"/>
<path d="M163.251 99.8946L165.09 96.1064L163.93 100.07L163.251 99.8946Z" fill="#C9A362"/>
<path d="M166.414 100.682L167.53 98.3174L167.158 100.857L166.414 100.682Z" fill="#C9A362"/>
<path d="M172.049 102.029L173.286 98.3506L172.881 102.226L172.049 102.029Z" fill="#C9A362"/>
<path d="M169.073 67.7274C169.073 67.7274 169.806 65.2092 168.263 60.9065C166.72 56.6037 173.067 63.0852 173.067 63.0852L169.073 67.7274Z" fill="#00A0CC"/>
<path d="M169.478 44.7358C169.478 44.7358 170.233 42.3381 172.859 43.2797" stroke="#0D3F60" stroke-width="0.5311" stroke-miterlimit="10" stroke-linecap="round"/>
<path d="M183.287 42.6114C183.287 42.6114 182.138 40.4545 179.917 42.1515" stroke="#0D3F60" stroke-width="0.5311" stroke-miterlimit="10" stroke-linecap="round"/>
<path d="M225.865 89.3945H140.994V107.777H225.865V89.3945Z" fill="#F3E1B4"/>
<path d="M146.345 150.914C146.345 147.159 143.303 144.104 139.539 144.104C135.786 144.104 132.733 147.148 132.733 150.914" fill="white"/>
<path d="M124.8 150.914C124.8 147.159 121.757 144.104 117.993 144.104C114.229 144.104 111.187 147.148 111.187 150.914" fill="white"/>
<path d="M138.467 150.98C138.467 149.272 139.845 147.893 141.552 147.893C143.259 147.893 144.638 149.272 144.638 150.98" fill="#0D3F60"/>
<path d="M116.713 150.98C116.713 149.272 118.092 147.893 119.799 147.893C121.506 147.893 122.884 149.272 122.884 150.98" fill="#0D3F60"/>
<path d="M111.121 141.236C111.121 141.236 113.802 135.795 119.711 139.003" stroke="#0D3F60" stroke-width="1.2798" stroke-miterlimit="10" stroke-linecap="round"/>
<path d="M145.251 141.236C145.251 141.236 143.292 135.685 137.394 138.893" stroke="#0D3F60" stroke-width="1.2798" stroke-miterlimit="10" stroke-linecap="round"/>
<path d="M111.778 147.553L107.915 146.02L111.34 148.713C111.296 148.867 111.264 149.009 111.231 149.162L107.882 148.746L111.078 150.093C111.034 150.52 111.045 150.793 111.045 150.793C112.938 144.805 116.822 144.279 117.599 144.235C114.207 144.279 112.566 145.921 111.778 147.553Z" fill="#0D3F60"/>
<path d="M149.507 148.702L146.159 149.118C146.126 148.976 146.093 148.823 146.05 148.669L149.475 145.976L145.612 147.509C144.824 145.877 143.183 144.235 139.791 144.191C140.567 144.235 144.452 144.75 146.345 150.75C146.345 150.75 146.356 150.476 146.312 150.049L149.507 148.702Z" fill="#0D3F60"/>
</svg>
