<svg width="369" height="244" viewBox="0 0 369 244" fill="none" xmlns="http://www.w3.org/2000/svg">
<rect width="369" height="232" rx="20" fill="url(#paint0_linear)"/>
<path d="M200.223 236.614L207.785 186.465H185.955L193.567 238.065L199.396 234.362" fill="#00A1CD"/>
<path d="M162.132 233.962L152.627 187.906H176.32L167.801 236.614L159.671 233.962" fill="#00A1CD"/>
<path d="M159.502 220.551H170.93L168.14 237.024H161.186L159.502 220.551Z" fill="#ED1651"/>
<path d="M190.777 221.201H202.206L200.512 237.674H193.557L190.777 221.201Z" fill="#ED1651"/>
<path d="M145.204 238.066C145.204 231.571 150.435 226.297 156.891 226.297C163.348 226.297 168.579 231.571 168.579 238.066" fill="#504B48"/>
<path d="M193.588 238.066C193.588 231.571 198.819 226.297 205.275 226.297C211.731 226.297 216.962 231.571 216.962 238.066" fill="#504B48"/>
<path d="M255.287 126.76C255.287 126.76 272.611 123.154 281.291 88.0273" stroke="#0F8AB2" stroke-width="8" stroke-miterlimit="10" stroke-linecap="round"/>
<path d="M274.296 88.6683C274.694 91.1112 276.992 93.305 280.227 94.0052C284.342 94.8896 288.459 93.0397 289.37 89.8777L291.633 82.087C291.651 82.0287 291.657 81.9791 291.675 81.9208C291.689 81.8923 291.701 81.8737 291.705 81.844L294.763 71.3203C295.001 70.4933 294.319 69.6282 293.244 69.3986C292.168 69.1689 291.091 69.6555 290.853 70.4825L289.188 76.2112C288.747 75.8919 288.252 75.6059 287.72 75.3658L289.713 68.4988C289.951 67.6717 289.269 66.8067 288.193 66.5771C287.118 66.3474 286.04 66.8339 285.803 67.661L283.81 74.528C283.267 74.5286 282.741 74.5615 282.227 74.6466L283.945 68.7431C284.183 67.916 283.501 67.051 282.425 66.8213C281.35 66.5917 280.272 67.0782 280.035 67.9053L277.176 77.7382C276.998 78.028 276.867 78.3441 276.755 78.6627L276.557 76.619C276.477 75.761 275.502 75.07 274.404 75.0897C273.307 75.1095 272.47 75.8289 272.561 76.6783" fill="#A2CCED"/>
<path d="M105.105 121.605C105.105 121.605 87.8228 117.806 79.5351 82.5854" stroke="#0F8AB2" stroke-width="8" stroke-miterlimit="10" stroke-linecap="round"/>
<path d="M86.5221 83.3007C86.0974 85.739 83.7748 87.9071 80.5323 88.5712C76.4076 89.4097 72.3114 87.514 71.4357 84.3421L69.2597 76.5266C69.2428 76.4681 69.237 76.4184 69.22 76.36C69.2066 76.3313 69.1944 76.3126 69.1909 76.2828L66.2501 65.7257C66.0219 64.8961 66.7133 64.0387 67.7912 63.821C68.8691 63.6034 69.9412 64.1019 70.1695 64.9315L71.7703 70.6784C72.2148 70.364 72.7134 70.0836 73.2476 69.8494L71.3315 62.9606C71.1032 62.131 71.7947 61.2736 72.8726 61.0559C73.9505 60.8383 75.0226 61.3368 75.2508 62.1665L77.167 69.0552C77.7095 69.0618 78.2358 69.1006 78.7481 69.1914L77.0965 63.2692C76.8682 62.4395 77.5596 61.5821 78.6375 61.3645C79.7154 61.1468 80.7875 61.6453 81.0158 62.475L83.7644 72.3392C83.9393 72.631 84.067 72.9485 84.175 73.2683L84.3957 71.2269C84.4852 70.3699 85.4685 69.6897 86.5658 69.7217C87.6631 69.7537 88.4915 70.4825 88.3909 71.3307" fill="#A2CCED"/>
<path d="M103.836 132.063C103.836 98.0162 120.674 64.9604 142.475 41.3719C198.669 -19.4356 261.25 68.353 261.25 134.875C261.25 183.973 222.552 195.873 183.833 195.873C145.105 195.873 103.836 181.151 103.836 132.063Z" fill="#00A1CD"/>
<path d="M159.751 62.9182C159.751 62.9182 163.428 55.4424 171.498 59.8458" stroke="#0D4060" stroke-width="3" stroke-miterlimit="10" stroke-linecap="round"/>
<path d="M206.929 62.9172C206.929 62.9172 204.248 55.2912 196.168 59.7047" stroke="#0D4060" stroke-width="3" stroke-miterlimit="10" stroke-linecap="round"/>
<path d="M196.736 85.2949C196.736 85.2949 194.464 92.6206 183.275 92.4005C172.086 92.1803 171.209 85.2949 171.209 85.2949H196.736Z" fill="#0D4060"/>
<path d="M188.755 76.2494C188.755 71.1354 193.159 66.9922 198.579 66.9922C204.009 66.9922 208.403 71.1354 208.403 76.2494" fill="white"/>
<path d="M194.364 76.2484C194.364 73.8766 196.277 71.9551 198.639 71.9551C201 71.9551 202.913 73.8766 202.913 76.2484" fill="#0D4060"/>
<path d="M159.532 76.2494C159.532 71.1354 163.956 66.9922 169.416 66.9922C174.876 66.9922 179.3 71.1354 179.3 76.2494" fill="white"/>
<path d="M165.142 76.2484C165.142 73.8766 167.055 71.9551 169.416 71.9551C171.777 71.9551 173.69 73.8766 173.69 76.2484" fill="#0D4060"/>
<path d="M160.388 71.8872L155.277 69.6255L159.811 73.5986C159.751 73.8288 159.711 74.0389 159.671 74.2491L155.237 73.6286L159.472 75.6202C159.412 76.2507 159.422 76.651 159.422 76.651C161.793 68.2844 166.536 67.1736 167.901 67.0234C163.547 67.1635 161.415 69.5254 160.388 71.8872Z" fill="#0D4060"/>
<path d="M167.891 67.0222C168.02 67.0222 168.14 66.9922 168.269 66.9922C168.279 67.0022 168.13 67.0022 167.891 67.0222Z" fill="#0D4060"/>
<path d="M212.867 73.6267L208.433 74.2471C208.393 74.037 208.343 73.8168 208.294 73.5966L212.827 69.6235L207.716 71.8853C206.689 69.5234 204.557 67.1616 200.203 67.0215C201.558 67.1716 206.311 68.2825 208.682 76.649C208.682 76.649 208.692 76.2487 208.632 75.6182L212.867 73.6267Z" fill="#0D4060"/>
<path d="M198.2 67.0222C197.961 66.9922 197.821 66.9922 197.821 66.9922C197.961 66.9922 198.07 67.0222 198.2 67.0222Z" fill="#0D4060"/>
<defs>
<linearGradient id="paint0_linear" x1="7.87501" y1="4.98925" x2="8.48909" y2="246.16" gradientUnits="userSpaceOnUse">
<stop offset="0.313373" stop-color="#B3EDFD"/>
<stop offset="0.614583" stop-color="#60DDFF"/>
<stop offset="1" stop-color="#09B9E9"/>
</linearGradient>
</defs>
</svg>
