<svg id="Layer_1" data-name="Layer 1" xmlns="http://www.w3.org/2000/svg" xmlns:xlink="http://www.w3.org/1999/xlink" viewBox="0 0 310.42 236.16"><defs><style>.cls-1,.cls-10,.cls-11,.cls-12,.cls-14,.cls-15,.cls-16,.cls-17,.cls-18{fill:none;stroke-miterlimit:10;}.cls-1,.cls-15{stroke:#008bae;}.cls-1,.cls-10,.cls-11,.cls-12,.cls-15,.cls-16,.cls-17,.cls-18{stroke-linecap:round;}.cls-1,.cls-17{stroke-width:4.4px;}.cls-2{fill:#b1dcf2;}.cls-3{fill:#009fc7;}.cls-4{fill:url(#radial-gradient);}.cls-5{fill:#4cc5ce;}.cls-6{fill:#504b48;}.cls-7{fill:#06415e;}.cls-8{fill:#fff;}.cls-9{fill:#ffca46;}.cls-10,.cls-12,.cls-18{stroke:#06415e;}.cls-10{stroke-width:1.59px;}.cls-11{stroke:#1886a7;stroke-width:0.73px;}.cls-12{stroke-width:1.47px;}.cls-13{fill:#58559d;}.cls-14{stroke:#010101;stroke-width:1.1px;}.cls-15{stroke-width:4.12px;}.cls-16{stroke:#65351c;stroke-width:3.67px;}.cls-17{stroke:#1289b1;}.cls-18{stroke-width:1.45px;}.cls-19{fill:#383938;}.cls-20{fill:#9fcce9;}</style><radialGradient id="radial-gradient" cx="150.84" cy="131.4" r="23.5" gradientUnits="userSpaceOnUse"><stop offset="0.16" stop-color="#ffbf79"/><stop offset="0.36" stop-color="#febb70" stop-opacity="0.74"/><stop offset="0.67" stop-color="#feb463" stop-opacity="0.34"/><stop offset="0.9" stop-color="#fdb05a" stop-opacity="0.1"/><stop offset="1" stop-color="#fdae57" stop-opacity="0"/></radialGradient></defs><path class="cls-1" d="M68.4,103.05s5.18,19.28,43.19,18.33"/><path class="cls-2" d="M107.93,115.69c-1.82.62-3.22,2.67-3.34,5.25-.16,3.29,1.79,6.23,4.33,6.53l6.28.74h.13l.07,0,8.47,1c.66.07,1.24-.56,1.28-1.42a1.56,1.56,0,0,0-1.13-1.71l-4.61-.55a6.08,6.08,0,0,0,.45-1.24l5.53.66c.67.08,1.24-.56,1.28-1.42a1.54,1.54,0,0,0-1.13-1.71l-5.53-.65a6.89,6.89,0,0,0-.29-1.21l4.75.57c.67.08,1.24-.56,1.28-1.42a1.54,1.54,0,0,0-1.13-1.71l-7.92-.94a3.88,3.88,0,0,0-.76-.21l1.54-.41a1.59,1.59,0,0,0,.9-1.86h0c-.15-.84-.81-1.39-1.46-1.22"/><path class="cls-3" d="M149.68,38.13c-29.22,0-52.92,7.22-52.92,38.07A167.54,167.54,0,0,0,98.9,99.64c1.21,8.59,3.63,17.14,5.88,25.52,1,3.69,2,6.92,1.67,10.78-.33,3.39-2.07,6.84-3.59,9.9-4.07,8.24-5.16,16.73-2.14,25.53,2,5.84,6.86,10.5,12.29,13.42,11.25,6.06,15.69,5.75,38.67,5.75,13.63,0,27.85-1,39-9.79a29.65,29.65,0,0,0,9.8-14,33.14,33.14,0,0,0,1.65-8.09c.59-4.7-.94-10.7-2.71-15-2.65-6.39-5.22-14.93-3.47-21.94,4.07-16.33,6.62-37.86,6.62-46.15,0-30.85-23.69-37.44-52.92-37.44"/><circle class="cls-4" cx="150.84" cy="131.4" r="23.5"/><rect class="cls-3" x="17.61" y="16.53" width="76.14" height="153.19" rx="33.3" transform="translate(8.13 -4.4) rotate(4.88)"/><polyline class="cls-3" points="30.94 159.98 38.16 219.92 42.94 219.92 49.34 160.14"/><polyline class="cls-3" points="56.42 162.92 62.02 219.92 66.81 219.92 74.02 160.14"/><polygon class="cls-5" points="43.04 219.92 44.88 202.48 35.54 202.48 37.74 219.14 43.04 219.92"/><polygon class="cls-5" points="62.05 220.45 60.21 203.01 69.56 203.01 67.35 219.67 62.05 220.45"/><path class="cls-6" d="M37.81,220.76a9,9,0,0,1,18.07,0"/><path class="cls-6" d="M61.92,220.76a9,9,0,0,1,18.07,0"/><path class="cls-7" d="M86,66.79s-2,4.73-9.5,3.81S68.89,65,68.89,65Z"/><path class="cls-8" d="M60.78,56.64a7.54,7.54,0,1,1,15,1.55"/><path class="cls-8" d="M81.55,59.68a7.54,7.54,0,0,1,15,1.55"/><path class="cls-7" d="M67.79,57.65a3.26,3.26,0,1,1,6.49.67"/><path class="cls-7" d="M89.3,60.66a3.26,3.26,0,1,1,6.49.67"/><path class="cls-1" d="M36.93,101.59s-5.51,19.18,27.52,38"/><path class="cls-2" d="M67,133.67c-1.82-.61-4.17.19-5.83,2.17-2.12,2.52-2.34,6-.5,7.82l4.55,4.39.1.08,0,.06,6.14,5.92a1.32,1.32,0,0,0,1.88-.36,1.55,1.55,0,0,0,.13-2l-3.34-3.22a6.77,6.77,0,0,0,1.11-.72l4,3.87a1.31,1.31,0,0,0,1.88-.35,1.57,1.57,0,0,0,.13-2l-4-3.86a7,7,0,0,0,.49-1.14l3.45,3.32a1.31,1.31,0,0,0,1.88-.35,1.57,1.57,0,0,0,.13-2.05l-5.74-5.53A3.33,3.33,0,0,0,73,139l1.49.6a1.58,1.58,0,0,0,1.83-.93h0a1.3,1.3,0,0,0-.42-1.86"/><polyline class="cls-3" points="131.55 189.87 135.48 220.78 140.18 220.78 144.11 189.96"/><polyline class="cls-3" points="156.47 189.87 160.4 220.78 165.1 220.78 169.03 189.17"/><polygon class="cls-9" points="140.03 220.78 141.84 207.78 133.71 207.78 135.33 219.7 140.03 220.78"/><polygon class="cls-9" points="165.47 220.66 166.72 207.78 158.75 207.78 160.13 221.55 165.47 220.66"/><path class="cls-6" d="M144.39,221.55a7.91,7.91,0,0,0-15.82,0"/><path class="cls-6" d="M158.13,221.55a7.91,7.91,0,0,1,15.82,0"/><path class="cls-10" d="M129.16,78.34s3-6.16,9.72-2.53"/><path class="cls-10" d="M168.19,78.34s-2.22-6.28-8.9-2.65"/><path class="cls-7" d="M159.76,96.76s-1.88,6-11.14,5.85-10-5.85-10-5.85Z"/><path class="cls-8" d="M153.16,89.31a8.15,8.15,0,0,1,16.26,0"/><path class="cls-7" d="M157.8,89.31a3.54,3.54,0,0,1,7.07,0"/><path class="cls-8" d="M129,89.31a8.19,8.19,0,0,1,16.34,0"/><path class="cls-7" d="M133.62,89.31a3.54,3.54,0,0,1,7.08,0"/><path class="cls-3" d="M200.56,136.88a222.19,222.19,0,0,0,2.33,25.1c2.61,18.4,19,31.14,36.54,28.47L268.58,186c12.83-1.95,23.08-12,26.32-24.39,2.4-9.24.22-20-1.2-29.3-2.74-18-10.55-39.16-27.09-48.73-22-12.73-51.53-4-61.45,19.81a53.06,53.06,0,0,0-3.65,13.49A127.94,127.94,0,0,0,200.56,136.88Z"/><path class="cls-7" d="M238.55,127.59s-.61,4.81-7.62,5.9-8.32-3.09-8.32-3.09Z"/><path class="cls-11" d="M217.5,121.44c1.9,3.53-.73,6.07-3.61,6.94"/><path class="cls-12" d="M202.7,113.22s1.9-4.3,6.58-2"/><path class="cls-12" d="M248.11,105.6s-3.05-3.39-6.33.65"/><polyline class="cls-3" points="225.97 181.44 232.34 220.69 236.05 220.69 242.42 181.56"/><polyline class="cls-3" points="250.35 181.26 256.73 220.51 260.43 220.51 266.81 181.38"/><polygon class="cls-13" points="236.6 220.64 239.11 205.47 229.62 205.47 232.21 220.47 236.6 220.64"/><polygon class="cls-13" points="260.56 220.15 263.1 205.47 254.06 205.47 256.01 220.55 260.56 220.15"/><path class="cls-6" d="M242.13,220.88a8.83,8.83,0,1,1,17.65,0"/><path class="cls-6" d="M218.66,221.06a8.82,8.82,0,0,1,17.64,0"/><path class="cls-11" d="M238.87,118.62c.3,3,4.69,6.25,8.49,4.25"/><path class="cls-11" d="M211.1,104.44A51.87,51.87,0,0,0,238.29,99"/><path class="cls-8" d="M238.6,119.29a7.54,7.54,0,0,1,14.71-3.17"/><path class="cls-7" d="M238.45,119.4a3.27,3.27,0,1,1,6.4-1.38"/><path class="cls-8" d="M203.06,124.31A7.59,7.59,0,0,1,218,121.55"/><path class="cls-7" d="M203.67,124.49a3.27,3.27,0,1,1,6.44-1.19"/><path class="cls-7" d="M208.55,116.25l.11,0Z"/><path class="cls-7" d="M245.11,110.67l-.14,0Z"/><path class="cls-14" d="M223.41,120.46c.84,4.83-5.11,9.9-13.29,11.32s-12.46-.88-16.33-6.18c-2.89-3.95-2.43-8.64,5.75-10.06S222.57,115.63,223.41,120.46Z"/><path class="cls-14" d="M263.49,114.06c-1.33,5.69-5.11,9.9-13.29,11.32s-15.49-1.34-16.33-6.18,11.76-11.13,19.94-12.55S264.62,109.28,263.49,114.06Z"/><path class="cls-14" d="M223.29,122.86s5-8.73,10.94-1.79"/><path class="cls-15" d="M190.78,141s-6.79,25.56-31,9.35"/><path class="cls-16" d="M271.5,219.77l.66-41.41s.1-5.58,4.76-5.75l4.27-.48"/><path class="cls-17" d="M275.82,139.05s17.29,1.72,6.35,27"/><path class="cls-2" d="M279.1,162.27a4.54,4.54,0,0,1,5-.92,4.32,4.32,0,0,1,2.67,5.47L284.67,172a.54.54,0,0,0-.05.11l0,.06L281.81,179a1.19,1.19,0,0,1-2.19-.88l1.52-3.77a5.2,5.2,0,0,1-1,0l-1.82,4.52a1.19,1.19,0,0,1-2.19-.88l1.82-4.52a4.63,4.63,0,0,1-.7-.62l-1.57,3.89a1.19,1.19,0,0,1-2.19-.88l2.6-6.48a3.79,3.79,0,0,1,.18-.66l-.92,1.07a1.22,1.22,0,0,1-1.64.1h0a1,1,0,0,1-.23-1.52"/><path class="cls-18" d="M63,46.9s3.19-5.4,9-1.64"/><path class="cls-18" d="M96.85,51.23s-1.38-5.91-7.8-3.29"/><rect class="cls-19" x="141.84" y="120.44" width="18.82" height="33.12" rx="5.67"/><path class="cls-15" d="M109.57,142.21s12.4,26.11,29.57-.2"/><path class="cls-20" d="M140.52,129.37a1.18,1.18,0,0,1,1.74-.14h0a1.45,1.45,0,0,1,.6,1.81l-.75,1.27a3.38,3.38,0,0,1,.64-.36l5.84-4.47a1.43,1.43,0,0,1,1.85.4,1.21,1.21,0,0,1,.06,1.76l-3.5,2.68a7.81,7.81,0,0,1,1,.61l4.07-3.12a1.43,1.43,0,0,1,1.85.39A1.21,1.21,0,0,1,154,132l-4.07,3.12a6.46,6.46,0,0,1,.49,1.12l3.4-2.61a1.44,1.44,0,0,1,1.85.4,1.2,1.2,0,0,1,.07,1.76l-6.25,4.79-.05,0-.1.08-4.62,3.54c-1.88,1.44-5,.76-7.07-1.52a5.18,5.18,0,0,1-1.17-5.62Z"/><path class="cls-2" d="M160.37,143.15a1.19,1.19,0,0,0-1.68.5h0a1.46,1.46,0,0,0,.08,1.9l1.16.92a3.59,3.59,0,0,0-.72-.11l-7.06-2.08a1.43,1.43,0,0,0-1.58,1,1.21,1.21,0,0,0,.57,1.67l4.23,1.25a7.06,7.06,0,0,0-.68.92l-4.93-1.46a1.43,1.43,0,0,0-1.58,1,1.21,1.21,0,0,0,.57,1.67l4.93,1.46a6.29,6.29,0,0,0-.07,1.22l-4.1-1.22a1.44,1.44,0,0,0-1.59,1,1.22,1.22,0,0,0,.57,1.67l7.55,2.23h.06l.12,0,5.58,1.65c2.27.67,5-1.11,6.06-4a5.2,5.2,0,0,0-.92-5.67Z"/></svg>