<svg width="383" height="326" viewBox="0 0 383 326" fill="none" xmlns="http://www.w3.org/2000/svg">
<path d="M0 309V20C0 8.95431 8.95431 0 20 0H363C374.046 0 383 8.95431 383 20V309" fill="#FFE685"/>
<path d="M383 133H0V297H383V133Z" fill="#FFCA05"/>
<path d="M363 143H20C8.95431 143 0 151.954 0 163V306C0 317.046 8.95431 326 20 326H363C374.046 326 383 317.046 383 306V163C383 151.954 374.046 143 363 143Z" fill="#FFCA05"/>
<path d="M207.574 58.5018C207.574 35.9937 188.238 18.3262 163.812 18.3262C139.386 18.3262 119.587 36.5668 119.587 59.0871V96.3973H207.513V65.3786C207.513 65.3786 207.574 60.6355 207.574 58.5018Z" fill="#A4DBDE"/>
<path d="M0 133.525H47.5856V61.0622C47.5856 61.0622 47.6465 56.3313 47.6465 54.1854C47.6465 31.6773 24.6573 14.0098 0.231353 14.0098" fill="#954F22"/>
<path d="M119.59 96.3691L207.517 96.3691L207.517 72.8368L119.59 72.8368L119.59 96.3691Z" fill="#2D9D48"/>
<path d="M203.36 44.5029C201.74 44.5029 200.316 45.4296 199.451 46.8439C198.989 45.8197 198.234 44.954 197.26 44.4297C194.873 43.1373 192.036 44.32 190.916 47.0756C190.502 48.0876 190.38 49.185 190.514 50.2214C188.359 49.6239 186.069 50.831 185.083 53.233C183.963 55.9764 184.986 59.2563 187.372 60.5487C188.663 61.2437 190.075 61.2194 191.293 60.6097C191.634 62.1338 192.547 63.4872 193.887 64.2066C196.2 65.4503 198.94 64.3773 200.121 61.8046C200.474 62.1704 200.864 62.4874 201.314 62.7313C203.628 63.9871 206.368 62.8898 207.549 60.3171C207.561 59.5245 207.561 58.7686 207.561 58.1955C207.561 53.5378 206.721 49.0874 205.186 44.9662C204.638 44.6736 204.017 44.5029 203.36 44.5029Z" fill="white"/>
<path d="M123.873 54.1978C125.687 54.3441 127.343 53.4418 128.414 51.9299C128.865 53.1126 129.644 54.149 130.704 54.8318C133.297 56.49 136.56 55.4293 138.009 52.442C138.545 51.3324 138.752 50.1253 138.667 48.9548C141.041 49.8205 143.696 48.6744 144.962 46.0651C146.411 43.09 145.474 39.3224 142.892 37.6642C141.492 36.7619 139.897 36.6766 138.509 37.2374C138.229 35.4939 137.303 33.8966 135.842 32.9699C133.334 31.3605 130.192 32.3237 128.682 35.0915C128.439 34.7989 128.159 34.5306 127.854 34.299C123.824 39.1395 120.938 44.8458 119.599 51.052C120.439 52.8078 122.01 54.0515 123.873 54.1978Z" fill="white"/>
<path d="M207.757 93.9707H119.344V98.8235H207.757V93.9707Z" fill="#FFCA05"/>
<path d="M36.4779 85.0585C38.334 85.0585 39.8386 83.9012 39.8386 82.4736C39.8386 81.046 38.334 79.8887 36.4779 79.8887C34.6218 79.8887 33.1172 81.046 33.1172 82.4736C33.1172 83.9012 34.6218 85.0585 36.4779 85.0585Z" fill="#838383"/>
<path d="M189.711 220.494C189.711 220.494 172.372 225.286 166.405 192.67" stroke="#108AB2" stroke-width="2.7001" stroke-miterlimit="10" stroke-linecap="round"/>
<path d="M170.824 191.134C170.557 192.561 169.181 193.829 167.269 194.207C164.834 194.683 162.423 193.549 161.923 191.671L160.682 187.062C160.669 187.025 160.669 187.001 160.657 186.964C160.657 186.952 160.645 186.928 160.633 186.916L158.965 180.697C158.831 180.21 159.245 179.71 159.89 179.588C160.523 179.466 161.156 179.758 161.29 180.246L162.204 183.636C162.471 183.453 162.764 183.294 163.08 183.16L161.984 179.1C161.85 178.612 162.264 178.112 162.91 177.991C163.543 177.869 164.176 178.161 164.31 178.649L165.406 182.709C165.723 182.709 166.039 182.746 166.331 182.795L165.394 179.307C165.26 178.82 165.674 178.32 166.319 178.198C166.952 178.076 167.586 178.368 167.719 178.856L169.278 184.672C169.375 184.843 169.449 185.026 169.509 185.221L169.656 184.026C169.716 183.526 170.289 183.136 170.946 183.16C171.592 183.185 172.079 183.611 172.018 184.124" fill="#A1CBEC"/>
<path d="M282.922 224.665C282.922 224.665 300.188 230.042 308.188 206.01" stroke="#108AB2" stroke-width="2.7001" stroke-miterlimit="10" stroke-linecap="round"/>
<path d="M305.217 202.375C305.229 203.826 306.374 205.313 308.2 206.008C310.514 206.898 313.083 206.191 313.899 204.436L315.908 200.107C315.92 200.07 315.932 200.046 315.944 200.01C315.956 199.997 315.969 199.985 315.969 199.961L318.684 194.12C318.903 193.657 318.574 193.096 317.966 192.864C317.357 192.633 316.687 192.816 316.48 193.279L315.007 196.461C314.775 196.23 314.52 196.022 314.227 195.84L316.005 192.023C316.224 191.56 315.896 190.999 315.287 190.767C314.678 190.536 314.008 190.719 313.801 191.182L312.023 194.998C311.707 194.949 311.402 194.925 311.098 194.925L312.62 191.645C312.839 191.182 312.51 190.621 311.902 190.389C311.293 190.158 310.623 190.341 310.416 190.804L307.883 196.266C307.75 196.425 307.652 196.595 307.555 196.766L307.616 195.559C307.64 195.059 307.141 194.571 306.495 194.474C305.85 194.389 305.302 194.73 305.278 195.23" fill="#A1CBEC"/>
<path d="M290.386 200.242C290.386 232.102 280.742 266.181 235.811 267.339C193.145 268.437 181.236 232.748 181.236 200.888C181.236 169.028 205.674 161.578 235.811 161.578C265.96 161.566 290.386 168.382 290.386 200.242Z" fill="#00A0CC"/>
<path d="M197.248 189.452C197.248 189.452 200.925 181.99 209.01 186.392" stroke="#0D3F60" stroke-width="1.5761" stroke-miterlimit="10" stroke-linecap="round"/>
<path d="M245.515 189.45C245.515 189.45 242.824 181.842 234.739 186.244" stroke="#0D3F60" stroke-width="1.5761" stroke-miterlimit="10" stroke-linecap="round"/>
<path d="M235.312 211.775C235.312 211.775 233.035 219.091 221.832 218.872C210.63 218.652 209.741 211.775 209.741 211.775H235.312Z" fill="#0D3F60"/>
<path d="M227.324 202.754C227.324 197.657 231.732 193.512 237.163 193.512C242.593 193.512 247.001 197.645 247.001 202.754" fill="white"/>
<path d="M198.064 202.754C198.064 197.657 202.497 193.512 207.964 193.512C213.431 193.512 217.863 197.645 217.863 202.754" fill="white"/>
<path d="M199.074 198.059L193.777 195.95L198.465 199.656C198.404 199.864 198.356 200.071 198.319 200.266L193.729 199.693L198.112 201.546C198.051 202.132 198.063 202.51 198.063 202.51C200.645 194.292 205.978 193.584 207.05 193.523C202.398 193.572 200.146 195.828 199.074 198.059Z" fill="#0D3F60"/>
<path d="M207.051 193.523C207.112 193.523 207.173 193.523 207.246 193.523C207.246 193.511 207.173 193.511 207.051 193.523Z" fill="#0D3F60"/>
<path d="M251.348 199.694L246.757 200.267C246.709 200.071 246.672 199.864 246.611 199.657L251.299 195.95L246.002 198.06C244.919 195.828 242.678 193.573 238.015 193.512C239.074 193.573 244.407 194.28 247.001 202.498C247.001 202.498 247.013 202.12 246.952 201.535L251.348 199.694Z" fill="#0D3F60"/>
<path d="M224.316 254.148L216.56 268.438C215.598 270.218 215.147 272.217 215.269 274.229L216.608 296.335C216.694 297.798 215.427 299.005 213.905 298.896C212.797 298.81 211.884 298.042 211.64 297.006L206.392 274.217C205.82 271.73 205.978 269.145 206.843 266.731L211.665 253.416" fill="#00A0CC"/>
<path d="M211.495 297.737L216.779 299.103L215.72 279.338L207.428 278.729L211.495 297.737Z" fill="#5652A2"/>
<path d="M201.096 297.956C201.4 294.165 205.15 291.348 209.485 291.665C213.82 291.982 217.083 295.311 216.779 299.115" fill="#4F4A47"/>
<path d="M249.924 249.232L253.284 268.924C253.686 270.899 254.624 272.74 256.024 274.252L271.184 287.018C272.194 288.116 270.867 288.701 269.601 289.518L268.481 290.64C267.567 291.237 268.578 291.176 267.726 290.493L249.047 279.507C246.989 277.886 245.443 275.752 244.566 273.35L239.537 256.158" fill="#00A0CC"/>
<path d="M268.079 291.151L271.988 286.847L258.825 276.508L251.945 280.946L268.079 291.151Z" fill="#5652A2"/>
<path d="M261.236 298.127C258.557 295.347 258.971 290.775 262.161 287.922C265.351 285.069 270.112 285.02 272.803 287.8" fill="#4F4A47"/>
<path d="M304.461 270.315C304.668 270.547 305.033 270.571 305.265 270.351L325.587 251.891C325.819 251.684 325.843 251.318 325.624 251.087C325.417 250.855 325.051 250.831 324.82 251.05L304.498 269.51C304.266 269.73 304.254 270.083 304.461 270.315Z" fill="#515252"/>
<path d="M342.477 271.619H299.372V296.529H342.477V271.619Z" fill="#444445"/>
<path d="M309.869 268.351C315.762 268.351 321.643 268.339 327.537 268.363C331.774 268.375 336.024 268.485 340.261 268.448C343.086 268.424 344.438 270.265 344.316 272.569C344.267 273.533 344.377 274.374 345.387 274.85C345.765 275.02 345.85 275.459 345.887 275.862C346.155 278.154 346.155 280.446 345.887 282.726C345.826 283.214 345.68 283.665 345.217 283.921C344.413 284.36 344.304 285.092 344.316 285.921C344.34 289.127 344.316 292.334 344.328 295.541C344.328 296.37 344.267 297.187 344.024 297.979C343.171 299.504 341.832 300.04 340.139 300.04C327.001 300.028 313.85 300.028 300.712 300.04C299.007 300.04 297.692 299.455 296.803 297.979C296.511 297.016 296.475 296.029 296.475 295.029C296.487 287.384 296.487 279.751 296.475 272.106C296.803 269.741 297.911 268.57 299.945 268.497C300.98 268.46 302.027 268.595 303.062 268.448L309.869 268.351ZM323.543 283.97C323.738 278.849 319.512 272.777 312.438 272.765C303.281 272.74 297.376 283.385 304.036 291.956C313.181 299.723 323.774 292.895 323.543 283.97ZM336.779 280.129C337.728 280.129 338.666 280.129 339.616 280.129C340.748 280.129 340.748 280.129 340.639 277.898C340.639 277.812 340.639 277.727 340.626 277.642C340.602 277.288 340.517 277.093 340.322 277.081C340.164 277.081 340.018 277.069 339.859 277.069C337.887 277.069 335.902 277.044 333.929 277.081C332.785 277.093 332.919 276.642 332.919 279.202C332.919 280.105 332.931 280.129 333.418 280.129C334.538 280.141 335.658 280.129 336.779 280.129ZM336.742 275.386C337.704 275.386 338.666 275.41 339.64 275.386C340.76 275.349 340.639 275.862 340.651 273.264C340.651 273.179 340.651 273.094 340.651 273.008C340.651 272.582 340.529 272.374 340.322 272.362C340.152 272.35 339.969 272.35 339.798 272.35C337.85 272.35 335.902 272.338 333.942 272.35C332.833 272.362 332.943 272.033 332.931 274.52C332.931 275.215 333.065 275.41 333.394 275.398C334.502 275.374 335.622 275.386 336.742 275.386Z" fill="#656767"/>
<path d="M312.28 292.578C307.75 292.541 304.061 288.81 304.061 284.238C304.061 279.714 307.811 275.935 312.316 275.91C316.858 275.898 320.669 279.775 320.596 284.335C320.535 288.92 316.809 292.614 312.28 292.578Z" fill="#515252"/>
<path d="M345.156 284.313C344.596 284.313 344.133 283.849 344.133 283.288V274.034C344.133 273.473 344.596 273.01 345.156 273.01C345.716 273.01 346.178 273.473 346.178 274.034V283.288C346.191 283.849 345.728 284.313 345.156 284.313Z" fill="#444445"/>
<path d="M300.724 263.108V247.062" stroke="black" stroke-width="0.4594" stroke-miterlimit="10"/>
<path d="M295.585 265.181L286.599 251.074" stroke="black" stroke-width="0.4594" stroke-miterlimit="10"/>
<path d="M291.093 268.059L279.172 265.182" stroke="black" stroke-width="0.4594" stroke-miterlimit="10"/>
<path d="M116.957 209.788C116.957 209.788 135.38 204.582 139.35 184.146" stroke="#108AB2" stroke-width="3.073" stroke-miterlimit="10" stroke-linecap="round"/>
<path d="M124.908 192.354V218.764C124.908 236.114 120.318 256.745 93.5297 256.745H84.0564C58.0841 256.745 52.6777 236.126 52.6777 218.764V155.641C52.6777 140.961 64.5619 129.061 79.2224 129.061H98.3638C113.024 129.061 124.908 140.961 124.908 155.641V169.675V192.354Z" fill="#00A0CC"/>
<path d="M57.7058 211.752C57.7058 211.752 36.9815 205.107 40.5736 180.551" stroke="#108AB2" stroke-width="3.073" stroke-miterlimit="10" stroke-linecap="round"/>
<path d="M45.2623 181.513C44.5682 183.013 42.6931 184.025 40.477 183.891C37.652 183.732 35.3263 181.794 35.302 179.599L35.2289 174.173C35.2289 174.136 35.2289 174.1 35.2289 174.063C35.2289 174.039 35.2167 174.027 35.2167 174.002L35.1193 166.674C35.1071 166.101 35.7038 165.662 36.4466 165.711C37.1893 165.748 37.7981 166.26 37.7981 166.833L37.8468 170.82C38.1878 170.698 38.5653 170.601 38.9427 170.54L38.8818 165.76C38.8697 165.187 39.4663 164.748 40.2091 164.797C40.9518 164.833 41.5607 165.345 41.5607 165.918L41.6215 170.698C41.9747 170.796 42.3034 170.918 42.62 171.052L42.5713 166.943C42.5591 166.37 43.1558 165.931 43.8985 165.979C44.6413 166.016 45.2501 166.528 45.2501 167.101L45.3354 173.954C45.3962 174.173 45.4328 174.405 45.445 174.624L45.9442 173.344C46.1512 172.807 46.9061 172.539 47.6124 172.746C48.3186 172.954 48.7326 173.563 48.5256 174.1" fill="#A1CBEC"/>
<path d="M133.236 186.939C133.272 188.597 134.6 190.267 136.682 191.036C139.336 192.011 142.234 191.17 143.147 189.17L145.376 184.22C145.388 184.183 145.4 184.147 145.412 184.11C145.424 184.098 145.437 184.073 145.449 184.061L148.456 177.38C148.688 176.855 148.322 176.221 147.628 175.965C146.934 175.709 146.179 175.929 145.936 176.453L144.292 180.086C144.024 179.83 143.72 179.599 143.391 179.391L145.351 175.026C145.583 174.502 145.217 173.868 144.523 173.612C143.829 173.356 143.074 173.575 142.831 174.1L140.87 178.465C140.517 178.416 140.152 178.392 139.811 178.392L141.504 174.648C141.735 174.124 141.37 173.49 140.676 173.234C139.982 172.978 139.227 173.197 138.983 173.722L136.17 179.964C136.024 180.147 135.902 180.33 135.805 180.538L135.866 179.16C135.89 178.587 135.306 178.038 134.575 177.94C133.845 177.843 133.224 178.245 133.199 178.818" fill="#A1CBEC"/>
<path d="M94.3809 176.82C94.3809 176.82 95.9151 183.344 103.477 183.148C111.038 182.953 111.635 176.82 111.635 176.82H94.3809Z" fill="#0D3F60"/>
<path d="M99.9336 249.892L109.029 266.56C110.162 268.645 110.698 270.974 110.551 273.327L109.042 299.139C108.944 300.846 110.43 302.248 112.207 302.114C113.498 302.017 114.57 301.114 114.85 299.895L120.926 273.266C121.583 270.364 121.401 267.34 120.378 264.536L114.704 249.002" fill="#00A0CC"/>
<path d="M115.033 300.76L108.859 302.37L110.04 279.277L119.721 278.545L115.033 300.76Z" fill="#EC1651"/>
<path d="M127.16 300.98C126.795 296.554 122.411 293.262 117.346 293.652C112.292 294.03 108.481 297.932 108.846 302.37" fill="#4F4A47"/>
<path d="M72.2936 241.418L73.5234 264.719C73.5843 267.072 72.9755 269.413 71.77 271.498L56.3059 285.898C55.4292 287.41 56.1111 289.3 57.7671 289.897C58.9604 290.336 60.3363 289.958 61.1399 288.958L81.0484 275.68C82.9723 273.302 84.2021 270.474 84.5674 267.511L85.8825 246.637" fill="#00A0CC"/>
<path d="M58.8386 292.493L53.2861 288.603L68.4945 274.545L73.9983 280.385L58.8386 292.493Z" fill="#EC1651"/>
<path d="M63.7578 301.589C67.3863 298.906 67.8003 293.566 64.6832 289.664C61.566 285.762 56.0866 284.763 52.458 287.445" fill="#4F4A47"/>
<path d="M201.047 195.487C200.146 196.401 199.452 197.511 199.025 198.742C200.669 199.889 202.934 199.864 204.541 198.511C206.185 197.133 206.599 194.853 205.698 193.012C204.48 193.243 203.36 193.707 202.374 194.377L201.047 195.487Z" fill="#0D3F60"/>
<path d="M229.613 196.231C228.712 197.145 228.018 198.255 227.592 199.487C229.236 200.633 231.5 200.608 233.108 199.255C234.752 197.877 235.166 195.597 234.265 193.756C233.047 193.988 231.927 194.451 230.94 195.121L229.613 196.231Z" fill="#0D3F60"/>
<path d="M325.49 68.6953C324.723 73.4993 323.554 78.279 322.446 82.9732C321.85 85.5215 321.192 87.7528 321.497 90.3987C321.752 92.7275 322.946 95.0686 323.968 97.1536C326.745 102.762 326.574 108.603 324.711 114.699C323.481 118.735 320.364 122.003 316.845 124.075C309.564 128.38 307.141 128.209 292.115 128.502C283.202 128.672 274.374 128.124 266.946 122.247C263.878 119.82 261.637 116.504 260.346 112.724C259.592 110.48 259.482 109.505 259.165 107.188C258.715 103.969 259.64 99.8238 260.748 96.8731C262.404 92.4471 263.975 86.5457 262.733 81.7539C259.859 70.573 257.911 55.8074 257.802 50.1256C257.4 28.9221 272.815 24.0937 291.932 23.7401C311.049 23.3743 326.647 28.0442 327.049 49.2477C327.086 51.4302 327.013 53.6249 326.879 55.8196C326.879 55.7952 325.917 66.2568 325.49 68.6953Z" fill="#00A0CC"/>
<path d="M293.187 125.294L297.168 152.752L301.357 152.667L304.34 124.465" fill="#00A0CC"/>
<path d="M301.686 152.57L302.587 141.084L295.5 141.206L296.949 153.435L301.686 152.57Z" fill="#56C4CF"/>
<path d="M277.235 125.294L281.217 152.752L285.394 152.667L288.389 124.465" fill="#00A0CC"/>
<path d="M285.723 152.57L286.624 141.084L279.537 141.206L280.986 153.435L285.723 152.57Z" fill="#56C4CF"/>
<path d="M286.136 154.606C286.112 150.716 282.934 147.583 279.05 147.619C275.165 147.656 272.036 150.826 272.073 154.716" fill="#4F4A47"/>
<path d="M287.938 154.374C287.999 150.485 291.19 147.375 295.074 147.436C298.958 147.497 302.063 150.692 302.002 154.581" fill="#4F4A47"/>
<path d="M289.875 64.9757C289.875 64.9757 288.548 60.8423 282.204 61.013C275.86 61.1837 275.385 65.0854 275.385 65.0854L289.875 64.9757Z" fill="#0D3F60"/>
<path d="M279.89 57.3679C279.89 54.4782 277.394 52.125 274.313 52.125C271.233 52.125 268.736 54.466 268.736 57.3679" fill="white"/>
<path d="M275.226 57.3678C275.226 56.0266 274.142 54.9414 272.803 54.9414C271.464 54.9414 270.38 56.0266 270.38 57.3678" fill="#0D3F60"/>
<path d="M296.486 57.3679C296.486 54.4782 293.978 52.125 290.873 52.125C287.768 52.125 285.26 54.466 285.26 57.3679" fill="white"/>
<path d="M291.823 57.3678C291.823 56.0266 290.739 54.9414 289.4 54.9414C288.06 54.9414 286.977 56.0266 286.977 57.3678" fill="#0D3F60"/>
<path d="M295.999 54.8928L298.897 53.6125L296.328 55.856C296.364 55.9901 296.389 56.1121 296.413 56.2218L298.934 55.8682L296.523 56.99C296.559 57.3436 296.547 57.5752 296.547 57.5752C295.195 52.8322 292.504 52.2104 291.737 52.125C294.209 52.2225 295.415 53.5638 295.999 54.8928Z" fill="#0D3F60"/>
<path d="M291.737 52.1494C291.664 52.1494 291.603 52.1372 291.518 52.1372C291.518 52.1372 291.603 52.1372 291.737 52.1494Z" fill="#0D3F60"/>
<path d="M266.203 55.8809L268.724 56.2345C268.748 56.1126 268.772 55.9907 268.809 55.8687L266.24 53.6252L269.138 54.9055C269.722 53.5643 270.928 52.2353 273.399 52.1499C272.632 52.2353 269.929 52.8571 268.59 57.6001C268.59 57.6001 268.59 57.3685 268.614 57.0149L266.203 55.8809Z" fill="#0D3F60"/>
<path d="M274.52 52.1494C274.653 52.1372 274.739 52.1372 274.739 52.1372C274.666 52.1372 274.605 52.1494 274.52 52.1494Z" fill="#0D3F60"/>
<path d="M264.231 102.688C264.231 102.688 258.082 98.2254 258.459 94.1895C258.837 90.1537 265.643 86.252 265.643 86.252" stroke="#0A8AB2" stroke-width="2.0688" stroke-miterlimit="10" stroke-linecap="round"/>
<path d="M263.257 159.336C263.756 157.336 264.255 155.325 264.755 153.325C265.217 151.459 265.668 149.594 266.131 147.728C266.167 147.558 266.191 147.35 266.386 147.253C266.216 147.119 265.984 147.265 265.802 147.107C264.937 146.399 263.805 146.241 262.843 145.717C261.443 144.961 259.921 144.485 258.484 143.778C258.033 143.546 257.571 143.302 257.071 143.144C256.268 142.888 255.464 142.571 254.733 142.205C253.601 141.632 252.396 141.254 251.287 140.644C250.545 140.242 249.692 140.108 248.974 139.681C248.024 139.12 246.965 138.815 245.979 138.34C245.394 139.486 244.542 140.474 243.823 141.522C242.192 143.888 240.524 146.253 238.868 148.606C238.624 148.96 238.539 149.167 239.062 149.374C240.694 150.033 242.301 150.752 243.909 151.447L263.257 159.336Z" fill="#D5BA76"/>
<path d="M284.395 76.7654C283.798 76.6922 283.214 77.0458 282.958 77.6311C281.801 80.2404 277.783 90.08 276.626 92.6893C274.97 96.4325 266.167 116.624 264.511 120.367C262.757 124.342 261.016 128.317 259.263 132.292C258.532 133.938 257.789 135.572 257.071 137.23C256.876 137.681 256.706 137.803 256.194 137.571C253.99 136.559 251.75 135.608 249.534 134.609C247.61 133.743 246.38 134.206 245.625 136.157C245.552 136.34 245.394 136.511 245.443 136.742C245.199 137.559 245.296 137.827 246.003 138.364C246.502 138.742 247.293 138.9 247.866 139.169C248.608 139.51 249.351 139.839 250.094 140.156C251.677 140.851 253.272 141.534 254.855 142.229C256.791 143.07 258.727 143.912 260.663 144.753C262.368 145.497 264.024 146.106 265.668 146.996C266.496 147.448 267.372 147.484 267.896 146.643C268.091 146.228 268.31 145.838 268.48 145.411C268.967 144.18 268.432 142.912 267.202 142.375C264.791 141.315 262.38 140.242 259.945 139.205C259.482 139.01 259.482 138.803 259.665 138.401C261.747 133.706 263.805 129.012 265.887 124.33C268.139 119.245 277.528 97.7006 279.78 92.6162C280.742 90.4458 284.59 81.0451 285.527 78.8626C285.978 77.8384 285.43 76.8873 284.395 76.7654Z" fill="#969E9B"/>
<path d="M270.099 112.223C270.404 112.491 270.891 112.443 271.183 112.113C271.487 111.784 271.487 111.297 271.183 111.016L269.113 109.126C269.332 109.041 269.539 108.931 269.746 108.797L272.23 111.065C272.535 111.333 273.022 111.284 273.314 110.955C273.618 110.626 273.618 110.138 273.314 109.858L270.83 107.59C270.927 107.395 271.013 107.2 271.073 107.005L273.204 108.943C273.509 109.212 273.996 109.163 274.288 108.834C274.592 108.504 274.592 108.017 274.288 107.736L270.733 104.493C270.647 104.359 270.538 104.249 270.428 104.127L271.317 104.517C271.694 104.676 272.157 104.493 272.352 104.103C272.547 103.713 272.413 103.249 272.035 103.091L267.287 100.994C267.104 100.908 266.897 100.92 266.714 100.994C265.618 100.579 264.279 100.908 263.378 101.896C262.233 103.152 262.233 105.042 263.378 106.078L266.203 108.651C266.227 108.675 266.239 108.687 266.264 108.699C266.276 108.712 266.276 108.724 266.288 108.736L270.099 112.223Z" fill="#A1CBEC"/>
<path d="M280.364 99.1527C298.434 112.894 305.801 89.8008 305.801 89.8008" stroke="#0A8AB2" stroke-width="2.0688" stroke-miterlimit="10" stroke-linecap="round"/>
<path d="M270.453 96.4341C270.112 96.2147 270.027 95.7391 270.27 95.3611C270.514 94.9832 270.989 94.849 271.329 95.0685L273.692 96.5561C273.716 96.3244 273.777 96.0927 273.85 95.8611L271.013 94.0687C270.672 93.8492 270.587 93.3737 270.83 92.9957C271.074 92.6177 271.549 92.4836 271.89 92.7031L274.727 94.4954C274.885 94.3491 275.055 94.215 275.226 94.1053L272.791 92.569C272.45 92.3495 272.364 91.874 272.608 91.496C272.852 91.118 273.326 90.9839 273.667 91.2034L277.722 93.7639C277.868 93.8126 278.014 93.8858 278.148 93.959L277.539 93.203C277.284 92.886 277.345 92.3861 277.673 92.0934C278.002 91.8008 278.477 91.813 278.733 92.13L281.996 96.1537C282.118 96.3122 282.166 96.5073 282.154 96.7024C282.836 97.6412 282.885 99.0312 282.154 100.153C281.241 101.592 279.415 102.104 278.112 101.275L274.897 99.2507C274.873 99.2385 274.848 99.2141 274.836 99.2019C274.824 99.1897 274.812 99.1897 274.8 99.1897L270.453 96.4341Z" fill="#A1CBEC"/>
<path d="M241.898 150.581L246.379 144.07L243.116 151.106L241.898 150.581Z" fill="#C9A362"/>
<path d="M247.537 152.935L250.289 148.875L248.877 153.484L247.537 152.935Z" fill="#C9A362"/>
<path d="M257.607 157.033L260.956 150.57L259.105 157.654L257.607 157.033Z" fill="#C9A362"/>
<path d="M261.844 92.5563C261.844 92.5563 263.914 88.0937 262.282 79.6562C260.65 71.2188 270.574 85.0577 270.574 85.0577L261.844 92.5563Z" fill="#00A0CC"/>
<path d="M280.328 53.3567L272.268 48.1016" stroke="#0D3F60" stroke-width="0.8939" stroke-miterlimit="10" stroke-linecap="round"/>
<path d="M285.26 53.3689L292.59 48.1016" stroke="#0D3F60" stroke-width="0.8939" stroke-miterlimit="10" stroke-linecap="round"/>
<path d="M122.935 169.881C122.935 165.699 119.55 162.297 115.361 162.297C111.173 162.297 107.8 165.699 107.8 169.881" fill="white"/>
<path d="M98.9483 169.881C98.9483 165.699 95.5632 162.297 91.3745 162.297C87.198 162.297 83.8008 165.687 83.8008 169.881" fill="white"/>
<path d="M114.156 169.954C114.156 168.052 115.69 166.516 117.59 166.516C119.49 166.516 121.024 168.052 121.024 169.954" fill="#0D3F60"/>
<path d="M89.9609 169.954C89.9609 168.052 91.4952 166.516 93.3947 166.516C95.2942 166.516 96.8285 168.052 96.8285 169.954" fill="#0D3F60"/>
<path d="M83.7266 159.103C83.7266 159.103 86.7098 153.043 93.2851 156.616" stroke="#0D3F60" stroke-width="1.2798" stroke-miterlimit="10" stroke-linecap="round"/>
<path d="M121.706 159.104C121.706 159.104 119.526 152.922 112.963 156.494" stroke="#0D3F60" stroke-width="1.2798" stroke-miterlimit="10" stroke-linecap="round"/>
<path d="M84.4696 166.138L80.1713 164.431L83.9825 167.43C83.9338 167.601 83.8973 167.759 83.8608 167.93L80.1348 167.467L83.6903 168.967C83.6416 169.442 83.6538 169.747 83.6538 169.747C85.7603 163.077 90.0829 162.492 90.9475 162.443C87.1728 162.492 85.3463 164.321 84.4696 166.138Z" fill="#0D3F60"/>
<path d="M126.442 167.418L122.716 167.881C122.679 167.723 122.643 167.552 122.594 167.381L126.405 164.382L122.107 166.089C121.23 164.272 119.404 162.443 115.629 162.395C116.493 162.443 120.816 163.016 122.923 169.698C122.923 169.698 122.935 169.393 122.886 168.918L126.442 167.418Z" fill="#0D3F60"/>
</svg>
