<svg width="383" height="326" viewBox="0 0 383 326" fill="none" xmlns="http://www.w3.org/2000/svg">
<path d="M0 309V20C0 8.95431 8.95431 0 20 0H363C374.046 0 383 8.95431 383 20V309" fill="#FFE685"/>
<path d="M383 133H0V297H383V133Z" fill="#2E9E48"/>
<path d="M363 143H20C8.95431 143 0 151.954 0 163V306C0 317.046 8.95431 326 20 326H363C374.046 326 383 317.046 383 306V163C383 151.954 374.046 143 363 143Z" fill="#2E9E48"/>
<path d="M0 133.525H47.5856V61.0622C47.5856 61.0622 47.6465 56.3313 47.6465 54.1854C47.6465 31.6773 24.6573 14.0098 0.231353 14.0098" fill="#954F22"/>
<path d="M36.4779 85.0585C38.334 85.0585 39.8386 83.9012 39.8386 82.4736C39.8386 81.046 38.334 79.8887 36.4779 79.8887C34.6218 79.8887 33.1172 81.046 33.1172 82.4736C33.1172 83.9012 34.6218 85.0585 36.4779 85.0585Z" fill="#838383"/>
<path d="M107 60.7412C107 36.2355 128.537 17 155.742 17C182.948 17 205 36.8727 205 61.3784V102H107.068V68.2283C107.068 68.2283 107 63.0643 107 60.7412Z" fill="#F8D978"/>
<path d="M205 77H107V102H205V77Z" fill="#FFCA05"/>
<path d="M176.729 53.4398C176.702 56.5987 176.421 59.7978 176.181 62.93C176.048 64.63 175.847 66.1291 176.301 67.8023C176.702 69.2747 177.69 70.6668 178.558 71.9116C180.896 75.2579 181.363 79.0192 180.762 83.1285C180.361 85.8458 178.679 88.2551 176.635 89.9417C172.375 93.4353 170.799 93.5558 161.156 95.2289C155.44 96.2194 149.711 96.7415 144.355 93.6896C142.152 92.4314 140.376 90.5173 139.174 88.215C138.466 86.8497 138.306 86.2339 137.865 84.7616C137.264 82.727 137.451 79.9696 137.865 77.9618C138.493 74.9501 138.92 71.0014 137.651 68.0298C134.7 61.123 131.989 51.8068 131.361 48.1526C129.01 34.5396 138.452 29.9083 150.713 27.7934C162.973 25.6651 173.457 27.1375 175.807 40.7371C176.048 42.1425 176.221 43.5614 176.341 44.9802C176.355 45.007 176.769 51.8335 176.729 53.4398Z" fill="#00A0CC"/>
<path d="M161 94.5523L163.501 113L166.131 112.945L168 94" fill="#00A0CC"/>
<path d="M165.49 113.441L166 106L162 106.08L162.823 114L165.49 113.441Z" fill="#5652A2"/>
<path d="M150 94.5523L152.488 113L155.118 112.945L157 94" fill="#00A0CC"/>
<path d="M155.362 113.441L156 106L151 106.08L152.014 114L155.362 113.441Z" fill="#5652A2"/>
<path d="M156 114.928C155.987 112.188 153.95 109.986 151.467 110C148.984 110.015 146.987 112.261 147 115" fill="#4F4A47"/>
<path d="M157 113.856C157.039 111.141 159.073 108.972 161.565 109C164.045 109.043 166.026 111.27 166 114" fill="#4F4A47"/>
<path d="M144 54.3884C144 54.3884 145.396 56.5455 149.755 55.8685C154.129 55.1915 154 53 154 53L144 54.3884Z" fill="#0D3F60"/>
<path d="M147 51.6158C146.728 49.2693 144.938 47.6825 143.018 48.0539C141.099 48.4422 139.763 50.6536 140.035 53" fill="white"/>
<path d="M143 52.2083C142.873 50.7789 142.108 49.8112 141.28 50.0311C140.451 50.2511 139.891 51.5706 140.018 53" fill="#0D3F60"/>
<path d="M157 49.8801C156.73 48.0047 154.94 46.7364 153.022 47.0467C151.103 47.357 149.764 49.1246 150.035 51" fill="white"/>
<path d="M155 50.4722C154.83 49.5192 153.811 48.8742 152.706 49.0208C151.602 49.1674 150.854 50.047 151.024 51" fill="#0D3F60"/>
<path d="M156.702 48.1185L158.45 47.0022L157.011 48.7103C157.052 48.791 157.079 48.8717 157.105 48.9389L158.705 48.4682L157.253 49.4365C157.307 49.6652 157.334 49.8131 157.334 49.8131C155.99 46.8811 154.189 46.7466 153.678 46.7601C155.277 46.5718 156.191 47.3115 156.702 48.1185Z" fill="#0D3F60"/>
<path d="M153.678 46.7734C153.624 46.7734 153.583 46.7734 153.529 46.7869C153.529 46.7734 153.583 46.7734 153.678 46.7734Z" fill="#0D3F60"/>
<path d="M137.52 51.7239L139.187 51.697C139.187 51.6163 139.2 51.5356 139.2 51.4549L137.318 50.2579L139.321 50.7959C139.563 49.8679 140.222 48.8861 141.808 48.5902C141.311 48.7247 139.63 49.3972 139.227 52.5982C139.227 52.5982 139.2 52.4502 139.187 52.2216L137.52 51.7239Z" fill="#0D3F60"/>
<path d="M142.534 48.4819C142.615 48.4548 142.67 48.4548 142.67 48.4548C142.629 48.4548 142.588 48.4683 142.534 48.4819Z" fill="#0D3F60"/>
<path d="M141 83C141 83 136.167 80.4682 136.005 77.5169C135.829 74.5655 140.221 71 140.221 71" stroke="#0A8AB2" stroke-width="1.2272" stroke-miterlimit="10" stroke-linecap="round"/>
<path d="M146.155 118C146.277 116.753 146.414 115.506 146.536 114.259C146.645 113.099 146.755 111.939 146.877 110.766C146.891 110.667 146.877 110.529 147 110.455C146.877 110.392 146.741 110.492 146.605 110.417C145.964 110.068 145.2 110.081 144.518 109.856C143.523 109.532 142.473 109.382 141.464 109.095C141.137 108.995 140.81 108.896 140.482 108.846C139.923 108.771 139.364 108.659 138.86 108.497C138.055 108.26 137.223 108.135 136.446 107.885C135.914 107.711 135.342 107.711 134.824 107.524C134.142 107.274 133.419 107.187 132.724 107C132.451 107.748 132.001 108.409 131.619 109.108C130.788 110.679 129.929 112.251 129.083 113.81C128.96 114.046 128.933 114.171 129.288 114.259C130.419 114.508 131.551 114.782 132.683 115.057L146.155 118Z" fill="#D5BA76"/>
<path d="M151.981 63.0002C151.577 63.0136 151.215 63.2937 151.104 63.6938C150.603 65.481 148.919 72.1898 148.404 73.977C147.681 76.5378 143.854 90.3554 143.13 92.9295C142.365 95.6504 141.599 98.3712 140.834 101.092C140.514 102.226 140.18 103.346 139.873 104.466C139.79 104.773 139.679 104.867 139.317 104.773C137.73 104.333 136.13 103.946 134.543 103.533C133.166 103.159 132.386 103.586 132.08 104.907C132.052 105.027 131.955 105.16 132.025 105.293C131.955 105.84 132.038 106 132.567 106.28C132.943 106.467 133.486 106.494 133.889 106.614C134.418 106.76 134.947 106.894 135.49 107.027C136.631 107.321 137.758 107.601 138.899 107.894C140.277 108.241 141.669 108.601 143.046 108.948C144.271 109.255 145.44 109.481 146.637 109.895C147.235 110.095 147.834 110.041 148.098 109.455C148.182 109.175 148.293 108.894 148.363 108.614C148.571 107.774 148.07 107.014 147.194 106.787C145.468 106.347 143.742 105.894 142.003 105.467C141.669 105.387 141.655 105.253 141.724 104.987C142.643 101.772 143.534 98.5579 144.452 95.3436C145.44 91.8625 149.518 77.1113 150.506 73.6302C150.923 72.1364 152.538 65.7344 152.955 64.2406C153.15 63.5337 152.691 62.9869 151.981 63.0002Z" fill="#969E9B"/>
<path d="M145.561 87.9162C145.771 88.0832 146.086 87.9921 146.243 87.7188C146.401 87.4455 146.348 87.0812 146.138 86.9142L144.643 85.7755C144.775 85.6844 144.893 85.5781 145.011 85.4566L146.794 86.8231C147.004 86.9901 147.318 86.899 147.476 86.6257C147.633 86.3524 147.581 85.988 147.371 85.821L145.588 84.4546C145.64 84.3028 145.666 84.151 145.692 83.9991L147.227 85.1834C147.436 85.3504 147.751 85.2593 147.909 84.986C148.066 84.7127 148.013 84.3483 147.804 84.1813L145.247 82.2076C145.181 82.1165 145.102 82.0558 145.024 81.9799L145.627 82.1621C145.876 82.238 146.151 82.0558 146.243 81.737C146.335 81.4333 146.191 81.1145 145.942 81.0234L142.742 80.0214C142.624 79.9759 142.493 80.0062 142.375 80.0821C141.64 79.8999 140.827 80.2947 140.355 81.1145C139.752 82.1621 139.936 83.5437 140.762 84.1662L142.794 85.7299C142.808 85.7451 142.821 85.7451 142.834 85.7603C142.847 85.7603 142.847 85.7755 142.86 85.7755L145.561 87.9162Z" fill="#A1CBEC"/>
<path d="M151 78.2339C163.599 85.0352 166 70 166 70" stroke="#0A8AB2" stroke-width="1.2272" stroke-miterlimit="10" stroke-linecap="round"/>
<path d="M144.299 77.1997C144.039 77.0788 143.924 76.7463 144.054 76.444C144.184 76.1418 144.501 75.9906 144.761 76.1115L146.565 76.9277C146.565 76.7614 146.565 76.5801 146.594 76.4138L144.429 75.4314C144.169 75.3105 144.054 74.978 144.184 74.6757C144.313 74.3734 144.631 74.2223 144.891 74.3432L147.056 75.3256C147.143 75.2047 147.258 75.0838 147.359 74.978L145.497 74.1316C145.237 74.0107 145.122 73.6782 145.252 73.3759C145.382 73.0736 145.699 72.9224 145.959 73.0434L149.048 74.449C149.149 74.4641 149.265 74.5094 149.366 74.5397L148.86 74.056C148.644 73.8595 148.644 73.4817 148.832 73.2247C149.034 72.9678 149.366 72.9224 149.568 73.134L152.267 75.6883C152.368 75.7941 152.426 75.9302 152.426 76.0662C153.003 76.6707 153.177 77.6683 152.801 78.5751C152.31 79.7238 151.112 80.2981 150.116 79.8447L147.662 78.7263C147.648 78.7112 147.633 78.7112 147.605 78.696C147.59 78.696 147.59 78.696 147.576 78.6809L144.299 77.1997Z" fill="#A1CBEC"/>
<path d="M132 115.735L133 110L132.369 116L132 115.735Z" fill="#C9A362"/>
<path d="M198 107.862L199 106L198.667 108L198 107.862Z" fill="#C9A362"/>
<path d="M204 109.797L205 106L204.673 110L204 109.797Z" fill="#C9A362"/>
<path d="M139.042 76C139.042 76 139.769 72.661 138.24 66.9556C136.711 61.2502 143 69.8446 143 69.8446L139.042 76Z" fill="#00A0CC"/>
<path d="M139 48C139 48 139.893 45.1375 143 46.2616" stroke="#0D3F60" stroke-width="0.5311" stroke-miterlimit="10" stroke-linecap="round"/>
<path d="M156 46C156 46 154.295 40.1753 151 44.7582" stroke="#0D3F60" stroke-width="0.5311" stroke-miterlimit="10" stroke-linecap="round"/>
<path d="M208 102H104V123H208V102Z" fill="#FFE685"/>
<path d="M218 209C218 209 198.135 209 201.352 244" stroke="#108AB2" stroke-width="2.6518" stroke-miterlimit="10" stroke-linecap="round"/>
<path d="M206.898 244.048C206.253 242.732 204.544 241.866 202.569 242.017C200.038 242.205 197.987 243.961 198 245.917L198.025 250.732C198.025 250.77 198.025 250.795 198.038 250.832C198.038 250.845 198.038 250.87 198.038 250.882L198.076 257.39C198.076 257.905 198.62 258.281 199.278 258.231C199.937 258.18 200.481 257.716 200.468 257.215L200.443 253.679C200.759 253.792 201.089 253.867 201.43 253.904L201.456 258.155C201.456 258.669 202 259.046 202.658 258.996C203.316 258.945 203.861 258.481 203.848 257.98L203.823 253.729C204.139 253.641 204.43 253.528 204.709 253.39L204.734 257.039C204.734 257.553 205.278 257.93 205.936 257.879C206.595 257.829 207.139 257.365 207.126 256.864L207.088 250.782C207.139 250.581 207.164 250.381 207.177 250.18L207.645 251.309C207.835 251.785 208.519 252.011 209.151 251.81C209.784 251.61 210.139 251.071 209.949 250.594" fill="#A1CBEC"/>
<path d="M316 210C316 210 335.118 208.81 333.948 183" stroke="#108AB2" stroke-width="2.6518" stroke-miterlimit="10" stroke-linecap="round"/>
<path d="M329.491 180.507C330.017 181.96 331.595 183 333.516 183C335.964 183 338.08 181.307 338.215 179.227L338.545 174.12C338.545 174.08 338.545 174.053 338.545 174.013C338.545 174 338.558 173.973 338.558 173.96L338.998 167.053C339.035 166.507 338.533 166.067 337.897 166.067C337.261 166.067 336.698 166.507 336.673 167.053L336.429 170.813C336.135 170.68 335.817 170.573 335.486 170.493L335.78 165.987C335.817 165.44 335.315 165 334.679 165C334.043 165 333.492 165.44 333.455 165.987L333.162 170.493C332.856 170.56 332.562 170.653 332.281 170.773L332.525 166.907C332.562 166.36 332.06 165.92 331.424 165.92C330.788 165.92 330.225 166.36 330.201 166.907L329.785 173.36C329.723 173.56 329.687 173.773 329.662 173.987L329.295 172.747C329.136 172.227 328.512 171.933 327.888 172.093C327.264 172.253 326.885 172.8 327.032 173.32" fill="#A1CBEC"/>
<path d="M321 188.208C321 221.329 310.926 256.761 264 257.975C219.431 259.11 207 222 207 188.879C207 155.758 232.522 148 264 148C295.478 148 321 155.086 321 188.208Z" fill="#00A0CC"/>
<path d="M223 177C223 177 227.068 170.297 236 174.245" stroke="#0D3F60" stroke-width="1.5479" stroke-miterlimit="10" stroke-linecap="round"/>
<path d="M274 177C274 177 271.253 170.348 263 174.2" stroke="#0D3F60" stroke-width="1.5479" stroke-miterlimit="10" stroke-linecap="round"/>
<path d="M263 200C263 200 260.68 206.191 249.294 205.995C237.908 205.8 237 200 237 200H263Z" fill="#0D3F60"/>
<path d="M256 190C256 185.028 260.471 181 266 181C271.516 181 276 185.028 276 190" fill="white"/>
<path d="M224 190C224 185.028 228.921 181 235 181C241.079 181 246 185.028 246 190" fill="white"/>
<path d="M225.618 185.55L220.052 183.436L224.98 187.141C224.914 187.352 224.862 187.551 224.823 187.75L220 187.178L224.615 189.03C224.549 189.615 224.562 190 224.562 190C227.287 181.771 232.892 181.062 234 181C229.112 181.062 226.752 183.312 225.618 185.55Z" fill="#0D3F60"/>
<path d="M280 187.178L275.526 187.75C275.489 187.551 275.441 187.352 275.38 187.141L279.952 183.436L274.788 185.55C273.736 183.312 271.547 181.062 267 181C268.04 181.062 273.24 181.771 275.755 190C275.755 190 275.767 189.627 275.707 189.03L280 187.178Z" fill="#0D3F60"/>
<path d="M253 245L246.932 260.478C246.173 262.412 245.945 264.511 246.258 266.56L249.749 289.092C249.978 290.59 248.87 291.947 247.389 291.998C246.318 292.037 245.343 291.346 245.018 290.296L237.685 267.469C236.891 264.985 236.782 262.309 237.384 259.749L240.719 245.576" fill="#00A0CC"/>
<path d="M245.301 291.162L251 292L247.758 272L239 272.254L245.301 291.162Z" fill="#5652A2"/>
<path d="M234.002 293C233.908 288.724 237.635 285.157 242.327 285.004C247.019 284.865 250.906 288.208 251 292.471" fill="#4F4A47"/>
<path d="M280.142 237L285.796 256.865C286.424 258.852 287.615 260.646 289.238 262.043L306.538 273.539C307.729 274.565 306.381 275.295 305.151 276.269L304.091 277.538C303.188 278.243 304.261 278.076 303.28 277.474L282.498 268.169C280.168 266.721 278.31 264.696 277.132 262.312L270 245.19" fill="#00A0CC"/>
<path d="M303.475 278L307 273.193L292.531 264L286 269.266L303.475 278Z" fill="#5652A2"/>
<path d="M297.305 286C294.285 283.508 294.222 278.933 297.178 275.771C300.134 272.61 304.968 272.077 308 274.569" fill="#4F4A47"/>
<path d="M66.847 272.809C66.6309 273.05 66.2624 273.063 66.0209 272.847L45.1912 254.014C44.9497 253.798 44.937 253.431 45.153 253.191C45.3691 252.95 45.7376 252.937 45.9791 253.153L66.8088 271.986C67.0503 272.202 67.063 272.569 66.847 272.809Z" fill="#515252"/>
<path d="M27 301L73 301L73 274L27 274L27 301Z" fill="#444445"/>
<path d="M68.234 271.078C69.3043 271.22 70.3619 271.091 71.4322 271.129C73.5219 271.194 74.6687 272.422 75 274.892C74.9873 282.858 74.9873 290.81 75 298.776C75 299.823 74.9618 300.845 74.656 301.853C73.7513 303.392 72.3879 304 70.6422 304C57.1357 303.987 43.6291 303.987 30.1225 304C28.3896 304 27.0007 303.444 26.1343 301.853C25.8794 301.026 25.8157 300.185 25.8157 299.319C25.8285 295.983 25.8157 292.634 25.8285 289.297C25.8285 288.431 25.7265 287.681 24.8983 287.216C24.4269 286.957 24.2612 286.478 24.2102 285.974C23.9299 283.595 23.9299 281.203 24.2102 278.823C24.2612 278.409 24.3504 277.957 24.7327 277.776C25.7775 277.284 25.8922 276.405 25.8412 275.397C25.7138 273.004 27.1027 271.078 30.0079 271.103C34.3656 271.142 38.7234 271.026 43.0812 271.013C49.1337 270.987 55.1861 271.013 61.2386 271L68.234 271.078ZM67.2401 295.556C74.0826 286.634 68.0174 275.552 58.601 275.578C51.338 275.591 46.9803 281.914 47.1841 287.254C46.9548 296.552 57.8365 303.651 67.2401 295.556ZM37.0415 283.246C37.5384 283.246 37.5512 283.22 37.5512 282.276C37.5512 279.612 37.6786 280.078 36.5063 280.065C34.4803 280.039 32.4416 280.052 30.4156 280.052C30.2627 280.052 30.0971 280.065 29.9442 280.065C29.753 280.065 29.6638 280.284 29.6383 280.647C29.6383 280.737 29.6383 280.828 29.6256 280.918C29.5237 283.246 29.5237 283.246 30.6832 283.246C31.6516 283.246 32.62 283.246 33.6011 283.246C34.7352 283.246 35.8947 283.259 37.0415 283.246ZM37.0797 278.319C37.4237 278.332 37.5639 278.112 37.5639 277.401C37.5512 274.815 37.6531 275.151 36.5191 275.138C34.5186 275.125 32.5053 275.138 30.5048 275.138C30.3264 275.138 30.148 275.138 29.9696 275.151C29.753 275.164 29.6383 275.384 29.6383 275.823C29.6383 275.914 29.6383 276.004 29.6383 276.095C29.6511 278.797 29.5237 278.267 30.6832 278.306C31.6771 278.332 32.671 278.306 33.6521 278.306C34.7734 278.319 35.9202 278.293 37.0797 278.319Z" fill="#656767"/>
<path d="M59.0483 296C63.4259 295.973 67 291.922 67 286.986C67 282.104 63.366 278.013 59.0124 278C54.6227 277.987 50.9408 282.171 51.0007 287.107C51.0607 292.056 54.6587 296.04 59.0483 296Z" fill="#515252"/>
<path d="M25 287C25.5542 287 26 286.553 26 285.998V277.002C26 276.447 25.5542 276 25 276C24.4458 276 24 276.447 24 277.002V285.998C24 286.541 24.4458 287 25 287Z" fill="#444445"/>
<path d="M72 267L70 251" stroke="black" stroke-width="0.4512" stroke-miterlimit="10"/>
<path d="M76 267L84 256" stroke="black" stroke-width="0.4512" stroke-miterlimit="10"/>
<path d="M92 272L78 274" stroke="black" stroke-width="0.4512" stroke-miterlimit="10"/>
<path d="M171 194C171 194 189.923 188.315 194 166" stroke="#108AB2" stroke-width="3.073" stroke-miterlimit="10" stroke-linecap="round"/>
<path d="M179 174.92V202.843C179 221.188 174.106 243 145.549 243H135.451C107.763 243 102 221.2 102 202.843V136.104C102 120.582 114.669 108 130.297 108H150.703C166.331 108 179 120.582 179 136.104V150.929V174.92Z" fill="#00A0CC"/>
<path d="M107 195C107 195 85.745 188.185 89.429 163" stroke="#108AB2" stroke-width="3.073" stroke-miterlimit="10" stroke-linecap="round"/>
<path d="M93.7966 163.499C93.1263 165.069 91.3152 166.128 89.1748 165.988C86.4464 165.822 84.2001 163.793 84.1766 161.496L84.106 155.817C84.106 155.779 84.106 155.74 84.106 155.702C84.106 155.677 84.0943 155.664 84.0943 155.638L84.0002 147.969C83.9884 147.369 84.5647 146.91 85.2821 146.961C85.9995 146.999 86.5875 147.535 86.5875 148.135L86.6345 152.308C86.9638 152.18 87.3284 152.078 87.693 152.014L87.6342 147.012C87.6224 146.412 88.1987 145.953 88.916 146.004C89.6334 146.055 90.2215 146.578 90.2215 147.178L90.2803 152.18C90.6213 152.282 90.9388 152.41 91.2446 152.55L91.1976 148.25C91.1858 147.65 91.7621 147.191 92.4795 147.242C93.1969 147.28 93.7849 147.816 93.7849 148.416L93.8672 155.587C93.926 155.817 93.9613 156.06 93.973 156.289L94.4552 154.949C94.6551 154.388 95.3843 154.107 96.0664 154.324C96.7485 154.541 97.1484 155.179 96.9484 155.74" fill="#A1CBEC"/>
<path d="M188.038 169.328C188.076 171.048 189.462 172.781 191.636 173.578C194.407 174.59 197.432 173.717 198.385 171.643L200.712 166.508C200.724 166.47 200.737 166.432 200.75 166.394C200.762 166.381 200.775 166.356 200.788 166.343L203.928 159.412C204.169 158.868 203.788 158.21 203.063 157.944C202.339 157.679 201.551 157.906 201.296 158.45L199.58 162.22C199.301 161.954 198.983 161.714 198.64 161.499L200.686 156.97C200.928 156.426 200.546 155.769 199.822 155.503C199.097 155.237 198.309 155.465 198.055 156.009L196.008 160.537C195.64 160.487 195.258 160.461 194.902 160.461L196.669 156.578C196.911 156.034 196.529 155.377 195.805 155.111C195.08 154.845 194.292 155.073 194.038 155.617L191.102 162.093C190.949 162.283 190.822 162.473 190.72 162.688L190.784 161.258C190.809 160.664 190.199 160.095 189.436 159.993C188.674 159.892 188.025 160.31 188 160.904" fill="#A1CBEC"/>
<path d="M146 158C146 158 147.689 165.211 156.016 164.995C164.343 164.78 165 158 165 158H146Z" fill="#0D3F60"/>
<path d="M152 235.955L161.786 253.84C163.004 256.077 163.581 258.576 163.423 261.101L161.799 288.798C161.694 290.63 163.292 292.134 165.205 291.99C166.594 291.886 167.746 290.918 168.048 289.609L174.585 261.036C175.292 257.922 175.096 254.677 173.995 251.668L167.891 235" fill="#00A0CC"/>
<path d="M168.245 290.244L162 292L163.195 266.812L173 266L168.245 290.244Z" fill="#EC1651"/>
<path d="M181 290.57C180.622 286.017 176.08 282.631 170.831 283.032C165.595 283.421 161.647 287.435 162.025 292" fill="#4F4A47"/>
<path d="M123.033 227L124.387 251.421C124.454 253.888 123.784 256.341 122.456 258.526L105.423 273.619C104.457 275.203 105.208 277.184 107.032 277.81C108.347 278.27 109.862 277.874 110.747 276.826L132.676 262.91C134.795 260.418 136.149 257.453 136.552 254.348L138 232.47" fill="#00A0CC"/>
<path d="M108.898 282L103 277.655L119.154 262L125 268.504L108.898 282Z" fill="#EC1651"/>
<path d="M113.839 291C117.64 288.086 118.074 282.285 114.808 278.046C111.542 273.808 105.802 272.722 102 275.636" fill="#4F4A47"/>
<path d="M228.699 183.643C227.941 184.62 227.358 185.805 227 187.12C228.382 188.344 230.285 188.318 231.636 186.873C233.017 185.401 233.365 182.966 232.608 181C231.585 181.247 230.643 181.742 229.814 182.458L228.699 183.643Z" fill="#0D3F60"/>
<path d="M257.982 183.643C257.098 184.62 256.418 185.805 256 187.12C257.612 188.344 259.832 188.318 261.408 186.873C263.02 185.401 263.426 182.966 262.543 181C261.349 181.247 260.25 181.742 259.283 182.458L257.982 183.643Z" fill="#0D3F60"/>
<path d="M178 151C178 146.588 174.201 143 169.5 143C164.813 143 161 146.576 161 151" fill="white"/>
<path d="M152 151C152 146.588 148.201 143 143.5 143C138.799 143 135 146.576 135 151" fill="white"/>
<path d="M168 151C168 148.787 169.564 147 171.5 147C173.436 147 175 148.787 175 151" fill="#0D3F60"/>
<path d="M142 151C142 148.787 143.787 147 146 147C148.213 147 150 148.787 150 151" fill="#0D3F60"/>
<path d="M135 139C135 139 138.121 133.971 145 136.936" stroke="#0D3F60" stroke-width="1.2798" stroke-miterlimit="10" stroke-linecap="round"/>
<path d="M175 139C175 139 172.756 134.016 166 136.896" stroke="#0D3F60" stroke-width="1.2798" stroke-miterlimit="10" stroke-linecap="round"/>
<path d="M136.41 147.541L132.037 145.905L135.914 148.78C135.865 148.943 135.828 149.095 135.791 149.259L132 148.815L135.617 150.252C135.568 150.708 135.58 151 135.58 151C137.723 144.608 142.12 144.047 143 144C139.16 144.047 137.302 145.8 136.41 147.541Z" fill="#0D3F60"/>
<path d="M181 147.815L177.209 148.259C177.172 148.107 177.135 147.943 177.086 147.78L180.963 144.905L176.59 146.541C175.698 144.8 173.84 143.047 170 143C170.88 143.047 175.277 143.596 177.42 150C177.42 150 177.432 149.708 177.383 149.252L181 147.815Z" fill="#0D3F60"/>
</svg>
