<svg width="383" height="326" viewBox="0 0 383 326" fill="none" xmlns="http://www.w3.org/2000/svg">
<path d="M0 309V20C0 8.95431 8.95431 0 20 0H363C374.046 0 383 8.95431 383 20V309" fill="#FFE685"/>
<path d="M383 133H0V297H383V133Z" fill="#2E9E48"/>
<path d="M363 143H20C8.95431 143 0 151.954 0 163V306C0 317.046 8.95431 326 20 326H363C374.046 326 383 317.046 383 306V163C383 151.954 374.046 143 363 143Z" fill="#2E9E48"/>
<path d="M207.574 58.5018C207.574 35.9937 188.238 18.3262 163.812 18.3262C139.386 18.3262 119.587 36.5668 119.587 59.0871V96.3973H207.513V65.3786C207.513 65.3786 207.574 60.6355 207.574 58.5018Z" fill="#FBD95B"/>
<path d="M0 133.525H47.5856V61.0622C47.5856 61.0622 47.6465 56.3313 47.6465 54.1854C47.6465 31.6773 24.6573 14.0098 0.231353 14.0098" fill="#954F22"/>
<path d="M119.59 96.3691L207.517 96.3691L207.517 72.8368L119.59 72.8368L119.59 96.3691Z" fill="#FFCA05"/>
<path d="M207.757 93.9707H119.344V98.8235H207.757V93.9707Z" fill="#FFCA05"/>
<path d="M36.4779 85.0585C38.334 85.0585 39.8386 83.9012 39.8386 82.4736C39.8386 81.046 38.334 79.8887 36.4779 79.8887C34.6218 79.8887 33.1172 81.046 33.1172 82.4736C33.1172 83.9012 34.6218 85.0585 36.4779 85.0585Z" fill="#838383"/>
<path d="M114.711 282.652H107.998V253.891H53.8387V282.652H46.9736V251.194H47.0878V245.069H114.711V251.282V282.652Z" fill="#FAAC18"/>
<path d="M115.713 231.382H46.5164C43.8897 231.382 41.7578 233.499 41.7578 236.108V242.296C41.7578 244.905 43.8897 247.022 46.5164 247.022H115.713C118.34 247.022 120.471 244.905 120.471 242.296V236.108C120.471 233.499 118.34 231.382 115.713 231.382Z" fill="#E49425"/>
<path d="M209.439 254.597C209.236 254.824 208.88 254.836 208.652 254.635L188.907 236.826C188.679 236.624 188.666 236.272 188.869 236.045C189.072 235.818 189.427 235.805 189.656 236.007L209.401 253.816C209.629 254.017 209.642 254.37 209.439 254.597Z" fill="#515252"/>
<path d="M172.495 279.867L214.396 279.867L214.396 255.845L172.495 255.845L172.495 279.867Z" fill="#444445"/>
<path d="M210.796 252.782C211.799 252.921 212.814 252.795 213.817 252.833C215.796 252.896 216.875 254.03 217.192 256.311C217.179 263.684 217.179 271.045 217.192 278.418C217.192 279.388 217.154 280.333 216.875 281.266C216.012 282.69 214.73 283.257 213.081 283.257C200.302 283.245 187.536 283.245 174.758 283.257C173.121 283.257 171.814 282.74 170.976 281.266C170.735 280.497 170.672 279.716 170.672 278.922C170.685 275.834 170.672 272.733 170.685 269.646C170.685 268.851 170.596 268.146 169.809 267.717C169.365 267.478 169.213 267.037 169.149 266.57C168.883 264.365 168.883 262.159 169.149 259.953C169.2 259.575 169.276 259.147 169.644 258.983C170.634 258.529 170.735 257.71 170.685 256.777C170.57 254.559 171.877 252.782 174.631 252.807C178.755 252.833 182.879 252.732 187.003 252.719C192.726 252.706 198.449 252.719 204.172 252.706L210.796 252.782ZM209.857 275.443C216.329 267.188 210.593 256.929 201.685 256.941C194.808 256.954 190.696 262.802 190.886 267.742C190.671 276.363 200.962 282.942 209.857 275.443ZM181.293 264.05C181.763 264.05 181.775 264.024 181.775 263.155C181.775 260.684 181.902 261.126 180.798 261.113C178.882 261.088 176.953 261.1 175.037 261.113C174.885 261.113 174.733 261.126 174.593 261.126C174.415 261.126 174.326 261.327 174.301 261.668C174.301 261.756 174.301 261.831 174.288 261.92C174.187 264.075 174.187 264.075 175.278 264.075C176.192 264.075 177.118 264.075 178.032 264.075C179.123 264.05 180.214 264.062 181.293 264.05ZM181.331 259.487C181.648 259.5 181.788 259.298 181.788 258.63C181.775 256.235 181.877 256.551 180.798 256.538C178.907 256.525 177.004 256.538 175.113 256.538C174.948 256.538 174.771 256.538 174.606 256.551C174.403 256.563 174.288 256.765 174.288 257.168C174.288 257.256 174.288 257.332 174.288 257.42C174.301 259.928 174.174 259.437 175.265 259.462C176.205 259.487 177.144 259.462 178.083 259.462C179.149 259.487 180.24 259.462 181.331 259.487Z" fill="#656767"/>
<path d="M201.837 276.048C206.241 276.023 209.819 272.418 209.832 268.007C209.832 263.646 206.19 260.004 201.799 259.979C197.383 259.966 193.678 263.709 193.754 268.108C193.818 272.532 197.434 276.086 201.837 276.048Z" fill="#515252"/>
<path d="M169.885 268.083C170.431 268.083 170.888 267.642 170.888 267.087V258.164C170.888 257.622 170.444 257.168 169.885 257.168C169.34 257.168 168.883 257.609 168.883 258.164V267.087C168.883 267.629 169.34 268.083 169.885 268.083Z" fill="#444445"/>
<path d="M213.893 249.757L212.256 234.381" stroke="black" stroke-width="0.4285" stroke-miterlimit="10"/>
<path d="M218.067 249.644L225.135 238.641" stroke="black" stroke-width="0.4285" stroke-miterlimit="10"/>
<path d="M232.166 253.513L220.352 255.013" stroke="black" stroke-width="0.4285" stroke-miterlimit="10"/>
<path d="M200.936 111.813C200.936 111.813 187.562 111.813 189.719 136.163" stroke="#108AB2" stroke-width="1.926" stroke-miterlimit="10" stroke-linecap="round"/>
<path d="M193.195 136.377C192.726 135.406 191.482 134.789 190.036 134.89C188.196 135.028 186.698 136.314 186.711 137.738L186.736 141.254C186.736 141.28 186.736 141.305 186.736 141.33C186.736 141.343 186.736 141.355 186.736 141.368L186.762 146.119C186.762 146.497 187.155 146.762 187.637 146.737C188.12 146.699 188.513 146.371 188.513 145.993L188.5 143.41C188.729 143.485 188.97 143.548 189.224 143.573L189.236 146.674C189.236 147.052 189.63 147.317 190.112 147.279C190.594 147.241 190.987 146.913 190.987 146.535L190.975 143.435C191.203 143.372 191.419 143.284 191.622 143.195L191.635 145.855C191.635 146.233 192.028 146.497 192.51 146.46C192.992 146.422 193.386 146.094 193.386 145.716L193.36 141.28C193.398 141.141 193.411 140.99 193.424 140.838L193.766 141.658C193.906 141.998 194.401 142.174 194.858 142.023C195.315 141.885 195.581 141.481 195.429 141.128" fill="#A1CBEC"/>
<path d="M271.96 97.092C271.96 120.585 264.79 145.716 231.391 146.56C199.667 147.367 190.822 121.051 190.822 97.5583C190.822 74.0655 208.981 68.5704 231.391 68.5704C253.801 68.5704 271.96 73.5992 271.96 97.092Z" fill="#00A0CC"/>
<path d="M205.251 89.1264C205.251 89.1264 207.992 83.6186 213.994 86.8704" stroke="#0D3F60" stroke-width="1.1243" stroke-miterlimit="10" stroke-linecap="round"/>
<path d="M241.137 89.1265C241.137 89.1265 239.145 83.5179 233.13 86.757" stroke="#0D3F60" stroke-width="1.1243" stroke-miterlimit="10" stroke-linecap="round"/>
<path d="M233.548 105.599C233.548 105.599 231.86 109.935 223.536 109.809C215.212 109.67 214.552 105.599 214.552 105.599H233.548Z" fill="#0D3F60"/>
<path d="M227.609 98.9445C227.609 95.1887 230.883 92.1387 234.931 92.1387C238.967 92.1387 242.241 95.1887 242.241 98.9445" fill="white"/>
<path d="M205.86 98.9445C205.86 95.1887 209.147 92.1387 213.22 92.1387C217.281 92.1387 220.58 95.1887 220.58 98.9445" fill="white"/>
<path d="M206.609 95.4788L202.675 93.9286L206.164 96.6635C206.126 96.8148 206.088 96.966 206.05 97.1173L202.637 96.6887L205.898 98.0499C205.86 98.4784 205.86 98.7557 205.86 98.7557C207.789 92.6934 211.748 92.1767 212.535 92.1263C209.083 92.1767 207.408 93.8403 206.609 95.4788Z" fill="#0D3F60"/>
<path d="M245.477 96.6887L242.063 97.1173C242.025 96.966 242 96.8274 241.949 96.6635L245.439 93.9286L241.505 95.4788C240.706 93.8277 239.031 92.1767 235.566 92.1263C236.353 92.1641 240.325 92.6934 242.241 98.7557C242.241 98.7557 242.254 98.4784 242.203 98.0499L245.477 96.6887Z" fill="#0D3F60"/>
<path d="M226.671 136.957L222.026 148.022C221.442 149.409 221.265 150.909 221.506 152.371L224.171 168.478C224.348 169.549 223.498 170.52 222.369 170.557C221.544 170.583 220.808 170.091 220.554 169.348L214.933 153.026C214.324 151.249 214.235 149.333 214.704 147.506L217.255 137.373" fill="#00A0CC"/>
<path d="M220.491 169.889L224.514 170.494L222.23 156.076L216.05 156.252L220.491 169.889Z" fill="#5652A2"/>
<path d="M212.826 170.835C212.763 168.024 215.326 165.68 218.549 165.579C221.773 165.491 224.45 167.684 224.513 170.494" fill="#4F4A47"/>
<path d="M245.236 131.411L249.221 145.603C249.665 147.027 250.502 148.3 251.644 149.308L263.826 157.525C264.664 158.256 263.712 158.786 262.849 159.479L262.113 160.386C261.479 160.891 262.227 160.777 261.542 160.336L246.898 153.694C245.249 152.661 243.942 151.211 243.117 149.51L238.092 137.284" fill="#00A0CC"/>
<path d="M261.847 160.79L264.41 157.336L253.89 150.745L249.132 154.526L261.847 160.79Z" fill="#5652A2"/>
<path d="M257.316 166.423C255.12 164.583 255.082 161.206 257.227 158.874C259.371 156.542 262.886 156.139 265.082 157.979" fill="#4F4A47"/>
<path d="M228.98 98.9824C228.98 97.344 230.326 96.008 231.975 96.008C233.625 96.008 234.97 97.344 234.97 98.9824" fill="#0D3F60"/>
<path d="M208.499 98.9824C208.499 97.344 209.844 96.008 211.494 96.008C213.143 96.008 214.489 97.344 214.489 98.9824" fill="#0D3F60"/>
<path d="M263.191 116.375C263.191 116.375 276.604 117.207 278.165 98.6042" stroke="#108AB2" stroke-width="1.926" stroke-miterlimit="10" stroke-linecap="round"/>
<path d="M275.373 95.2393C275.64 96.2728 276.731 97.1424 278.165 97.3189C279.992 97.5458 281.718 96.6005 281.997 95.2015L282.695 91.7482C282.695 91.723 282.708 91.6978 282.708 91.6726C282.708 91.66 282.721 91.6473 282.721 91.6347L283.66 86.9715C283.736 86.606 283.406 86.2531 282.924 86.2027C282.442 86.1396 281.997 86.3917 281.921 86.7572L281.414 89.2905C281.211 89.1645 280.982 89.0636 280.741 88.988L281.35 85.9506C281.426 85.5851 281.096 85.2322 280.614 85.1818C280.132 85.1188 279.688 85.3708 279.612 85.7363L279.003 88.7738C278.762 88.7864 278.533 88.8242 278.317 88.8872L278.838 86.2783C278.914 85.9128 278.584 85.5599 278.102 85.5095C277.62 85.4465 277.175 85.6985 277.099 86.064L276.224 90.4122C276.16 90.5508 276.109 90.6895 276.071 90.8281L275.906 89.9585C275.843 89.593 275.386 89.3283 274.904 89.3787C274.422 89.4291 274.092 89.7694 274.155 90.1349" fill="#A1CBEC"/>
<path d="M290.449 156.013C290.449 156.013 273.876 160.26 269.917 178.296" stroke="#108AB2" stroke-width="2.6357" stroke-miterlimit="10" stroke-linecap="round"/>
<path d="M283.063 143.044V166.461C283.063 181.85 287.162 200.125 311.108 200.125H319.571C342.781 200.125 347.616 181.838 347.616 166.461V110.502C347.616 97.4827 336.994 86.9337 323.886 86.9337H306.78C293.672 86.9337 283.051 97.4827 283.051 110.502V122.942V143.044H283.063Z" fill="#00A0CC"/>
<path d="M343.123 160.248C343.123 160.248 361.637 154.362 358.439 132.583" stroke="#108AB2" stroke-width="2.6357" stroke-miterlimit="10" stroke-linecap="round"/>
<path d="M354.239 133.44C354.861 134.776 356.536 135.658 358.516 135.545C361.041 135.406 363.122 133.692 363.147 131.739L363.211 126.924C363.211 126.886 363.211 126.861 363.211 126.823C363.211 126.811 363.224 126.786 363.224 126.773L363.312 120.27C363.325 119.766 362.779 119.375 362.132 119.413C361.472 119.45 360.927 119.904 360.927 120.408L360.876 123.95C360.571 123.836 360.242 123.761 359.886 123.698L359.937 119.45C359.95 118.946 359.404 118.556 358.757 118.593C358.097 118.631 357.551 119.085 357.551 119.589L357.501 123.836C357.183 123.925 356.891 124.025 356.6 124.152L356.65 120.509C356.663 120.005 356.117 119.614 355.47 119.652C354.81 119.69 354.265 120.144 354.265 120.648L354.189 126.723C354.138 126.912 354.1 127.113 354.087 127.315L353.643 126.181C353.453 125.702 352.793 125.462 352.158 125.651C351.524 125.84 351.156 126.382 351.346 126.849" fill="#A1CBEC"/>
<path d="M275.437 175.939C275.437 174.477 274.295 172.965 272.443 172.246C270.095 171.326 267.481 172.007 266.631 173.771L264.537 178.119C264.524 178.145 264.512 178.182 264.499 178.208C264.486 178.22 264.474 178.233 264.474 178.245L261.644 184.106C261.428 184.572 261.745 185.14 262.354 185.379C262.964 185.619 263.649 185.442 263.877 184.976L265.413 181.787C265.641 182.014 265.907 182.228 266.199 182.417L264.359 186.249C264.144 186.715 264.461 187.282 265.07 187.522C265.679 187.761 266.364 187.585 266.593 187.118L268.433 183.287C268.75 183.337 269.067 183.375 269.384 183.375L267.798 186.665C267.583 187.131 267.9 187.698 268.509 187.938C269.118 188.177 269.803 188.001 270.032 187.534L272.671 182.052C272.798 181.901 272.912 181.724 273.014 181.548L272.938 182.77C272.899 183.274 273.407 183.778 274.067 183.867C274.714 183.967 275.285 183.627 275.31 183.11" fill="#A1CBEC"/>
<path d="M311.615 128.021C311.615 128.021 310.245 133.806 303.481 133.629C296.73 133.453 296.197 128.021 296.197 128.021H311.615Z" fill="#0D3F60"/>
<path d="M307.275 194.529L299.877 209.678C298.951 211.569 298.583 213.661 298.811 215.728L301.285 238.527C301.45 240.04 300.181 241.338 298.595 241.3C297.441 241.275 296.438 240.519 296.146 239.46L289.56 216.144C288.837 213.598 288.875 210.913 289.674 208.38L294.052 194.378" fill="#00A0CC"/>
<path d="M296.019 240.217L301.603 241.376L299.534 220.984L290.854 220.757L296.019 240.217Z" fill="#EC1651"/>
<path d="M285.195 240.948C285.322 237.003 289.104 233.915 293.634 234.028C298.164 234.142 301.73 237.444 301.603 241.376" fill="#4F4A47"/>
<path d="M331.588 185.82L331.512 206.502C331.563 208.594 332.21 210.636 333.365 212.426L347.793 224.512C348.643 225.811 348.11 227.512 346.664 228.117C345.61 228.558 344.367 228.281 343.605 227.436L325.244 216.547C323.416 214.531 322.211 212.073 321.741 209.464L319.66 191.038" fill="#00A0CC"/>
<path d="M345.827 230.474L350.611 226.781L336.424 214.984L331.754 220.404L345.827 230.474Z" fill="#EC1651"/>
<path d="M341.829 238.729C338.466 236.511 337.87 231.797 340.484 228.205C343.098 224.613 347.946 223.492 351.296 225.71" fill="#4F4A47"/>
<path d="M110.459 184.27C110.459 184.27 132.26 192.475 154.289 165.44" stroke="#108AB2" stroke-width="3.8972" stroke-miterlimit="10" stroke-linecap="round"/>
<path d="M151.371 150.568C151.549 149.85 152.424 149.51 153.325 149.8C154.226 150.09 154.823 150.921 154.658 151.64L154.251 153.354C154.429 153.127 154.632 152.913 154.861 152.724L159.962 145.565C160.393 144.96 161.408 144.872 162.221 145.363C163.033 145.855 163.35 146.75 162.919 147.342L159.86 151.64C160.304 151.715 160.749 151.829 161.18 151.993L164.746 147.002C165.177 146.397 166.192 146.308 167.005 146.8C167.817 147.292 168.134 148.186 167.702 148.779L164.137 153.77C164.505 154.11 164.835 154.476 165.101 154.866L168.07 150.694C168.502 150.09 169.517 150.001 170.329 150.493C171.141 150.984 171.459 151.879 171.027 152.472L165.571 160.122C165.558 160.147 165.533 160.16 165.52 160.172C165.494 160.21 165.469 160.26 165.444 160.298L161.408 165.97C159.771 168.264 155.888 168.604 152.767 166.739C150.318 165.264 149.061 162.844 149.417 160.752L151.371 150.568Z" fill="#A1CBEC"/>
<path d="M88.57 71.9355C121.449 71.9355 148.11 80.0017 148.11 114.485C148.11 123.231 146.942 132.041 145.711 140.687C144.341 150.278 141.625 159.844 139.087 169.209C137.971 173.33 136.778 176.935 137.209 181.258C137.577 185.051 139.544 188.895 141.245 192.311C145.838 201.524 147.056 211.002 143.656 220.845C141.397 227.374 135.94 232.579 129.837 235.843C117.172 242.611 112.173 242.271 86.3239 242.271C70.9948 242.271 54.9932 241.111 42.4178 231.331C37.2278 227.298 33.4716 221.841 31.3906 215.64C30.1597 211.972 30.0074 210.384 29.5379 206.591C28.878 201.348 30.6038 194.643 32.5834 189.878C35.5654 182.732 38.4587 173.191 36.4918 165.365C31.9108 147.102 29.043 123.042 29.043 113.792C29.0303 79.3085 55.6912 71.9355 88.57 71.9355Z" fill="#00A0CC"/>
<path d="M105.878 134.373C105.878 134.373 107.693 141.204 118.098 141.456C128.504 141.708 129.608 135.419 129.608 135.419L105.878 134.373Z" fill="#0D3F60"/>
<path d="M112.274 124.857C112.274 120.156 108.175 116.337 103.125 116.337C98.0743 116.337 93.9756 120.156 93.9756 124.857" fill="white"/>
<path d="M109.647 124.857C109.647 122.677 107.87 120.9 105.662 120.9C103.467 120.9 101.678 122.664 101.678 124.857" fill="#0D3F60"/>
<path d="M139.48 124.857C139.48 120.156 135.369 116.337 130.28 116.337C125.204 116.337 121.08 120.144 121.08 124.857" fill="white"/>
<path d="M136.841 124.857C136.841 122.677 135.065 120.9 132.857 120.9C130.649 120.9 128.872 122.664 128.872 124.857" fill="#0D3F60"/>
<path d="M138.681 120.837L143.44 118.757L139.227 122.412C139.278 122.626 139.316 122.815 139.354 123.017L143.478 122.45L139.532 124.277C139.582 124.857 139.57 125.223 139.57 125.223C137.362 117.522 132.946 116.501 131.677 116.362C135.737 116.488 137.73 118.656 138.681 120.837Z" fill="#0D3F60"/>
<path d="M131.689 116.362C131.562 116.362 131.461 116.337 131.334 116.337C131.334 116.337 131.474 116.337 131.689 116.362Z" fill="#0D3F60"/>
<path d="M89.8389 122.438L93.963 123.005C94.0011 122.816 94.0391 122.614 94.0899 122.4L89.8769 118.745L94.6355 120.824C95.5873 118.657 97.5795 116.476 101.628 116.35C100.359 116.489 95.9426 117.51 93.7346 125.21C93.7346 125.21 93.7219 124.832 93.7726 124.265L89.8389 122.438Z" fill="#0D3F60"/>
<path d="M103.48 116.362C103.696 116.337 103.836 116.337 103.836 116.337C103.709 116.337 103.607 116.362 103.48 116.362Z" fill="#0D3F60"/>
<path d="M60.208 173.015C60.208 173.015 70.4612 193.811 105.142 189.084" stroke="#108AB2" stroke-width="3.8972" stroke-miterlimit="10" stroke-linecap="round"/>
<path d="M124.71 233.209L135.166 280.182L128.288 282.64L106.373 239.889" fill="#00A0CC"/>
<path d="M100.054 237.116L102.363 285.161L95.1556 286.421L80.6387 239.41" fill="#00A0CC"/>
<path d="M127.59 282.879L117.87 265.033L130.94 260.382L134.595 278.632L127.59 282.879Z" fill="#56C4CF"/>
<path d="M94.5718 286.358L89.1914 267.1L101.386 264.97L102.985 286.269L94.5718 286.358Z" fill="#56C4CF"/>
<path d="M128.377 283.875C126.08 277.523 129.405 270.528 135.8 268.259C142.196 265.978 149.238 269.28 151.522 275.632" fill="#4F4A47"/>
<path d="M119.836 283.761C118.656 277.119 112.286 272.683 105.599 273.855C98.9112 275.027 94.4445 281.354 95.6246 287.996" fill="#4F4A47"/>
<path d="M113.264 176.241C113.886 175.838 114.761 176.178 115.218 177.01C115.675 177.842 115.535 178.85 114.913 179.254L113.429 180.224C113.721 180.174 114.012 180.161 114.304 180.174L122.946 178.422C123.669 178.271 124.481 178.901 124.735 179.808C124.989 180.716 124.608 181.585 123.885 181.737L118.695 182.783C118.961 183.136 119.202 183.526 119.418 183.942L125.458 182.72C126.182 182.568 126.994 183.199 127.248 184.106C127.501 185.013 127.121 185.883 126.397 186.034L120.357 187.257C120.383 187.761 120.37 188.24 120.306 188.706L125.344 187.685C126.068 187.534 126.88 188.164 127.133 189.072C127.387 189.979 127.007 190.849 126.283 191L117.033 192.878C117.007 192.878 116.982 192.878 116.956 192.878C116.906 192.891 116.868 192.903 116.817 192.916L109.964 194.302C107.185 194.869 104.114 192.475 103.137 188.984C102.376 186.249 103.125 183.614 104.825 182.342L113.264 176.241Z" fill="#A1CBEC"/>
<path d="M135.787 111.309C135.787 111.309 132.069 105.196 125.42 109.544" stroke="#0D3F60" stroke-width="1.3085" stroke-miterlimit="10" stroke-linecap="round"/>
<path d="M97.3252 111.649C97.3252 111.649 99.7997 105.171 106.703 109.103" stroke="#0D3F60" stroke-width="1.3085" stroke-miterlimit="10" stroke-linecap="round"/>
<path d="M284.738 121.518C284.738 117.434 288.076 114.119 292.187 114.119C296.299 114.119 299.636 117.434 299.636 121.518" fill="white"/>
<path d="M308.315 121.518C308.315 117.434 311.653 114.119 315.764 114.119C319.876 114.119 323.213 117.434 323.213 121.518" fill="white"/>
<path d="M293.367 121.58C293.367 119.728 291.857 118.228 289.992 118.228C288.126 118.228 286.616 119.728 286.616 121.58" fill="#0D3F60"/>
<path d="M317.16 121.58C317.16 119.728 315.65 118.228 313.785 118.228C311.919 118.228 310.409 119.728 310.409 121.58" fill="#0D3F60"/>
<path d="M323.29 111.006C323.29 111.006 320.346 105.095 313.899 108.574" stroke="#0D3F60" stroke-width="1.2078" stroke-miterlimit="10" stroke-linecap="round"/>
<path d="M285.932 111.006C285.932 111.006 288.076 104.982 294.535 108.46" stroke="#0D3F60" stroke-width="1.2078" stroke-miterlimit="10" stroke-linecap="round"/>
<path d="M322.567 117.862L326.792 116.199L323.049 119.135C323.099 119.299 323.138 119.463 323.163 119.614L326.83 119.16L323.328 120.622C323.379 121.089 323.366 121.391 323.366 121.391C321.298 114.888 317.046 114.321 316.196 114.27C319.902 114.308 321.704 116.085 322.567 117.862Z" fill="#0D3F60"/>
<path d="M281.274 119.11L284.942 119.564C284.98 119.413 285.018 119.249 285.056 119.085L281.312 116.148L285.538 117.812C286.401 116.035 288.19 114.258 291.908 114.208C291.058 114.258 286.807 114.812 284.739 121.328C284.739 121.328 284.726 121.026 284.777 120.56L281.274 119.11Z" fill="#0D3F60"/>
</svg>
