<?xml version="1.0" encoding="utf-8"?>
<!-- Generator: Adobe Illustrator 25.0.1, SVG Export Plug-In . SVG Version: 6.00 Build 0)  -->
<svg version="1.1" id="Layer_1" xmlns="http://www.w3.org/2000/svg" xmlns:xlink="http://www.w3.org/1999/xlink" x="0px" y="0px"
	 viewBox="0 0 283.1 179.9" style="enable-background:new 0 0 283.1 179.9;" xml:space="preserve">
<style type="text/css">
	.st0{fill:#FFFFFF;}
</style>
<g>
	<path class="st0" d="M218.5,32c-10.9,0-19.7,8.8-19.7,19.7c0,10.8,8.8,19.7,19.7,19.7c10.8,0,19.7-8.8,19.7-19.7
		C238.2,40.8,229.4,32,218.5,32 M233.9,40.7c-1,0.7-2.1,1.3-3.2,1.8c-0.6-1.3-1.4-2.5-2.4-3.7c0.8-0.5,1.6-1.1,2.3-1.7
		C231.8,38.2,232.9,39.4,233.9,40.7 M225.6,34.1c1.6,0.6,3.1,1.5,4.4,2.5c-0.7,0.6-1.4,1.1-2.2,1.5c-1-1.1-2-2.1-3.2-3
		C224.9,34.9,225.3,34.5,225.6,34.1 M227.1,38.6c-1.1,0.6-2.2,1-3.3,1.4c-0.5-1.1-1-2.2-1.7-3.2c0.6-0.3,1.2-0.6,1.8-1.1
		C225.1,36.6,226.2,37.5,227.1,38.6 M224.8,33.8c-0.3,0.3-0.6,0.6-0.9,0.9c-1-0.7-2.1-1.3-3.3-1.8C222.1,33.1,223.4,33.4,224.8,33.8
		 M223.3,35.3c-0.5,0.4-1,0.6-1.5,0.8c-0.6-0.9-1.2-1.8-1.9-2.6C221,33.9,222.2,34.5,223.3,35.3 M218.9,33.6c0.7,0.9,1.4,1.8,2,2.8
		c-0.7,0.2-1.3,0.3-2,0.4V33.6L218.9,33.6z M218.9,37.5c0.8,0,1.7-0.2,2.5-0.5c0.6,1,1.1,2,1.6,3.1c-1.3,0.4-2.7,0.5-4.1,0.6V37.5
		L218.9,37.5z M218.1,33.6v3.1c-0.7,0-1.3-0.1-2-0.4C216.7,35.4,217.4,34.5,218.1,33.6 M215.3,36.1c-0.5-0.2-1.1-0.5-1.5-0.8
		c1.1-0.7,2.2-1.3,3.4-1.8C216.5,34.3,215.9,35.2,215.3,36.1 M216.5,32.9c-1.2,0.5-2.3,1.1-3.3,1.8c-0.3-0.3-0.6-0.6-0.9-0.9
		C213.6,33.4,215,33,216.5,32.9 M229.9,66.7c-2.6-1.4-2.7-3.4-2.5-4.2c0.1-0.7,0.6-0.4,1-0.4c1.7,0,3.5-0.5,5.8-2.8
		c2.5-2.6,3.3-8.3-0.6-12c-4.2-4-8.6-3.3-11.4,0.3c-0.6,0.7-2,1.3-3.2,1.2c-1.8-0.1-0.7,1.4-0.7,1.7c0,0.3-0.3,0.5-0.5,0.5
		c-0.6-0.2-0.4,0.7-0.4,1c0,0.3-0.2,0.4-0.4,0.4c-0.8,0-0.6,0.7-0.5,0.9c0,0.2,0,0.5-0.3,0.6c-0.2,0.1-0.5,0.7-0.5,1.2
		c0,0.8,0.8,1.4,2,2.4c1.3,1,1.4,1.9,1.4,2.5c0,0.6,0.1,1.7,0.4,2.4c0.4,0.8,0.3,2.4-1.5,2.4c-2.1,0.1-6,1.8-6.3,1.9
		c-1.2,0.4-2.8,0.6-4.1,0.3c-0.7-0.5-1.3-1-1.9-1.6c-0.2-0.9,0.2-1.8,0.6-2.4c0.7,0.7,1.8,0.7,2.4,0.7c0.6,0,3.6-0.4,4-0.6
		c0.4-0.1,0.6-0.1,0.8,0c1.1,0.4,2.7,0.5,3.3-1.6c0.6-2.1-0.8-1.5-1.1-1.5c-0.2,0.1-0.5,0.1-0.4-0.1c0.3-0.6-0.1-0.5-0.4-0.5
		c-0.6-0.1-1.4,0.6-1.7,0.8c-0.2,0.2-0.5,0.2-0.6,0.2c-0.8-0.4-3.2,0.2-3.9-1.1c0.1-0.4-0.6-5.6-1-6.5c-0.1-0.2-0.1-0.5,0.1-0.8
		c0.6-0.9,2.3,0.1,3.2,0c1.1,0,1.3-0.5,1.5-0.8c0.3-0.4,0.5-0.1,0.6-0.2c0.2-0.1,0-0.4,0.1-0.5c0.1-0.1,0.1-0.1,0.3-0.2
		c0.2-0.2,0-0.5,0.1-0.6c0.3-0.4,1-0.1,0.6-1.1c-0.2-0.6,0.1-1.2,0.4-1.6c0.5-0.7,2.6-3.6-1-6.5c-3.4-2.8-6.9-2.6-9.1-0.2
		c-2.2,2.4-1.1,5.9-0.9,6.9c0.2,0.9-0.4,1.8-1.2,2.1c-0.6,0.3-2,1.2-3.1,2.1c0.2-7.6,4.8-14.3,11.8-17.1c0.3,0.4,0.6,0.7,1,1.1
		c-0.8,0.6-2.5,2.1-2.5,2.1s0.2,0,0.5,0.1c0.1,0,0.5,0.1,0.5,0.1s1.5-1.3,2.2-1.8c0.6,0.4,1.2,0.8,1.8,1.1c-0.4,0.6-1.2,2.2-1.2,2.2
		s0.2,0.1,0.4,0.2c0.2,0.1,0.3,0.2,0.3,0.2s0.9-1.8,1.3-2.4c0.8,0.2,1.6,0.4,2.5,0.5v3.2c-0.5,0-1.7-0.1-2.1-0.1l-0.3,0l0.2,0.2
		c0.1,0.2,0.2,0.4,0.3,0.5l0,0.1h0.1c0.4,0,1.4,0.1,1.8,0.1v5.9h0.8v-1.3c1.2-0.1,2.2-0.1,3.4-0.2h0l1.1-1l-0.6,0
		c-1.3,0.2-2.4,0.2-3.4,0.3c0,0-0.4,0-0.5,0v-3.7c1.5,0,3-0.2,4.4-0.6c0.4,1,1.2,3.3,1.2,3.3l0.8-0.2c0,0-0.7-2.4-1.1-3.3
		c1.2-0.4,2.4-0.9,3.5-1.5c0.9,1.1,1.7,2.3,2.3,3.6c-0.6,0.3-1.7,0.6-1.7,0.6c0.8,0.1,1.5,0.3,1.5,0.3s0.3-0.1,0.5-0.2
		c0.1,0.2,0.2,0.5,0.2,0.5l1.1,0.5l-0.1-0.3c0,0-0.4-0.8-0.4-1c1.1-0.6,2.2-1.2,3.3-1.9c2,3.1,3.1,6.7,3.1,10.3
		C237.4,57.8,234.5,63.2,229.9,66.7"/>
	<path class="st0" d="M197,37.2l-0.3,0.3c-1.2,1-3.8,3.7-3.4,6.7l0,0.2l0.1,0.6l0.4-0.4c1.6-1.5,2.8-4,3.3-6.9l0.1-0.8L197,37.2
		L197,37.2z"/>
	<path class="st0" d="M191.7,42.3l-0.1,0.4c-0.2,0.5-0.5,1.5-0.7,2.9c-0.2,2-0.2,4.7,1.5,6.8l0.2,0.2l0.2,0.2l0.2-1.3
		c0.3-2.2-0.1-6.9-0.9-8.9l-0.3-0.7L191.7,42.3L191.7,42.3z"/>
	<path class="st0" d="M189.7,50.3l0,0.4c-0.1,2,0,6.9,3.9,9.5l0.5,0.3l0-0.6c-0.1-1.9-2.3-7.4-3.9-9.4l-0.5-0.6V50.3L189.7,50.3z"/>
	<path class="st0" d="M190.4,59.1l0.1,0.4c0.6,2.8,3.3,7.4,7.4,8.7l0.6,0.2l-0.2-0.6c-0.8-2.1-4.8-7-7.3-8.7l-0.6-0.4L190.4,59.1
		L190.4,59.1z"/>
	<path class="st0" d="M198.7,41.4l-0.3,0.2c-3.1,1.9-4.5,4.2-4.4,7l0,0.6l0.5-0.4c1.7-1.4,3.7-4.9,4.4-6.9l0.2-0.7L198.7,41.4
		L198.7,41.4z"/>
	<path class="st0" d="M196.9,47.6l-0.2,0.2c-0.8,0.7-3.3,3.4-3.1,6.8c0,0.5,0.1,1.1,0.4,1.7l0.2,0.5l0.3-0.5
		c1.2-1.7,2.8-6.2,2.7-8.3l0-0.6L196.9,47.6L196.9,47.6z"/>
	<path class="st0" d="M197,53.4l-0.2,0.2c-1.3,1.9-1.9,3.9-1.9,5.7c0,1.3,0.5,2.6,1.3,3.8l0.3,0.4l0.2-0.4c0.6-1.1,1-4.4,0.9-7.1
		c0-1-0.1-1.7-0.3-2.3l-0.2-0.6L197,53.4L197,53.4z"/>
	<path class="st0" d="M198.5,59.6l-0.1,0.3c-0.4,1.2-0.6,2.5-0.5,3.6c0.1,2.6,1.2,4.6,3.4,6.1l0.4,0.2l0.1-0.5l0-0.4
		c-0.1-2.1-1.7-7.4-2.9-9.1l-0.4-0.5L198.5,59.6L198.5,59.6z"/>
	<path class="st0" d="M194.2,67.9l0.2,0.3c1.7,2.8,4.5,6.4,9.7,5.5l0.4-0.1l-0.2-0.4c-1-1.4-7.4-5.1-9.6-5.4l-0.6-0.1L194.2,67.9
		L194.2,67.9z"/>
	<path class="st0" d="M202,75L202,75l-0.8,0.2l0.8,0.3c3.3,1.4,7.5,1.8,10,1c0.9-0.3,1.5-0.8,2.1-1.5c4.3,0.5,8.3,4,10.6,6.9
		l0.1,0.1l0.2-0.1c0.2-0.1,0.7-0.4,0.8-0.6l0.2-0.2l-0.1-0.2c-2.4-3.2-6.3-5.2-6.4-5.2C216,74.1,209.9,72.8,202,75"/>
	<path class="st0" d="M202.1,66.1l0,0.3c0.5,3.2,1.8,7.3,7.1,6.8l0.4,0l-0.1-0.3c-0.4-1.4-5.2-5.6-6.9-6.8l-0.5-0.3V66.1L202.1,66.1
		z"/>
	<path class="st0" d="M239.8,36.9l0.1,0.8c0.5,2.9,1.7,5.4,3.3,6.9l0.4,0.4l0.1-0.6l0-0.2c0.4-3-2.2-5.7-3.4-6.7l-0.3-0.3
		L239.8,36.9L239.8,36.9z"/>
	<path class="st0" d="M245.3,42l-0.3,0.7c-0.8,2.1-1.2,6.7-0.9,8.9l0.2,1.3l0.2-0.2l0.2-0.2c1.7-2.1,1.8-4.8,1.5-6.8
		c-0.2-1.4-0.5-2.4-0.7-2.9l-0.1-0.4L245.3,42L245.3,42z"/>
	<path class="st0" d="M247.4,50l-0.5,0.6c-1.6,2-3.8,7.6-3.9,9.4l0,0.6l0.5-0.3c4-2.6,4.1-7.5,3.9-9.5l0-0.4V50L247.4,50z"/>
	<path class="st0" d="M246.8,58.8l-0.6,0.4c-2.6,1.6-6.5,6.5-7.3,8.7l-0.2,0.6l0.6-0.2c4.1-1.3,6.8-5.9,7.4-8.7l0.1-0.4L246.8,58.8
		L246.8,58.8z"/>
	<path class="st0" d="M238.2,41.2l0.2,0.7c0.6,2,2.6,5.6,4.2,7l0.5,0.4l0-0.6c0.2-2.8-1.2-5.1-4.3-7l-0.3-0.2L238.2,41.2L238.2,41.2
		z"/>
	<path class="st0" d="M240,47.4l0,0.6c-0.1,2.1,1.5,6.6,2.7,8.3l0.3,0.5l0.2-0.5c0.2-0.6,0.3-1.1,0.4-1.7c0.2-3.3-2.3-6.1-3.1-6.8
		l-0.2-0.2L240,47.4L240,47.4z"/>
	<path class="st0" d="M239.9,53.2l-0.2,0.6c-0.1,0.5-0.2,1.3-0.3,2.3c-0.1,2.7,0.4,6.1,0.9,7.1l0.2,0.4l0.3-0.4
		c0.8-1.2,1.2-2.5,1.3-3.8c0-1.8-0.6-3.8-1.9-5.7l-0.2-0.2L239.9,53.2L239.9,53.2z"/>
	<path class="st0" d="M238.5,59.4l-0.4,0.5c-1.2,1.6-2.8,7-2.9,9.1l0,0.4l0.1,0.5l0.4-0.2c2.2-1.4,3.3-3.4,3.4-6.1
		c0-1.2-0.1-2.4-0.5-3.6l-0.1-0.3L238.5,59.4L238.5,59.4z"/>
	<path class="st0" d="M243.1,67.6l-0.6,0.1c-2.3,0.4-8.6,4-9.6,5.4l-0.2,0.4l0.4,0.1c5.3,0.9,8.1-2.7,9.7-5.5l0.2-0.3L243.1,67.6
		L243.1,67.6z"/>
	<path class="st0" d="M217.7,75.8c-0.2,0.1-4,2-6.4,5.2l-0.1,0.2l0.2,0.2c0.2,0.2,0.6,0.5,0.8,0.6l0.2,0.1l0.1-0.1
		c2.3-2.9,6.3-6.5,10.6-6.9c0.7,0.7,1.2,1.2,2.1,1.5c2.4,0.8,6.6,0.4,10-1l0.8-0.3l-0.8-0.2C227.2,72.8,221.1,74.1,217.7,75.8"/>
	<path class="st0" d="M235,65.8l-0.5,0.3c-1.7,1.2-6.6,5.3-6.9,6.8l-0.1,0.3l0.4,0c5.3,0.5,6.6-3.7,7.1-6.8l0-0.3V65.8L235,65.8z"/>
	<path class="st0" d="M98.9,33.4h6.7v6.1h-3.6h-3.2V33.4L98.9,33.4z M99.4,46.4h2.6h3v29.9h-5.7L99.4,46.4L99.4,46.4L99.4,46.4z"/>
	<path class="st0" d="M56.7,46.5h5.7v29.9h-5.5V72h-0.1c-2.3,3.8-6.1,5.3-10.2,5.3c-6.3,0-9.8-4.8-9.8-10.8v-20h5.7v17.7
		c0,5.2,1.2,9,6.6,9c2.3,0,5.5-1.2,6.7-4.3c1.1-2.8,1.1-6.3,1.1-7V46.5L56.7,46.5z"/>
	<path class="st0" d="M73.7,50.9h0.1c1.9-3.7,6.1-5.3,9-5.3c2.1,0,11.3,0.5,11.3,10.1v20.7h-5.7V57.6c0-4.9-2.1-7.6-6.8-7.6
		c0,0-3.1-0.2-5.5,2.2c-0.8,0.8-2.4,2.1-2.4,8v16.3h-5.7V46.6h5.5L73.7,50.9L73.7,50.9L73.7,50.9z"/>
	<path class="st0" d="M128.7,56.1c-0.3-3.7-2.1-6.3-6.1-6.3c-5.4,0-7.5,4.6-7.5,11.7c0,7,2.1,11.7,7.5,11.7c3.7,0,6-2.4,6.3-6.7h5.6
		c-0.5,6.7-5.5,10.8-12,10.8c-9.5,0-13.3-6.7-13.3-15.5c0-8.7,4.4-16,13.8-16c6.3,0,11,4,11.3,10.4H128.7L128.7,56.1L128.7,56.1z"/>
	<path class="st0" d="M143.1,62.5c-0.4,5.2,1.7,10.6,7.5,10.6c4.4,0,6.6-1.7,7.2-6.1h5.9c-0.9,6.8-6.1,10.1-13.2,10.1
		c-9.5,0-13.3-6.7-13.3-15.5c0-8.7,4.4-16,13.8-16c8.9,0.2,13.1,5.8,13.1,14v2.8L143.1,62.5L143.1,62.5L143.1,62.5z M158.1,58.6
		c0.1-5-2.1-8.8-7.6-8.8c-4.7,0-7.5,3.9-7.5,8.8H158.1L158.1,58.6z"/>
	<path class="st0" d="M170.4,76.2V50.5h-5.1v-3.9h5.1v-6.4c0.2-6.5,5.1-8.2,9.3-8.2c1.4,0,2.7,0.4,4,0.6v4.7c-1,0-1.9-0.2-2.9-0.2
		c-3.2,0-5,0.8-4.9,4.1v5.5h6.9v3.8H176v25.8H170.4L170.4,76.2z"/>
	<polygon class="st0" points="36.6,96.8 245.3,96.8 245.3,97.9 142.7,97.9 36.6,97.9 36.6,96.8 	"/>
	<path class="st0" d="M40,137.5v-16.8h-3.8v-2.1H40v-4c0-3.2,1.3-4.7,4.5-4.7c0.7,0,1.5,0.2,2.1,0.4v1.8c-0.5-0.1-1-0.1-1.4-0.1
		c-3.1,0-3.2,1.5-3,4.3v2.4h4.3v2.1h-4.3v16.8L40,137.5L40,137.5L40,137.5z"/>
	<path class="st0" d="M65,128.1c0,5-2.8,10-8.8,10c-6,0-8.8-5-8.8-10c0-5,2.8-10,8.8-10C62.2,118.1,65,123.1,65,128.1 M56.2,120.2
		c-4.5,0-6.3,4.4-6.3,7.9c0,3.5,1.8,7.9,6.3,7.9c4.5,0,6.3-4.4,6.3-7.9C62.5,124.6,60.7,120.2,56.2,120.2"/>
	<path class="st0" d="M70.5,137.5h-2.3v-14.6c0-1.5-0.1-3-0.2-4.3h2.3l0.1,2.8h0.1c0.7-1.9,2.4-3.3,4.3-3.3c0.7,0,1.5,0,2.3,0v2.2
		c-0.5,0-1-0.1-1.4-0.1c-3.3,0-5.1,2.4-5.2,6V137.5L70.5,137.5z"/>
	<path class="st0" d="M88,128.6c0.1,4,1.9,7.4,6.5,7.4c2.7,0,4.9-1.9,5.5-4.5h2.4c-1.2,4.5-4,6.6-8.5,6.6c-5.6,0-8.3-4.9-8.3-10
		c0-5.1,2.8-10,8.4-10c6.3,0,8.6,4.6,8.6,10.5H88L88,128.6L88,128.6z M100.2,126.5c-0.2-3.7-2.2-6.4-6.1-6.4c-3.7,0-5.6,3.1-5.9,6.4
		H100.2L100.2,126.5z"/>
	<polygon class="st0" points="105.7,118.6 112.1,134.4 118.4,118.6 120.9,118.6 113.4,137.5 110.9,137.5 103.2,118.6 105.7,118.6 	
		"/>
	<path class="st0" d="M123.8,128.6c0.1,4,1.9,7.4,6.5,7.4c2.7,0,4.9-1.9,5.5-4.5h2.4c-1.2,4.5-4,6.6-8.5,6.6c-5.6,0-8.3-4.9-8.3-10
		c0-5.1,2.8-10,8.4-10c6.3,0,8.6,4.6,8.6,10.5H123.8L123.8,128.6L123.8,128.6z M135.9,126.5c-0.2-3.7-2.2-6.4-6.1-6.4
		c-3.7,0-5.6,3.1-5.9,6.4H135.9L135.9,126.5z"/>
	<path class="st0" d="M144.1,137.5h-2.3v-14.6c0-1.5-0.1-3-0.2-4.3h2.3l0.1,2.8h0.1c0.7-1.9,2.4-3.3,4.3-3.3c0.7,0,1.5,0,2.3,0v2.2
		c-0.5,0-1-0.1-1.4-0.1c-3.3,0-5.1,2.4-5.2,6V137.5L144.1,137.5z"/>
	<polygon class="st0" points="155.6,118.6 161.9,134.4 168.2,118.6 170.7,118.6 160.3,144.7 157.8,144.7 160.6,137.5 152.8,118.6 
		155.6,118.6 	"/>
	<path class="st0" d="M192.1,124.4c-0.2-2.9-2-4.3-5.1-4.3c-3.4,0-5.6,3.6-5.6,7.9c0,4.3,2.1,8,5.6,8c2.9,0,5-1.8,5.1-4.4h2.4
		c-0.6,4.3-3.1,6.5-7.4,6.5c-5.6,0-8.3-4.9-8.3-10c0-5.1,2.8-10,8.4-10c3.9,0,7,2.3,7.2,6.3L192.1,124.4L192.1,124.4L192.1,124.4z"
		/>
	<path class="st0" d="M200,121.5L200,121.5c1.4-2.3,3.5-3.4,6-3.4c6.2,0,6.7,5.5,6.7,7.6v11.8h-2.3v-12.2c0-3.3-1.9-5.2-5-5.2
		c-3.7,0-5.4,3.1-5.4,6.5v10.8h-2.3v-27.1h2.3V121.5L200,121.5z"/>
	<path class="st0" d="M218.9,113.2h-1.8h-0.8v-2.8h2.6V113.2L218.9,113.2z M218.6,137.5h-2.3v-18.9h1.4h0.9V137.5L218.6,137.5z"/>
	<polygon class="st0" points="225.3,137.5 223.1,137.5 223.1,128 223.1,110.4 224.8,110.4 225.3,110.4 225.3,137.5 	"/>
	<path class="st0" d="M243.1,134.7l-0.1-0.1c-1.5,2.3-3.8,3.5-6.5,3.5c-5.6,0-7.7-5.4-7.7-10.1c0-4.9,2.1-9.9,7.7-9.9
		c2.5,0,5.1,1.2,6.5,3.4l0.1-0.1v-11.1h2.3v22.9c0,1.5,0.1,3,0.2,4.3h-2.3L243.1,134.7L243.1,134.7z M236.9,120.2
		c-4.3,0-5.7,4-5.7,7.6c0,3.5,1,8.3,5.4,8.3c4.9,0,6.4-4.1,6.4-8.4C243,123.8,241.3,120.2,236.9,120.2"/>
</g>
</svg>
