<?xml version="1.0" encoding="utf-8"?>
<!-- Generator: Adobe Illustrator 25.0.1, SVG Export Plug-In . SVG Version: 6.00 Build 0)  -->
<svg version="1.1" id="Layer_1" xmlns="http://www.w3.org/2000/svg" xmlns:xlink="http://www.w3.org/1999/xlink" x="0px" y="0px"
	 viewBox="0 0 208.8 230.5" style="enable-background:new 0 0 208.8 230.5;" xml:space="preserve">
<style type="text/css">
	.st0{fill:#FFFFFF;}
</style>
<g>
	<path class="st0" d="M100.1,70.4V71l0.4,0.6l0.5,0.5l0.7,0.5v-0.5l-0.7-0.6l0.4-0.6l0.2-0.1v-2.4l-0.7,0.4l-0.4,0.5l-0.4,0.6V70.4
		L100.1,70.4z M77.7,90.9l0.1-0.2l-0.6-1.1l-0.5-0.2L77.7,90.9L77.7,90.9z M117.2,66.5v0.4l1-0.2l0.2-0.6l-0.6-0.8l0.4-0.6l0.8,0.7
		l0.1-0.1l-0.1-0.1l-0.2-0.5l0.4-0.1l-0.4-0.5l-0.8,0.4l-0.2,0.5l-0.1,0.5l0.4,0.6l-0.2,0.4L117.2,66.5L117.2,66.5z M120.4,51
		l-0.2-0.5l-0.7-0.4l-0.6,0.4l0.7,0.5l0.8,0.5V51L120.4,51z M80.9,53.1l3.9,3.8c-4.6,4.7-7.4,11.6-7.4,18.1H72
		C72.1,66.8,75.3,59.1,80.9,53.1 M78.6,83.2l-0.4-0.1l-0.4-0.4l-1.4-0.1l0.5,0.6l-1.4-0.2l0.4-0.4l-0.4-0.4l-1.1,0.5l-0.4,0.7
		l0.1,1.5l1.2,2.9l0.6,0.8l0.4,0.1l-1-1.7l-0.1-0.8l0.1-0.2l-0.1-0.5h0.6l0.8,1.3l0.1,0.1v-1l0.4,0.2l0.1,0.5l0.8,0.2l0.4-0.2h0.1
		v0.7L79,88l0.5,0.1l1,1.7l0.7,0.1l0.1-0.7l0.8,1.3l1,1.2l1,1.2l1.1,1.2l-3.9,3.8C75.3,91.3,72.2,84.7,72,76h5.5l0.1,1.9l0.2,1.8
		l0.4,1.7L78.6,83.2L78.6,83.2z M84,76l0.1,1.5l-0.7,0.2l-0.1,0.6L82,80.2v2.5l-1.4,0.5h-0.8l-0.5-1.8l-0.4-1.7l-0.2-1.8L78.5,76H84
		L84,76z M85.2,91.4l1.3,0.7l0.2,0.2l-1,0.8l-1.2-1.3L85.2,91.4L85.2,91.4z M90.2,62.4l3.9,3.8l-1.2,1.4l-1,1.5h-0.2l-0.6,0.1H91
		l-0.6,0.5h0.7l0.7-0.2l-0.1,0.2l-0.6,0.4h-0.2l-1,0.7l-0.7-0.1L88,72.9l0.2,0.4L87.6,74l-0.1,1h-2.4C85.1,70.3,87,65.7,90.2,62.4
		 M94.1,78.2l0.4-0.1l0.7,0.6l-0.4,0.2l0.8,0.5l-0.1-0.5l0.5-0.7l0.5,0.5l0.5,0.6l-0.8,0.2l0.4,0.7l0.6-0.4L97,79.6l0.5-0.2l0.2-1.2
		l0.5,1.1l0.7,0.8L95.1,84c-2.1-2.5-2.9-4.1-3.5-7.3l0.8,0.8h0.7L94.1,78.2L94.1,78.2z M88.6,74.1l0.1-1.1l0.6-0.4l1.2,0.2l0.1,0.1
		L90.5,75h-1.3L88.6,74.1L88.6,74.1z M86.8,77.9l-0.6,0.7h-1l-0.1-1.3L85.1,76h1.7l-0.4,1.3L86.8,77.9L86.8,77.9z M90.4,88.5
		c-2.4-2.6-0.7-7.8-3.7-9.9l0.4-0.8l-0.4-0.6l0.4-0.7h0.7L88,76h1.3l0.2,0.4l-0.2,1.3l-0.2,0.2l0.5,1.1l-0.2,0.1l-0.2-0.2L89,79
		l0.2,0.6l0.4,0.7h0.1l0.1-0.6l-0.1-0.2V79l-0.1-1l0.2-1.5L89.6,76h1c0.3,3.8,1.4,5.8,3.7,8.7L90.4,88.5L90.4,88.5z M123.3,93.9
		c4.7-4.7,7.3-11.3,7.5-17.9h5.5c-0.2,8-3.4,16-9.2,21.7L123.3,93.9L123.3,93.9z M121.7,92.4l0.5-0.5l-0.4-2.1l-0.4-0.1l0.2-0.4
		l-1-0.2l-0.1,0.7l-0.1,1l-0.2,0.2l-1.7-1.7c3.2-3.2,5.6-8.6,5.6-13.2h5.5c-0.2,6.3-2.7,12.5-7.1,17L121.7,92.4L121.7,92.4z
		 M117,97.5l0.5-1.1l-0.1-0.5l0.7-0.7v-0.4l-0.6-0.5l0.5-1.1l0.8-1l-0.8-1h-0.6l-0.4-0.6l1-0.8l3.8,3.9l-1.1,1l-1.2,1l-1.2,0.8
		L117,97.5L117,97.5z M116.3,86.9l-0.6-0.6l0.5-0.5l0.5-1.1l-0.2-0.2l0.4-0.8v-0.6l-0.2-0.7l-0.5-0.2l-0.1,0.5l-0.4-0.1l0.6-1
		l0.6-1.1l0.5-0.2l0.2-0.4l0.1,0.2l0.4-0.5l-0.2-0.4h0.2l0.5,0.1l0.8,0.1l0.5-0.4l1.3-0.4l-0.2-0.4v-0.6l0.7,0.4l0.2-0.2l-0.1-0.5
		l-1,0.4l-1-0.2L119,76h4.2c-0.1,4.6-2.1,9.1-5.2,12.5l-0.6-0.6l0.2-0.8l-0.5-1.7L116.3,86.9L116.3,86.9z M114.2,66.3l3.9-3.9
		l1.2,1.5l1.2,1.7l-0.5,0.1v1l1.4,0.8l0.5,1.3l0.5,1.2l-0.2,0.4l-0.6,0.4l-0.1,0.8l-0.4,0.1l-0.2,0.4l-0.4-0.1h-0.5l0.2-0.4l0.2-1.2
		l0.4-0.1l-1.1-1.1l-0.7,0.2l-0.2,0.8l-0.5,0.5l-0.5-0.5l-0.2-0.4l0.4-0.2l0.1,0.4l0.2-0.1l-0.1-0.5h-0.4v0.1l-0.2,0.1l-1.2-1.4
		l-0.4-0.4l0.1-0.1l0.4-0.1l-0.4-0.1l-0.5,0.1l0.2,0.2h-0.6l-0.5-0.8L114.2,66.3L114.2,66.3z M114.8,87.4l-1.2-0.4l-0.4,0.1
		l-0.6-0.5l-0.6-0.2l0.8-0.7l1,0.7l0.7,0.4l0.5,0.4L114.8,87.4L114.8,87.4z M112.8,69.3l0.5-0.1V69l-0.5-0.4l0.1-1.1l0.6-0.6l1,1.3
		l-0.1,0.7l-0.6-0.5l-0.4,0.1l0.1,0.5h0.2l-0.2,0.5l-0.1-0.2L112.8,69.3L112.8,69.3z M119.4,72.9c1.3-0.6,3.1-1,3.1-2.7l0.2,0.8
		l-0.5,1.5l-0.1,0.6l0.8-1.1l0.1,1.4l0.1,1.4h-4.8l-0.1-0.4l0.6-0.5l0.1-0.2l0.2-0.2h0.6l0.1-0.4L119.4,72.9L119.4,72.9z
		 M120.4,60.2h1.3l0.4,0.4l-0.2,0.6l1.9,1.1h0.4l2.3,2.6l1-0.2c1.4,3.3,2.5,6.8,2.4,10.4h-5.5c-1.4-7,2.3-5.9-2.4-12.4l0.5,0.2
		l0.1-0.2l-1.2-0.8l-0.1,0.4c1.8,2,2.6,4.5,2.9,7.1h-0.5l-0.7-1.4l0.2-0.4l-0.5-0.6v-0.7l-0.2-0.4h-0.5l-0.5-0.8l0.4,0.1l-0.1-0.4
		l0.4-0.2l-0.1-0.2l-0.6,0.2l0.2-0.8l-0.4-0.1l-0.2,0.6l-1-1.3l-1.1-1.2L120.4,60.2L120.4,60.2z M127.3,53.2
		c5.7,5.7,8.9,13.8,8.9,21.8h-5.5c0-3.6-1.1-8.5-2.9-11.7l0.1-0.1l0.4,0.2l0.1-0.2l-1.1-1.8l-1.1-1.5l-1.4-1.2l-1.4-1.7L127.3,53.2
		L127.3,53.2z M104.1,108.6c41.4-1.4,45.8-59.9,3.3-66.3v0.2l-0.1,0.8c7.8,1.1,13.5,3.7,19.3,9.1l-3.7,3.7l0.1-0.6l-0.5-0.2H122
		l0.1-0.5l-0.5-1.5l-0.8-1l-2.9-1.5l-0.4,0.4l-0.5,0.1l0.7,1.1l0.5,1.2l0.2,1.3l0.1,1.2v0.7l1.4,1.8l-0.7,0.1l0.5,0.7l-1.3,1.2
		l-0.5-1l-0.5,1l-0.5,1l0.2,0.2l-3.8,3.8l-0.7-0.6l-1.2,0.5l0.4,0.2l-0.2,0.2l-0.4,0.2l-0.2,0.5l-0.2-0.4l-0.8,0.4l0.2,0.4l0.6-0.2
		l0.4,0.1v-0.2l0.2-0.1l0.1-0.2l0.5-0.1h0.5l0.2,0.2l-1.5,1.5l-0.1-0.2l-1.7,0.2l-0.4,0.4l-0.4,0.1l1.1-1l-0.4-0.2l-1,1.3h0.2v0.4
		l0.4,0.1l0.1,0.6l-0.6-0.1l-0.6,0.1l-1.4-0.8l-0.1,5.7c3.7,1,7.4,3.3,6.8,7.6c-0.2,3.5-4.2,5-7,5.7l-0.1,3c2.6,1,4.8,3.3,5,6.2v2.4
		l-0.2,0.5l-0.4,0.4l-0.2,0.1l-2.1,0.4l-2.1,0.4l-0.1,1.1c6.8-0.8,11.6-2.7,16.7-7.4l3.8,3.9c-12.4,11.8-32.1,12-44.4,0l3.8-3.8
		c5.2,4.5,9.5,6.4,16.3,7.3v-1.2c-5.6-0.4-11.5-2.9-15.5-6.9l1-1l1.4,0.1l0.7-0.8l2,0.1l0.2-0.7v-0.2c2.9,2.1,6.4,3.7,10,3.9v-1.1
		c-4-0.5-7.8-2.2-10.8-4.9l3.9-3.9l1.4,1.2l1.7,1l0.2-0.6l0.1-0.5l-1.4-0.8l-1.3-1l3.9-3.9l1,0.7l1.1,0.5v-1.2l-0.7-0.4l-0.6-0.4
		l1.1-1.1l-1.1-0.4l-0.7,0.7l-0.6-0.7l-0.4-0.7l-1-0.5l-1-0.5L96,76.3l-0.7-0.6L94.6,75l-0.5-0.8c-1.2-2.6-1.2-6.4,0.7-8.7l-3.9-3.9
		c3.4-2.9,5.8-4.4,10.4-5v-1.2c-4.2,0.8-8,2.4-11.1,5.5l-0.6-0.7L89,61.2l0.5,0.4C86.1,65.1,83.9,70,84,75h-5.5
		c0-6.4,2.7-12.6,7-17.3l1.8,1.7H88l0.5-0.2l-2.1-2.3l1.8-1.5l2-1.4l0.2-0.8l0.8-1.1l-1.5,0.8l-1.4,1.1L86.8,55l-1.3,1.2l-3.8-3.8
		c5-5.2,12-8.2,19.2-9.1l-0.1-0.2l-0.1-0.8C58.3,49,62.8,107,104.1,108.6 M88.5,60.7l0.1-0.6H88L88.5,60.7L88.5,60.7z M107.4,81.3
		l-0.1-0.1l-0.2-0.2l-0.6-0.4h-0.1v1.8l0.5-0.2l0.2-0.2l0.2-0.2L107.4,81.3L107.4,81.3z M110.5,46.3l0.4-0.4l-0.7-0.2h-1.5l-0.5,0.2
		l-1-0.1V46l1.7,0.2l0.8-0.1L110.5,46.3L110.5,46.3z M111.7,56.6l-1.2-0.4l-1.2-0.4l-1.2-0.4l-1.2-0.2l-0.1,1.2l1.2,0.1l1.2,0.4
		l2.1,0.7l0.2-0.5L111.7,56.6L111.7,56.6z M132.5,51.9c2.3,8.2,9.3,7.2,12.7,15.5c0.4-7.1,1.6-13.4-5-18.3c2.8,3.4,1.9,9.2,3.5,13.2
		C141,56,135.3,55.5,132.5,51.9 M74,50.9c1.9-2.6,2.6-5.3,5.4-7.4c-6.1,1.2-11.1,7-12.3,13C69.1,54.3,71.9,53.3,74,50.9 M139.8,70
		c-0.5,7.8,4.5,10.6,4.2,17.6c4.4-7.7,9.3-7,7-19.3c-0.4,5.6-5.2,9.6-6.1,15.1C145.1,75.9,143.6,75.7,139.8,70 M152.1,79.5
		c-1.9,5.1-7.7,8.2-10.6,14.2c1.8-7.8-0.2-8-1.3-14.8c-2.8,7.2,0.9,11.3-1.2,19.1C145.9,91.7,151.5,91.3,152.1,79.5 M145.9,72.8
		c-1.7-7.1-4.6-8-9-12.5c2.2,8.1,7.8,10.5,9,16.8c3-8.1,6.8-11.4,0.7-20.2C148.6,62.1,145.6,67.6,145.9,72.8 M71.2,60.3
		c-4.4,4.8-7.2,5.3-9.1,12.5c0.3-5.3-2.5-10.7-0.7-16c-2.5,3.5-3.6,7-2.9,11.3c0.6,3.2,3.4,6.4,3.6,8.9
		C63.6,70.7,69.5,67.9,71.2,60.3 M68.3,70c-3.9,6.1-5.1,5.8-5.1,13.5c-0.7-5.5-5.8-9.5-6-15.1c-2.4,12.1,2.4,11.4,7,19.3
		C63.9,80.3,69,77.6,68.3,70 M122.1,112.4c-4-1.1-7.6-1.5-11.8-1.4c-10.9,1.8-1.4,1.9-12.5,0c-8.5-1-18.6,5.3-25.2,1.9
		c10.5,8.4,19,1.3,29.1,0.6c-2.8,1.4-6.2,4-8.2,6.4l2.4,0.2c5.6-8.1,11-8.2,16.5,0l2.4-0.2c-1.4-2.3-5.8-5.1-8.1-6.4
		c10.1,0.8,18.5,7.7,29.1-0.6C131.8,114.9,126,113.4,122.1,112.4 M135.8,101.9c3.3-4.8,1.4-8,2-13.2c-4.9,6.7-2.7,11.8-6.2,17.2
		c9.3-4.1,14.2-1.6,18.3-15C146.7,97,140.3,97.3,135.8,101.9 M126.9,109.3c5.1-5.1,3.5-6.6,5.7-11.9c-7.2,6.6-5.5,6.8-9.6,14.4
		c3.4-1.1,8.4,0.7,12.5-1.1c3.9-1.1,6.9-4.3,8.7-7.9C139.7,107.7,132.1,105.9,126.9,109.3 M85.2,111.8c-3.9-7.4-2.8-8.1-9.5-14.4
		c2.1,5.5,0.6,6.9,5.7,11.9c-5-3.2-13.9-2-17.3-6.4c1.7,3.6,4.8,6.7,8.7,7.9C76.9,112.5,81.9,110.7,85.2,111.8 M69.2,98
		c-2.2-7.4,1.7-11.7-1.3-19.1c-1.1,6.4-2.9,7.6-1.3,14.8c-2.5-5.7-8.4-9-10.6-14.2C56.8,91.3,61.9,91.6,69.2,98 M70.3,88.7
		c0.9,5.1-1.5,7.6,2,13.2c-3.7-4.2-11.4-5.2-14.1-11.1c0.9,4.5,3.4,8.9,7.5,11.2c3.3,2,8,1.9,10.7,3.8
		C72.9,100.2,75.4,95.2,70.3,88.7 M62.9,67.4c3.6-8.3,10.3-7.1,12.7-15.5l-0.2,0.5l-0.5,0.5l-1.2,0.8l-3,1.9L69,56.8
		c-2,1.4-3.4,3.4-4.5,5.5c1.6-3.5,0.7-9.6,3.5-13.2c-3.1,2.3-4.6,5.1-5.1,8.9C62.2,61.1,63.1,64.5,62.9,67.4 M134.2,50.9
		c2.2,2.3,4.7,3.5,6.9,5.6c-1.4-6.1-6-11.7-12.3-13C131.5,45.4,132.2,48.8,134.2,50.9"/>
	<path class="st0" d="M106.1,94.1c1.8,0.9,3.5,2.3,3.9,4.3c0.3-2.8-1.4-5.4-3.9-6.4V94.1L106.1,94.1z"/>
	<path class="st0" d="M117.4,55.9c-0.2-5.6-5.4-8.3-10.4-8.7v1.7l-0.1,2c3.4,0.2,6.7,2.4,5.8,6.2c-0.4,1.9-2,2.7-3.6,3.4
		c-3.1,1.1-6.2,1.6-9.3,2.6c-8.2,3-7.4,12.8,1.8,14.6l-0.1-3.9c-4.1-2-3.4-6.1,1-7.1C108.6,64.7,117.6,64.5,117.4,55.9"/>
	<path class="st0" d="M99.2,88.5v0.7l0.2,0.6l0.2,0.5l0.4,0.5l0.8,0.8l1.1,0.6l-0.1-3.3l0.1-0.4l0.2-0.2l0.4-0.2l0.4-0.2l1.1-0.5
		c1.8-0.7,5.9-1.5,7-3.1c3.3-3.7-0.3-7.7-4.5-8.7l-0.1,3.7c2.5,0.9,3,2.6,0.7,4C104.8,84.3,99.2,85.2,99.2,88.5"/>
	<path class="st0" d="M94.1,54l-0.8,0.1l1-1.7l1.2,0.1L94.1,54L94.1,54z M101,47.7c-5.1,2.5-6.8,1.2-9.8,6.4L91,54.8l-0.1,0.7
		l-0.2,0.6l-0.4,0.6l-0.1,0.5v0.4c-0.2,1.2-1.6,2.4-2.9,2l0.2,0.1l0.4,0.1l0.6-0.1l0.7-0.2L89.1,60L88.8,61c2.4-4.4,1.1-1.8,4.6-3.7
		c4.7-2.3,4.7-4.3,7.7-5.7L101,47.7L101,47.7z"/>
	<polygon class="st0" points="104.5,88.3 103.6,88.7 103.3,88.8 103,89 103.3,103.8 103.4,104.7 103.5,105.5 103.8,105.9 104,106.1 
		104.4,105.9 104.6,105.5 104.7,104.7 104.8,103.8 105.1,88.1 104.5,88.3 	"/>
	<polygon class="st0" points="102.9,83.5 104.4,83.1 105.2,82.8 105.5,67 104,67.5 102.6,67.9 102.9,83.5 	"/>
	<path class="st0" d="M104.2,35.3c-1.5,0.1-2.4,0.6-2.6,2.1l-0.1,0.6l-0.1,0.7l0.1,1.4l0.1,1.4l0.5,2.1l0.4,17.5l1.9-0.5l1.3-0.4
		l0.4-16.7l0.5-2.3l0.2-1.4l0.1-1.3v-0.7l-0.1-0.6C106.5,35.9,105.7,35.5,104.2,35.3"/>
	<polygon class="st0" points="43.9,131.9 40.9,148 36.9,148 33.1,128.3 36.3,128.3 39,143.5 41.8,128.3 46,128.3 48.8,143.5 
		51.6,128.3 54.7,128.3 50.9,148 46.8,148 43.9,131.9 	"/>
	<path class="st0" d="M60.4,145.7c3.5,0.5,3.6-10.5,0-10C56.8,135.4,56.9,146.1,60.4,145.7 M60.4,133.3c4.4-0.1,6.2,3.5,6,7.4
		c0.2,4.1-1.6,7.5-6,7.5C52.1,148.8,52.3,132.6,60.4,133.3"/>
	<path class="st0" d="M68.6,135.9l-0.1-1.4l-0.1-1.1h3l0.1,2.6h0.1c0.7-1.8,2.1-3.1,4.1-2.7v3.2c-1.1-0.2-1.4-0.2-2.4,0.3l-0.5,0.4
		l-0.4,0.5l-0.3,0.6l-0.2,0.8v8.9h-3.3V135.9L68.6,135.9z"/>
	<polygon class="st0" points="77.8,148 81.2,148 81.2,126.8 77.8,126.8 77.8,148 	"/>
	<path class="st0" d="M89.1,145.6c2.4,0,2.6-3.2,2.6-5c-0.2-1.9-0.1-4.7-2.6-4.9c-2.3,0.1-2.4,3-2.4,4.8
		C86.7,142.3,86.5,145.7,89.1,145.6 M95,126.8v20.1l0.1,1.1H92l-0.1-0.9v-1.4h-0.1c-2.8,5.3-9.1,1.7-8.5-5
		c-0.7-6.6,5.3-10.3,8.3-5.3h0.1v-8.7H95L95,126.8z"/>
	<polygon class="st0" points="106,128.3 109.5,128.3 109.5,136.3 115,136.3 115,128.3 118.4,128.3 118.4,148 115,148 115,139.3 
		109.5,139.3 109.5,148 106,148 106,128.3 	"/>
	<path class="st0" d="M128.7,139.5c0.2-5.6-5.1-4.9-4.8,0H128.7L128.7,139.5z M131.2,147.3c-8.8,3.8-13.1-4.6-9-11.9
		c5.1-5.6,10.6,0.1,9.7,6.2h-8c-0.4,4.6,4.6,4.8,7.1,2.8L131.2,147.3L131.2,147.3z"/>
	<path class="st0" d="M141.4,140.9c-3-0.3-6.2,1-4.3,4.4c1.1,0.8,1.4,0.8,2.8,0.3l0.5-0.3l0.3-0.5l0.3-0.6l0.2-0.8l0.1-0.8l0.1-1
		V140.9L141.4,140.9z M134.9,134.3c11.8-4.5,9.5,5.1,9.8,13.6h-3l-0.2-1v-1h-0.1l-0.7,0.8l-0.8,0.8l-0.5,0.2l-0.6,0.2l-0.6,0.2
		c-2.2,0.3-4.4-1-4.8-3.3c-0.5-5.3,3.5-5.9,7.9-5.8c0.2-4.4-4.1-3.7-6.4-1.9L134.9,134.3L134.9,134.3z"/>
	<polygon class="st0" points="147.8,148 151.1,148 151.1,126.8 147.8,126.8 147.8,148 	"/>
	<path class="st0" d="M155.3,130.4l3.3-1.1v4.1h2.8v2.5h-2.8v7.6l0.1,0.5v0.4l0.2,0.4l0.1,0.3c0.6,0.6,1.8,0.4,2.4,0.1v2.4
		c-8.3,3-5.9-6.9-6.1-11.7h-2.1v-2.5h2.1V130.4L155.3,130.4z"/>
	<path class="st0" d="M163.1,126.8h3.3v8.5h0.1c0.9-1.7,2.6-2.4,4.5-1.9l0.5,0.1l0.5,0.2l0.3,0.2l0.4,0.3l0.5,0.7l0.5,0.8l0.2,1
		l0.2,1V148h-3.3v-9.5l-0.1-0.7l-0.1-0.6c-0.5-1.1-0.7-0.9-1.7-1.2l-0.7,0.1l-0.5,0.2l-0.4,0.3l-0.3,0.5l-0.3,0.5l-0.1,0.6l-0.1,0.6
		l-0.1,0.7v8.5h-3.3V126.8L163.1,126.8z"/>
	<path class="st0" d="M40.4,170.7c3.5,0,3.9-4.9,3.9-7.4c0-2.5-0.4-7.3-3.9-7.3c-3.5,0-3.9,4.8-3.9,7.3
		C36.5,165.8,36.9,170.7,40.4,170.7 M40.4,153.2c10-0.5,10,20.6,0,20.2C30.4,173.8,30.4,152.8,40.4,153.2"/>
	<g>
		<path class="st0" d="M50.2,161l-0.1-1.3l-0.1-1.2h3l0.1,2.7h0.1c0.5-1.7,2.1-3.3,4.1-2.8v3.3c-1.1-0.3-1.4-0.2-2.4,0.2l-0.5,0.4
			l-0.4,0.5l-0.3,0.6l-0.2,0.8v8.9h-3.3V161L50.2,161z"/>
		<path class="st0" d="M64.5,170.6c2.7,0.1,2.9-2.9,2.9-4.9c0.1-1.7-0.5-4.6-2.6-4.7c-2.3,0.1-2.5,3-2.4,4.7v1.3l0.2,1l0.2,0.8
			l0.3,0.7l0.3,0.6l0.4,0.3l0.4,0.2L64.5,170.6L64.5,170.6z M59.3,175.4c4.8,2.7,8.4,1.4,7.7-4.7c-3.1,5.3-8.7,1.4-8.5-3.7
			c-1.1-7.5,5.4-11.7,8.6-6h0.2l0.1-2.3h2.9c-1,9.9,4.1,24.7-11.2,19.9L59.3,175.4L59.3,175.4z"/>
	</g>
	<path class="st0" d="M80.4,166.1h-1.3l-0.9,0.1l-0.8,0.2l-0.7,0.2l-0.5,0.4l-0.4,0.5l-0.2,0.6l-0.1,0.8v0.4l0.1,0.5l0.2,0.4
		l0.3,0.3l0.3,0.3l0.4,0.2l0.4,0.1h1.2l0.6-0.3C80.6,169.7,80.4,167.7,80.4,166.1 M73.9,159.5c2.4-1.2,5.6-1.6,8-0.2
		c2.9,1.7,1.1,10.7,1.9,13.8h-2.9l-0.2-0.9v-1.1h-0.1l-0.7,0.9l-0.4,0.4l-0.4,0.3l-0.5,0.3l-0.6,0.2l-0.6,0.1
		c-2.1,0.6-4.6-1.2-4.8-3.2c-0.8-5.3,3.6-5.9,7.8-6c0.4-4.3-4-3.7-6.3-1.8L73.9,159.5L73.9,159.5z"/>
	<path class="st0" d="M86.9,161v-1.3l-0.1-1.2H90l0.1,2.2h0.1h-0.1c1-1.9,2.6-2.7,4.8-2.3C96.1,159,96,159,97,160l0.4,0.9l0.3,0.9
		l0.1,1l0.1,1.1v9.4h-3.3v-9.5l-0.1-0.7l-0.2-0.5c-0.3-0.9-0.7-1.3-1.7-1.2H92l-0.5,0.2l-0.4,0.4l-0.4,0.4l-0.2,0.5l-0.2,0.6
		l-0.1,0.7v9.1h-3.3V161L86.9,161z"/>
	<path class="st0" d="M100.9,158.6h3.3v14.5h-3.3V158.6L100.9,158.6z M100.9,152.5h3.4v3.4h-3.4V152.5L100.9,152.5z"/>
	<polygon class="st0" points="107.3,170.1 113.3,161.3 107.5,161.3 107.5,158.6 116.6,158.6 116.6,161.6 110.7,170.5 116.8,170.5 
		116.8,173.1 107.3,173.1 107.3,170.1 	"/>
	<path class="st0" d="M126.4,166.1h-1.3l-0.9,0.1l-0.8,0.2l-0.7,0.2l-0.5,0.4l-0.4,0.5l-0.2,0.6l-0.1,0.8v0.4l0.1,0.5l0.2,0.4
		l0.3,0.3l0.3,0.3l0.4,0.2l0.4,0.1h1.2l0.5-0.3C126.6,169.9,126.4,167.6,126.4,166.1 M119.9,159.5c12.1-4.2,9.4,4.8,9.8,13.6h-3
		l-0.1-0.9l-0.1-1.1c-6.4,8.1-14.4-7.8-0.1-7c0.4-4.3-3.9-3.7-6.3-1.8L119.9,159.5L119.9,159.5z"/>
	<polygon class="st0" points="133.4,155.7 136.7,154.6 136.7,158.6 139.5,158.6 139.5,161.2 136.7,161.2 136.7,169.2 136.8,169.7 
		136.9,170 137.1,170.3 137.3,170.5 137.6,170.7 138.6,170.7 139,170.6 139.5,170.4 139.5,172.9 139.1,173.1 138.5,173.2 
		137.9,173.3 137.2,173.4 136.4,173.3 135.6,173.1 135,172.8 134.4,172.4 133.9,171.9 133.6,171.1 133.4,170.2 133.4,161.2 
		131.2,161.2 131.2,158.6 133.4,158.6 133.4,155.7 	"/>
	<path class="st0" d="M142.2,158.6h3.3v14.5h-3.3V158.6L142.2,158.6z M141.8,152.5h3.4v3.4h-3.4V152.5L141.8,152.5z"/>
	<path class="st0" d="M154.2,170.9c3.5,0.5,3.5-10.5,0-9.9c-2.6-0.1-2.5,3.2-2.7,5C151.7,167.7,151.6,171,154.2,170.9 M154.2,158.4
		c8.2-0.4,8.2,15.5,0,15C145.9,174,145.9,157.9,154.2,158.4"/>
	<path class="st0" d="M163.2,161l-0.1-1.3v-1.2h3l0.2,2.2c1-1.9,2.6-2.7,4.8-2.3c1.2,0.5,1.2,0.5,2.1,1.5l0.4,0.9l0.3,0.9l0.1,1
		l0.1,1.1v9.4h-3.3v-8.7l-0.1-0.8V163l-0.2-0.5l-0.2-0.5l-0.3-0.3l-0.3-0.3l-0.4-0.1h-1.1l-0.5,0.2l-0.4,0.4l-0.4,0.4l-0.2,0.5
		l-0.2,0.6l-0.1,0.7v9.1h-3.3V161L163.2,161z"/>
</g>
</svg>
