<svg id="Layer_1" data-name="Layer 1" xmlns="http://www.w3.org/2000/svg" viewBox="0 0 273.48 325.41"><defs><style>.cls-1{fill:#fff;}.cls-2{fill:#00a2c9;}.cls-3{fill:#f30e51;}.cls-4{fill:#504b48;}.cls-5{fill:#c6cacb;}.cls-23,.cls-24,.cls-27,.cls-29,.cls-30,.cls-31,.cls-32,.cls-6{fill:none;stroke-linecap:round;stroke-miterlimit:10;}.cls-27,.cls-29,.cls-32,.cls-6{stroke:#008bae;}.cls-6{stroke-width:5.2px;}.cls-7{fill:#d0e8f1;}.cls-8{fill:#9c9e9f;}.cls-9{fill:#0d8f4f;}.cls-10{fill:#e9903f;}.cls-11{fill:#791117;}.cls-12{fill:#a91b26;}.cls-13{fill:#ffcb46;}.cls-14{fill:#6f6f70;}.cls-15{fill:#fbab42;}.cls-16{fill:#d5a845;}.cls-17{fill:#fcd770;}.cls-18{fill:#5e5e5c;}.cls-19{fill:#888885;}.cls-20{fill:#454546;}.cls-21{fill:#323333;}.cls-22{fill:#f9e4be;}.cls-23{stroke:#939393;stroke-width:0.99px;}.cls-24,.cls-30{stroke:#06405e;}.cls-24{stroke-width:1.04px;}.cls-25{fill:#06425e;}.cls-26{fill:#06405e;}.cls-27{stroke-width:2.27px;}.cls-28{fill:#9fccea;}.cls-29{stroke-width:1.56px;}.cls-30{stroke-width:0.52px;}.cls-31{stroke:#231f20;stroke-width:0.46px;}.cls-32{stroke-width:2.49px;}</style></defs><path class="cls-1" d="M88.76,110.86a6.8,6.8,0,0,1,6.93,5.72,5.65,5.65,0,0,1-1.6,4.79,7.27,7.27,0,0,1-9.46.86,5.81,5.81,0,0,1-2.58-5.85,6.21,6.21,0,0,1,4.54-5.08A15.44,15.44,0,0,1,88.76,110.86Z"/><path class="cls-1" d="M95.69,130.6A3.15,3.15,0,0,1,99,133.68a3.27,3.27,0,0,1-6.53,0A3.16,3.16,0,0,1,95.69,130.6Z"/><polyline class="cls-2" points="152.17 304.28 158.42 263.05 140.38 263.05 146.68 305.47 151.48 302.43"/><polyline class="cls-2" points="120.71 302.1 112.86 264.23 132.42 264.23 125.39 304.28 118.67 302.1"/><polygon class="cls-3" points="118.53 291.07 127.97 291.07 125.67 304.62 119.92 304.62 118.53 291.07"/><polygon class="cls-3" points="144.37 291.61 154.33 291.61 152.93 305.16 146.68 305.47 144.37 291.61"/><path class="cls-4" d="M106.72,305.47a9.66,9.66,0,1,1,19.31,0"/><path class="cls-4" d="M146.69,305.47a9.65,9.65,0,1,1,19.3,0"/><path class="cls-5" d="M252.1,210.93s-4-13.1-5.36-13.76a11.23,11.23,0,0,0-3.87-.65l5,16.34Z"/><path class="cls-6" d="M192.68,213.06s15,5,24.12,1.54S236.4,203,236.4,203"/><path class="cls-7" d="M231.57,199.88c-1.8,1.23-2.69,3.9-2,6.76.83,3.64,3.85,6.26,6.72,5.81s5.76-.86,8.65-1.26l4.54-.6c1.23-.16,2.75-.1,3.81-.85,1.25-.88.81-3.64-1-3.37l-5.19.81a8.14,8.14,0,0,0,.12-1.5l6.23-1a1.48,1.48,0,0,0,1-1.94,1.76,1.76,0,0,0-1.75-1.52l-6.23,1a8.54,8.54,0,0,0-.69-1.22l5.35-.83a1.49,1.49,0,0,0,1-1.94,1.74,1.74,0,0,0-1.75-1.52l-8.92,1.38a5.41,5.41,0,0,0-.9,0l2.39-1.58a1.79,1.79,0,0,0,.41-2.3c-.42-.87-2.14-.62-2.79-.23Z"/><path class="cls-6" d="M195.64,217.17s12.62,9.06,13.6,18.75-1.55,22.77-1.55,22.77"/><path class="cls-5" d="M261.62,244.9s-6.73-22.19-9.77-34.59a27.51,27.51,0,0,1-4.42.54c.63,4.9,2.51,11.42,2.52,11.73.07,3.12-9.29,6.81-15.22,1.49-4.68-4.21,5.92-23.74,5.92-23.74s2-3.55,4.3-2.8c.67-.62,1.64.22,2.34-.36a11.5,11.5,0,0,0-5.5-1.06c-8.09,4.16-16.11,28.33-19.21,35.23s-4.73,25.1,2.51,31.38c2,1.79-.16.2,21.71.7C264.19,263.84,261.62,244.9,261.62,244.9Z"/><path class="cls-8" d="M238.68,204.23s-8.53,17.8-7.8,24.26,18.26,4.6,19.58,2-3-19.66-3-19.66.72,12.32-.72,13.68-2.4,3-8.1,1.25-4.51-3.3-3.44-7.52S238.68,204.23,238.68,204.23Z"/><path class="cls-9" d="M240.29,219.83c.61,0,1.47,1.37,1.94,2.22l.09-.17c-.41-1.4-1.15-4.1-.54-3.77s1,1.6,1.25,2.47l.21-.36a10.27,10.27,0,0,1,.8-4.71l.23.94a7.26,7.26,0,0,1,0,2.13,6,6,0,0,1,1.77-1.93c2.25-1.05,3.06-.1,3.06-.1s-3.14,1.51-3.67,2.47l-.54,1s3.89-.88,3.9-.16-4.4,1.75-4.4,1.75,3.54.07,3.71,1.29-4.57-.41-4.57-.41l-.21.62a3.33,3.33,0,0,1,1.38.18c1.69.56-.81,1.45-2,1.83l-2.35,7.11-2.65-.41,1.36-2.91s1.12-2.63,2.54-5.46C240.88,222.23,239.62,219.82,240.29,219.83Z"/><path class="cls-10" d="M239.62,232.91s1-9.57,10.92-7c0,0,1.09,3.73-.08,4.57S245.86,233.45,239.62,232.91Z"/><path class="cls-11" d="M234.35,231.63a3.48,3.48,0,1,0-3.51-3.44A3.47,3.47,0,0,0,234.35,231.63Z"/><path class="cls-12" d="M240.13,230.83a3.48,3.48,0,0,0-6.95.07v.6a16.32,16.32,0,0,0,6.09,1.53A4.72,4.72,0,0,0,240.13,230.83Z"/><path class="cls-6" d="M82.88,217.93S63.14,219.54,55,214.14s-16.53-15.67-16.53-15.67"/><path class="cls-7" d="M30.23,203.84l7.3,4.5c3.08,1.41,7.21-.4,9.18-4a7,7,0,0,0-.33-7.94l-8.33-9.21a1.69,1.69,0,0,0-2.38.23.27.27,0,0,0-.07.08,1.92,1.92,0,0,0-.19,2.59l1.5,1.56a5.87,5.87,0,0,0-1-.3l-6.13-1.4c-.42.43-1-.57-1.18,0s-.08,1.41-.13,2.12c0,0,0,.06,0,.09v.06l1.65.74a9.44,9.44,0,0,0-1.1,1.09l-.76.49a47.1,47.1,0,0,0-.17,8,12.53,12.53,0,0,0,1.64,1,.38.38,0,0,1,.24.31"/><path class="cls-13" d="M16.72,273.42l-1.42,17,40.64-1.07-2.3-17.15Z"/><path class="cls-14" d="M28.31,266.19c0-.55,0-1.1,0-1.65,0-.08,0-.15,0-.23a1.49,1.49,0,0,1,1.54-1.43l2.12-.09,4.52-.05c.15,0,.17-.12.23-.21.16.21.39.14.6.14,1,0,1.62,0,2.59,0a1.31,1.31,0,0,1,1.39,1.21,15.11,15.11,0,0,1,0,2.33c-.05.67-.32,1.1-1,1.14a.73.73,0,0,0-.25,0,14.75,14.75,0,0,1-2.57.12c-1.7.07-3.41.08-5.1.11l-1.48,0c-.86,0-.48,0-1.32.05A1.5,1.5,0,0,1,28.31,266.19Z"/><path class="cls-15" d="M36.79,289.89a2.42,2.42,0,0,0,.07-.47c-.1-1.76,0-3.45,0-5.25s0-3.62,0-5.43a12.29,12.29,0,0,1,.06-2.1.25.25,0,0,1,.11.21,20.09,20.09,0,0,1,.12,2.19c.08,1.4.18,2.78.17,4.17,0,.78.12,1.55.16,2.32,0,1.28.1,2.56.14,3.85a.46.46,0,0,0,.35.47A3.17,3.17,0,0,1,36.79,289.89Z"/><path class="cls-15" d="M42.6,289.72a.66.66,0,0,0,.06-.2V284c0-1.15,0-2.4,0-3.46s0-2.14,0-3.21V275.5a.22.22,0,0,1,.14.26c0,1.18.1,2.35.15,3.53,0,1,.09,2,.15,3,.14,2.27.22,4.55.32,6.82,0,.28.06.51.37.58A3.36,3.36,0,0,1,42.6,289.72Z"/><path class="cls-15" d="M27.64,290.09c0-.62,0-1.24,0-1.85,0-2.14,0-4.27,0-6.41,0-1.45,0-2.87,0-4.32a1.68,1.68,0,0,1,.12-1,6.8,6.8,0,0,1,.11,1l.21,4.56.21,4.31c.06,1.22.06,2.45.18,3.68A1.38,1.38,0,0,1,27.64,290.09Z"/><path class="cls-15" d="M48.1,289.55c.11-.12.3-.15.3-.39,0-1.42,0-2.83,0-4.25s0-2.52,0-3.77c0-.91,0-1.83,0-2.74l.08-.14.23.1a1.39,1.39,0,0,0,.08.73,4.67,4.67,0,0,0,0,1.24c.06,1.46.07,2.84.17,4.39s.08,3.09.27,4.64c0,.12-.07.15-.13.21A2.12,2.12,0,0,1,48.1,289.55Z"/><path class="cls-15" d="M45.57,289.66c-.1-1,0-2,0-3v-4.11c0-1.34,0-2.69,0-4,0-.22-.13-.49.11-.71a.46.46,0,0,1,.1.34c.1,2,.19,4,.3,5.93.06,1.26.15,2.53.18,3.8a9.51,9.51,0,0,1,0,1.77Z"/><path class="cls-15" d="M30.39,290a4.07,4.07,0,0,0,.14-1.83c0-.87,0-1.72,0-2.56,0-2.17.06-4.33,0-6.5,0-.12,0-.26.13-.35.18.28.08.62.1.93.08,1.51.19,3,.27,4.51.1,1.79.19,3.59.27,5.38,0,.15,0,.32.18.39A2.74,2.74,0,0,1,30.39,290Z"/><path class="cls-15" d="M39.81,289.79s-.08-.09-.08-.14v-5.34c0-1.15,0-2.29,0-3.44,0-1,0-1.95,0-2.93,0-.11,0-.2.16-.25l.12,2.14.26,5.71c.06,1.27.12,2.55.17,3.82,0,.18,0,.32.19.39A1.38,1.38,0,0,1,39.81,289.79Z"/><path class="cls-15" d="M33.61,281.28a2.93,2.93,0,0,1,.09,1.07q.22,3.78.46,7.57a.74.74,0,0,1-.63,0c-.13-.09-.1-.22-.1-.35,0-1,.06-2.05,0-3.08-.05-1.5.11-3,0-4.5a1.13,1.13,0,0,1,.13-.78Z"/><path class="cls-15" d="M21.86,287.45c0-2.05,0-4.09,0-6.14,0-1.67,0-3.35,0-5,0-.16-.15-.35,0-.51a.73.73,0,0,1,.13.43c.07,1.66.13,3.28.2,4.86s.14,3.16.22,4.74.16,2.89.23,4.33a.61.61,0,0,1-.8-.06C21.92,289.2,21.86,288.34,21.86,287.45Z"/><path class="cls-15" d="M24.76,289.87v-5c0-1.66,0-3.31,0-5a14,14,0,0,1,0-2.24,4.35,4.35,0,0,1,.17,1.48c.14,2.68.3,5.35.41,8a23.57,23.57,0,0,1,.08,2.91.57.57,0,0,1-.71,0A1.41,1.41,0,0,0,24.76,289.87Z"/><path class="cls-15" d="M18.24,288.1c.16-1.44.23-2.88.34-4.31.13-1.71.25-3.42.38-5.13,0-.11-.06-.26.1-.33.09.1,0,.22,0,.33,0,1.06-.1,2.11-.09,3.17,0,1.45-.09,2.94-.1,4.42,0,1.06-.08,2.12-.1,3.18,0,.26-.13.55.12.76-.31.29-.65.16-1,.07A8.33,8.33,0,0,0,18.24,288.1Z"/><path class="cls-16" d="M30.67,278.09c-.22-.15-.14-.34-.05-.52A.78.78,0,0,1,30.67,278.09Z"/><path class="cls-16" d="M30.58,278.64a.57.57,0,0,1,.09-.55C30.67,278.27,30.8,278.44,30.58,278.64Z"/><path class="cls-16" d="M33.6,281.25c-.15-.11-.17-.23,0-.43A.54.54,0,0,1,33.6,281.25Z"/><path class="cls-16" d="M24.81,277.63a.46.46,0,0,1,0-.38C24.93,277.37,24.89,277.5,24.81,277.63Z"/><path class="cls-16" d="M33.59,280.67s-.08,0-.08,0,0-.06,0-.07.08,0,.08,0S33.6,280.66,33.59,280.67Z"/><path class="cls-15" d="M19,278.1s0,0,0,0l0,0,0,0Z"/><path class="cls-17" d="M48.36,271.71c-.37-.09-.61.11-.88.21-.54.22-.77.15-.95-.39.09-.1.21-.33.33-.11s.36.18.56.1.55-.12.57-.31c0-.46.21-.35.43-.16s.19,0,.29,0,.18.11.2.23C48.64,271.33,48.58,271.78,48.36,271.71Z"/><path class="cls-15" d="M30.47,292.86s-.13,0-.09-.13,0,0,0,0,.07.09.06.15Z"/><path class="cls-18" d="M16.79,270.66a9.51,9.51,0,0,0,.06,1.41c.07-.09.11-.27.22-.24.35.09.65-.15,1-.11a3.59,3.59,0,0,0,1.45.08,6,6,0,0,1,1.79-.09c.64,0,1.29,0,1.92,0,1.15,0,2.3-.07,3.44-.15.18,0,.38-.12.53-.06.47.21.95,0,1.42,0a19,19,0,0,0,2.39-.07c.68-.07,1.4.07,2.08,0,1,0,2-.19,3.06-.16a8.38,8.38,0,0,1,2.29.05h.08c.33-.29,1-.09,1.38-.08.55,0,1.11,0,1.66-.06l1.65-.08a6.14,6.14,0,0,1,2.45.19c.35.12.82.3,1.09,0l.12.09a.8.8,0,0,0,1.09-.27c0-.1.09-.21.19-.23h.1a1,1,0,0,1,.77.4c.37-.2.81-.25,1.16-.46a.11.11,0,0,1,.12,0c.33.34.76.18,1.12.14a3.45,3.45,0,0,0,1.1-.08.72.72,0,0,1,.89.26c.11-.52-.06-1.05,0-1.57,0-.2-.19-.25-.34-.28-2.4-.4-4.78-.91-7.18-1.31-.91-.16-1.81-.3-2.72-.44a6.32,6.32,0,0,1-2.33-.5,1.18,1.18,0,0,0-.25,0,14.75,14.75,0,0,1-2.57.12c-1.71.07-3.41.09-5.1.11l-1.48,0-2.53.06c-.22.31-.59.25-.88.33-2.24.56-4.51,1-6.76,1.56l-2.61.63a7.93,7.93,0,0,0-1.6.38C16.88,270.42,16.74,270.56,16.79,270.66Z"/><path class="cls-19" d="M31.78,156.37a2.37,2.37,0,0,0-2.23,2.51c0,2.72.12,5.45.19,8.17q.14,5.25.26,10.52l.37,14.52.32,12.77,0,0h0V205a2.22,2.22,0,0,0,.37-.09,2.49,2.49,0,0,1-.37.09c0,.22-.07.45,0,.67v.1a.15.15,0,0,0,0,.22,17.65,17.65,0,0,0,.06,2.06v.29c.23,0,.4,0,.38-.3a.33.33,0,0,1,0-.19.33.33,0,0,0,0,.19c0,.29-.15.34-.38.3a1.43,1.43,0,0,0,0,.71.11.11,0,0,0,0,.08.37.37,0,0,0,.12.13.26.26,0,0,0,.27,0,2.2,2.2,0,0,1,.39-.17,3.29,3.29,0,0,0-.39.17.26.26,0,0,1-.27,0,.5.5,0,0,1-.12-.13,10.69,10.69,0,0,0,0,1.6c0,.2-.09.42,0,.62.05,1.93.09,3.91.13,5.87.09,3.82.2,7.64.3,11.45s.19,7.8.29,11.71c0,.12,1.12,22.22,1.11,22.35l1.51,0c.16,0,3,0,3.08-.09-.08-3.31-1.1-28.77-1.19-32.09-.09-3.47-.17-6.95-.26-10.43,0-1.27-.07-2.55-.12-3.82a.43.43,0,0,0,0-.41c-.27-.15-.46,0-.72.12s-.52.2-.78.3L35,216c.22-.08.45-.27.72-.12a20.13,20.13,0,0,0,0-2.33q-.27-10.5-.52-21-.2-7.43-.36-14.86l-.33-12-.17-7v0a2.39,2.39,0,0,0-2.42-2.37Zm.37,51.85,0,.06a.14.14,0,0,0,0-.07,0,0,0,0,0,0-.05v.05Zm-.39.87a.15.15,0,0,1,.13,0,.22.22,0,0,0-.14,0Zm.11.55,0,0Zm-.7,1.28-.06-.06Zm0-.43,0,0Zm1.12-.16a1.06,1.06,0,0,1-.09.25.62.62,0,0,0,.09-.26.5.5,0,0,0,0-.24.5.5,0,0,1,0,.24ZM33,215.9a.07.07,0,0,0,.08,0,.06.06,0,0,1-.08,0,.18.18,0,0,1-.1-.07.18.18,0,0,0,.1.07Zm.14-.13a.6.6,0,0,1,.08-.16.59.59,0,0,0-.08.16l0,.07A.17.17,0,0,1,33.16,215.77Zm.07-.19c.08-.18.15-.34.24-.51l.06-.22a1.8,1.8,0,0,1-.06.22l-.22.51Zm.31-.8a.22.22,0,0,1,.13-.1.19.19,0,0,0-.12.11Zm.2-.1a.5.5,0,0,1,.34.23.53.53,0,0,0-.33-.22Zm.57,1.2a.77.77,0,0,1-.07.16.91.91,0,0,0,.07-.14Zm-.12.26,0,0a.07.07,0,0,0,0,.06v-.06Zm.7.58a.24.24,0,0,0,0,.08.17.17,0,0,1,0-.07Zm.1.26.07.14Zm.11.24a1.35,1.35,0,0,1,0,.29,2.19,2.19,0,0,0,0-.27l0,0,0,0Zm0,.52A.5.5,0,0,1,35,218a.47.47,0,0,0,.09-.22Zm-1.77-.82c.1-.16.11-.27,0-.32.12.06.11.17,0,.33a.88.88,0,0,0-.13.83,1.12,1.12,0,0,0,.16.28l.08.09-.08-.09a1,1,0,0,1-.16-.28.88.88,0,0,1,.13-.83Zm-.89-1.29v.1a1.61,1.61,0,0,0,.17.43,1.61,1.61,0,0,1-.17-.43Zm0-.18v0Zm0,0,0-.07a.3.3,0,0,0,0,.08Zm0-.08a.34.34,0,0,1,.18-.13l.13,0,0,.41,0-.41-.13,0a.33.33,0,0,0-.19.14ZM31,210.69v0a.11.11,0,0,0,0,0Zm.67-1.57.1,0ZM31,207.5a1.86,1.86,0,0,0,.1-.25,1.86,1.86,0,0,1-.1.25Zm-.19.31v0Zm.31-1a1.51,1.51,0,0,0-.14-.35,1.2,1.2,0,0,1,.13.36Zm.24-1.88a.33.33,0,0,0-.27,0c.09,0,.2-.07.26,0Z"/><path class="cls-15" d="M53.35,272.49l-36.92,1.12.05-1.78,36.64-1.05Z"/><path class="cls-7" d="M26.52,190.52a2.12,2.12,0,0,1,.58-.65c1.64-1.17,4.52.36,6.09,1.16l.12.07a1.69,1.69,0,0,1,.55,2.32,2,2,0,0,1-2.34,1.16l-2.18-.91c-.81-.34-2.62-.73-3-1.6A1.78,1.78,0,0,1,26.52,190.52Z"/><path class="cls-7" d="M26.12,195.44a2,2,0,0,1,.59-.65c1.63-1.18,4.51.35,6.08,1.16l.12.06a1.7,1.7,0,0,1,.55,2.33,2,2,0,0,1-2.34,1.15l-2.18-.91c-.81-.34-2.61-.72-3-1.59A1.77,1.77,0,0,1,26.12,195.44Z"/><path class="cls-7" d="M26.21,199.86a2,2,0,0,1,.58-.65c1.64-1.17,4.51.36,6.09,1.16l.11.07a1.68,1.68,0,0,1,.56,2.32,2,2,0,0,1-2.34,1.16L29,203c-.81-.33-2.62-.72-3-1.59A1.77,1.77,0,0,1,26.21,199.86Z"/><path class="cls-6" d="M71.4,263.56S67.79,250.75,68,241s12-19.82,12-19.82"/><path class="cls-20" d="M88.39,273.58a1.31,1.31,0,0,0,1.84-.13,1.25,1.25,0,1,0-1.84.13Z"/><path class="cls-21" d="M73.71,281.81l-5-9.43a1.92,1.92,0,0,1,.8-2.6l18.78-10a1.93,1.93,0,0,1,2.61.8l5,9.43a1.92,1.92,0,0,1-.8,2.6l-18.78,10A1.93,1.93,0,0,1,73.71,281.81Z"/><path class="cls-20" d="M77.9,279.37l-4.83-9.09a.44.44,0,0,1,.18-.59l15.56-8.24a.43.43,0,0,1,.59.18l4.84,9.09a.45.45,0,0,1-.19.6L78.5,279.56A.45.45,0,0,1,77.9,279.37Z"/><path class="cls-7" d="M65.76,264.92c.83,2.8,1.62,5.61,2.4,8.42l1.2,4.43c.32,1.2.47,2.72,1.35,3.67,1,1.12,3.71.31,3.2-1.41l-1.49-5a6.93,6.93,0,0,0,1.5-.08L75.71,281a1.47,1.47,0,0,0,2,.7A1.75,1.75,0,0,0,79,279.7l-1.78-6.05a8.57,8.57,0,0,0,1.11-.85l1.54,5.2a1.48,1.48,0,0,0,2,.7,1.76,1.76,0,0,0,1.27-1.94l-2.43-8.23a.38.38,0,0,1-.21-.32,8.42,8.42,0,0,1,0-.87l0-.14,0,0c0-1.55,1.06-3.36,1.23-4.89l-4.22-3.77c-1.46-1.61-4.22-2.14-7-1.11C67.12,258.79,64.94,262.14,65.76,264.92Z"/><path class="cls-22" d="M237.9,261.81,233,285.33s-5-3.62-10.86-3.1c-4.52.4-8.13,3.79-18.45,2.8a54.2,54.2,0,0,1-18.48-5.72l6.08-23.71,8,4.43s6,2.51,10.76.88S225.13,252.63,237.9,261.81Z"/><path class="cls-23" d="M192.43,278l2.2-9.48"/><path class="cls-23" d="M196.81,279.68l3.91-16.61"/><path class="cls-23" d="M201,280.32l4.39-15.66"/><path class="cls-23" d="M205.5,280.79,209,265.62"/><path class="cls-23" d="M209.4,280.36l3.88-17"/><path class="cls-23" d="M212.74,279.81l3.86-18.18"/><path class="cls-23" d="M216.86,278.81l3.63-17.47"/><path class="cls-23" d="M221.05,278.27l3.63-17.47"/><path class="cls-23" d="M225.42,278.54l3.63-17.47"/><path class="cls-7" d="M208,252.56c-2.82-.8-5.53-.05-6.84,1.69l-3.89,4.1c.29,1.52,1.47,3.23,1.63,4.77l0,0a.71.71,0,0,1,0,.14,8.46,8.46,0,0,1,.05.87.37.37,0,0,1-.18.34l-1.74,8.4a1.77,1.77,0,0,0,1.43,1.83,1.48,1.48,0,0,0,2-.87l1.1-5.31a8.53,8.53,0,0,0,1.19.75l-1.28,6.18a1.77,1.77,0,0,0,1.43,1.84,1.48,1.48,0,0,0,2-.87l1.28-6.18a8.28,8.28,0,0,0,1.5,0l-1.07,5.15c-.36,1.76,2.36,2.34,3.31,1.14.8-1,.82-2.54,1-3.77.27-1.51.55-3,.83-4.51.54-2.87,1.09-5.73,1.68-8.59S211.55,253.58,208,252.56Z"/><path class="cls-2" d="M72.56,218.3c0-28,13.91-55.18,31.91-74.57,46.42-50,98.1,22.19,98.1,76.89,0,40.37-32,50.16-63.94,50.16S72.56,258.68,72.56,218.3Z"/><path class="cls-24" d="M115.5,162s-.23-6.85,7.35-6.82"/><path class="cls-24" d="M161,161.75s1-6.58-6.62-6.49"/><path class="cls-25" d="M138.72,186.78c6,0,10.79-1.56,10.79-3.5s-4.83-3.49-10.79-3.49-10.79,1.56-10.79,3.49S132.77,186.78,138.72,186.78Z"/><path class="cls-1" d="M128,175.19a6.37,6.37,0,1,0-6.35-6.36A6.35,6.35,0,0,0,128,175.19Z"/><path class="cls-25" d="M126.38,170.49a2.35,2.35,0,0,0,3.32-3.32A2.35,2.35,0,0,0,126.38,170.49Z"/><path class="cls-1" d="M149.41,175.19a6.37,6.37,0,1,0-6.35-6.36A6.35,6.35,0,0,0,149.41,175.19Z"/><path class="cls-25" d="M147.75,170.49a2.35,2.35,0,0,0,3.32-3.32A2.35,2.35,0,0,0,147.75,170.49Z"/><path class="cls-26" d="M123,164.65l-3.89-2.48,3.2,3.8c-.08.18-.14.35-.2.51l-3.54-1.06,3.21,2.15c-.12.51-.17.84-.17.84,3-6.51,6.92-6.3,8.05-6.25C126,161.73,124.08,162.86,123,164.65Z"/><path class="cls-26" d="M154.3,164.52l3.77-2.65-3,3.94c.08.17.15.34.22.5l3.49-1.21-3.11,2.28c.14.5.2.83.2.83-3.27-6.37-7.19-6-8.31-5.88C151.08,161.73,153.09,162.78,154.3,164.52Z"/><path class="cls-3" d="M150.68,216.6H126.77a3.81,3.81,0,0,0-2.69,1.11l-5,5a3.8,3.8,0,0,0-.25,5.11l16.92,20.5a3.79,3.79,0,0,0,5.86,0l16.92-20.5a3.81,3.81,0,0,0-.24-5.11l-5-5A3.82,3.82,0,0,0,150.68,216.6Z"/><path class="cls-13" d="M147.21,219.84H130.34a4.63,4.63,0,0,0-3.23,1.29l-2.23,2.13a3.64,3.64,0,0,0-.29,5.38l12.22,14.21a2.58,2.58,0,0,0,3.93,0L153,228.64a3.65,3.65,0,0,0-.29-5.38l-2.23-2.13A4.63,4.63,0,0,0,147.21,219.84Z"/><path class="cls-3" d="M140.23,222l1,3a1.37,1.37,0,0,0,1.3.94h3.17a1.37,1.37,0,0,1,.8,2.49l-2.55,1.86a1.39,1.39,0,0,0-.5,1.54l1,3a1.37,1.37,0,0,1-2.11,1.53l-2.57-1.85a1.37,1.37,0,0,0-1.61,0l-2.56,1.85a1.38,1.38,0,0,1-2.12-1.53l1-3a1.37,1.37,0,0,0-.5-1.54l-2.55-1.86a1.38,1.38,0,0,1,.81-2.49h3.16a1.37,1.37,0,0,0,1.3-.94l1-3A1.37,1.37,0,0,1,140.23,222Z"/><path class="cls-1" d="M122.51,9.32c13.1.3,23.34,4.13,31.35,12.35a1.76,1.76,0,0,0,2.83.15c12.55-10.39,32.44-7,40,7.73a2.88,2.88,0,0,0,2.73,1.74c13.32,1,21.89,9.25,24.2,19.8,2.22,10.12.29,18.17-8.75,24.33a35.88,35.88,0,0,1-4.59,2.45,1.74,1.74,0,0,0-1.18,1.92c1.51,13.32-9.38,25.67-24.18,27.48a31.46,31.46,0,0,1-17.8-2.88c-1.41-.68-1.93-.56-2.93.57a43.13,43.13,0,0,1-24.79,14.45c-12.18,2.23-29-.71-36.54-11.55-1.9-2.74-2-5-5.5-4.44a35.6,35.6,0,0,1-8.24.66,32.78,32.78,0,0,1-15.39-5.23,41.31,41.31,0,0,1-18-25.23c-4-18,9.48-34.38,28.25-37a1.89,1.89,0,0,0,1.82-1.47c3.93-13.92,14.3-21.84,29.59-25A68.84,68.84,0,0,1,122.51,9.32Z"/><path class="cls-27" d="M140.79,68.1s-3.94-2.79-7.54-5.23a11.92,11.92,0,0,1-4.68-7c-.75-3.06-1.4-6.69-.72-8"/><path class="cls-28" d="M123.91,39.3a.8.8,0,0,1,1.58-.09l.15,2.73a3.61,3.61,0,0,1,.64-.27l-.17-3.27a.79.79,0,0,1,1.58-.08l.18,3.26a3,3,0,0,1,.6.18L128.32,39a.8.8,0,0,1,1.59-.09l.25,4.69a2.11,2.11,0,0,1,.08.45l.26-.91a.8.8,0,0,1,1-.53h0a.72.72,0,0,1,.58.86l-1.37,4.88a.73.73,0,0,1-.35.44,3,3,0,0,1-2.76,2,2.91,2.91,0,0,1-3.18-2.56l-.2-3.71v-.12Z"/><path class="cls-2" d="M133.67,73c0-14.34,7.12-28.26,16.35-38.2,23.77-25.61,50.24,11.37,50.24,39.39,0,20.67-16.37,24.65-32.75,24.65S133.67,93.63,133.67,73Z"/><path class="cls-29" d="M121.32,69.62c-3.59,12.17-13.75,6.81-13.75,6.81"/><path class="cls-2" d="M101,40.87l-4.3-.12A14.26,14.26,0,0,0,82,54.61l0,1c-.11,1-.17,2-.2,3L81,85.06A14.28,14.28,0,0,0,94.88,99.73l4.31.13A14.29,14.29,0,0,0,113.87,86l0-1c.11-1,.17-2,.2-3l.75-26.48A14.27,14.27,0,0,0,101,40.87Z"/><path class="cls-26" d="M99.77,65.23a1.14,1.14,0,0,1-.61-2.12,3.45,3.45,0,0,1,2.51-.87,7.4,7.4,0,0,1,3.46,1.07,1.14,1.14,0,0,1-.77,2l-.93-.33a4.34,4.34,0,0,0-2.69-.08Z"/><path class="cls-30" d="M93.48,52.46S95.55,53.6,97.93,55"/><path class="cls-30" d="M111.53,52.73,107.12,55"/><path class="cls-31" d="M100,57a6.52,6.52,0,1,1-6.34-6.69A6.51,6.51,0,0,1,100,57Z"/><path class="cls-31" d="M117.44,57.46a6.52,6.52,0,1,1-6.34-6.68A6.53,6.53,0,0,1,117.44,57.46Z"/><path class="cls-31" d="M100,56.22s2.2-2.88,4.24.12"/><path class="cls-1" d="M105.51,58.87a3.81,3.81,0,0,1,7.6.08"/><path class="cls-1" d="M90.8,58.66a3.83,3.83,0,0,1,7.64.08"/><path class="cls-26" d="M91.21,56.86l-2-.84L91,57.47l-.06.23-1.77-.24,1.69.73a3.17,3.17,0,0,0,0,.37c1-3,2.89-3.37,3.43-3.42a3.14,3.14,0,0,0-3,1.72"/><path class="cls-26" d="M114.8,57.79,113,58a2,2,0,0,0,0-.24l1.83-1.41-2.06.79a3.15,3.15,0,0,0-3-1.78c.54.06,2.44.48,3.35,3.5a2.6,2.6,0,0,0,0-.37Z"/><path class="cls-1" d="M151,46.87a4.36,4.36,0,0,0-8.7,0"/><path class="cls-26" d="M147.68,46.87a1.89,1.89,0,1,0-3.78,0"/><path class="cls-1" d="M156.51,46.87a4.39,4.39,0,0,1,8.75,0"/><path class="cls-26" d="M161.15,46.87a1.9,1.9,0,1,0-3.79,0"/><path class="cls-26" d="M157.14,54.55a1.39,1.39,0,0,0,1.28-2.14,6.35,6.35,0,0,0-5-3.11,5.23,5.23,0,0,0-4.66,1.7,1.4,1.4,0,0,0,1,2.29l1.72-.26a6.36,6.36,0,0,1,3.6.53Z"/><path class="cls-26" d="M95.6,55.09a2.16,2.16,0,0,0,.25,2.42,2.13,2.13,0,0,0,2.53.54A3.66,3.66,0,0,0,95.6,55.09Z"/><path class="cls-26" d="M110.27,55.53a2.16,2.16,0,0,0,.25,2.42,2.13,2.13,0,0,0,2.53.54A3.66,3.66,0,0,0,110.27,55.53Z"/><path class="cls-32" d="M186.42,46s1.5,15.53-12.81,20.63"/><path class="cls-29" d="M74.08,68c1.79,10.27,11.6,10,11.6,10"/><path class="cls-28" d="M71,62.73a.51.51,0,0,1,1-.19l.33,1.69a2,2,0,0,1,.38-.22l-.4-2a.51.51,0,0,1,1-.19l.4,2a1.74,1.74,0,0,1,.39,0l-.34-1.75a.48.48,0,0,1,.41-.54.49.49,0,0,1,.58.35l.56,2.92a1.31,1.31,0,0,1,.09.28l.08-.6a.53.53,0,0,1,.56-.42h0a.46.46,0,0,1,.44.5L76,67.78a.48.48,0,0,1-.19.31,1.9,1.9,0,0,1-1.55,1.47A1.84,1.84,0,0,1,72,68.23l-.45-2.31a.09.09,0,0,0,0,0v0Z"/><path class="cls-28" d="M125.28,65.09a.47.47,0,0,0-.29-.61.49.49,0,0,0-.64.23l-.65,1.6a2.35,2.35,0,0,0-.33-.3l.79-1.91a.49.49,0,0,0-.29-.61.47.47,0,0,0-.64.22l-.79,1.92a1.79,1.79,0,0,0-.4,0l.68-1.65a.48.48,0,0,0-.29-.61.49.49,0,0,0-.64.23l-1.13,2.74a1.3,1.3,0,0,0-.14.26l0-.6a.52.52,0,0,0-.46-.52h0a.46.46,0,0,0-.53.4l-.2,3.2a.45.45,0,0,0,.12.33,1.93,1.93,0,0,0,1.23,1.76,1.84,1.84,0,0,0,2.44-.87l.9-2.18a.43.43,0,0,0,0,0s0,0,0,0Z"/><path class="cls-28" d="M190.68,39.05a.8.8,0,0,0-1.58-.16l-.28,2.71a3.05,3.05,0,0,0-.63-.3l.33-3.25a.8.8,0,0,0-1.58-.16l-.33,3.25a3.2,3.2,0,0,0-.61.15l.29-2.8a.8.8,0,0,0-1.58-.16L184.24,43a2.46,2.46,0,0,0-.11.45l-.21-.92A.8.8,0,0,0,183,42h0a.71.71,0,0,0-.62.83l1.14,4.94a.69.69,0,0,0,.33.45,3,3,0,0,0,2.66,2.1,2.91,2.91,0,0,0,3.3-2.42l.37-3.7v-.07a.08.08,0,0,0,0,0Z"/><path class="cls-30" d="M151.89,44.64a34.15,34.15,0,0,0-4.45-4.76"/><path class="cls-30" d="M161.17,39.55s-1.63,1.39-5.47,5.09"/><path class="cls-2" d="M157.85,111.08a48.76,48.76,0,0,0,5.77-5.56,4.91,4.91,0,0,1,.56-.56l.71-7.53-8.68-1.05Z"/><path class="cls-2" d="M168.86,105a31.12,31.12,0,0,0,7.39,2.23l.95-11.17-9.16.53Z"/><path class="cls-2" d="M98,103.42c2.59,0,2.82,2.06,4.53,4.52l.17.24,1.56-13.51-7,2.34Z"/><path class="cls-2" d="M90.35,104.2a35.33,35.33,0,0,0,5-.44L96,97.32l-6.54-.06Z"/><path class="cls-26" d="M142.93,44.55l-2.66-1.7,2.19,2.6c-.05.12-.09.24-.14.35l-2.42-.72,2.2,1.47a5,5,0,0,0-.12.57c2.05-4.46,4.75-4.32,5.52-4.28C145.05,42.54,143.71,43.32,142.93,44.55Z"/><path class="cls-26" d="M164.43,44.46,167,42.64l-2.08,2.7a3.23,3.23,0,0,1,.15.34l2.4-.83-2.14,1.57a5.71,5.71,0,0,1,.14.57c-2.24-4.37-4.93-4.11-5.7-4C162.22,42.55,163.6,43.26,164.43,44.46Z"/></svg>