<svg width="328" height="391" viewBox="0 0 328 391" fill="none" xmlns="http://www.w3.org/2000/svg">
<rect width="328" height="391" fill="#E5E5E5"/>
<g clip-path="url(#clip0)">
<rect width="411" height="731" transform="translate(-43 -86)" fill="white"/>
<g filter="url(#filter0_d)">
<rect x="-56" y="-37" width="444" height="694" fill="#FFF5CF"/>
</g>
<rect width="328" height="391" rx="20" fill="#CAE6FC"/>
<g clip-path="url(#clip1)">
<path d="M100.461 23.5274C108.317 23.3819 115.511 25.6131 122.258 29.339C123.721 30.1459 124.245 29.7049 124.893 28.4703C127.846 22.8616 131.734 17.9716 136.843 14.1223C146.946 6.51614 158.27 3.53101 170.873 5.68277C183.011 7.75076 192.25 14.2369 199.27 23.9948C200.039 25.0663 200.58 24.9913 201.574 24.4225C210.294 19.4091 219.676 17.3764 229.702 18.7168C240.449 20.1543 249.361 25.0354 256.479 33.0869C262.098 39.4452 265.279 46.9235 266.483 55.1998C266.729 56.9018 267.517 57.087 268.845 57.1532C277.185 57.5588 284.907 59.9531 291.623 64.8475C304.776 74.4334 311.308 87.3087 309.778 103.495C308.378 118.267 300.611 129.246 287.583 136.605C286.397 137.276 285.824 137.981 285.757 139.405C285.319 148.555 281.52 156.042 273.825 161.315C265.338 167.131 256.188 167.916 246.614 164.173C245.272 163.648 243.947 163.066 242.65 162.44C241.719 161.99 241.321 162.065 241.012 163.194C240.091 166.554 239.191 169.944 237.299 172.947C231.12 182.736 222.257 187.525 210.495 186.828C203.475 186.413 197.69 183.278 192.617 178.701C191.565 177.753 190.966 177.665 189.999 178.873C185.387 184.65 179.834 189.337 172.926 192.26C160.292 197.604 147.787 197.247 135.519 191.105C127.895 187.286 122.178 181.453 117.842 174.27C117.153 173.128 116.585 173.199 115.623 173.811C110.661 176.982 105.355 179.244 99.3913 179.857C90.3582 180.778 82.287 178.406 75.133 173.013C68.1446 167.74 63.9256 160.733 62.4447 152.201C62.1315 150.398 61.3799 149.864 59.6037 149.692C49.3134 148.696 40.2535 144.851 32.5805 137.968C24.4512 130.675 19.3597 121.693 17.6059 110.987C14.0312 89.1651 26.4242 68.0443 47.3627 60.1162C50.3737 58.9742 53.4877 58.1673 56.6642 57.6955C58.0378 57.4927 58.5299 56.8445 58.8431 55.6452C60.3419 49.9571 62.7981 44.7056 66.5295 40.0934C75.2225 29.339 86.5374 23.814 100.461 23.5274Z" fill="#FEFEFE"/>
</g>
<path d="M183.241 377.794L189.412 336.69H171.598L177.81 378.983L182.566 375.948" fill="#00A1CD"/>
<path d="M152.158 375.62L144.402 337.871H163.736L156.784 377.794L150.15 375.62" fill="#00A1CD"/>
<path d="M150.012 364.629H159.337L157.061 378.131H151.386L150.012 364.629Z" fill="#ED1651"/>
<path d="M175.533 365.162H184.859L183.477 378.664H177.802L175.533 365.162Z" fill="#ED1651"/>
<path d="M138.344 378.983C138.344 373.66 142.613 369.337 147.881 369.337C153.15 369.337 157.418 373.66 157.418 378.983" fill="#504B48"/>
<path d="M177.826 378.983C177.826 373.66 182.094 369.337 187.363 369.337C192.631 369.337 196.9 373.66 196.9 378.983" fill="#504B48"/>
<path d="M228.649 283.676C228.649 283.676 242.292 288.425 245.642 317.89" stroke="#0F8AB2" stroke-width="6" stroke-miterlimit="10" stroke-linecap="round"/>
<path d="M240.048 316.634C240.625 314.69 242.715 313.148 245.406 312.918C248.829 312.631 251.967 314.567 252.374 317.233L253.39 323.803C253.398 323.853 253.398 323.894 253.406 323.943C253.414 323.967 253.423 323.984 253.423 324.009L254.797 332.884C254.902 333.581 254.26 334.213 253.366 334.287C252.471 334.36 251.65 333.852 251.544 333.155L250.796 328.323C250.406 328.536 249.975 328.717 249.52 328.856L250.414 334.647C250.52 335.345 249.878 335.976 248.983 336.05C248.089 336.124 247.268 335.615 247.162 334.918L246.268 329.127C245.829 329.07 245.406 328.988 244.999 328.865L245.772 333.844C245.878 334.541 245.235 335.172 244.341 335.246C243.447 335.32 242.625 334.812 242.52 334.114L241.235 325.821C241.121 325.567 241.048 325.296 240.991 325.026L240.617 326.666C240.463 327.355 239.601 327.815 238.715 327.683C237.828 327.552 237.227 326.879 237.389 326.199" fill="#A2CCED"/>
<path d="M108.068 283.393C108.068 283.393 94.425 288.142 91.0753 317.607" stroke="#0F8AB2" stroke-width="6" stroke-miterlimit="10" stroke-linecap="round"/>
<path d="M104.587 292.1C104.587 264.194 118.327 237.1 136.117 217.766C181.972 167.926 233.04 239.881 233.04 294.405C233.04 334.648 201.461 344.401 169.866 344.401C138.263 344.401 104.587 332.334 104.587 292.1Z" fill="#00A1CD"/>
<path d="M96.669 316.352C96.0918 314.407 94.0022 312.865 91.3111 312.636C87.8881 312.349 84.7498 314.284 84.3433 316.95L83.327 323.521C83.3188 323.57 83.3188 323.611 83.3107 323.66C83.3026 323.685 83.2944 323.701 83.2944 323.726L81.9204 332.601C81.8147 333.298 82.457 333.93 83.3513 334.004C84.2457 334.078 85.0669 333.569 85.1726 332.872L85.9206 328.04C86.3108 328.254 86.7418 328.434 87.1971 328.574L86.3027 334.365C86.197 335.062 86.8393 335.694 87.7337 335.767C88.628 335.841 89.4492 335.333 89.5549 334.635L90.4492 328.844C90.8883 328.787 91.3111 328.705 91.7176 328.582L90.9452 333.561C90.8395 334.258 91.4818 334.89 92.3762 334.964C93.2705 335.037 94.0917 334.529 94.1974 333.832L95.482 325.539C95.5958 325.284 95.669 325.014 95.7259 324.743L96.0999 326.383C96.2544 327.073 97.1162 327.532 98.0024 327.401C98.8886 327.269 99.4903 326.597 99.3277 325.916" fill="#A2CCED"/>
<path d="M150.215 235.427C150.215 235.427 153.215 229.3 159.801 232.909" stroke="#0D4060" stroke-width="2" stroke-miterlimit="10" stroke-linecap="round"/>
<path d="M188.713 235.427C188.713 235.427 186.525 229.177 179.932 232.794" stroke="#0D4060" stroke-width="2" stroke-miterlimit="10" stroke-linecap="round"/>
<path d="M180 254C180 254 178.131 261.212 168.926 260.995C159.721 260.778 159 254 159 254H180Z" fill="#0D4060"/>
<path d="M173.883 246.353C173.883 242.162 177.476 238.766 181.899 238.766C186.33 238.766 189.916 242.162 189.916 246.353" fill="white"/>
<path d="M178.46 246.353C178.46 244.409 180.021 242.834 181.948 242.834C183.875 242.834 185.436 244.409 185.436 246.353" fill="#0D4060"/>
<path d="M150.036 246.353C150.036 242.162 153.646 238.766 158.102 238.766C162.557 238.766 166.167 242.162 166.167 246.353" fill="white"/>
<path d="M154.614 246.353C154.614 244.409 156.175 242.834 158.101 242.834C160.028 242.834 161.589 244.409 161.589 246.353" fill="#0D4060"/>
<path d="M150.735 242.777L146.564 240.923L150.264 244.18C150.215 244.368 150.182 244.541 150.15 244.713L146.532 244.204L149.987 245.837C149.938 246.353 149.947 246.682 149.947 246.682C151.882 239.824 155.752 238.914 156.866 238.791C153.313 238.905 151.573 240.841 150.735 242.777Z" fill="#0D4060"/>
<path d="M156.857 238.79C156.963 238.79 157.061 238.766 157.166 238.766C157.174 238.774 157.053 238.774 156.857 238.79Z" fill="#0D4060"/>
<path d="M193.558 244.204L189.94 244.712C189.908 244.54 189.867 244.36 189.826 244.179L193.526 240.923L189.355 242.777C188.517 240.841 186.777 238.905 183.224 238.79C184.33 238.913 188.208 239.824 190.143 246.681C190.143 246.681 190.151 246.353 190.103 245.836L193.558 244.204Z" fill="#0D4060"/>
<path d="M181.59 238.79C181.395 238.766 181.281 238.766 181.281 238.766C181.395 238.766 181.485 238.79 181.59 238.79Z" fill="#0D4060"/>
<ellipse rx="6.73874" ry="6.74882" transform="matrix(1 0 0 -1 121.91 210.28)" fill="white"/>
<g clip-path="url(#clip2)">
<path d="M188.873 166.46C188.873 166.46 162.679 174.874 149.504 166.958C140.581 161.593 142.4 155.047 143.872 150.738C144.033 150.902 144.194 151.066 144.36 151.221C148.658 155.191 150.921 156.462 153.234 157.677C151.938 158.604 150.53 159.934 151 161.135C151.821 163.232 155.365 165.479 158.822 162.604C160.019 161.608 160.792 160.572 161.295 159.64C162.806 159.789 164.503 159.864 166.228 159.77C166.683 160.885 167.524 162.275 169.113 163.6C172.569 166.48 176.114 164.228 176.935 162.131C177.57 160.512 174.779 158.644 173.464 157.876C173.522 157.842 173.581 157.812 173.64 157.777C173.64 157.777 185.27 152.795 185.27 133.705C185.27 133.705 186.194 123.582 185.373 119.597C184.552 115.611 186.933 103.85 177.756 107.431C177.756 107.431 172.814 110.58 175.493 95.8938C178.172 81.2076 184.346 80.3707 178.372 63.8014L173.356 50.7792L173.283 46.2358L157.018 46.455C157.018 46.455 157.639 49.4939 156.196 51.7955C152.926 57.0113 147.514 66.2226 147.084 70.731C146.468 77.2322 149.963 90.4487 150.995 95.0618C152.026 99.6749 152.026 105.548 149.552 107.227C149.552 107.227 143.583 103.033 141.525 109.743C139.467 116.453 140.42 125.475 140.215 127.573C140.063 129.117 138.67 137.372 141.354 144.047C135.516 159.476 136.538 167.003 150.535 173.091C164.532 179.178 180.822 173.823 180.822 173.823L188.873 166.46Z" fill="#EFB21C"/>
<path d="M166.126 158.275C166.126 158.275 166.072 108.353 167.103 100.592C168.135 92.8302 172.207 62.8351 165.666 63.4628C159.125 64.0905 157.477 75.2098 159.535 89.4725C161.594 103.735 162.83 127.438 162.21 135.2C161.589 142.961 161.178 158.275 161.178 158.275H166.126Z" fill="#F4EBC1"/>
<path d="M151.821 102.873C151.821 102.873 151.205 106.649 149.146 106.858C149.146 106.858 153.004 114.411 152.798 125.525C152.593 136.644 151.791 148.81 152.808 150.488C153.825 152.167 154.495 155.525 156.142 155.525C157.79 155.525 157.995 140.211 156.142 125.111C154.29 110.012 151.821 102.873 151.821 102.873Z" fill="#F4EBC1"/>
<path d="M174.613 103.854C174.613 103.854 175.273 107.621 177.331 107.81C177.331 107.81 173.557 115.392 173.884 126.506C174.212 137.621 175.146 149.776 174.148 151.465C173.146 153.154 172.515 156.531 170.868 156.546C169.22 156.566 168.849 141.257 170.535 126.133C172.222 111.008 174.613 103.854 174.613 103.854Z" fill="#F4EBC1"/>
<path d="M201.448 154.026C199.903 162.206 197.59 167.925 188.712 171.462C180.553 174.715 178.675 174.321 178.675 174.321C178.675 174.321 176.969 174.182 177.121 169.464C177.121 169.464 189.998 165.802 193.239 161.553C196.48 157.304 195.967 154.499 196.432 148.994C196.432 148.994 198.852 143.893 200.773 147.554C201.8 149.517 201.448 154.026 201.448 154.026Z" fill="#F4EBC1"/>
<path d="M178.758 37.3984C178.758 46.0566 169.035 50.4505 165.603 50.4505C161.897 50.4505 151.576 46.0517 151.576 37.3984C151.576 28.7451 157.663 27.5645 165.167 27.5645C172.672 27.5645 178.758 28.7451 178.758 37.3984Z" fill="#EFB21C"/>
<path d="M172.652 47.1676C172.652 48.9361 168.296 51.7657 166.267 51.7657C164.238 51.7657 165.304 48.9311 165.304 47.1676C165.304 45.3991 166.952 43.9644 168.981 43.9644C171.009 43.9644 172.652 45.3991 172.652 47.1676Z" fill="#F4EBC1"/>
<path d="M165.299 53.2801C167.33 53.2801 168.976 51.6029 168.976 49.5339C168.976 47.4649 167.33 45.7876 165.299 45.7876C163.269 45.7876 161.623 47.4649 161.623 49.5339C161.623 51.6029 163.269 53.2801 165.299 53.2801Z" fill="#F4EBC1"/>
<path d="M166.037 47.546C166.037 49.3145 167.015 51.7656 164.986 51.7656C162.957 51.7656 158.689 49.3096 158.689 47.546C158.689 45.7775 160.337 44.3428 162.366 44.3428C164.395 44.3428 166.037 45.7775 166.037 47.546Z" fill="#F4EBC1"/>
<path d="M167.671 44.766C167.671 45.6976 166.126 46.4548 165.603 46.4548C165.04 46.4548 163.535 45.6976 163.535 44.766C163.535 43.8344 164.459 43.5654 165.603 43.5654C166.747 43.5654 167.671 43.8295 167.671 44.766Z" fill="#261320"/>
<path d="M165.602 46.4302C165.602 46.4302 165.783 50.8739 161.926 50.9287C161.926 50.9287 166.36 51.6909 165.602 46.4302Z" fill="#261320"/>
<path d="M165.578 46.231C165.578 46.231 165.397 50.6747 169.255 50.7295C169.255 50.7295 164.825 51.4917 165.578 46.231Z" fill="#261320"/>
<path d="M170.663 41.1097C170.663 41.1097 169.734 38.0608 171.425 36.6112C173.117 35.1615 173.112 35.1615 173.112 35.1615C173.112 35.1615 169.978 34.2498 169.445 36.0931C168.917 37.9363 170.663 41.1097 170.663 41.1097Z" fill="#F4EBC1"/>
<path d="M160.41 41.0599C160.41 41.0599 161.339 38.011 159.648 36.5614C157.956 35.1117 157.961 35.1117 157.961 35.1117C157.961 35.1117 161.095 34.2 161.628 36.0433C162.161 37.8865 160.41 41.0599 160.41 41.0599Z" fill="#F4EBC1"/>
<path d="M173.141 36.5212C173.141 37.2087 172.105 38.2648 171.43 38.2648C170.755 38.2648 170.208 37.7068 170.208 37.0194C170.208 36.3319 170.755 35.7739 171.43 35.7739C172.105 35.7739 173.141 35.8337 173.141 36.5212Z" fill="#261320"/>
<path d="M161.002 37.1693C161.002 37.8567 160.454 38.4147 159.78 38.4147C159.105 38.4147 158.069 37.3586 158.069 36.6711C158.069 35.9836 159.105 35.9238 159.78 35.9238C160.454 35.9238 161.002 36.4818 161.002 37.1693Z" fill="#261320"/>
<path d="M160.176 50.0819C159.364 49.4492 158.753 49.0008 158.45 48.0095C157.849 46.0516 158.856 43.765 159.75 41.9865C160.621 40.2579 162.024 38.9925 161.53 36.8006C161.119 34.9822 157.018 35.2612 157.018 35.2612C157.018 35.2612 163.246 33.8713 163.046 36.8603C162.586 43.76 155.937 44.9058 160.176 50.0819Z" fill="#261320"/>
<path d="M170.785 49.6385C171.596 49.0058 172.207 48.5575 172.51 47.5661C173.112 45.6083 172.105 43.3217 171.21 41.5432C170.34 39.8145 168.937 38.5492 169.43 36.3572C169.841 34.5389 173.943 34.8178 173.943 34.8178C173.943 34.8178 167.714 33.4279 167.915 36.417C168.374 43.3167 175.023 44.4625 170.785 49.6385Z" fill="#261320"/>
<path d="M165.495 34.8825C165.719 34.8825 165.901 33.7249 165.901 32.2969C165.901 30.869 165.719 29.7114 165.495 29.7114C165.271 29.7114 165.089 30.869 165.089 32.2969C165.089 33.7249 165.271 34.8825 165.495 34.8825Z" fill="#261503"/>
<path d="M156.245 29.6315C156.245 29.6315 152.794 25.5266 149.156 26.6325C146.086 27.5691 146.101 35.9683 152.099 37.3034L156.245 29.6315Z" fill="#EFB21C"/>
<path d="M152.534 35.4105C152.534 35.4105 153.082 31.7439 155.15 30.8522C155.277 30.7974 154.123 29.7911 154.05 29.7463C153.16 29.2431 150.638 28.7698 149.992 29.8011C149.494 30.6031 149.645 31.8635 149.992 32.7004C150.198 33.1936 150.51 33.637 150.862 34.0355C151.034 34.2248 152.544 35.3557 152.534 35.4105Z" fill="#1A1318"/>
<path d="M174.534 29.1882C174.534 29.1882 177.986 25.0832 181.623 26.1891C184.693 27.1257 184.679 35.5249 178.68 36.86L174.534 29.1882Z" fill="#EFB21C"/>
<path d="M178.24 34.9671C178.24 34.9671 177.693 31.3006 175.625 30.4088C175.497 30.354 176.651 29.3477 176.725 29.3029C177.614 28.7997 180.137 28.3265 180.782 29.3577C181.281 30.1598 181.129 31.4201 180.782 32.2571C180.577 32.7503 180.264 33.1936 179.912 33.5922C179.741 33.7815 178.235 34.9123 178.24 34.9671Z" fill="#1A1318"/>
<path d="M169.666 32.308C170.02 31.6682 169.968 30.9544 169.55 30.7138C169.131 30.4732 168.505 30.7968 168.15 31.4367C167.796 32.0765 167.848 32.7903 168.267 33.0309C168.686 33.2715 169.312 32.9478 169.666 32.308Z" fill="#261320"/>
<path d="M162.87 33.0128C163.288 32.7722 163.341 32.0584 162.986 31.4186C162.632 30.7787 162.006 30.4551 161.587 30.6957C161.168 30.9363 161.116 31.65 161.47 32.2899C161.825 32.9297 162.451 33.2534 162.87 33.0128Z" fill="#261320"/>
<path d="M159.538 31.0453C159.759 30.9183 159.786 30.5413 159.599 30.2034C159.412 29.8655 159.081 29.6946 158.86 29.8217C158.639 29.9488 158.612 30.3257 158.799 30.6636C158.986 31.0015 159.317 31.1724 159.538 31.0453Z" fill="#261320"/>
<path d="M155 41.0302C155.222 40.9031 155.249 40.5262 155.062 40.1883C154.875 39.8504 154.544 39.6795 154.323 39.8066C154.102 39.9336 154.074 40.3105 154.262 40.6484C154.449 40.9863 154.779 41.1572 155 41.0302Z" fill="#261320"/>
<path d="M157.356 42.3148C157.577 42.1878 157.605 41.8109 157.418 41.473C157.231 41.1351 156.9 40.9642 156.679 41.0912C156.458 41.2183 156.43 41.5952 156.617 41.9331C156.804 42.271 157.135 42.4419 157.356 42.3148Z" fill="#261320"/>
<path d="M156.001 43.475C156.222 43.3479 156.25 42.971 156.063 42.6331C155.876 42.2952 155.545 42.1243 155.324 42.2514C155.103 42.3784 155.075 42.7554 155.262 43.0933C155.45 43.4312 155.78 43.6021 156.001 43.475Z" fill="#261320"/>
<path d="M176.541 40.7067C176.728 40.3688 176.7 39.9919 176.479 39.8648C176.258 39.7378 175.927 39.9087 175.74 40.2466C175.553 40.5845 175.581 40.9614 175.802 41.0885C176.023 41.2155 176.354 41.0446 176.541 40.7067Z" fill="#261320"/>
<path d="M174.189 41.9963C174.376 41.6584 174.348 41.2815 174.127 41.1544C173.906 41.0273 173.575 41.1982 173.388 41.5361C173.201 41.874 173.229 42.251 173.45 42.378C173.671 42.5051 174.001 42.3342 174.189 41.9963Z" fill="#261320"/>
<path d="M175.543 43.1589C175.73 42.821 175.702 42.4441 175.481 42.317C175.26 42.1899 174.93 42.3608 174.742 42.6987C174.555 43.0366 174.583 43.4136 174.804 43.5406C175.025 43.6677 175.356 43.4968 175.543 43.1589Z" fill="#261320"/>
<path d="M156.283 60.9035C156.531 60.4554 156.494 59.9551 156.2 59.7861C155.906 59.6172 155.467 59.8435 155.218 60.2916C154.97 60.7397 155.008 61.24 155.302 61.409C155.596 61.5779 156.035 61.3516 156.283 60.9035Z" fill="#261320"/>
<path d="M159.906 63.1073C160.29 62.4147 160.233 61.6418 159.779 61.3809C159.325 61.12 158.646 61.4699 158.263 62.1625C157.879 62.8551 157.937 63.628 158.39 63.8889C158.844 64.1498 159.523 63.7998 159.906 63.1073Z" fill="#261320"/>
<path d="M163.294 57.3885C163.564 56.8996 163.524 56.3543 163.205 56.1704C162.885 55.9866 162.406 56.2339 162.135 56.7227C161.865 57.2116 161.905 57.7569 162.225 57.9408C162.544 58.1246 163.023 57.8773 163.294 57.3885Z" fill="#261320"/>
<path d="M155.115 71.5682C155.498 70.8756 155.441 70.1027 154.987 69.8418C154.533 69.5809 153.855 69.9309 153.471 70.6234C153.088 71.316 153.145 72.0889 153.599 72.3498C154.053 72.6107 154.732 72.2608 155.115 71.5682Z" fill="#261320"/>
<path d="M159.485 57.0495C159.672 56.7116 159.644 56.3347 159.423 56.2076C159.202 56.0806 158.871 56.2515 158.684 56.5894C158.497 56.9273 158.525 57.3042 158.746 57.4312C158.967 57.5583 159.298 57.3874 159.485 57.0495Z" fill="#261320"/>
<path d="M158.75 53.5051C158.937 53.1672 158.91 52.7902 158.688 52.6632C158.467 52.5361 158.137 52.707 157.95 53.0449C157.762 53.3828 157.79 53.7597 158.011 53.8868C158.232 54.0139 158.563 53.843 158.75 53.5051Z" fill="#261320"/>
<path d="M152.82 63.0466C153.007 62.7087 152.979 62.3317 152.758 62.2047C152.537 62.0776 152.206 62.2485 152.019 62.5864C151.832 62.9243 151.86 63.3012 152.081 63.4283C152.302 63.5554 152.633 63.3845 152.82 63.0466Z" fill="#261320"/>
<path d="M156.662 56.8879C156.849 56.55 156.821 56.1731 156.6 56.046C156.379 55.9189 156.048 56.0898 155.861 56.4277C155.674 56.7656 155.702 57.1426 155.923 57.2696C156.144 57.3967 156.475 57.2258 156.662 56.8879Z" fill="#261320"/>
<path d="M171.886 30.2687C172.073 29.9308 172.045 29.5539 171.824 29.4269C171.603 29.2998 171.273 29.4707 171.085 29.8086C170.898 30.1465 170.926 30.5234 171.147 30.6505C171.368 30.7775 171.699 30.6066 171.886 30.2687Z" fill="#261320"/>
<path d="M163.882 30.1698C164.103 30.0428 164.131 29.6658 163.944 29.3279C163.757 28.9901 163.426 28.8191 163.205 28.9462C162.984 29.0733 162.956 29.4502 163.143 29.7881C163.33 30.126 163.661 30.2969 163.882 30.1698Z" fill="#261320"/>
<path d="M167.732 30.0368C167.919 29.6989 167.892 29.322 167.671 29.1949C167.45 29.0679 167.119 29.2388 166.932 29.5767C166.745 29.9146 166.772 30.2915 166.993 30.4185C167.214 30.5456 167.545 30.3747 167.732 30.0368Z" fill="#261320"/>
<path d="M156.161 65.9255C156.348 65.5876 156.321 65.2107 156.1 65.0836C155.879 64.9565 155.548 65.1274 155.361 65.4653C155.174 65.8032 155.201 66.1802 155.422 66.3072C155.643 66.4343 155.974 66.2634 156.161 65.9255Z" fill="#261320"/>
<path d="M153.056 89.9406C153.243 89.6027 153.215 89.2258 152.994 89.0987C152.773 88.9717 152.442 89.1426 152.255 89.4805C152.068 89.8184 152.096 90.1953 152.317 90.3224C152.538 90.4494 152.869 90.2785 153.056 89.9406Z" fill="#261320"/>
<path d="M157.42 95.59C157.607 95.2521 157.58 94.8752 157.359 94.7481C157.138 94.6211 156.807 94.792 156.62 95.1299C156.433 95.4678 156.46 95.8447 156.682 95.9718C156.903 96.0988 157.233 95.9279 157.42 95.59Z" fill="#261320"/>
<path d="M156.11 105.619C156.331 105.491 156.359 105.115 156.172 104.777C155.985 104.439 155.654 104.268 155.433 104.395C155.212 104.522 155.184 104.899 155.371 105.237C155.558 105.575 155.889 105.746 156.11 105.619Z" fill="#261320"/>
<path d="M159.042 122.994C159.264 122.866 159.291 122.49 159.104 122.152C158.917 121.814 158.586 121.643 158.365 121.77C158.144 121.897 158.116 122.274 158.304 122.612C158.491 122.95 158.821 123.121 159.042 122.994Z" fill="#261320"/>
<path d="M151.448 67.5908C151.815 66.9294 151.761 66.1916 151.328 65.9429C150.895 65.6941 150.248 66.0287 149.881 66.6901C149.515 67.3515 149.569 68.0893 150.002 68.338C150.435 68.5868 151.082 68.2522 151.448 67.5908Z" fill="#261320"/>
<path d="M150.285 74.5621C150.78 74.5204 151.131 73.8732 151.07 73.1164C151.009 72.3596 150.558 71.7799 150.063 71.8215C149.567 71.8632 149.216 72.5105 149.277 73.2673C149.338 74.024 149.789 74.6038 150.285 74.5621Z" fill="#261320"/>
<path d="M155.545 77.8946C156.04 77.853 156.392 77.2057 156.331 76.4489C156.269 75.6921 155.818 75.1124 155.323 75.1541C154.828 75.1957 154.476 75.843 154.538 76.5998C154.599 77.3566 155.05 77.9363 155.545 77.8946Z" fill="#261320"/>
<path d="M151.911 79.2267C152.192 78.5234 152.047 77.7985 151.587 77.6077C151.127 77.4168 150.526 77.8323 150.245 78.5356C149.964 79.2389 150.109 79.9638 150.569 80.1547C151.03 80.3455 151.63 79.9301 151.911 79.2267Z" fill="#261320"/>
<path d="M154.905 84.4205C155.4 84.3788 155.751 83.7316 155.69 82.9748C155.629 82.218 155.178 81.6383 154.683 81.6799C154.188 81.7216 153.836 82.3689 153.897 83.1257C153.959 83.8824 154.41 84.4622 154.905 84.4205Z" fill="#261320"/>
<path d="M152.089 86.8067C152.584 86.7651 152.936 86.1178 152.874 85.361C152.813 84.6042 152.362 84.0245 151.867 84.0662C151.372 84.1078 151.02 84.7551 151.081 85.5119C151.143 86.2687 151.594 86.8484 152.089 86.8067Z" fill="#261320"/>
<path d="M156.372 91.818C156.867 91.7763 157.219 91.129 157.157 90.3722C157.096 89.6154 156.645 89.0357 156.15 89.0774C155.655 89.1191 155.303 89.7663 155.364 90.5231C155.426 91.2799 155.877 91.8596 156.372 91.818Z" fill="#261320"/>
<path d="M153.668 95.3551C154.163 95.3134 154.515 94.6661 154.454 93.9093C154.392 93.1526 153.941 92.5728 153.446 92.6145C152.951 92.6562 152.599 93.3034 152.661 94.0602C152.722 94.817 153.173 95.3967 153.668 95.3551Z" fill="#261320"/>
<path d="M158.479 101.02C158.974 100.978 159.326 100.331 159.264 99.5739C159.203 98.8171 158.752 98.2374 158.257 98.2791C157.762 98.3207 157.41 98.968 157.471 99.7248C157.533 100.482 157.984 101.061 158.479 101.02Z" fill="#261320"/>
<path d="M155.252 101.745C155.72 101.574 155.895 100.856 155.644 100.141C155.393 99.4264 154.81 98.985 154.343 99.1555C153.875 99.3261 153.699 100.044 153.95 100.759C154.201 101.474 154.784 101.915 155.252 101.745Z" fill="#261320"/>
<path d="M159.163 109.61C159.631 109.44 159.807 108.722 159.556 108.007C159.305 107.292 158.722 106.85 158.254 107.021C157.786 107.191 157.611 107.909 157.862 108.624C158.113 109.339 158.695 109.781 159.163 109.61Z" fill="#261320"/>
<path d="M157.618 113.736C158.086 113.565 158.262 112.847 158.011 112.132C157.76 111.417 157.177 110.976 156.709 111.146C156.242 111.317 156.066 112.035 156.317 112.75C156.568 113.465 157.151 113.906 157.618 113.736Z" fill="#261320"/>
<path d="M159.73 117.189C159.946 116.463 159.735 115.754 159.26 115.608C158.784 115.461 158.224 115.932 158.008 116.658C157.792 117.385 158.002 118.093 158.478 118.24C158.954 118.387 159.514 117.916 159.73 117.189Z" fill="#261320"/>
<path d="M160.867 125.449C160.992 125.082 160.898 124.716 160.658 124.632C160.418 124.547 160.123 124.776 159.999 125.143C159.874 125.509 159.968 125.875 160.208 125.96C160.448 126.044 160.743 125.815 160.867 125.449Z" fill="#261320"/>
<path d="M158.692 128.135C158.913 128.008 158.94 127.631 158.753 127.293C158.566 126.955 158.235 126.784 158.014 126.911C157.793 127.038 157.766 127.415 157.953 127.753C158.14 128.091 158.471 128.262 158.692 128.135Z" fill="#261320"/>
<path d="M160.52 130.584C160.644 130.218 160.55 129.852 160.31 129.767C160.071 129.683 159.775 129.912 159.651 130.278C159.527 130.645 159.62 131.011 159.86 131.095C160.1 131.18 160.395 130.951 160.52 130.584Z" fill="#261320"/>
<path d="M161.342 136.066C161.466 135.699 161.373 135.333 161.133 135.249C160.893 135.164 160.598 135.393 160.473 135.76C160.349 136.127 160.443 136.492 160.682 136.577C160.922 136.661 161.218 136.432 161.342 136.066Z" fill="#261320"/>
<path d="M159.547 139.513C159.768 139.386 159.795 139.009 159.608 138.671C159.421 138.333 159.091 138.162 158.87 138.289C158.648 138.416 158.621 138.793 158.808 139.131C158.995 139.469 159.325 139.64 159.547 139.513Z" fill="#261320"/>
<path d="M159.727 133.839C159.851 133.473 159.757 133.107 159.517 133.022C159.278 132.938 158.982 133.167 158.858 133.533C158.734 133.9 158.827 134.266 159.067 134.35C159.307 134.435 159.602 134.206 159.727 133.839Z" fill="#261320"/>
<path d="M160.608 145.833C160.746 145.471 160.665 145.102 160.429 145.008C160.192 144.915 159.889 145.132 159.751 145.494C159.614 145.856 159.694 146.225 159.93 146.318C160.167 146.412 160.47 146.194 160.608 145.833Z" fill="#261320"/>
<path d="M174.778 60.6465C175.072 60.4775 175.109 59.9772 174.861 59.5291C174.613 59.081 174.174 58.8547 173.88 59.0236C173.586 59.1926 173.549 59.6929 173.797 60.141C174.045 60.5891 174.484 60.8154 174.778 60.6465Z" fill="#261320"/>
<path d="M171.689 63.1269C172.143 62.866 172.2 62.0931 171.817 61.4006C171.433 60.708 170.754 60.3581 170.301 60.6189C169.847 60.8798 169.79 61.6527 170.173 62.3453C170.556 63.0379 171.235 63.3878 171.689 63.1269Z" fill="#261320"/>
<path d="M168.122 57.9409C168.442 57.7571 168.482 57.2117 168.211 56.7229C167.94 56.234 167.462 55.9867 167.142 56.1706C166.822 56.3544 166.782 56.8997 167.053 57.3886C167.323 57.8775 167.802 58.1247 168.122 57.9409Z" fill="#261320"/>
<path d="M173.542 73.0825C173.996 72.8216 174.053 72.0487 173.67 71.3561C173.286 70.6636 172.608 70.3136 172.154 70.5745C171.7 70.8354 171.643 71.6083 172.026 72.3009C172.409 72.9934 173.088 73.3434 173.542 73.0825Z" fill="#261320"/>
<path d="M170.845 57.6679C171.066 57.5408 171.094 57.1639 170.907 56.826C170.72 56.4881 170.389 56.3172 170.168 56.4443C169.947 56.5713 169.919 56.9482 170.106 57.2861C170.294 57.624 170.624 57.7949 170.845 57.6679Z" fill="#261320"/>
<path d="M171.577 54.1205C171.798 53.9934 171.826 53.6165 171.639 53.2786C171.452 52.9407 171.121 52.7698 170.9 52.8969C170.679 53.0239 170.651 53.4009 170.838 53.7388C171.025 54.0767 171.356 54.2476 171.577 54.1205Z" fill="#261320"/>
<path d="M175.065 64.1591C175.286 64.032 175.314 63.6551 175.127 63.3172C174.939 62.9793 174.609 62.8084 174.388 62.9355C174.167 63.0625 174.139 63.4394 174.326 63.7773C174.513 64.1152 174.844 64.2861 175.065 64.1591Z" fill="#261320"/>
<path d="M173.667 57.5043C173.888 57.3772 173.916 57.0003 173.729 56.6624C173.542 56.3245 173.211 56.1536 172.99 56.2807C172.769 56.4077 172.741 56.7847 172.928 57.1226C173.115 57.4604 173.446 57.6314 173.667 57.5043Z" fill="#261320"/>
<path d="M171.72 67.0395C171.941 66.9124 171.969 66.5355 171.782 66.1976C171.595 65.8597 171.264 65.6888 171.043 65.8158C170.822 65.9429 170.794 66.3198 170.981 66.6577C171.168 66.9956 171.499 67.1665 171.72 67.0395Z" fill="#261320"/>
<path d="M174.829 91.0556C175.05 90.9285 175.078 90.5516 174.891 90.2137C174.704 89.8758 174.373 89.7049 174.152 89.8319C173.931 89.959 173.903 90.3359 174.09 90.6738C174.277 91.0117 174.608 91.1826 174.829 91.0556Z" fill="#261320"/>
<path d="M170.463 96.7016C170.684 96.5745 170.712 96.1976 170.524 95.8597C170.337 95.5218 170.007 95.3509 169.786 95.4779C169.564 95.605 169.537 95.9819 169.724 96.3198C169.911 96.6577 170.242 96.8286 170.463 96.7016Z" fill="#261320"/>
<path d="M171.774 105.967C171.961 105.629 171.933 105.252 171.712 105.125C171.491 104.998 171.16 105.169 170.973 105.507C170.786 105.845 170.814 106.222 171.035 106.349C171.256 106.476 171.587 106.305 171.774 105.967Z" fill="#261320"/>
<path d="M169.821 123.342C170.008 123.005 169.981 122.628 169.76 122.501C169.539 122.374 169.208 122.544 169.021 122.882C168.834 123.22 168.861 123.597 169.082 123.724C169.303 123.851 169.634 123.68 169.821 123.342Z" fill="#261320"/>
<path d="M177.145 69.0689C177.577 68.8201 177.631 68.0823 177.265 67.4209C176.899 66.7595 176.251 66.425 175.819 66.6737C175.386 66.9224 175.332 67.6602 175.698 68.3216C176.064 68.983 176.712 69.3176 177.145 69.0689Z" fill="#261320"/>
<path d="M178.842 74.5003C178.903 73.7435 178.552 73.0963 178.057 73.0546C177.561 73.0129 177.11 73.5926 177.049 74.3494C176.988 75.1062 177.339 75.7535 177.834 75.7952C178.33 75.8368 178.781 75.2571 178.842 74.5003Z" fill="#261320"/>
<path d="M173.585 77.8319C173.647 77.0751 173.295 76.4278 172.8 76.3861C172.305 76.3445 171.854 76.9242 171.792 77.681C171.731 78.4378 172.083 79.085 172.578 79.1267C173.073 79.1684 173.524 78.5887 173.585 77.8319Z" fill="#261320"/>
<path d="M177.553 80.8884C178.013 80.6975 178.159 79.9727 177.878 79.2694C177.597 78.566 176.996 78.1506 176.536 78.3414C176.076 78.5323 175.93 79.2572 176.211 79.9605C176.492 80.6638 177.093 81.0793 177.553 80.8884Z" fill="#261320"/>
<path d="M173.245 83.8621C173.307 83.1053 172.955 82.4581 172.46 82.4164C171.965 82.3748 171.514 82.9545 171.452 83.7113C171.391 84.468 171.743 85.1153 172.238 85.157C172.733 85.1986 173.184 84.6189 173.245 83.8621Z" fill="#261320"/>
<path d="M176.063 86.2445C176.124 85.4877 175.773 84.8404 175.278 84.7987C174.782 84.7571 174.331 85.3368 174.27 86.0936C174.209 86.8504 174.56 87.4976 175.055 87.5393C175.551 87.581 176.002 87.0012 176.063 86.2445Z" fill="#261320"/>
<path d="M171.78 91.2537C171.842 90.497 171.49 89.8497 170.995 89.808C170.5 89.7664 170.049 90.3461 169.988 91.1029C169.926 91.8597 170.278 92.5069 170.773 92.5486C171.268 92.5902 171.719 92.0105 171.78 91.2537Z" fill="#261320"/>
<path d="M174.485 94.7923C174.546 94.0355 174.195 93.3883 173.7 93.3466C173.205 93.3049 172.753 93.8847 172.692 94.6414C172.631 95.3982 172.982 96.0455 173.478 96.0872C173.973 96.1288 174.424 95.5491 174.485 94.7923Z" fill="#261320"/>
<path d="M169.672 100.458C169.733 99.7015 169.382 99.0542 168.887 99.0126C168.392 98.9709 167.94 99.5506 167.879 100.307C167.818 101.064 168.169 101.712 168.665 101.753C169.16 101.795 169.611 101.215 169.672 100.458Z" fill="#261320"/>
<path d="M173.203 101.488C173.454 100.773 173.278 100.056 172.811 99.885C172.343 99.7145 171.76 100.156 171.509 100.871C171.258 101.586 171.434 102.304 171.901 102.474C172.369 102.645 172.952 102.204 173.203 101.488Z" fill="#261320"/>
<path d="M169.785 109.354C170.036 108.639 169.861 107.921 169.393 107.75C168.925 107.58 168.342 108.021 168.091 108.736C167.84 109.451 168.016 110.169 168.484 110.34C168.952 110.51 169.534 110.069 169.785 109.354Z" fill="#261320"/>
<path d="M171.329 113.477C171.58 112.762 171.404 112.044 170.937 111.874C170.469 111.703 169.886 112.145 169.635 112.86C169.384 113.575 169.56 114.293 170.027 114.463C170.495 114.634 171.078 114.192 171.329 113.477Z" fill="#261320"/>
<path d="M169.649 118.974C170.124 118.828 170.335 118.119 170.119 117.393C169.903 116.666 169.343 116.195 168.867 116.342C168.392 116.489 168.181 117.197 168.397 117.924C168.613 118.65 169.173 119.121 169.649 118.974Z" fill="#261320"/>
<path d="M167.918 126.69C168.158 126.605 168.251 126.239 168.127 125.873C168.003 125.506 167.707 125.277 167.468 125.362C167.228 125.446 167.134 125.812 167.258 126.179C167.383 126.545 167.678 126.774 167.918 126.69Z" fill="#261320"/>
<path d="M169.686 128.482C169.873 128.144 169.846 127.767 169.624 127.64C169.403 127.513 169.073 127.684 168.886 128.022C168.699 128.36 168.726 128.737 168.947 128.864C169.168 128.991 169.499 128.82 169.686 128.482Z" fill="#261320"/>
<path d="M168.271 131.831C168.511 131.746 168.604 131.38 168.48 131.014C168.356 130.647 168.06 130.418 167.82 130.503C167.58 130.587 167.487 130.953 167.611 131.32C167.735 131.686 168.031 131.915 168.271 131.831Z" fill="#261320"/>
<path d="M167.449 137.31C167.689 137.226 167.783 136.86 167.658 136.493C167.534 136.127 167.239 135.898 166.999 135.982C166.759 136.067 166.665 136.433 166.79 136.799C166.914 137.166 167.209 137.395 167.449 137.31Z" fill="#261320"/>
<path d="M168.348 139.866C168.535 139.528 168.507 139.151 168.286 139.024C168.065 138.897 167.734 139.068 167.547 139.406C167.36 139.744 167.388 140.121 167.609 140.248C167.83 140.375 168.161 140.204 168.348 139.866Z" fill="#261320"/>
<path d="M169.062 135.079C169.302 134.995 169.395 134.629 169.271 134.262C169.147 133.896 168.851 133.667 168.611 133.751C168.371 133.836 168.278 134.202 168.402 134.568C168.526 134.935 168.822 135.164 169.062 135.079Z" fill="#261320"/>
<path d="M167.71 146.558C167.947 146.465 168.027 146.096 167.889 145.734C167.752 145.372 167.448 145.155 167.212 145.248C166.975 145.342 166.895 145.711 167.032 146.072C167.17 146.434 167.473 146.652 167.71 146.558Z" fill="#261320"/>
<path d="M147.343 109.468C147.591 109.02 147.554 108.52 147.26 108.351C146.966 108.182 146.526 108.408 146.278 108.856C146.03 109.304 146.067 109.804 146.361 109.973C146.655 110.142 147.095 109.916 147.343 109.468Z" fill="#261320"/>
<path d="M151.406 122.211C151.79 121.519 151.733 120.746 151.279 120.485C150.825 120.224 150.146 120.574 149.763 121.267C149.379 121.959 149.437 122.732 149.89 122.993C150.344 123.254 151.023 122.904 151.406 122.211Z" fill="#261320"/>
<path d="M148.13 120.133C148.514 119.44 148.456 118.667 148.003 118.406C147.549 118.145 146.87 118.495 146.487 119.188C146.103 119.88 146.16 120.653 146.614 120.914C147.068 121.175 147.747 120.825 148.13 120.133Z" fill="#261320"/>
<path d="M143.876 111.609C144.063 111.271 144.035 110.894 143.814 110.767C143.593 110.64 143.262 110.811 143.075 111.148C142.888 111.486 142.916 111.863 143.137 111.99C143.358 112.117 143.688 111.946 143.876 111.609Z" fill="#261320"/>
<path d="M149.177 114.49C149.364 114.152 149.336 113.775 149.115 113.648C148.894 113.521 148.563 113.692 148.376 114.03C148.189 114.368 148.217 114.745 148.438 114.872C148.659 114.999 148.99 114.828 149.177 114.49Z" fill="#261320"/>
<path d="M146.069 138.509C146.256 138.172 146.228 137.795 146.007 137.668C145.786 137.541 145.455 137.711 145.268 138.049C145.081 138.387 145.109 138.764 145.33 138.891C145.551 139.018 145.882 138.847 146.069 138.509Z" fill="#261320"/>
<path d="M150.432 144.152C150.619 143.814 150.591 143.437 150.37 143.31C150.149 143.183 149.818 143.354 149.631 143.692C149.444 144.03 149.472 144.407 149.693 144.534C149.914 144.661 150.245 144.49 150.432 144.152Z" fill="#261320"/>
<path d="M149.122 154.181C149.343 154.054 149.371 153.677 149.184 153.339C148.997 153.001 148.666 152.83 148.445 152.957C148.224 153.084 148.196 153.461 148.383 153.799C148.57 154.137 148.901 154.308 149.122 154.181Z" fill="#261320"/>
<path d="M144.46 116.153C144.826 115.491 144.772 114.754 144.339 114.505C143.906 114.256 143.259 114.591 142.893 115.252C142.527 115.914 142.581 116.651 143.013 116.9C143.446 117.149 144.094 116.814 144.46 116.153Z" fill="#261320"/>
<path d="M143.299 123.129C143.795 123.087 144.146 122.44 144.085 121.683C144.024 120.926 143.573 120.346 143.077 120.388C142.582 120.43 142.231 121.077 142.292 121.834C142.353 122.59 142.804 123.17 143.299 123.129Z" fill="#261320"/>
<path d="M147.582 126.456C148.077 126.414 148.429 125.767 148.367 125.01C148.306 124.254 147.855 123.674 147.36 123.716C146.865 123.757 146.513 124.405 146.574 125.161C146.636 125.918 147.087 126.498 147.582 126.456Z" fill="#261320"/>
<path d="M143.943 127.792C144.224 127.088 144.078 126.363 143.618 126.173C143.158 125.982 142.557 126.397 142.276 127.101C141.995 127.804 142.141 128.529 142.601 128.72C143.061 128.91 143.662 128.495 143.943 127.792Z" fill="#261320"/>
<path d="M147.431 132.489C147.926 132.447 148.277 131.8 148.216 131.043C148.155 130.286 147.704 129.707 147.209 129.748C146.713 129.79 146.362 130.437 146.423 131.194C146.484 131.951 146.935 132.53 147.431 132.489Z" fill="#261320"/>
<path d="M143.637 134.377C144.132 134.335 144.484 133.688 144.422 132.931C144.361 132.174 143.91 131.594 143.415 131.636C142.92 131.678 142.568 132.325 142.629 133.082C142.691 133.838 143.142 134.418 143.637 134.377Z" fill="#261320"/>
<path d="M149.381 140.38C149.876 140.338 150.228 139.691 150.167 138.934C150.105 138.177 149.654 137.598 149.159 137.639C148.664 137.681 148.312 138.328 148.374 139.085C148.435 139.842 148.886 140.422 149.381 140.38Z" fill="#261320"/>
<path d="M146.683 143.922C147.178 143.88 147.53 143.233 147.468 142.476C147.407 141.719 146.956 141.139 146.461 141.181C145.966 141.223 145.614 141.87 145.676 142.627C145.737 143.383 146.188 143.963 146.683 143.922Z" fill="#261320"/>
<path d="M143.789 148.087C144.284 148.045 144.636 147.398 144.574 146.641C144.513 145.884 144.062 145.304 143.567 145.346C143.072 145.388 142.72 146.035 142.781 146.792C142.843 147.548 143.294 148.128 143.789 148.087Z" fill="#261320"/>
<path d="M140.572 155.52C141.067 155.478 141.419 154.831 141.357 154.074C141.296 153.317 140.845 152.737 140.35 152.779C139.855 152.821 139.503 153.468 139.564 154.225C139.626 154.982 140.077 155.561 140.572 155.52Z" fill="#261320"/>
<path d="M141.476 161.896C141.972 161.854 142.323 161.207 142.262 160.45C142.201 159.693 141.75 159.113 141.254 159.155C140.759 159.197 140.408 159.844 140.469 160.601C140.53 161.358 140.981 161.937 141.476 161.896Z" fill="#261320"/>
<path d="M142.733 167.012C143.228 166.971 143.58 166.323 143.518 165.567C143.457 164.81 143.006 164.23 142.511 164.272C142.016 164.313 141.664 164.961 141.725 165.717C141.787 166.474 142.238 167.054 142.733 167.012Z" fill="#261320"/>
<path d="M147.583 168.387C148.078 168.345 148.429 167.698 148.368 166.941C148.307 166.184 147.856 165.605 147.361 165.646C146.865 165.688 146.514 166.335 146.575 167.092C146.636 167.849 147.088 168.428 147.583 168.387Z" fill="#261320"/>
<path d="M150.144 172.203C150.639 172.161 150.991 171.514 150.929 170.757C150.868 170 150.417 169.42 149.922 169.462C149.427 169.504 149.075 170.151 149.136 170.908C149.198 171.665 149.649 172.244 150.144 172.203Z" fill="#261320"/>
<path d="M154.569 172.203C155.064 172.161 155.415 171.514 155.354 170.757C155.293 170 154.842 169.42 154.346 169.462C153.851 169.504 153.5 170.151 153.561 170.908C153.622 171.665 154.073 172.244 154.569 172.203Z" fill="#261320"/>
<path d="M157.888 174.948C158.383 174.906 158.735 174.259 158.674 173.502C158.612 172.745 158.161 172.166 157.666 172.207C157.171 172.249 156.819 172.896 156.881 173.653C156.942 174.41 157.393 174.989 157.888 174.948Z" fill="#261320"/>
<path d="M161.487 173.578C161.982 173.536 162.333 172.889 162.272 172.132C162.211 171.375 161.76 170.795 161.264 170.837C160.769 170.879 160.418 171.526 160.479 172.283C160.54 173.04 160.991 173.619 161.487 173.578Z" fill="#261320"/>
<path d="M165.96 174.947C166.455 174.906 166.806 174.258 166.745 173.502C166.684 172.745 166.233 172.165 165.738 172.207C165.242 172.248 164.891 172.896 164.952 173.652C165.013 174.409 165.465 174.989 165.96 174.947Z" fill="#261320"/>
<path d="M171.484 173.577C171.979 173.536 172.331 172.888 172.27 172.132C172.208 171.375 171.757 170.795 171.262 170.837C170.767 170.878 170.415 171.526 170.477 172.282C170.538 173.039 170.989 173.619 171.484 173.577Z" fill="#261320"/>
<path d="M148.266 150.309C148.734 150.138 148.91 149.42 148.659 148.705C148.408 147.99 147.825 147.549 147.357 147.72C146.889 147.89 146.714 148.608 146.965 149.323C147.216 150.038 147.798 150.479 148.266 150.309Z" fill="#261320"/>
<path d="M150.989 135.712C151.456 135.541 151.632 134.823 151.381 134.108C151.13 133.393 150.547 132.952 150.079 133.122C149.612 133.293 149.436 134.011 149.687 134.726C149.938 135.441 150.521 135.882 150.989 135.712Z" fill="#261320"/>
<path d="M142.747 139.578C143.214 139.407 143.39 138.689 143.139 137.974C142.888 137.259 142.305 136.818 141.837 136.989C141.37 137.159 141.194 137.877 141.445 138.592C141.696 139.307 142.279 139.748 142.747 139.578Z" fill="#261320"/>
<path d="M179.711 109.161C180.005 108.992 180.042 108.491 179.794 108.043C179.546 107.595 179.107 107.369 178.813 107.538C178.519 107.707 178.482 108.207 178.73 108.655C178.978 109.103 179.417 109.33 179.711 109.161Z" fill="#261320"/>
<path d="M176.181 122.176C176.634 121.915 176.692 121.142 176.308 120.45C175.925 119.757 175.246 119.407 174.792 119.668C174.338 119.929 174.281 120.702 174.665 121.395C175.048 122.087 175.727 122.437 176.181 122.176Z" fill="#261320"/>
<path d="M179.457 120.1C179.911 119.839 179.968 119.066 179.584 118.373C179.201 117.681 178.522 117.331 178.068 117.592C177.615 117.852 177.557 118.625 177.941 119.318C178.324 120.011 179.003 120.36 179.457 120.1Z" fill="#261320"/>
<path d="M182.931 111.179C183.152 111.052 183.18 110.675 182.993 110.337C182.806 109.999 182.475 109.828 182.254 109.955C182.033 110.082 182.005 110.459 182.192 110.797C182.379 111.135 182.71 111.306 182.931 111.179Z" fill="#261320"/>
<path d="M177.635 114.057C177.856 113.929 177.884 113.553 177.697 113.215C177.51 112.877 177.179 112.706 176.958 112.833C176.737 112.96 176.709 113.337 176.896 113.675C177.083 114.013 177.414 114.184 177.635 114.057Z" fill="#261320"/>
<path d="M180.74 138.075C180.961 137.948 180.988 137.571 180.801 137.233C180.614 136.895 180.283 136.724 180.062 136.851C179.841 136.979 179.814 137.355 180.001 137.693C180.188 138.031 180.519 138.202 180.74 138.075Z" fill="#261320"/>
<path d="M176.38 143.723C176.601 143.596 176.629 143.219 176.442 142.881C176.255 142.543 175.924 142.372 175.703 142.499C175.482 142.626 175.454 143.003 175.641 143.341C175.828 143.679 176.159 143.85 176.38 143.723Z" fill="#261320"/>
<path d="M177.688 152.983C177.875 152.645 177.847 152.268 177.626 152.141C177.405 152.014 177.075 152.185 176.887 152.522C176.7 152.86 176.728 153.237 176.949 153.364C177.17 153.491 177.501 153.32 177.688 152.983Z" fill="#261320"/>
<path d="M183.055 116.088C183.488 115.84 183.542 115.102 183.176 114.44C182.81 113.779 182.162 113.444 181.729 113.693C181.297 113.942 181.243 114.68 181.609 115.341C181.975 116.003 182.622 116.337 183.055 116.088Z" fill="#261320"/>
<path d="M183.776 121.024C183.837 120.267 183.486 119.62 182.99 119.578C182.495 119.536 182.044 120.116 181.983 120.873C181.922 121.63 182.273 122.277 182.768 122.319C183.263 122.36 183.715 121.781 183.776 121.024Z" fill="#261320"/>
<path d="M179.498 124.35C179.559 123.593 179.207 122.946 178.712 122.904C178.217 122.863 177.766 123.442 177.705 124.199C177.643 124.956 177.995 125.603 178.49 125.645C178.985 125.686 179.436 125.107 179.498 124.35Z" fill="#261320"/>
<path d="M183.464 127.912C183.924 127.721 184.069 126.997 183.788 126.293C183.507 125.59 182.906 125.175 182.446 125.365C181.986 125.556 181.841 126.281 182.122 126.984C182.403 127.688 183.003 128.103 183.464 127.912Z" fill="#261320"/>
<path d="M179.646 130.381C179.708 129.624 179.356 128.977 178.861 128.935C178.366 128.893 177.915 129.473 177.853 130.23C177.792 130.987 178.144 131.634 178.639 131.676C179.134 131.717 179.585 131.137 179.646 130.381Z" fill="#261320"/>
<path d="M183.442 132.27C183.503 131.513 183.151 130.866 182.656 130.824C182.161 130.782 181.71 131.362 181.649 132.119C181.587 132.876 181.939 133.523 182.434 133.565C182.929 133.606 183.38 133.027 183.442 132.27Z" fill="#261320"/>
<path d="M177.697 138.276C177.758 137.519 177.407 136.872 176.912 136.83C176.416 136.788 175.965 137.368 175.904 138.125C175.843 138.882 176.194 139.529 176.689 139.571C177.185 139.612 177.636 139.032 177.697 138.276Z" fill="#261320"/>
<path d="M180.397 141.814C180.458 141.057 180.106 140.41 179.611 140.368C179.116 140.326 178.665 140.906 178.604 141.663C178.542 142.42 178.894 143.067 179.389 143.109C179.884 143.15 180.335 142.571 180.397 141.814Z" fill="#261320"/>
<path d="M183.289 145.98C183.35 145.224 182.998 144.576 182.503 144.535C182.008 144.493 181.557 145.073 181.496 145.829C181.434 146.586 181.786 147.233 182.281 147.275C182.776 147.317 183.227 146.737 183.289 145.98Z" fill="#261320"/>
<path d="M179.119 148.506C179.37 147.791 179.194 147.073 178.726 146.902C178.258 146.732 177.676 147.173 177.425 147.888C177.173 148.603 177.349 149.321 177.817 149.491C178.285 149.662 178.868 149.221 179.119 148.506Z" fill="#261320"/>
<path d="M176.394 133.909C176.646 133.194 176.47 132.476 176.002 132.306C175.534 132.135 174.951 132.577 174.7 133.292C174.449 134.007 174.625 134.725 175.093 134.895C175.561 135.066 176.143 134.624 176.394 133.909Z" fill="#261320"/>
<path d="M184.636 137.772C184.887 137.057 184.711 136.339 184.244 136.168C183.776 135.998 183.193 136.439 182.942 137.154C182.691 137.869 182.867 138.587 183.334 138.758C183.802 138.928 184.385 138.487 184.636 137.772Z" fill="#261320"/>
<path d="M200.773 147.141C197.8 144.301 196.432 148.581 196.432 148.581C196.07 152.895 196.07 153.508 195.273 158.011L200.22 159.635C201.228 157.408 201.413 156.402 201.941 153.617C201.936 153.612 202.411 148.705 200.773 147.141Z" fill="#261320"/>
<path d="M177.214 174.75C177.214 174.75 176.475 171.143 177.805 171.362C179.135 171.581 179.858 174.257 179.858 174.257L177.214 174.75Z" fill="#261320"/>
<path d="M187.979 167.407C186.874 167.227 187.607 170.724 187.886 171.9C188.546 171.741 189.362 171.512 190.355 171.198C190.047 170.256 189.069 167.586 187.979 167.407Z" fill="#261320"/>
<path d="M186.033 172.438C185.148 170.964 183.662 168.856 182.449 168.996C181.085 169.15 182.063 172.144 182.674 173.724C183.584 173.4 184.601 173.016 185.745 172.563C185.842 172.518 185.935 172.478 186.033 172.438Z" fill="#261320"/>
<path d="M190.56 165.324C189.773 166.405 191.45 168.582 192.481 169.743C193.347 169.265 194.134 168.752 194.847 168.209C193.659 166.754 191.367 164.218 190.56 165.324Z" fill="#261320"/>
<path d="M198.055 164.328C196.71 163.057 194.677 161.413 194.388 162.803C194.139 164.029 195.205 165.678 196.133 166.839C196.872 166.051 197.502 165.214 198.055 164.328Z" fill="#261320"/>
</g>
<ellipse rx="11" ry="10.5" transform="matrix(1 0 0 -1 101 198.5)" fill="white"/>
</g>
<defs>
<filter id="filter0_d" x="-60" y="-37" width="452" height="702" filterUnits="userSpaceOnUse" color-interpolation-filters="sRGB">
<feFlood flood-opacity="0" result="BackgroundImageFix"/>
<feColorMatrix in="SourceAlpha" type="matrix" values="0 0 0 0 0 0 0 0 0 0 0 0 0 0 0 0 0 0 127 0"/>
<feOffset dy="4"/>
<feGaussianBlur stdDeviation="2"/>
<feColorMatrix type="matrix" values="0 0 0 0 0 0 0 0 0 0 0 0 0 0 0 0 0 0 0.25 0"/>
<feBlend mode="normal" in2="BackgroundImageFix" result="effect1_dropShadow"/>
<feBlend mode="normal" in="SourceGraphic" in2="effect1_dropShadow" result="shape"/>
</filter>
<clipPath id="clip0">
<rect width="411" height="731" fill="white" transform="translate(-43 -86)"/>
</clipPath>
<clipPath id="clip1">
<rect width="293" height="191" fill="white" transform="translate(17 5)"/>
</clipPath>
<clipPath id="clip2">
<rect width="64" height="150" fill="white" transform="translate(138 26)"/>
</clipPath>
</defs>
</svg>
