<svg width="362" height="460" viewBox="0 0 362 460" fill="none" xmlns="http://www.w3.org/2000/svg">
<path d="M295 439.5C295 450.822 243.065 460 179 460C114.935 460 63 450.822 63 439.5C63 428.178 114.935 419 179 419C243.065 419 295 428.178 295 439.5Z" fill="black" fill-opacity="0.1"/>
<g clip-path="url(#clip0)">
<path d="M107.902 148.804C113.087 148.79 117.376 152.277 118.081 157.187C118.463 159.883 117.567 162.228 115.731 164.192C112.206 167.987 105.993 168.559 101.836 165.467C98.9717 163.327 97.4881 160.469 98.061 156.894C98.6779 153.069 101.102 150.665 104.715 149.449C105.728 149.097 106.83 149.009 107.902 148.804Z" fill="white"/>
<path d="M118.081 177.733C120.769 177.718 122.885 179.696 122.914 182.246C122.943 184.679 120.769 186.731 118.14 186.774C115.555 186.804 113.352 184.752 113.308 182.305C113.264 179.784 115.408 177.733 118.081 177.733Z" fill="white"/>
<path d="M201.043 432.256L210.223 371.82H183.725L192.979 434L200.044 429.545" fill="#00A2C9"/>
<path d="M154.832 429.061L143.302 373.564H172.047L161.721 432.256L151.851 429.061" fill="#00A2C9"/>
<path d="M151.645 412.897H165.511L162.118 432.74H153.672L151.645 412.897Z" fill="#F30E51"/>
<path d="M189.585 413.689H204.215L202.159 433.531L192.979 434L189.585 413.689Z" fill="#F30E51"/>
<path d="M134.298 434C134.298 426.174 140.643 419.814 148.472 419.814C156.301 419.814 162.647 426.16 162.647 434" fill="#504B48"/>
<path d="M192.993 434C192.993 426.174 199.339 419.814 207.168 419.814C214.997 419.814 221.342 426.16 221.342 434" fill="#504B48"/>
<path d="M347.826 295.454C347.826 295.454 341.95 276.256 339.952 275.289C337.955 274.322 334.268 274.337 334.268 274.337L341.686 298.283L347.826 295.454Z" fill="#C6CACB"/>
<path d="M260.561 298.576C260.561 298.576 282.623 305.903 295.975 300.818C309.327 295.747 324.779 283.833 324.779 283.833" stroke="#008BAE" stroke-width="5.2022" stroke-miterlimit="10" stroke-linecap="round"/>
<path d="M317.67 279.261C315.026 281.063 313.719 284.976 314.673 289.167C315.893 294.502 320.328 298.326 324.529 297.682C328.76 297.022 332.99 296.421 337.235 295.835C339.453 295.527 341.686 295.234 343.904 294.956C345.725 294.721 347.958 294.809 349.515 293.71C351.336 292.421 350.704 288.376 348.105 288.771L340.481 289.959C340.613 289.255 340.672 288.522 340.657 287.76L349.808 286.339C350.91 286.178 351.556 284.888 351.233 283.496C350.91 282.104 349.75 281.107 348.648 281.268L339.497 282.69C339.203 282.06 338.865 281.459 338.498 280.902L346.357 279.686C347.458 279.51 348.09 278.235 347.781 276.843C347.458 275.45 346.298 274.454 345.196 274.615L332.094 276.652C331.653 276.608 331.213 276.608 330.772 276.667L334.283 274.351C335.237 273.78 335.516 272.256 334.885 270.981C334.253 269.691 331.742 270.072 330.772 270.629L317.67 279.261Z" fill="#D0E8F1"/>
<path d="M264.894 304.599C264.894 304.599 283.431 317.861 284.87 332.076C286.31 346.291 282.594 365.43 282.594 365.43" stroke="#008BAE" stroke-width="5.2022" stroke-miterlimit="10" stroke-linecap="round"/>
<path d="M361.809 345.236C361.809 345.236 351.924 312.717 347.458 294.531C345.167 295.029 343.301 295.19 340.966 295.337C341.906 302.503 344.653 312.073 344.667 312.527C344.77 317.099 331.022 322.521 322.311 314.71C315.437 308.541 331.007 279.935 331.007 279.935C331.007 279.935 333.93 274.732 337.338 275.831C338.307 274.923 339.747 276.154 340.775 275.304C335.957 273.296 332.696 273.75 332.696 273.75C320.813 279.847 309.033 315.267 304.48 325.394C299.926 335.505 297.532 362.177 308.152 371.38C311.178 374.003 307.931 371.659 340.041 372.406C365.584 372.978 361.809 345.236 361.809 345.236Z" fill="#C6CACB"/>
<path d="M328.113 285.635C328.113 285.635 315.584 311.721 316.656 321.188C317.743 330.67 343.478 327.929 345.402 324.148C347.326 320.367 340.966 295.337 340.966 295.337C340.966 295.337 342.009 313.392 339.908 315.385C337.793 317.378 336.383 319.752 328.011 317.231C319.638 314.71 321.386 312.395 322.958 306.211C324.529 299.997 328.113 285.635 328.113 285.635Z" fill="#9C9E9F"/>
<path d="M330.478 308.497C331.374 308.512 332.638 310.505 333.328 311.75C333.372 311.662 333.416 311.574 333.46 311.501C332.843 309.449 331.771 305.507 332.667 305.991C333.46 306.416 334.136 308.336 334.503 309.611C334.606 309.435 334.709 309.244 334.811 309.068C334.312 306.064 335.987 302.181 335.987 302.181C335.987 302.181 335.987 302.181 336.324 303.558C336.501 304.276 336.427 305.581 336.31 306.68C337.279 305.244 338.175 304.203 338.895 303.866C342.2 302.313 343.404 303.705 343.404 303.705C343.404 303.705 338.792 305.918 337.999 307.325C337.22 308.731 337.22 308.731 337.22 308.731C337.22 308.731 342.934 307.442 342.934 308.497C342.934 309.552 336.486 311.076 336.486 311.076C336.486 311.076 341.686 311.179 341.935 312.967C342.185 314.754 335.223 312.366 335.223 312.366L334.929 313.274C335.472 313.201 336.133 313.26 336.956 313.538C339.424 314.359 335.766 315.663 333.96 316.22L330.508 326.654L326.615 326.053L328.598 321.789C328.598 321.789 330.243 317.935 332.329 313.787C331.345 311.999 329.494 308.468 330.478 308.497Z" fill="#0D8F4F"/>
<path d="M329.494 327.665C329.494 327.665 330.978 313.641 345.534 317.451C345.534 317.451 347.135 322.917 345.402 324.148C343.683 325.379 338.675 328.442 329.494 327.665Z" fill="#E9903F"/>
<path d="M321.753 325.775C324.573 325.745 326.821 323.43 326.791 320.616C326.762 317.803 324.456 315.546 321.636 315.575C318.816 315.604 316.568 317.92 316.598 320.734C316.642 323.547 318.948 325.819 321.753 325.775Z" fill="#791117"/>
<path d="M330.243 324.602C330.214 321.789 327.908 319.532 325.088 319.561C322.282 319.59 320.02 321.891 320.049 324.72C320.049 324.764 320.064 325.555 320.064 325.599C322.591 326.976 325.558 327.445 329.009 327.826C329.538 327.02 330.258 325.643 330.243 324.602Z" fill="#A91B26"/>
<path d="M99.2654 305.712C99.2654 305.712 70.2702 308.072 58.3871 300.144C46.504 292.23 34.1069 277.18 34.1069 277.18" stroke="#008BAE" stroke-width="5.2022" stroke-miterlimit="10" stroke-linecap="round"/>
<path d="M21.9301 285.064L32.6527 291.658C37.1768 293.725 43.2432 291.072 46.1368 285.782C48.4136 282.177 48.2226 277.546 45.6521 274.146L33.4165 260.649C32.359 259.77 30.802 259.916 29.9207 260.971C29.8913 261.015 29.8619 261.045 29.8325 261.089C28.7603 262.085 28.6427 263.756 29.5534 264.899L31.742 267.185C31.272 266.995 30.7726 266.848 30.2732 266.745L21.2544 264.694C20.6375 265.324 19.8002 263.858 19.5358 264.694C19.4918 265.734 19.4183 266.76 19.3449 267.801C19.3596 267.845 19.3596 267.888 19.3596 267.932C19.3743 267.976 19.3596 267.991 19.3596 268.02L21.7832 269.105C21.1956 269.588 20.6668 270.131 20.1674 270.702L19.0364 271.42C18.728 275.318 18.4636 279.217 18.7867 283.085C19.7268 283.701 20.7109 284.302 21.1956 284.492C21.4307 284.58 21.5188 284.756 21.5482 284.947" fill="#D0E8F1"/>
<path d="M2.08578 387.017L0 411.974L59.7091 410.406L56.3307 385.288L2.08578 387.017Z" fill="#FFCB46"/>
<path d="M19.1245 376.436C19.1245 375.63 19.0951 374.824 19.0511 374.018C19.0364 373.901 19.0364 373.798 19.0364 373.681C19.0804 372.479 20.0793 371.527 21.2837 371.585C22.9142 371.527 22.7673 371.512 24.3977 371.454C26.6157 371.439 28.8337 371.41 31.0516 371.38C31.272 371.366 31.3013 371.219 31.3895 371.073C31.6245 371.38 31.9476 371.278 32.2561 371.278C33.6809 371.248 34.6356 371.322 36.0604 371.336C37.118 371.278 38.014 372.069 38.1168 373.11C38.2197 374.238 38.2344 375.381 38.1609 376.509C38.1022 377.491 37.6909 378.121 36.7508 378.18C36.6333 378.136 36.5158 378.121 36.3836 378.136C35.1351 378.297 33.8718 378.356 32.6086 378.312C30.1116 378.415 27.5998 378.429 25.1174 378.458L22.9435 378.517C21.6803 378.532 22.2385 378.546 20.99 378.576C19.9324 378.444 19.1392 377.521 19.1245 376.436Z" fill="#6F6F70"/>
<path d="M31.5804 411.168C31.6392 410.948 31.6686 410.714 31.6833 410.479C31.5364 407.9 31.698 405.438 31.6392 402.785C31.5804 400.133 31.6245 397.48 31.6392 394.843C31.5804 393.817 31.6098 392.776 31.742 391.75C31.8448 391.824 31.9036 391.941 31.9036 392.058C32.0211 393.128 32.0799 394.198 32.0799 395.268C32.1974 397.319 32.3443 399.342 32.3443 401.379C32.3443 402.522 32.5205 403.65 32.5646 404.779C32.6527 406.654 32.7115 408.53 32.7702 410.421C32.7555 410.743 32.9612 411.021 33.2843 411.109C32.6968 411.227 32.1386 411.256 31.5804 411.168Z" fill="#FBAB42"/>
<path d="M40.0998 410.919C40.1438 410.831 40.1732 410.728 40.1879 410.626L40.1585 402.566C40.1438 400.88 40.1292 399.049 40.0998 397.48C40.0704 395.912 40.0851 394.344 40.0851 392.776L40.0998 390.065C40.2614 390.124 40.3495 390.285 40.3054 390.446C40.2907 392.161 40.4376 393.89 40.5258 395.619C40.5845 397.07 40.6579 398.536 40.7461 400.001C40.937 403.328 41.0692 406.669 41.2014 409.996C41.2161 410.406 41.2896 410.743 41.7596 410.86C41.2308 410.963 40.6579 410.992 40.0998 410.919Z" fill="#FBAB42"/>
<path d="M18.1257 411.461C18.1404 410.552 18.1404 409.644 18.1404 408.75C18.1257 405.628 18.0669 402.492 18.0669 399.371C18.0522 397.231 18.0816 395.15 18.0522 393.04C18.0669 392.6 17.92 392.044 18.2285 391.604C18.3166 392.087 18.3754 392.586 18.3901 393.069L18.6985 399.752L19.007 406.068C19.0951 407.856 19.0951 409.658 19.2714 411.461C18.9042 411.564 18.5223 411.564 18.1257 411.461Z" fill="#FBAB42"/>
<path d="M48.1785 410.67C48.3401 410.494 48.6192 410.45 48.6192 410.083C48.5898 408.017 48.6192 405.936 48.6339 403.855C48.6486 401.994 48.6486 400.162 48.6045 398.33C48.5898 396.997 48.5457 395.649 48.5311 394.315L48.6486 394.11L48.9864 394.256C48.9276 394.623 48.9717 394.989 49.1039 395.326C49.0305 395.927 49.0452 396.542 49.148 397.143C49.2214 399.283 49.2508 401.305 49.383 403.577C49.5152 405.848 49.5152 408.105 49.7796 410.377C49.7943 410.552 49.6768 410.596 49.6033 410.67C49.1333 410.802 48.6486 410.787 48.1785 410.67Z" fill="#FBAB42"/>
<path d="M44.4623 410.831C44.3155 409.365 44.4183 407.9 44.4036 406.435L44.3889 400.411C44.3742 398.448 44.3448 396.469 44.3742 394.52C44.3742 394.198 44.1979 393.787 44.5358 393.48C44.6533 393.612 44.712 393.802 44.6827 393.978C44.8296 396.88 44.9764 399.781 45.1233 402.668C45.2261 404.515 45.3437 406.376 45.3877 408.237C45.4759 409.102 45.4759 409.966 45.4171 410.831H44.4623Z" fill="#FBAB42"/>
<path d="M22.1797 411.373C22.6204 410.494 22.3266 409.571 22.3707 408.677C22.4148 407.402 22.4001 406.171 22.3707 404.925C22.3266 401.76 22.4588 398.579 22.356 395.414C22.356 395.238 22.2973 395.018 22.547 394.901C22.8114 395.311 22.6498 395.81 22.6792 396.264C22.8114 398.462 22.9582 400.675 23.0758 402.873C23.2226 405.496 23.3548 408.134 23.4723 410.758C23.4723 410.977 23.4283 411.226 23.722 411.329C23.2226 411.373 22.7379 411.534 22.1797 411.373Z" fill="#FBAB42"/>
<path d="M36.0017 411.021C35.9576 410.948 35.8842 410.89 35.8842 410.816L35.8989 402.991C35.8989 401.305 35.9136 399.62 35.8989 397.949C35.9136 396.513 35.8989 395.092 35.8842 393.656C35.8695 393.509 35.8548 393.362 36.1045 393.289C36.1633 394.344 36.222 395.385 36.2808 396.425L36.6627 404.793C36.7508 406.654 36.8389 408.53 36.9124 410.391C36.9271 410.655 36.9271 410.875 37.2062 410.977C36.8389 411.095 36.413 411.109 36.0017 411.021Z" fill="#FBAB42"/>
<path d="M26.9095 398.55C27.1298 399.034 26.9976 399.591 27.027 400.118C27.2473 403.797 27.4823 407.504 27.7026 411.212C27.4089 411.358 27.071 411.388 26.7773 411.27C26.5863 411.139 26.6451 410.933 26.6304 410.758C26.6451 409.248 26.7185 407.753 26.6744 406.244C26.601 404.046 26.8213 401.862 26.7038 399.649C26.6304 399.254 26.7038 398.858 26.8948 398.506L26.9095 398.55Z" fill="#FBAB42"/>
<path d="M9.63571 407.592C9.67977 404.588 9.60633 401.584 9.60633 398.594C9.60633 396.147 9.59164 393.685 9.60633 391.238C9.60633 391.003 9.386 390.725 9.6504 390.49C9.7679 390.681 9.84135 390.9 9.84135 391.12C9.94417 393.553 10.047 395.927 10.1351 398.242C10.2379 400.558 10.3408 402.873 10.4583 405.189C10.5611 407.314 10.6933 409.424 10.7961 411.534C10.3701 411.798 9.82666 411.754 9.60633 411.446C9.72384 410.142 9.65039 408.882 9.63571 407.592Z" fill="#FBAB42"/>
<path d="M13.8954 411.139L13.8807 403.767C13.8807 401.349 13.8367 398.917 13.8954 396.499C13.822 395.399 13.8513 394.315 13.9542 393.216C14.1598 393.919 14.2479 394.637 14.2039 395.385C14.3948 399.312 14.6298 403.225 14.7914 407.167C14.9236 408.589 14.9677 410.01 14.9236 411.432C14.6005 411.637 14.2186 411.725 13.866 411.446C13.8807 411.329 13.9101 411.227 13.8954 411.139Z" fill="#FBAB42"/>
<path d="M4.31842 408.545C4.55344 406.434 4.67095 404.324 4.81784 402.229C5.00879 399.723 5.18505 397.217 5.376 394.725C5.39069 394.564 5.28787 394.344 5.52289 394.242C5.65508 394.388 5.59633 394.564 5.59633 394.725C5.55226 396.279 5.43476 397.817 5.46413 399.356C5.46413 401.496 5.33194 403.665 5.31725 405.834C5.30256 407.402 5.19974 408.94 5.17036 410.494C5.14098 410.875 4.97941 411.3 5.33194 411.608C4.87659 412.033 4.37718 411.842 3.89246 411.71C4.33311 410.684 4.15685 409.6 4.31842 408.545Z" fill="#FBAB42"/>
<path d="M22.5764 393.875C22.2679 393.655 22.3707 393.377 22.5029 393.099C22.6204 393.348 22.6351 393.612 22.5764 393.875Z" fill="#D5A845"/>
<path d="M22.4589 394.667C22.356 394.388 22.4001 394.095 22.5764 393.861C22.5911 394.124 22.7673 394.388 22.4589 394.667Z" fill="#D5A845"/>
<path d="M26.8948 398.506C26.6597 398.345 26.6451 398.169 26.8948 397.876C26.9682 398.067 26.9682 398.301 26.8948 398.506Z" fill="#D5A845"/>
<path d="M13.9688 393.187C13.8954 393.011 13.9101 392.806 13.9982 392.63C14.1451 392.82 14.0863 393.011 13.9688 393.187Z" fill="#D5A845"/>
<path d="M26.8654 397.656C26.8507 397.671 26.7479 397.686 26.7626 397.656C26.7626 397.612 26.7479 397.568 26.7773 397.554C26.792 397.539 26.8801 397.554 26.8801 397.554C26.8654 397.583 26.8801 397.642 26.8654 397.656Z" fill="#D5A845"/>
<path d="M5.49353 393.875C5.49353 393.861 5.52258 393.846 5.52258 393.846L5.56616 393.89L5.53711 393.919C5.52258 393.904 5.49353 393.875 5.49353 393.875Z" fill="#FBAB42"/>
<path d="M48.5604 384.526C48.0317 384.394 47.6644 384.672 47.2679 384.833C46.4747 385.141 46.1515 385.053 45.8724 384.262C46.0046 384.101 46.1809 383.764 46.3572 384.086C46.6216 384.54 46.8859 384.364 47.1797 384.233C47.4735 384.115 47.9876 384.057 48.017 383.778C48.0757 383.104 48.3254 383.28 48.6486 383.544C48.7955 383.661 48.9277 383.588 49.0599 383.558C49.3243 383.514 49.3389 383.72 49.3683 383.91C48.9717 383.969 48.8836 384.614 48.5604 384.526Z" fill="#FCD770"/>
<path d="M22.2826 415.52C22.2091 415.491 22.0916 415.462 22.1504 415.33C22.1504 415.315 22.1651 415.301 22.1798 415.286C22.3119 415.315 22.2826 415.418 22.2679 415.506L22.2826 415.52Z" fill="#FBAB42"/>
<path d="M2.18861 382.987C2.17392 383.676 2.18861 384.364 2.27674 385.053C2.37956 384.921 2.43831 384.658 2.59989 384.687C3.11399 384.819 3.56933 384.482 4.06875 384.54C4.7738 384.628 5.55229 384.863 6.21328 384.643C7.10928 384.335 7.91715 384.57 8.84253 384.526C9.76791 384.482 10.7374 384.57 11.6481 384.526C13.3372 384.467 15.0264 384.408 16.7009 384.291C16.9506 384.277 17.2591 384.13 17.4794 384.203C18.1698 384.511 18.8748 384.189 19.5652 384.189C20.7403 384.233 21.9154 384.189 23.0758 384.086C24.0746 383.983 25.1322 384.189 26.131 384.13C27.6145 384.071 29.1275 383.866 30.6257 383.895C31.7567 383.925 32.873 383.646 33.9894 383.969C34.0334 383.969 34.1069 383.969 34.1069 383.969C34.5916 383.544 35.5611 383.822 36.1339 383.837C36.9418 383.852 37.779 383.793 38.5869 383.749L40.9958 383.632C42.2003 383.485 43.4341 383.573 44.6092 383.91C45.1233 384.086 45.8137 384.364 46.2103 383.954C46.269 383.998 46.3278 384.042 46.3865 384.086C46.93 384.408 47.6498 384.233 47.9876 383.69C48.061 383.558 48.1198 383.383 48.2667 383.368C48.3107 383.353 48.3695 383.368 48.4136 383.383C48.8542 383.412 49.2655 383.617 49.5446 383.969C50.0881 383.676 50.7344 383.602 51.2485 383.295C51.3072 383.28 51.366 383.28 51.4247 383.309C51.9094 383.822 52.5557 383.573 53.0698 383.514C53.5839 383.471 54.1421 383.632 54.6856 383.397C55.1556 383.192 55.7138 383.353 55.9929 383.793C56.1544 383.016 55.9047 382.254 56.0516 381.477C56.0957 381.184 55.7725 381.126 55.5522 381.082C52.0123 380.496 48.5164 379.734 44.9911 379.147C43.6691 378.928 42.3325 378.708 41.0105 378.517C39.9089 378.356 38.5575 378.356 37.5734 377.77C37.4559 377.755 37.3237 377.697 37.2062 377.726C35.9576 377.887 34.6944 377.96 33.4312 377.902C30.9195 378.004 28.4224 378.019 25.94 378.063L23.7808 378.107C22.5176 378.151 21.2984 378.18 20.0646 378.209C19.7415 378.664 19.2127 378.576 18.772 378.693C15.4818 379.514 12.1475 380.217 8.84253 380.979L4.99413 381.902C4.18625 382.005 3.40776 382.196 2.64395 382.474C2.3208 382.635 2.12985 382.84 2.18861 382.987Z" fill="#5E5E5C"/>
<path d="M24.2068 215.498C22.2972 215.601 20.8137 217.257 20.9312 219.176C20.99 223.162 21.1075 227.163 21.2103 231.149C21.3425 236.278 21.4747 241.408 21.5922 246.566L22.121 267.83L22.6057 286.544L22.547 286.603L22.5763 286.632V286.793C22.7673 286.779 22.9435 286.72 23.1198 286.676C22.9435 286.735 22.7673 286.764 22.5763 286.793C22.6204 287.116 22.4588 287.467 22.6204 287.775V287.907C22.5176 288.01 22.5323 288.127 22.6204 288.244C22.591 289.255 22.6204 290.266 22.7085 291.263L22.7232 291.688C23.0611 291.747 23.3108 291.673 23.2814 291.248C23.2814 291.146 23.2961 291.058 23.3548 290.97C23.2961 291.058 23.2814 291.16 23.2814 291.248C23.3254 291.673 23.0611 291.732 22.7232 291.688C22.6498 292.025 22.6645 292.391 22.7673 292.728C22.7379 292.758 22.7379 292.802 22.7526 292.846C22.7967 292.919 22.8554 292.992 22.9289 293.036C23.0464 293.109 23.1933 293.124 23.3254 293.051C23.5164 292.948 23.6927 292.86 23.8983 292.802C23.7074 292.875 23.5164 292.948 23.3254 293.051C23.2079 293.124 23.0464 293.124 22.9289 293.036C22.8554 292.992 22.7967 292.919 22.7526 292.846C22.7085 293.622 22.7232 294.414 22.7967 295.205C22.7967 295.498 22.6498 295.806 22.8407 296.099C22.8995 298.927 22.9729 301.829 23.0317 304.701C23.1786 310.299 23.3254 315.898 23.4723 321.481C23.6192 327.196 23.7514 332.912 23.8983 338.642C23.8983 338.818 25.5434 371.205 25.5287 371.395C27.7467 371.38 25.5287 371.395 27.7467 371.38C27.9817 371.38 32.168 371.366 32.2708 371.234C32.1533 366.383 30.6551 329.072 30.5229 324.221C30.3907 319.122 30.2731 314.036 30.141 308.937C30.0822 307.075 30.0381 305.2 29.9794 303.324C30.0675 303.119 30.0528 302.913 29.95 302.723C29.5534 302.503 29.2743 302.782 28.8777 302.899C28.4811 303.016 28.1139 303.192 27.732 303.338C28.0992 303.192 28.5399 303.016 28.8777 302.899C29.2156 302.782 29.5387 302.503 29.95 302.723C29.9941 301.58 29.9941 300.451 29.9059 299.308C29.6415 289.05 29.3918 278.792 29.1421 268.548C28.9512 261.294 28.7749 254.04 28.6133 246.771C28.4518 240.924 28.2902 235.077 28.1286 229.215L27.8789 218.986C27.8789 218.971 27.8789 218.956 27.8789 218.942C27.8495 216.993 26.2632 215.439 24.3096 215.469C24.2802 215.498 24.2508 215.498 24.2068 215.498ZM24.7502 291.483C24.7356 291.512 24.7209 291.541 24.6915 291.571C24.7062 291.541 24.7209 291.512 24.7356 291.468C24.7502 291.453 24.7502 291.41 24.7502 291.395C24.7502 291.424 24.7356 291.453 24.7356 291.468L24.7502 291.483ZM24.1774 292.743C24.2361 292.714 24.3096 292.714 24.3683 292.743C24.3096 292.714 24.2361 292.699 24.1627 292.728L24.1774 292.743ZM24.339 293.564L24.3096 293.534L24.339 293.564ZM23.3108 295.44L23.2373 295.352L23.3108 295.44ZM23.3989 294.809L23.4283 294.853L23.3989 294.809ZM25.0293 294.575C24.9999 294.707 24.9559 294.824 24.8971 294.941C24.9706 294.824 25.0146 294.692 25.0293 294.575C25.044 294.443 25.0293 294.326 24.9853 294.209C25.0293 294.311 25.044 294.443 25.0293 294.575ZM26.0281 302.738C26.0869 302.752 26.131 302.723 26.1603 302.679C26.131 302.723 26.0722 302.738 26.0281 302.723C25.9694 302.708 25.9106 302.664 25.8813 302.62C25.9106 302.679 25.9694 302.708 26.0281 302.723V302.738ZM26.2338 302.547C26.2779 302.474 26.3072 302.386 26.3513 302.313C26.3072 302.386 26.2485 302.488 26.2338 302.547C26.2191 302.591 26.2044 302.664 26.2044 302.664C26.2044 302.664 26.1897 302.606 26.2338 302.547ZM26.3366 302.269C26.4541 302.005 26.5569 301.77 26.6891 301.521C26.7185 301.419 26.7479 301.301 26.7773 301.199C26.7479 301.301 26.7332 301.419 26.6891 301.521C26.5863 301.77 26.4688 302.02 26.366 302.269H26.3366ZM26.792 301.096C26.836 301.023 26.8948 300.979 26.9829 300.95C26.8948 300.964 26.836 301.023 26.792 301.096ZM27.1004 300.95C27.3061 300.994 27.4823 301.111 27.5851 301.287C27.4676 301.111 27.2914 300.994 27.1004 300.964V300.95ZM27.923 302.708C27.8936 302.796 27.8642 302.87 27.8202 302.943C27.8642 302.87 27.8936 302.811 27.923 302.738V302.708ZM27.7467 303.089L27.7026 303.119C27.688 303.148 27.688 303.177 27.688 303.207C27.688 303.177 27.7026 303.148 27.7026 303.119L27.7467 303.089ZM28.7896 303.925C28.7896 303.969 28.8043 304.013 28.8043 304.042C28.7896 304.013 28.7896 303.969 28.7896 303.939V303.925ZM28.9218 304.32L29.0246 304.526L28.9218 304.32ZM29.0834 304.672C29.1274 304.804 29.1421 304.95 29.1568 305.082C29.1568 304.95 29.1274 304.819 29.0981 304.687L29.054 304.643L29.0981 304.687L29.0834 304.672ZM29.0981 305.419C29.0687 305.537 29.0393 305.654 28.9659 305.757C29.0246 305.654 29.0687 305.551 29.0981 305.434V305.419ZM26.4982 304.218C26.6451 303.983 26.6598 303.837 26.4982 303.749C26.6598 303.837 26.6451 303.998 26.4982 304.232C26.2338 304.584 26.175 305.038 26.3072 305.449C26.366 305.595 26.4394 305.727 26.5276 305.859L26.6451 305.991L26.5276 305.859C26.4247 305.742 26.366 305.595 26.3072 305.449C26.1603 305.038 26.2338 304.584 26.4982 304.232V304.218ZM25.1909 302.342L25.2203 302.489C25.2643 302.708 25.3525 302.928 25.4553 303.119C25.3378 302.928 25.2643 302.708 25.2203 302.489L25.1909 302.342ZM25.1909 302.078L25.1762 302.181L25.1909 302.078ZM25.2056 302.005C25.2203 301.961 25.235 301.946 25.2497 301.902C25.235 301.932 25.2203 301.976 25.2056 302.005ZM25.2643 301.888C25.3231 301.8 25.4259 301.726 25.5434 301.697C25.6022 301.682 25.6609 301.668 25.7197 301.653L25.7931 302.269L25.7197 301.653C25.6609 301.653 25.6022 301.668 25.5434 301.697C25.4259 301.726 25.3231 301.8 25.2643 301.888ZM23.0023 295.103C23.0023 295.073 23.0023 295.059 23.0023 295.044C23.0023 295.059 22.9876 295.088 23.0023 295.103ZM24.0011 292.802L24.1333 292.758L24.0011 292.802ZM23.1051 290.413C23.1639 290.296 23.2079 290.179 23.2373 290.061C23.1933 290.193 23.1492 290.31 23.1051 290.413ZM22.8113 290.882L22.7967 290.955L22.8113 290.882ZM23.2667 289.373C23.2226 289.197 23.1639 289.021 23.0757 288.86C23.1639 289.021 23.2226 289.197 23.2667 289.373ZM23.6192 286.617C23.5017 286.559 23.3695 286.588 23.2226 286.661C23.3548 286.603 23.5164 286.559 23.5898 286.647L23.6192 286.617Z" fill="#888885"/>
<path d="M55.89 385.654L1.65979 387.295L1.74792 384.701L55.5669 383.148L55.89 385.654Z" fill="#FBAB42"/>
<path d="M16.4806 265.544C16.6862 265.178 16.9947 264.84 17.3325 264.591C19.7414 262.877 23.9571 265.119 26.2779 266.291C26.3366 266.321 26.3954 266.35 26.4541 266.379C27.6145 267.097 27.9817 268.621 27.262 269.794C26.7038 271.142 25.235 271.875 23.8249 271.479C22.7673 271.039 21.695 270.585 20.6227 270.145C19.433 269.647 16.7743 269.09 16.2602 267.815C15.9665 267.083 16.084 266.247 16.4806 265.544Z" fill="#D0E8F1"/>
<path d="M15.9077 272.754C16.1134 272.388 16.4218 272.051 16.7597 271.802C19.1686 270.087 23.3842 272.329 25.705 273.501C25.7638 273.531 25.8225 273.56 25.8813 273.589C27.0417 274.307 27.4089 275.832 26.6891 277.004C26.131 278.352 24.6621 279.085 23.252 278.689C22.1944 278.235 21.1222 277.795 20.0499 277.356C18.8601 276.857 16.2015 276.301 15.6874 275.026C15.3789 274.293 15.5111 273.443 15.9077 272.754Z" fill="#D0E8F1"/>
<path d="M16.0252 279.231C16.2309 278.865 16.5393 278.528 16.8772 278.279C19.2861 276.564 23.5017 278.806 25.8225 279.979C25.8812 280.008 25.94 280.037 25.9988 280.067C27.1592 280.785 27.5264 282.309 26.8066 283.481C26.2485 284.83 24.7796 285.562 23.3695 285.167C22.3119 284.712 21.2397 284.273 20.1674 283.833C18.9776 283.335 16.319 282.778 15.8049 281.503C15.4964 280.77 15.6286 279.92 16.0252 279.231Z" fill="#D0E8F1"/>
<path d="M82.4029 372.567C82.4029 372.567 77.1003 353.795 77.35 339.506C77.5997 325.218 94.9617 310.461 94.9617 310.461" stroke="#008BAE" stroke-width="5.2022" stroke-miterlimit="10" stroke-linecap="round"/>
<path d="M107.374 387.266C108.108 387.955 109.327 387.867 110.076 387.075C110.825 386.284 110.84 385.068 110.091 384.379C109.356 383.69 108.137 383.778 107.388 384.57C106.639 385.376 106.624 386.577 107.374 387.266Z" fill="#454546"/>
<path d="M85.796 399.327L78.437 385.507C77.7025 384.13 78.2313 382.415 79.6121 381.697L107.197 367.101C108.578 366.368 110.297 366.896 111.031 368.259L118.39 382.078C119.124 383.456 118.596 385.17 117.215 385.888L89.6297 400.485C88.2489 401.232 86.5451 400.704 85.796 399.327Z" fill="#323333"/>
<path d="M91.9652 395.751L84.8706 382.43C84.6943 382.122 84.8265 381.727 85.135 381.565L107.976 369.49C108.299 369.314 108.681 369.446 108.857 369.754L115.952 383.075C116.128 383.383 115.996 383.778 115.687 383.954L92.8465 396.03C92.5233 396.191 92.1267 396.074 91.9652 395.751Z" fill="#454546"/>
<path d="M74.1332 374.575C75.3524 378.678 76.5128 382.796 77.6585 386.914C78.246 389.069 78.8483 391.238 79.4211 393.406C79.8912 395.165 80.1115 397.392 81.4041 398.785C82.9317 400.426 86.8535 399.239 86.1044 396.718L83.9158 389.318C84.6209 389.347 85.37 389.303 86.1191 389.2L88.7484 398.067C89.0568 399.136 90.4229 399.591 91.7595 399.092C93.0962 398.594 93.9481 397.305 93.625 396.235L90.9957 387.369C91.5833 386.988 92.1414 386.577 92.6408 386.123L94.9029 393.743C95.2113 394.813 96.5774 395.268 97.914 394.769C99.2507 394.271 100.103 392.981 99.7795 391.912L96.2102 379.865C96.0486 379.778 95.9164 379.631 95.9017 379.397C95.8723 378.972 95.8576 378.547 95.8723 378.122C95.8576 378.048 95.8429 377.975 95.8283 377.916L95.887 377.975C95.9458 375.718 97.4587 373.066 97.6937 370.809L91.4951 365.299C89.3506 362.925 85.2966 362.163 81.2719 363.672C76.1309 365.577 72.9141 370.486 74.1332 374.575Z" fill="#D0E8F1"/>
<path d="M326.968 370.003L319.829 404.471C319.829 404.471 312.529 399.18 303.877 399.928C297.223 400.514 291.921 405.482 276.777 404.031C262.426 402.668 249.632 395.649 249.632 395.649L258.563 360.902L270.358 367.394C270.358 367.394 279.142 371.073 286.148 368.684C293.169 366.295 308.21 356.564 326.968 370.003Z" fill="#F9E4BE"/>
<path d="M260.179 393.773L263.41 379.865" stroke="#939393" stroke-width="0.9887" stroke-miterlimit="10" stroke-linecap="round"/>
<path d="M266.627 396.191L272.356 371.864" stroke="#939393" stroke-width="0.9887" stroke-miterlimit="10" stroke-linecap="round"/>
<path d="M272.708 397.143L279.156 374.194" stroke="#939393" stroke-width="0.9887" stroke-miterlimit="10" stroke-linecap="round"/>
<path d="M279.391 397.832L284.459 375.601" stroke="#939393" stroke-width="0.9887" stroke-miterlimit="10" stroke-linecap="round"/>
<path d="M285.105 397.202L290.804 372.289" stroke="#939393" stroke-width="0.9887" stroke-miterlimit="10" stroke-linecap="round"/>
<path d="M290.026 396.396L295.696 369.754" stroke="#939393" stroke-width="0.9887" stroke-miterlimit="10" stroke-linecap="round"/>
<path d="M296.078 394.93L301.41 369.329" stroke="#939393" stroke-width="0.9887" stroke-miterlimit="10" stroke-linecap="round"/>
<path d="M302.217 394.139L307.549 368.537" stroke="#939393" stroke-width="0.9887" stroke-miterlimit="10" stroke-linecap="round"/>
<path d="M308.636 394.535L313.983 368.933" stroke="#939393" stroke-width="0.9887" stroke-miterlimit="10" stroke-linecap="round"/>
<path d="M283.005 356.447C278.877 355.275 274.897 356.389 272.958 358.924L267.244 364.932C267.67 367.16 269.403 369.68 269.638 371.923L269.682 371.864C269.668 371.937 269.668 372.01 269.668 372.069C269.712 372.479 269.741 372.904 269.741 373.344C269.756 373.579 269.624 373.74 269.477 373.842L266.921 386.152C266.7 387.237 267.641 388.453 269.021 388.834C270.402 389.215 271.709 388.658 271.93 387.559L273.545 379.777C274.074 380.188 274.662 380.554 275.293 380.877L273.413 389.933C273.193 391.018 274.133 392.234 275.514 392.615C276.894 392.996 278.202 392.439 278.422 391.34L280.302 382.283C281.051 382.327 281.8 382.313 282.505 382.225L280.934 389.772C280.405 392.351 284.4 393.201 285.796 391.443C286.971 389.948 287 387.706 287.323 385.918C287.72 383.705 288.131 381.507 288.542 379.309C289.336 375.103 290.143 370.911 291.01 366.72C291.877 362.573 288.278 357.942 283.005 356.447Z" fill="#D0E8F1"/>
<path d="M84.1068 306.255C84.1068 265.221 104.539 225.39 130.978 196.974C199.162 123.701 275.073 229.493 275.073 309.655C275.073 368.816 228.128 383.163 181.154 383.163C134.18 383.163 84.1068 365.416 84.1068 306.255Z" fill="#00A2C9"/>
<path d="M147.18 223.705C147.18 223.705 146.827 213.666 157.976 213.71" stroke="#06405E" stroke-width="1.0404" stroke-miterlimit="10" stroke-linecap="round"/>
<path d="M213.998 223.382C213.998 223.382 215.423 213.739 204.274 213.871" stroke="#06405E" stroke-width="1.0404" stroke-miterlimit="10" stroke-linecap="round"/>
<path d="M181.301 260.063C190.056 260.063 197.15 257.762 197.15 254.934C197.15 252.105 190.056 249.805 181.301 249.805C172.547 249.805 165.452 252.105 165.452 254.934C165.452 257.762 172.547 260.063 181.301 260.063Z" fill="#06425E"/>
<path d="M165.599 243.078C170.755 243.078 174.926 238.901 174.926 233.758C174.926 228.614 170.755 224.437 165.599 224.437C160.443 224.437 156.272 228.614 156.272 233.758C156.272 238.901 160.443 243.078 165.599 243.078Z" fill="white"/>
<path d="M163.161 236.19C166.715 238.902 170.74 234.872 168.037 231.31C164.468 228.599 160.443 232.629 163.161 236.19Z" fill="#06425E"/>
<path d="M196.989 243.078C202.144 243.078 206.316 238.901 206.316 233.758C206.316 228.614 202.144 224.437 196.989 224.437C191.833 224.437 187.661 228.614 187.661 233.758C187.661 238.901 191.848 243.078 196.989 243.078Z" fill="white"/>
<path d="M194.55 236.19C198.105 238.902 202.13 234.872 199.427 231.31C195.872 228.599 191.848 232.629 194.55 236.19Z" fill="#06425E"/>
<path d="M158.123 227.632L152.409 223.998L157.109 229.567C156.991 229.83 156.903 230.079 156.815 230.314L151.615 228.761L156.331 231.911C156.154 232.644 156.081 233.128 156.081 233.128C160.458 223.602 166.245 223.895 167.905 223.983C162.661 223.338 159.782 225.009 158.123 227.632Z" fill="#06405E"/>
<path d="M204.171 227.442L209.723 223.558L205.273 229.332C205.39 229.581 205.493 229.83 205.596 230.065L210.722 228.292L206.154 231.648C206.374 232.38 206.448 232.864 206.448 232.864C201.645 223.529 195.887 224.086 194.242 224.247C199.456 223.353 202.394 224.892 204.171 227.442Z" fill="#06405E"/>
<path d="M198.854 303.749H163.734C162.25 303.749 160.825 304.335 159.782 305.375L152.497 312.644C150.455 314.681 150.308 317.92 152.144 320.133L176.997 350.175C179.23 352.871 183.372 352.871 185.62 350.175L210.473 320.133C212.309 317.92 212.147 314.681 210.12 312.644L202.835 305.375C201.762 304.35 200.338 303.749 198.854 303.749Z" fill="#F30E51"/>
<path d="M193.757 308.511H168.977C167.2 308.511 165.482 309.186 164.233 310.402L160.957 313.538C158.504 315.883 158.328 318.858 160.531 321.422L178.481 342.247C179.994 344.005 182.741 344.005 184.254 342.247L202.203 321.422C204.406 318.872 204.215 315.883 201.777 313.538L198.501 310.402C197.253 309.186 195.549 308.511 193.757 308.511Z" fill="#FFCB46"/>
<path d="M183.519 311.735L184.959 316.147C185.223 316.967 186.001 317.539 186.868 317.539L191.51 317.553C193.463 317.553 194.271 320.045 192.699 321.202L188.939 323.943C188.234 324.456 187.94 325.364 188.205 326.185L189.63 330.596C190.232 332.457 188.102 333.996 186.53 332.853L182.77 330.127C182.065 329.614 181.11 329.614 180.405 330.127L176.645 332.853C175.058 333.996 172.943 332.457 173.546 330.596L174.97 326.185C175.235 325.35 174.941 324.456 174.236 323.943L170.476 321.202C168.904 320.059 169.712 317.568 171.665 317.553L176.307 317.539C177.174 317.539 177.952 316.982 178.217 316.147L179.656 311.735C180.273 309.874 182.902 309.874 183.519 311.735Z" fill="#F30E51"/>
<path d="M157.476 0C176.718 0.424987 191.745 6.05241 203.51 18.0986C204.935 19.5641 206.081 19.6373 207.682 18.3184C226.116 3.09215 255.332 8.00148 266.392 29.6465C267.244 31.3172 268.302 32.0352 270.402 32.1964C289.967 33.7059 302.555 45.7667 305.948 61.2128C309.209 76.0581 306.374 87.8551 293.096 96.8824C291.025 98.2893 288.66 99.3591 286.354 100.473C285.017 101.118 284.474 101.924 284.621 103.287C286.839 122.807 270.843 140.905 249.089 143.543C239.85 144.672 231.154 143.265 222.943 139.337C220.872 138.341 220.108 138.517 218.639 140.173C209.018 151.09 196.739 158.696 182.226 161.334C164.336 164.602 139.6 160.293 128.554 144.408C125.764 140.407 125.69 137.051 120.476 137.901C116.407 138.561 112.514 139.132 108.372 138.868C100.308 138.355 92.5527 135.512 85.7519 131.204C72.7819 122.983 62.6027 109.28 59.2684 94.2299C53.4517 67.91 73.1932 43.847 100.764 40.0074C102.232 39.8023 103.055 39.2014 103.437 37.8532C109.21 17.4391 124.442 5.84724 146.915 1.20169C150.866 0.395678 154.95 0.27844 157.476 0Z" fill="white"/>
<path d="M184.327 86.1405C184.327 86.1405 178.54 82.0371 173.252 78.4614C169.917 76.2046 167.45 72.4969 166.378 68.1591C165.276 63.6747 164.306 58.3551 165.305 56.4207" stroke="#008BAE" stroke-width="2.2675" stroke-miterlimit="10" stroke-linecap="round"/>
<path d="M159.533 43.9348C159.503 43.3633 160.003 42.865 160.634 42.821C161.281 42.7917 161.824 43.2314 161.853 43.8029L162.074 47.8037C162.368 47.6424 162.676 47.5106 163.014 47.408L162.749 42.6159C162.72 42.0443 163.22 41.5461 163.851 41.5021C164.497 41.4728 165.041 41.9124 165.07 42.484L165.335 47.2761C165.643 47.3347 165.937 47.4226 166.216 47.5252L165.996 43.4072C165.966 42.8357 166.466 42.3374 167.097 42.2935C167.744 42.2642 168.287 42.7038 168.316 43.2753L168.684 50.1338C168.742 50.3536 168.786 50.5734 168.801 50.7932L169.168 49.4596C169.33 48.9028 169.962 48.551 170.578 48.6829C171.195 48.8148 171.577 49.3864 171.43 49.9432L169.433 57.0948C169.359 57.3732 169.168 57.593 168.919 57.7396C168.39 59.3223 166.804 60.524 164.865 60.6265C162.412 60.7584 160.311 59.0585 160.194 56.8603L159.9 51.4234C159.9 51.3794 159.9 51.3501 159.9 51.3061C159.9 51.2915 159.885 51.2622 159.885 51.2475L159.533 43.9348Z" fill="#9FCCEA"/>
<path d="M173.869 93.2482C173.869 72.2333 184.327 51.8339 197.885 37.2671C232.814 -0.263647 271.695 53.9296 271.695 94.9775C271.695 125.283 247.649 131.101 223.59 131.101C199.53 131.101 173.869 123.554 173.869 93.2482Z" fill="#00A2C9"/>
<path d="M155.728 88.3535C150.455 106.188 135.531 98.3334 135.531 98.3334" stroke="#008BAE" stroke-width="1.5604" stroke-miterlimit="10" stroke-linecap="round"/>
<path d="M125.852 46.221L119.521 46.0452C107.946 45.7228 98.296 54.8234 97.9581 66.3713L97.9141 67.8368C97.7525 69.3022 97.6644 70.7677 97.6203 72.1892L96.5186 110.98C96.1955 122.528 105.317 132.156 116.892 132.493L123.222 132.669C134.797 132.992 144.447 123.891 144.785 112.343L144.829 110.878C144.991 109.412 145.079 107.947 145.123 106.525L146.225 67.7342C146.548 56.1863 137.426 46.5581 125.852 46.221Z" fill="#00A2C9"/>
<path d="M124.074 81.9347C122.356 81.8907 121.739 79.7364 123.193 78.8279C124.251 78.1684 124.838 77.4357 126.865 77.5382C128.833 77.6408 131.037 78.4322 131.947 79.1063C133.284 80.0882 132.506 82.1545 130.831 82.1105L129.465 81.6269C128.202 81.1726 126.821 81.1286 125.514 81.5097L124.074 81.9347Z" fill="#06405E"/>
<path d="M114.835 63.2205C114.835 63.2205 117.876 64.8911 121.372 66.8988" stroke="#06405E" stroke-width="0.5202" stroke-miterlimit="10" stroke-linecap="round"/>
<path d="M141.363 63.6016C141.363 63.6016 138.484 65.067 134.885 66.8989" stroke="#06405E" stroke-width="0.5202" stroke-miterlimit="10" stroke-linecap="round"/>
<path d="M124.368 69.8737C124.221 75.1494 119.829 79.3113 114.542 79.1648C109.254 79.0182 105.082 74.6365 105.229 69.3608C105.376 64.0851 109.768 59.9231 115.056 60.0697C120.344 60.2016 124.515 64.598 124.368 69.8737Z" stroke="black" stroke-width="0.4604" stroke-miterlimit="10" stroke-linecap="round"/>
<path d="M150.029 70.5478C149.882 75.8235 145.49 79.9854 140.202 79.8389C134.915 79.6923 130.743 75.3106 130.89 70.0348C131.037 64.7591 135.429 60.5972 140.717 60.7437C146.004 60.8903 150.176 65.2721 150.029 70.5478Z" stroke="black" stroke-width="0.4604" stroke-miterlimit="10" stroke-linecap="round"/>
<path d="M124.383 68.7308C124.383 68.7308 127.614 64.5102 130.611 68.892" stroke="black" stroke-width="0.4604" stroke-miterlimit="10" stroke-linecap="round"/>
<path d="M132.506 72.6142C132.535 69.7272 135.061 67.4117 138.146 67.4557C141.231 67.485 143.698 69.8591 143.669 72.7461" fill="white"/>
<path d="M110.899 72.3064C110.928 69.4195 113.469 67.1187 116.569 67.148C119.668 67.1773 122.165 69.5514 122.121 72.4383" fill="white"/>
<path d="M111.501 69.6539L108.505 68.4229L111.148 70.5479C111.119 70.6651 111.09 70.7823 111.06 70.8849L108.46 70.5332L110.943 71.603C110.913 71.9401 110.913 72.1452 110.913 72.1452C112.353 67.7488 115.144 67.1919 115.952 67.1333C113.381 67.1919 112.118 68.4229 111.501 69.6539Z" fill="#06405E"/>
<path d="M146.151 71.0316L143.537 71.3247C143.507 71.2074 143.493 71.1048 143.463 70.9729L146.151 68.9066L143.14 70.0644C142.553 68.8187 141.319 67.5584 138.763 67.4558C139.556 67.5437 142.347 68.1592 143.684 72.585C143.684 72.585 143.684 72.3651 143.669 72.0427L146.151 71.0316Z" fill="#06405E"/>
<path d="M199.295 55.0138C199.295 51.7165 196.43 49.0347 192.905 49.0347C189.38 49.0347 186.516 51.7165 186.516 55.0138" fill="white"/>
<path d="M194.447 55.0139C194.447 53.4898 193.199 52.2441 191.671 52.2441C190.144 52.2441 188.895 53.4898 188.895 55.0139" fill="#06405E"/>
<path d="M207.432 55.0138C207.432 51.7165 210.311 49.0347 213.851 49.0347C217.406 49.0347 220.27 51.7165 220.27 55.0138" fill="white"/>
<path d="M214.233 55.0139C214.233 53.4898 212.984 52.2441 211.457 52.2441C209.929 52.2441 208.681 53.4898 208.681 55.0139" fill="#06405E"/>
<path d="M208.343 66.2833C210.032 66.4006 211.148 64.5394 210.223 63.1326C209.18 61.5645 207.08 58.8973 202.805 58.5896C199.236 58.3405 197.15 59.6447 195.96 61.0662C194.888 62.3412 195.725 64.3049 197.4 64.4222L199.926 64.0558C201.733 63.792 203.569 64.0558 205.214 64.8325L208.343 66.2833Z" fill="#06405E"/>
<path d="M117.964 67.0747C117.362 68.1885 117.45 69.5953 118.331 70.6065C119.271 71.7056 120.799 71.984 122.047 71.4125C121.739 69.3169 120.109 67.6169 117.964 67.0747Z" fill="#06405E"/>
<path d="M139.512 67.7195C138.91 68.8332 138.998 70.2401 139.879 71.2513C140.819 72.3504 142.347 72.6288 143.596 72.0573C143.287 69.9617 141.657 68.2617 139.512 67.7195Z" fill="#06405E"/>
<path d="M251.351 53.7976C251.351 53.7976 253.554 76.5564 232.55 84.0157" stroke="#008BAE" stroke-width="2.4909" stroke-miterlimit="10" stroke-linecap="round"/>
<path d="M86.3395 85.9353C88.9687 101 103.378 100.663 103.378 100.663" stroke="#008BAE" stroke-width="1.5604" stroke-miterlimit="10" stroke-linecap="round"/>
<path d="M81.7566 78.2563C81.6832 77.9046 81.9623 77.5382 82.3589 77.465C82.7555 77.3917 83.1374 77.6115 83.2108 77.9779L83.6955 80.4692C83.8718 80.3373 84.0481 80.2347 84.2537 80.1321L83.6808 77.1426C83.6074 76.7908 83.8865 76.4245 84.2831 76.3512C84.6797 76.2779 85.0616 76.4977 85.135 76.8641L85.7079 79.8537C85.8988 79.8683 86.1045 79.8976 86.2807 79.9416L85.7813 77.377C85.7079 77.0253 85.9869 76.6589 86.3835 76.5857C86.7801 76.5124 87.162 76.7322 87.2355 77.0986L88.0727 81.3631C88.1315 81.495 88.1755 81.6269 88.2049 81.7735L88.3224 80.9088C88.3665 80.5425 88.7484 80.264 89.145 80.2933C89.5416 80.3226 89.8354 80.645 89.7913 81.0114L89.1597 85.6716C89.1303 85.8475 89.0275 86.0087 88.8953 86.1113C88.6896 87.1517 87.8083 88.0457 86.6039 88.2655C85.0763 88.5586 83.6074 87.6793 83.343 86.3018L82.682 82.9165C82.682 82.8872 82.682 82.8726 82.6673 82.8432C82.6673 82.8286 82.6526 82.8139 82.6526 82.8139L81.7566 78.2563Z" fill="#9FCCEA"/>
<path d="M161.56 81.7296C161.692 81.3925 161.501 80.9822 161.134 80.8356C160.752 80.6744 160.341 80.8356 160.194 81.1727L159.224 83.5175C159.077 83.3563 158.916 83.2097 158.739 83.0778L159.9 80.2641C160.032 79.9271 159.841 79.5167 159.474 79.3702C159.092 79.209 158.681 79.3702 158.534 79.7072L157.373 82.5209C157.182 82.4916 156.977 82.477 156.786 82.4916L157.785 80.0736C157.917 79.7365 157.726 79.3262 157.359 79.1797C156.977 79.0185 156.566 79.1797 156.419 79.5167L154.759 83.5321C154.671 83.6494 154.612 83.7666 154.553 83.8985L154.612 83.0192C154.641 82.6528 154.333 82.3158 153.922 82.2572C153.525 82.2132 153.172 82.4623 153.158 82.8433L152.849 87.5329C152.835 87.7087 152.908 87.8846 153.026 88.0165C153.011 89.0716 153.716 90.1268 154.832 90.581C156.272 91.1672 157.888 90.5957 158.416 89.3061L159.738 86.1113C159.753 86.082 159.753 86.0674 159.768 86.0381C159.768 86.0234 159.782 86.0234 159.782 86.0088L161.56 81.7296Z" fill="#9FCCEA"/>
<path d="M257.608 43.5538C257.667 42.9823 257.197 42.4547 256.551 42.3961C255.919 42.3375 255.346 42.7478 255.287 43.3193L254.876 47.3054C254.597 47.1296 254.289 46.983 253.951 46.8658L254.436 42.0883C254.494 41.5168 254.024 40.9892 253.378 40.9306C252.746 40.872 252.174 41.2823 252.115 41.8539L251.63 46.6313C251.322 46.6753 251.028 46.7486 250.734 46.8511L251.145 42.7478C251.204 42.1763 250.734 41.6487 250.088 41.5901C249.456 41.5315 248.883 41.9418 248.825 42.5133L248.134 49.3424C248.061 49.5476 248.017 49.7674 247.987 50.0019L247.679 48.6537C247.547 48.0821 246.93 47.7011 246.298 47.8183C245.666 47.9209 245.27 48.4778 245.387 49.0493L247.047 56.2888C247.106 56.5672 247.297 56.8017 247.532 56.9482C247.987 58.5456 249.515 59.8206 251.439 60.0257C253.877 60.2749 256.066 58.6775 256.286 56.4793L256.83 51.057C256.83 51.0131 256.83 50.9838 256.83 50.9398C256.83 50.9251 256.844 50.8958 256.844 50.8812L257.608 43.5538Z" fill="#9FCCEA"/>
<path d="M200.631 51.7606C200.631 51.7606 197.84 48.0236 194.095 44.7849" stroke="#06405E" stroke-width="0.5202" stroke-miterlimit="10" stroke-linecap="round"/>
<path d="M214.262 44.3013C214.262 44.3013 211.883 46.3383 206.242 51.7605" stroke="#06405E" stroke-width="0.5202" stroke-miterlimit="10" stroke-linecap="round"/>
<path d="M209.4 149.127C212.412 146.679 215.246 143.954 217.861 140.979C218.155 140.642 218.434 140.378 218.684 140.158L219.726 129.123L206.991 127.584L209.4 149.127Z" fill="#00A2C9"/>
<path d="M225.558 140.261C229.083 141.814 232.711 142.898 236.413 143.529L237.808 127.159L224.339 127.936L225.558 140.261Z" fill="#00A2C9"/>
<path d="M121.504 137.886C125.323 137.857 125.661 140.905 128.158 144.51C128.246 144.628 128.334 144.745 128.422 144.862L130.714 125.063L120.358 128.493L121.504 137.886Z" fill="#00A2C9"/>
<path d="M110.238 139.044C112.735 139.03 115.173 138.766 117.626 138.399L118.596 128.947L108.975 128.859L110.238 139.044Z" fill="#00A2C9"/>
<path d="M187.485 51.6139L183.563 49.1226L186.78 52.9328C186.707 53.1087 186.648 53.2845 186.574 53.4457L183.005 52.3759L186.236 54.5302C186.119 55.0431 186.075 55.3655 186.075 55.3655C189.086 48.8295 193.037 49.0347 194.183 49.0933C190.584 48.683 188.616 49.826 187.485 51.6139Z" fill="#06405E"/>
<path d="M219.051 51.4821L222.855 48.8149L219.8 52.7717C219.888 52.9476 219.947 53.1088 220.02 53.2846L223.531 52.0683L220.402 54.3691C220.549 54.8673 220.608 55.2044 220.608 55.2044C217.318 48.8003 213.366 49.196 212.235 49.2985C215.819 48.683 217.832 49.7382 219.051 51.4821Z" fill="#06405E"/>
</g>
<defs>
<clipPath id="clip0">
<rect width="362" height="434" fill="white"/>
</clipPath>
</defs>
</svg>
