<svg width="384" height="304" viewBox="0 0 384 304" fill="none" xmlns="http://www.w3.org/2000/svg">
<path d="M372 283.5C372 294.822 288.725 304 186 304C83.275 304 0 294.822 0 283.5C0 272.178 83.275 263 186 263C288.725 263 372 272.178 372 283.5Z" fill="black" fill-opacity="0.1"/>
<g clip-path="url(#clip0)">
<path d="M74.1504 117.908C74.1504 117.908 81.2033 144.106 132.956 142.816" stroke="#008BAE" stroke-width="4.4039" stroke-miterlimit="10" stroke-linecap="round"/>
<path d="M127.973 135.084C125.495 135.926 123.602 138.712 123.425 142.218C123.207 146.688 125.862 150.67 129.334 151.091L137.871 152.11C137.926 152.124 137.994 152.11 138.048 152.124C138.076 152.124 138.103 152.137 138.144 152.151L149.676 153.523C150.575 153.632 151.364 152.763 151.419 151.594C151.473 150.425 150.779 149.379 149.88 149.27L143.603 148.523C143.862 148.007 144.066 147.436 144.23 146.838L151.759 147.735C152.658 147.843 153.448 146.974 153.502 145.805C153.556 144.637 152.862 143.59 151.963 143.482L144.434 142.585C144.339 142.014 144.216 141.47 144.039 140.954L150.507 141.715C151.405 141.824 152.195 140.954 152.249 139.785C152.304 138.617 151.609 137.571 150.711 137.462L139.927 136.184C139.587 136.049 139.246 135.967 138.879 135.899L140.976 135.328C141.861 135.097 142.405 133.956 142.201 132.815C141.997 131.66 141.098 130.926 140.213 131.157" fill="#B1DCF2"/>
<path d="M184.818 29.6909C145.019 29.6909 112.764 39.5018 112.764 81.4225C112.764 92.0487 114.18 102.77 115.664 113.274C117.325 124.933 120.607 136.565 123.67 147.952C125.018 152.953 126.461 157.342 125.944 162.6C125.495 167.207 123.126 171.895 121.056 176.04C115.501 187.237 114.03 198.773 118.142 210.731C120.865 218.667 127.469 224.999 134.862 228.967C150.193 237.202 156.239 236.78 187.527 236.78C206.085 236.78 225.447 235.367 240.655 223.477C246.932 218.572 251.48 211.927 254.012 204.399C255.51 199.942 255.673 198.012 256.259 193.406C257.062 187.019 254.979 178.866 252.569 173.077C248.961 164.381 245.462 152.79 247.844 143.264C253.386 121.06 256.858 91.8042 256.858 80.5528C256.871 38.6458 224.616 29.6909 184.818 29.6909Z" fill="#009FC7"/>
<path d="M186.397 188.364C204.068 188.364 218.394 174.068 218.394 156.431C218.394 138.795 204.068 124.498 186.397 124.498C168.726 124.498 154.401 138.795 154.401 156.431C154.401 174.068 168.726 188.364 186.397 188.364Z" fill="url(#paint0_radial)"/>
<path d="M54.4221 208.68L41.4873 207.579C16.5436 205.46 -1.95994 183.541 0.164086 158.647L10.1988 41.4051C12.3364 16.4973 34.2847 -1.95597 59.2284 0.163847L72.1632 1.26452C97.1206 3.39792 115.611 25.3027 113.486 50.2105L103.452 167.452C101.328 192.347 79.3659 210.813 54.4221 208.68Z" fill="#009FC7"/>
<path d="M23.1601 195.267L32.9769 276.717H39.4852L48.1991 195.485" fill="#009FC7"/>
<path d="M57.8526 199.262L65.4773 276.717H71.9855L81.8024 195.485" fill="#009FC7"/>
<path d="M39.6213 276.717L42.1266 253.019H29.4096L32.4051 275.657L39.6213 276.717Z" fill="#4CC5CE"/>
<path d="M65.5181 277.437L62.9992 253.739H75.7298L72.7344 276.377L65.5181 277.437Z" fill="#4CC5CE"/>
<path d="M31.1388 277.859C31.1388 271.078 36.6395 265.588 43.4337 265.588C50.2279 265.588 55.7285 271.078 55.7285 277.859" fill="#504B48"/>
<path d="M65.3411 277.859C65.3411 271.078 70.8418 265.588 77.636 265.588C84.4302 265.588 89.9308 271.078 89.9308 277.859" fill="#504B48"/>
<path d="M98.1002 68.6356C98.1002 68.6356 95.3362 75.063 85.1654 73.7993C74.9946 72.5356 74.8312 66.2305 74.8312 66.2305L98.1002 68.6356Z" fill="#06415E"/>
<path d="M63.7753 54.8299C64.3608 49.2042 69.4122 45.1141 75.049 45.6984C80.6859 46.2827 84.7842 51.324 84.1987 56.9497" fill="white"/>
<path d="M92.0685 58.9742C92.654 53.3485 97.7054 49.2584 103.342 49.8427C108.979 50.427 113.077 55.4683 112.492 61.094" fill="white"/>
<path d="M73.3199 56.2159C73.5786 53.7836 75.757 52.017 78.1942 52.2616C80.6314 52.5198 82.4014 54.694 82.1564 57.1263" fill="#06415E"/>
<path d="M102.607 60.2923C102.866 57.86 105.044 56.0935 107.481 56.3381C109.919 56.5962 111.689 58.7704 111.443 61.2028" fill="#06415E"/>
<path d="M31.3022 115.924C31.3022 115.924 23.8 141.987 68.7722 167.56" stroke="#008BAE" stroke-width="4.4039" stroke-miterlimit="10" stroke-linecap="round"/>
<path d="M72.2715 159.516C69.7798 158.687 66.5802 159.761 64.32 162.465C61.4471 165.889 61.1475 170.672 63.6528 173.091L69.8343 179.056C69.8751 179.097 69.9296 179.138 69.9704 179.179C69.9977 179.206 70.0113 179.233 70.0249 179.247L78.3849 187.291C79.0384 187.916 80.1957 187.712 80.9446 186.815C81.6934 185.918 81.7751 184.668 81.1216 184.043L76.574 179.668C77.0914 179.41 77.6088 179.083 78.0989 178.703L83.5452 183.962C84.1987 184.587 85.356 184.383 86.1049 183.486C86.8537 182.589 86.9354 181.339 86.2819 180.714L80.8357 175.455C81.108 174.953 81.3258 174.436 81.5028 173.906L86.1866 178.418C86.8401 179.043 87.9974 178.839 88.7463 177.942C89.4952 177.045 89.5768 175.795 88.9233 175.17L81.108 167.642C80.9173 167.329 80.6995 167.058 80.4408 166.786L82.4559 167.601C83.3001 167.941 84.4302 167.37 84.9612 166.337C85.4922 165.291 85.2335 164.163 84.3893 163.824" fill="#B1DCF2"/>
<path d="M160.133 235.884L165.484 277.886H171.883L177.234 236.006" fill="#009FC7"/>
<path d="M194.076 235.884L199.414 277.886H205.827L211.164 234.932" fill="#009FC7"/>
<path d="M171.679 277.886L174.143 260.221H163.074L165.279 276.418L171.679 277.886Z" fill="#FFCA46"/>
<path d="M206.33 277.723L208.019 260.221H197.167L199.046 278.932L206.33 277.723Z" fill="#FFCA46"/>
<path d="M172.169 278.932C172.169 272.994 167.349 268.184 161.399 268.184C155.449 268.184 150.629 272.994 150.629 278.932" fill="#504B48"/>
<path d="M199.046 278.932C199.046 272.994 203.866 268.184 209.816 268.184C215.766 268.184 220.586 272.994 220.586 278.932" fill="#504B48"/>
<path d="M156.892 84.3305C156.892 84.3305 161.031 75.9599 170.127 80.8926" stroke="#06415E" stroke-width="1.5857" stroke-miterlimit="10" stroke-linecap="round"/>
<path d="M210.02 84.3305C210.02 84.3305 206.998 75.7969 197.902 80.7295" stroke="#06415E" stroke-width="1.5857" stroke-miterlimit="10" stroke-linecap="round"/>
<path d="M198.542 109.361C198.542 109.361 195.983 117.568 183.388 117.31C170.794 117.052 169.8 109.361 169.8 109.361H198.542Z" fill="#06415E"/>
<path d="M189.556 99.237C189.556 93.5163 194.512 88.8826 200.625 88.8826C206.739 88.8826 211.695 93.5163 211.695 99.237" fill="white"/>
<path d="M195.874 99.2371C195.874 96.5873 198.025 94.4268 200.694 94.4268C203.362 94.4268 205.513 96.5738 205.513 99.2371" fill="#06415E"/>
<path d="M156.647 99.237C156.647 93.5163 161.63 88.8826 167.771 88.8826C173.912 88.8826 178.895 93.5163 178.895 99.237" fill="white"/>
<path d="M162.965 99.2371C162.965 96.5873 165.116 94.4268 167.785 94.4268C170.44 94.4268 172.605 96.5738 172.605 99.2371" fill="#06415E"/>
<path d="M254.107 163.878C254.421 175.238 255.646 186.571 257.28 197.985C260.834 222.988 283.109 240.3 307.031 236.672C307.031 236.672 346.693 230.638 346.707 230.638C364.176 227.989 378.145 214.386 382.543 197.496C385.811 184.94 382.856 170.292 380.923 157.681C377.179 133.249 366.558 104.469 344.038 91.4509C314.098 74.1527 273.877 86.0698 260.357 118.37C257.906 124.226 256.231 130.409 255.401 136.701C254.203 145.832 253.862 154.869 254.107 163.878Z" fill="#009FC7"/>
<path d="M305.833 151.254C305.833 151.254 304.989 157.79 295.444 159.271C285.9 160.753 284.116 155.073 284.116 155.073L305.833 151.254Z" fill="#06415E"/>
<path d="M277.172 142.884C279.746 147.68 276.178 151.132 272.257 152.314" stroke="#1886A7" stroke-width="0.734" stroke-miterlimit="10" stroke-linecap="round"/>
<path d="M257.021 131.727C257.021 131.727 259.608 125.884 265.967 128.983" stroke="#06415E" stroke-width="1.468" stroke-miterlimit="10" stroke-linecap="round"/>
<path d="M318.836 121.373C318.836 121.373 314.697 116.753 310.217 122.256" stroke="#06415E" stroke-width="1.468" stroke-miterlimit="10" stroke-linecap="round"/>
<path d="M288.691 224.428L297.378 277.764H302.415L311.089 224.592" fill="#009FC7"/>
<path d="M321.899 224.17L330.572 277.505H335.61L344.297 224.347" fill="#009FC7"/>
<path d="M303.164 277.682L306.582 257.082H293.661L297.187 277.451L303.164 277.682Z" fill="#58559D"/>
<path d="M335.801 277.03L339.246 257.082H326.937L329.606 277.573L335.801 277.03Z" fill="#58559D"/>
<path d="M310.694 278.008C310.694 271.39 316.072 266.023 322.703 266.023C329.333 266.023 334.712 271.39 334.712 278.008" fill="#504B48"/>
<path d="M278.738 278.266C278.738 271.649 284.116 266.281 290.747 266.281C297.378 266.281 302.756 271.649 302.756 278.266" fill="#504B48"/>
<path d="M306.255 139.065C306.664 143.142 312.641 147.558 317.815 144.84" stroke="#1886A7" stroke-width="0.734" stroke-miterlimit="10" stroke-linecap="round"/>
<path d="M268.458 119.797C268.458 119.797 286.703 121.998 305.479 112.391" stroke="#1886A7" stroke-width="0.734" stroke-miterlimit="10" stroke-linecap="round"/>
<path d="M305.887 139.976C304.771 134.798 308.352 129.635 313.88 128.452C319.408 127.257 324.8 130.491 325.916 135.668" fill="white"/>
<path d="M305.683 140.125C305.166 137.72 306.691 135.355 309.101 134.839C311.511 134.323 313.88 135.845 314.397 138.25" fill="#06415E"/>
<path d="M257.511 146.783C256.545 141.579 260.303 136.524 265.899 135.491C271.495 134.459 276.818 137.842 277.785 143.047" fill="white"/>
<path d="M258.328 147.042C257.879 144.623 259.472 142.299 261.896 141.865C264.319 141.416 266.647 143.006 267.083 145.425" fill="#06415E"/>
<path d="M264.973 135.831C265.027 135.818 265.068 135.804 265.122 135.804C265.122 135.804 265.054 135.818 264.973 135.831Z" fill="#06415E"/>
<path d="M314.751 128.262C314.629 128.276 314.561 128.303 314.561 128.303C314.629 128.289 314.697 128.276 314.751 128.262Z" fill="#06415E"/>
<path d="M285.205 141.565C286.349 148.129 278.248 155.018 267.11 156.948C255.973 158.877 250.145 155.752 244.876 148.55C240.941 143.169 241.568 136.809 252.705 134.88C263.843 132.95 284.062 134.989 285.205 141.565Z" stroke="#010101" stroke-width="1.101" stroke-miterlimit="10"/>
<path d="M339.79 132.869C337.966 140.601 332.833 146.321 321.695 148.251C310.558 150.18 300.605 146.416 299.461 139.853C298.317 133.29 315.473 124.729 326.61 122.8C337.748 120.87 341.315 126.373 339.79 132.869Z" stroke="#010101" stroke-width="1.101" stroke-miterlimit="10"/>
<path d="M285.042 144.827C285.042 144.827 291.904 132.964 299.937 142.394" stroke="#010101" stroke-width="1.101" stroke-miterlimit="10"/>
<path d="M240.778 169.449C240.778 169.449 231.546 204.181 198.515 182.154" stroke="#008BAE" stroke-width="4.1208" stroke-miterlimit="10" stroke-linecap="round"/>
<path d="M350.696 276.5L351.595 220.243C351.595 220.243 351.731 212.647 358.076 212.43L363.89 211.777" stroke="#65351C" stroke-width="3.6699" stroke-miterlimit="10" stroke-linecap="round"/>
<path d="M356.565 166.827C356.565 166.827 380.106 169.164 365.211 203.516" stroke="#1289B1" stroke-width="4.4039" stroke-miterlimit="10" stroke-linecap="round"/>
<path d="M361.031 198.379C362.624 196.721 365.306 196.137 367.784 197.129C370.929 198.393 372.563 201.736 371.433 204.562L368.628 211.533C368.614 211.587 368.587 211.628 368.56 211.682C368.546 211.71 368.546 211.737 368.533 211.764L364.734 221.181C364.434 221.915 363.522 222.254 362.692 221.928C361.875 221.602 361.439 220.719 361.739 219.985L363.808 214.862C363.345 214.903 362.869 214.876 362.392 214.808L359.914 220.95C359.614 221.684 358.702 222.023 357.872 221.697C357.055 221.371 356.619 220.488 356.919 219.754L359.397 213.612C359.043 213.367 358.73 213.082 358.444 212.783L356.32 218.069C356.02 218.803 355.108 219.143 354.277 218.816C353.46 218.49 353.025 217.607 353.324 216.873L356.878 208.068C356.919 207.769 357.014 207.456 357.109 207.171L355.857 208.625C355.326 209.236 354.332 209.304 353.637 208.774C352.943 208.244 352.793 207.307 353.324 206.695" fill="#B1DCF2"/>
<path d="M66.7435 41.608C66.7435 41.608 71.0869 34.2838 79.0248 39.3931" stroke="#06415E" stroke-width="1.4469" stroke-miterlimit="10" stroke-linecap="round"/>
<path d="M112.887 47.492C112.887 47.492 111.008 39.4476 102.267 43.0078" stroke="#06415E" stroke-width="1.4469" stroke-miterlimit="10" stroke-linecap="round"/>
<path d="M192.034 186.53H181.863C177.615 186.53 174.143 183.065 174.143 178.825V149.243C174.143 145.003 177.615 141.538 181.863 141.538H192.034C196.282 141.538 199.754 145.003 199.754 149.243V178.825C199.768 183.065 196.282 186.53 192.034 186.53Z" fill="#383938"/>
<path d="M130.206 171.12C130.206 171.12 147.089 206.6 170.467 170.862" stroke="#008BAE" stroke-width="4.1208" stroke-miterlimit="10" stroke-linecap="round"/>
<path d="M172.346 153.673C172.782 152.953 173.844 152.871 174.729 153.496C175.614 154.121 175.981 155.222 175.546 155.942L174.524 157.668C174.797 157.478 175.083 157.315 175.396 157.179L183.347 151.105C184.014 150.588 185.145 150.833 185.866 151.648C186.588 152.45 186.629 153.537 185.962 154.04L181.196 157.681C181.645 157.912 182.095 158.184 182.517 158.51L188.072 154.271C188.739 153.754 189.869 153.999 190.591 154.814C191.312 155.616 191.353 156.703 190.686 157.206L185.131 161.445C185.417 161.948 185.635 162.451 185.812 162.954L190.441 159.407C191.108 158.891 192.238 159.135 192.96 159.951C193.682 160.766 193.722 161.84 193.055 162.342L184.545 168.851C184.518 168.865 184.491 168.878 184.477 168.892C184.437 168.933 184.396 168.974 184.355 169.001L178.051 173.811C175.505 175.768 171.175 174.83 168.438 171.746C166.287 169.313 165.742 166.256 166.832 164.109L172.346 153.673Z" fill="#9FCCE9"/>
<path d="M199.373 172.398C198.706 171.882 197.685 172.181 197.085 173.077C196.486 173.974 196.541 175.129 197.208 175.659L198.787 176.909C198.461 176.828 198.134 176.773 197.793 176.773L188.194 173.947C187.391 173.702 186.424 174.341 186.043 175.347C185.662 176.352 186.016 177.371 186.819 177.616L192.579 179.314C192.238 179.695 191.925 180.103 191.639 180.551L184.94 178.567C184.137 178.323 183.17 178.961 182.789 179.967C182.408 180.972 182.762 181.991 183.565 182.236L190.264 184.22C190.182 184.791 190.155 185.334 190.182 185.878L184.586 184.234C183.783 183.989 182.816 184.628 182.435 185.633C182.054 186.639 182.408 187.658 183.211 187.902L193.477 190.933C193.505 190.946 193.532 190.946 193.559 190.946C193.613 190.96 193.668 190.987 193.722 191.001L201.333 193.243C204.411 194.153 208.128 191.734 209.571 187.875C210.715 184.845 210.116 181.788 208.318 180.171L199.373 172.398Z" fill="#B1DCF2"/>
</g>
<defs>
<radialGradient id="paint0_radial" cx="0" cy="0" r="1" gradientUnits="userSpaceOnUse" gradientTransform="translate(186.398 156.427) scale(31.9956 31.9321)">
<stop offset="0.1554" stop-color="#FFBF79"/>
<stop offset="0.52" stop-color="#FEB769" stop-opacity="0.5683"/>
<stop offset="1" stop-color="#FDAE57" stop-opacity="0"/>
</radialGradient>
<clipPath id="clip0">
<rect width="384" height="279" fill="white"/>
</clipPath>
</defs>
</svg>
