<svg width="84" height="125" viewBox="0 0 84 125" fill="none" xmlns="http://www.w3.org/2000/svg">
<path d="M17.8721 124.811H22.6629V104.09H61.2365V124.811H66.1313V102.156H66.0533V97.7372H17.8721V102.215V124.811Z" fill="#FBAD18"/>
<path d="M19.3777 87.8766H64.235C67.3345 87.8766 69.8454 90.3981 69.8454 93.5075C69.8454 96.6169 67.3345 99.1384 64.235 99.1384H19.3777C16.2782 99.1384 13.7673 96.6169 13.7673 93.5075C13.7673 90.3981 16.2782 87.8766 19.3777 87.8766Z" fill="#FFCB05"/>
<path d="M28.3188 90.1205L32.1534 117.102L36.7654 117.106L40.6292 90.2119" fill="#00A1CD"/>
<path d="M36.6677 123.645H32.1469L29.7563 101.866L39.0582 101.869L36.6677 123.645Z" fill="#5652A3"/>
<path d="M27.7952 124.99C27.8082 120.996 30.8394 117.759 34.5797 117.759C38.32 117.759 41.3837 121.005 41.374 125" fill="#504B48"/>
<path d="M44.3857 90.1205L48.2203 117.102L52.8323 117.106L56.6961 90.2119" fill="#00A1CD"/>
<path d="M52.7347 123.645H48.2138L45.8201 101.866L55.1252 101.869L52.7347 123.645Z" fill="#5652A3"/>
<path d="M43.8586 124.99C43.8717 120.996 46.9029 117.759 50.6432 117.759C54.3834 117.759 57.4472 121.005 57.4375 125" fill="#504B48"/>
<path d="M0 59.3013C0 41.1315 8.98641 23.4974 20.617 10.9161C50.6075 -21.5269 84 25.3134 84 60.8037C84 86.9985 63.3504 93.3512 42.6879 93.3512C22.0253 93.348 0 85.4961 0 59.3013Z" fill="#00A0CC"/>
<path d="M43.2441 33.0342C43.2474 29.6863 45.9469 26.9754 49.2806 26.9721C52.6176 26.9689 55.3236 29.6831 55.3268 33.0342" fill="white"/>
<path d="M27.6033 33.0342C27.6065 29.6863 30.306 26.9754 33.6397 26.9721C36.9767 26.9689 39.6827 29.6831 39.686 33.0342" fill="white"/>
<path d="M48.3699 23.6994C52.2598 21.5731 54.0323 25.179 54.0323 25.179" stroke="#0D4060" stroke-width="2" stroke-miterlimit="10" stroke-linecap="round"/>
<path d="M34.9731 23.6276C31.0962 21.5078 29.792 25.179 29.792 25.179" stroke="#0D4060" stroke-width="2" stroke-miterlimit="10" stroke-linecap="round"/>
<path d="M46.8997 33.0341C46.8997 31.5872 48.0673 30.4147 49.5081 30.4147C50.9489 30.4147 52.1165 31.5872 52.1165 33.0341" fill="#0D4060"/>
<path d="M31.2556 33.0341C31.2556 31.5872 32.4232 30.4147 33.864 30.4147C35.3049 30.4147 36.4725 31.5872 36.4725 33.0341" fill="#0D4060"/>
<path d="M49.3066 38.5638C49.3066 38.5638 48.7732 42.7739 41.9301 42.9111C35.087 43.0483 33.6982 38.5638 33.6982 38.5638H49.3066Z" fill="#0D4060"/>
<path d="M78.1392 59.9083C78.1392 59.9083 78.1392 80.9523 59.3826 84.0911" stroke="#0F8AB2" stroke-width="4" stroke-miterlimit="10" stroke-linecap="round"/>
<path d="M50.4481 91.9985C50.0058 92.1128 49.5569 91.845 49.4464 91.4008C49.4399 91.3812 49.4366 91.3583 49.4334 91.3387C49.261 90.8684 49.4659 90.3458 49.9147 90.1205L52.7801 89.0753C52.5979 88.8662 52.4418 88.6376 52.3117 88.3926L48.8837 89.6599C48.4446 89.7775 47.9925 89.5129 47.8754 89.0687C47.8689 89.0459 47.8657 89.023 47.8592 89.0002C47.6868 88.5298 47.895 88.004 48.3438 87.7819L51.7718 86.5146C51.7458 86.2566 51.7426 85.9985 51.7588 85.7405L48.8089 86.8216C48.3633 86.9327 47.9145 86.6583 47.8039 86.2108C47.8006 86.1945 47.7974 86.1782 47.7941 86.1618C47.625 85.6915 47.8332 85.1689 48.2787 84.9436L53.1931 83.1504C53.3362 83.0524 53.4924 82.9708 53.6517 82.9055L52.6045 82.8924C52.1166 82.8303 51.7556 82.4025 51.7751 81.9093C51.7133 81.4422 52.0385 81.0143 52.5036 80.9523C52.5134 80.9523 52.5231 80.949 52.5296 80.949L58.1043 81.0209C58.3222 81.0307 58.5303 81.1319 58.6702 81.3018C60.085 81.5043 61.2233 82.5625 61.5388 83.9637C62.1015 85.9267 61.2754 88.0007 59.6947 88.5756L55.7983 89.9996C55.769 89.9996 55.743 89.9996 55.7138 89.9996H55.678L50.4481 91.9985Z" fill="#A2CCED"/>
<path d="M7.81885 70.5724C7.81885 70.5724 14.1025 76.8042 17.6802 77.2778C21.2546 77.7482 26.9007 75.2953 26.9007 75.2953" stroke="#0F8AB2" stroke-width="4" stroke-miterlimit="10" stroke-linecap="round"/>
<path d="M45.1857 66.0618H38.0044C36.5994 66.0618 35.4578 67.2082 35.4578 68.6192V76.605C35.4578 78.1891 36.736 79.4694 38.3101 79.4694H44.8767C46.3436 79.4694 47.5307 78.2773 47.5307 76.8042V68.42C47.534 67.1167 46.4834 66.0618 45.1857 66.0618Z" fill="#F4E1B0"/>
<path d="M41.478 68.2207C44.1777 68.2207 46.3663 67.8171 46.3663 67.3192C46.3663 66.8214 44.1777 66.4178 41.478 66.4178C38.7782 66.4178 36.5896 66.8214 36.5896 67.3192C36.5896 67.8171 38.7782 68.2207 41.478 68.2207Z" fill="#5A3513"/>
<path d="M35.5976 68.825C33.7308 68.7466 32.1533 70.2 32.0753 72.0748C31.9972 73.9496 33.4445 75.5337 35.3114 75.6121C35.4057 75.6153 35.5001 75.6153 35.5976 75.6121" stroke="#F4E1B0" stroke-width="2" stroke-miterlimit="10"/>
<path d="M41.4844 63.2823C42.2422 63.0896 42.7561 61.917 42.8439 61.1233C42.9707 60.0455 42.1641 59.5425 41.5429 58.8239C40.8079 58.0204 40.5282 56.8969 40.8046 55.8419C41.0746 54.7641 41.7413 53.7875 42.8732 53.5588" stroke="#0D4060" stroke-width="0.5" stroke-miterlimit="10" stroke-linecap="round"/>
<path d="M43.6701 56.4886C43.1432 57.3541 43.4619 58.1707 43.9953 58.9317C44.3011 59.3628 44.5547 59.9638 44.2425 60.3917" stroke="#0D4060" stroke-width="0.5" stroke-miterlimit="10" stroke-linecap="round"/>
<path d="M39.9656 61.7308C39.9656 61.7308 41.0389 61.0906 39.9656 59.6797" stroke="#0D4060" stroke-width="0.5" stroke-miterlimit="10" stroke-linecap="round"/>
<path d="M39.7087 75.893C40.151 75.7166 40.3657 75.2136 40.1868 74.7694C40.1738 74.74 40.1608 74.7106 40.1478 74.6845C40.0209 74.1913 39.5526 73.8647 39.0452 73.9235L36.1148 74.7041C36.1408 74.4167 36.1408 74.126 36.1148 73.8385L39.6306 72.8946C40.0697 72.7084 40.2746 72.2022 40.0892 71.7613C40.0827 71.7482 40.0762 71.7351 40.0697 71.7221C39.9461 71.2256 39.4745 70.8957 38.9671 70.9545L35.4513 71.8886C35.3114 71.6567 35.1553 71.4379 34.9829 71.2289L37.9914 70.4189C38.4272 70.236 38.6289 69.7297 38.4468 69.2953C38.4402 69.279 38.4337 69.2626 38.424 69.2463C38.3069 68.7498 37.8353 68.42 37.3279 68.4787L32.2899 69.8277C32.1176 69.8277 31.9452 69.8473 31.7793 69.8832L32.6152 69.279C32.9729 68.9131 33.0152 68.3416 32.7128 67.93C32.5274 67.5022 32.0297 67.3062 31.6037 67.4956C31.5712 67.5087 31.5386 67.525 31.5094 67.5446L27.0308 70.9055C26.8519 71.0558 26.7478 71.2746 26.7413 71.5098C25.7851 72.3263 25.4339 73.9267 25.9835 75.5239C26.6828 77.5685 28.5789 78.8848 30.1986 78.4504L34.1828 77.3856L34.2674 77.3562H34.3097L39.7087 75.893Z" fill="#A2CCED"/>
</svg>
