<svg width="940" height="884" viewBox="0 0 940 884" fill="none" xmlns="http://www.w3.org/2000/svg">
<path d="M604.974 771.007H623.797V689.926H775.379V771.007H794.607L794.609 682.353H794.301V665.064H604.975V682.594" fill="#FBAD18"/>
<path d="M790.255 670.563H607.797C597.377 670.563 588.85 662.038 588.85 651.617V645.442C588.85 635.02 597.377 626.494 607.797 626.494H790.255C800.676 626.494 809.201 635.02 809.201 645.442V651.617C809.201 662.038 800.676 670.563 790.255 670.563Z" fill="#FFCB05"/>
<path d="M160.873 769.271H179.695L179.697 688.188H331.279L331.277 769.271H350.507L350.508 680.616H350.199V663.327H160.875V680.857" fill="#FBAD18"/>
<path d="M346.153 668.827H163.697C153.275 668.827 144.75 660.301 144.75 649.88V643.705C144.75 633.283 153.275 624.757 163.697 624.757H346.153C356.574 624.757 365.099 633.283 365.099 643.705V649.88C365.1 660.301 356.574 668.827 346.153 668.827Z" fill="#FFCB05"/>
<path d="M609.594 76.531C497.43 90.994 410.076 130.431 425.344 248.822C429.215 278.848 437.109 308.608 445.133 337.739C454.045 370.08 464.082 402.177 476.869 433.216C482.49 446.862 488.586 458.683 489.045 473.715C489.447 486.889 487.514 500.585 483.224 513.062C471.651 546.719 471.692 579.823 487.637 612.115C498.217 633.544 519.137 649.011 541.418 657.539C587.611 675.219 638.99 667.38 686.611 661.239C738.916 654.495 799.045 642.681 837.615 603.568C853.52 587.438 863.924 567.024 868.299 544.838C870.887 531.721 870.651 518.975 870.611 505.737C870.555 487.425 863.559 472.524 854.665 457.049C841.314 433.82 825.39 402.208 828.646 374.442C836.178 309.727 835.311 225.836 831.213 194.052C815.947 75.661 721.756 62.067 609.594 76.531Z" fill="#00A1CD"/>
<path d="M531.455 254.583C529.457 239.082 540.402 224.895 555.904 222.897C571.406 220.897 585.593 231.843 587.592 247.346" fill="white"/>
<path d="M604.105 245.217C602.107 229.716 613.052 215.529 628.554 213.53C644.056 211.53 658.242 222.477 660.242 237.978" fill="white"/>
<path d="M532.81 217.471C532.81 217.471 538.887 199.745 558.227 207.241" stroke="#0D4060" stroke-width="3" stroke-miterlimit="10"/>
<path d="M645.39 202.955C645.39 202.955 637.19 186.74 620.385 198.895" stroke="#0D4060" stroke-width="3" stroke-miterlimit="10"/>
<path d="M541.397 253.303C540.533 246.597 545.267 240.461 551.972 239.596C558.677 238.731 564.814 243.467 565.679 250.172" fill="#0D4060"/>
<path d="M615.244 243.78C614.38 237.075 619.115 230.937 625.82 230.073C632.525 229.208 638.663 233.944 639.527 240.648" fill="#0D4060"/>
<path d="M635.229 267.208C635.229 267.208 631.445 288.769 599.591 292.229C567.737 295.69 562.72 276.558 562.72 276.558L635.229 267.208Z" fill="#0D4060"/>
<g opacity="0.7">
<g opacity="0.7">
<path opacity="0.7" d="M534.5 278.194C534.933 281.548 526.939 285.342 516.646 286.669C506.355 287.996 497.66 286.355 497.228 283.001C496.795 279.647 504.789 275.854 515.082 274.527C525.373 273.198 534.068 274.841 534.5 278.194Z" fill="#A2CCED"/>
</g>
</g>
<g opacity="0.7">
<g opacity="0.7">
<path opacity="0.7" d="M693.738 257.66C694.172 261.014 686.177 264.809 675.886 266.135C665.592 267.462 656.9 265.821 656.467 262.467C656.034 259.113 664.027 255.32 674.32 253.992C684.611 252.665 693.307 254.308 693.738 257.66Z" fill="#A2CCED"/>
</g>
</g>
<path d="M656.324 644.375L671.518 743.919H689.725L704.918 644.333" fill="#00A1CD"/>
<path d="M565.516 644.067L580.707 743.919H598.916L614.107 644.376" fill="#00A1CD"/>
<path d="M689.548 768.664H671.695L662.309 688.075H699.026L689.548 768.664Z" fill="#5652A3"/>
<path d="M598.545 768.113H580.693L571.216 687.525H607.933L598.545 768.113Z" fill="#5652A3"/>
<path d="M600.965 769.062C600.965 752.158 587.261 738.454 570.356 738.454C553.45 738.454 539.745 752.158 539.745 769.062" fill="#504B48"/>
<path d="M624.797 769.062C624.797 752.158 638.502 738.454 655.406 738.454C672.312 738.454 686.016 752.158 686.016 769.062" fill="#504B48"/>
<path d="M392.582 517.831C390.719 595.142 326.535 656.303 249.226 654.44C171.917 652.577 110.754 588.394 112.618 511.083C114.481 433.773 178.663 372.611 255.974 374.475C333.283 376.338 394.445 440.52 392.582 517.831Z" fill="#00A1CD"/>
<path d="M373.219 575.273C373.219 575.273 392.115 576.023 402.101 569.61C412.084 563.197 430.191 546.127 430.191 546.127" stroke="#00A1CD" stroke-width="12" stroke-miterlimit="10"/>
<path d="M518.686 543.586C519.615 542.944 519.79 541.576 519.077 540.546C518.366 539.517 517.024 539.199 516.097 539.841L509.661 544.292C509.565 543.645 509.39 543 509.147 542.367L516.862 537.029C517.79 536.388 517.966 535.02 517.253 533.99C516.541 532.96 515.2 532.643 514.273 533.284L506.558 538.621C506.101 538.218 505.617 537.864 505.108 537.566L511.738 532.979C512.666 532.337 512.842 530.97 512.129 529.941C511.418 528.91 510.075 528.594 509.148 529.235L498.1 536.878C497.695 537.039 497.303 537.246 496.926 537.486L498.547 535.307C499.227 534.392 499.004 532.992 498.053 532.194C497.1 531.395 495.766 531.491 495.086 532.405L486.424 544.051C486.09 544.499 485.977 545.064 486.057 545.618C484.256 548.333 484.289 552.22 486.43 555.314C489.156 559.253 494.287 560.466 497.834 558.012L506.59 551.955C506.653 551.913 506.707 551.862 506.768 551.817C506.801 551.797 506.836 551.784 506.869 551.762L518.686 543.586Z" fill="#A2CCED"/>
<path d="M279.327 640.176L338.107 670.5L344.086 662.229L303.828 622.628" fill="#00A1CD"/>
<path d="M217.818 632.044L278.48 698.413L286.943 692.707L251.617 625.084" fill="#00A1CD"/>
<path d="M355.27 670.434L349.408 678.544L309.711 656.349L321.768 639.667L355.27 670.434Z" fill="#56C5D0"/>
<path d="M294.354 704.067L286.057 709.661L257.143 674.672L273.461 663.67L294.354 704.067Z" fill="#56C5D0"/>
<path d="M250.131 506.132C250.39 495.382 259.315 486.878 270.065 487.137C280.815 487.395 289.319 496.321 289.059 507.071" fill="white"/>
<path d="M300.51 507.347C300.77 496.597 309.695 488.093 320.444 488.351C331.195 488.611 339.7 497.536 339.44 508.286" fill="white"/>
<path d="M254.926 481.036C254.926 481.036 260.908 469.618 273.278 476.732" stroke="#0D4060" stroke-width="3" stroke-miterlimit="10"/>
<path d="M332.996 482.918C332.996 482.918 329.111 471.036 316.416 477.547" stroke="#0D4060" stroke-width="3" stroke-miterlimit="10"/>
<path d="M319.38 525.549C319.38 525.549 314.556 539.816 292.533 538.843C270.51 537.871 269.096 524.337 269.096 524.337L319.38 525.549Z" fill="#0D4060"/>
<g opacity="0.7">
<g opacity="0.7">
<path opacity="0.7" d="M249.736 522.504C249.679 524.829 243.847 526.575 236.711 526.404C229.572 526.231 223.834 524.206 223.889 521.882C223.946 519.556 229.776 517.811 236.914 517.983C244.051 518.155 249.793 520.179 249.736 522.504Z" fill="#A2CCED"/>
</g>
</g>
<g opacity="0.7">
<g opacity="0.7">
<path opacity="0.7" d="M360.163 525.166C360.107 527.492 354.275 529.237 347.139 529.065C340.003 528.893 334.261 526.869 334.317 524.543C334.372 522.218 340.204 520.472 347.342 520.644C354.479 520.816 360.22 522.841 360.163 525.166Z" fill="#A2CCED"/>
</g>
</g>
<path d="M286.574 709.873C281.48 702.321 283.474 692.069 291.029 686.976C298.582 681.882 308.834 683.877 313.927 691.43" fill="#504B48"/>
<path d="M350.189 680.197C342.63 675.111 340.626 664.861 345.712 657.303C350.798 649.745 361.048 647.741 368.607 652.827" fill="#504B48"/>
<path d="M266.555 506.816C266.719 501.786 270.928 497.84 275.959 498.004C280.99 498.167 284.936 502.378 284.772 507.408" fill="#0D4060"/>
<path d="M317.877 507.74C318.039 502.71 322.25 498.764 327.279 498.928C332.31 499.092 336.257 503.302 336.092 508.331" fill="#0D4060"/>
<path d="M571.848 646.688L475.983 688.975C472.934 690.609 469.27 690.609 466.223 688.975L370.357 648.966C367.003 647.167 364.909 643.67 364.909 639.864V512.934C364.909 505.398 372.718 500.4 379.562 503.555L466.779 532.381C469.522 533.645 472.682 533.645 475.426 532.381L562.643 501.278C569.487 498.122 577.295 503.121 577.295 510.657V637.586C577.295 641.394 575.203 644.892 571.848 646.688Z" fill="#EDEAE8"/>
<path d="M584.086 652.357L484.541 695.94C482.896 696.811 481.045 697.221 479.186 697.126L462.01 696.252C460.558 696.179 459.137 695.799 457.841 695.138L356.098 654.6C352.642 652.836 350.465 649.283 350.465 645.4V511.478C350.465 503.738 358.664 498.748 365.537 502.304L458.908 539.207C460.433 539.997 462.133 540.393 463.849 540.359L477.335 540.101C478.924 540.072 480.481 539.676 481.892 538.944L574.499 500.049C581.374 496.485 589.581 501.475 589.581 509.218V643.229C589.582 647.055 587.467 650.567 584.086 652.357Z" fill="#ED1651"/>
<path d="M475.82 697.271H465.025C462.302 697.271 460.093 695.063 460.093 692.341V544.985C460.093 542.262 462.302 540.054 465.025 540.054H475.82C478.543 540.054 480.752 542.262 480.752 544.985V692.34C480.752 695.063 478.543 697.271 475.82 697.271Z" fill="#CF2153"/>
<path d="M717.674 468.936C717.674 468.936 702.041 520.04 677.201 538.053C652.363 556.062 594.074 581.547 594.074 581.547" stroke="#00A1CD" stroke-width="14" stroke-miterlimit="10"/>
<path d="M571.79 622.755C569.801 624.081 566.933 622.982 565.412 620.311C563.893 617.642 564.277 614.374 566.266 613.048L580.056 603.856C578.834 602.944 577.676 601.86 576.592 600.648L560.059 611.669C558.071 612.994 555.202 611.895 553.682 609.225C552.162 606.557 552.547 603.288 554.536 601.963L571.067 590.942C570.606 589.51 570.268 588.07 570.058 586.637L555.85 596.109C553.862 597.434 550.991 596.335 549.473 593.665C547.953 590.997 548.336 587.728 550.325 586.402L574.003 570.62C574.63 569.911 575.343 569.286 576.108 568.723L570.518 569.892C568.174 570.381 565.541 568.377 564.668 565.437H564.666C563.793 562.497 564.994 559.691 567.34 559.201L597.213 552.958C598.361 552.717 599.578 553.083 600.625 553.857C607.426 552.879 615.174 557.17 619.738 565.19C625.549 575.397 624.082 587.896 616.478 592.962L597.716 605.47C597.583 605.558 597.439 605.623 597.304 605.707C597.24 605.757 597.189 605.821 597.12 605.867L571.79 622.755Z" fill="#A2CCED"/>
<path d="M287.543 606.2C287.543 606.2 304.361 614.616 316.035 612.892C327.711 611.166 351.107 603.109 351.107 603.109" stroke="#00A1CD" stroke-width="8" stroke-miterlimit="10"/>
<path d="M370.436 609.067C371.54 608.865 372.258 607.698 372.035 606.473C371.812 605.248 370.723 604.411 369.62 604.612L361.966 606.013C362.144 605.386 362.248 604.73 362.29 604.057L371.466 602.378C372.57 602.176 373.29 601.009 373.067 599.785C372.841 598.559 371.755 597.723 370.652 597.925L361.474 599.603C361.226 599.051 360.931 598.532 360.593 598.053L368.48 596.611C369.584 596.409 370.302 595.242 370.08 594.017C369.855 592.792 368.769 591.954 367.666 592.156L354.523 594.559C354.089 594.539 353.651 594.568 353.21 594.63L355.571 593.319C356.561 592.768 356.932 591.408 356.397 590.294C355.862 589.181 354.612 588.722 353.623 589.271L341.003 596.279C340.519 596.548 340.183 597.014 340.03 597.548C337.286 599.273 335.725 602.809 336.399 606.49C337.254 611.175 341.409 614.375 345.629 613.604L356.043 611.698C356.118 611.685 356.189 611.662 356.262 611.646C356.299 611.641 356.336 611.645 356.373 611.638L370.436 609.067Z" fill="#A2CCED"/>
</svg>
