<svg width="62" height="95" viewBox="0 0 62 95" fill="none" xmlns="http://www.w3.org/2000/svg">
<g clip-path="url(#clip0)">
<path d="M20.6841 70.2586L24.2191 94.8847H26.2708L29.8026 70.3355" fill="#00A0CC"/>
<path d="M32.5764 70.1433L36.1114 94.7662H38.1632L41.6949 70.217" fill="#00A0CC"/>
<path d="M26.3069 94.2344L27.3753 87.1842H22.8601L24.0951 94.1287L26.3069 94.2344Z" fill="#56C4CF"/>
<path d="M38.1241 94.2344L39.1957 87.1842H35.0791L35.9155 94.1287L38.1241 94.2344Z" fill="#56C4CF"/>
<path d="M28.6526 95C28.6526 92.3734 26.4832 90.2465 23.8042 90.2465C21.1252 90.2465 18.9558 92.3734 18.9558 95" fill="#4F4A47"/>
<path d="M44.3413 95C44.3413 92.3734 42.172 90.2465 39.4929 90.2465C36.8139 90.2465 34.6445 92.3734 34.6445 95" fill="#4F4A47"/>
<path d="M45.6959 68.8265C49.721 64.3997 51.4689 58.477 53.2495 52.9355C55.53 45.8341 57.8071 38.6461 59.6138 31.4197C61.2768 24.7699 63.2828 17.4122 60.9142 10.6823C58.4867 3.77946 52.4523 0.499398 45.3921 0.361661C39.116 0.236737 32.8399 0.111813 26.5637 0.172673C21.7349 0.220721 14.5081 -0.810704 10.2216 1.66215C5.42552 4.4265 1.5932 8.33759 0.443176 13.8407C-0.461814 18.165 0.136067 22.6558 1.13254 26.9609C3.8279 38.5788 8.27444 49.8765 12.6948 60.9467C16.2527 69.8579 22.8752 74.2943 29.8897 74.2943C33.8919 74.2943 38.1914 74.0957 41.8179 72.2091C43.4351 71.3634 44.4544 70.1943 45.6959 68.8265Z" fill="#00A0CC"/>
<path d="M21.0728 17.6816L26.947 16.7847" stroke="#0D3F60" stroke-miterlimit="10" stroke-linecap="round"/>
<path d="M41.7668 17.6816L35.8958 16.7847" stroke="#0D3F60" stroke-miterlimit="10" stroke-linecap="round"/>
<path d="M36.8106 27.1374C36.8106 27.1374 35.8468 30.174 31.0996 30.0811C26.3525 29.9882 25.9768 27.1374 25.9768 27.1374H36.8106Z" fill="#0D3F60"/>
<path d="M33.8342 23.3929C33.8342 21.2755 35.703 19.5586 38.0063 19.5586C40.3096 19.5586 42.1784 21.2755 42.1784 23.3929" fill="white"/>
<path d="M36.2161 23.3928C36.2161 22.4095 37.0296 21.6151 38.0293 21.6151C39.029 21.6151 39.8426 22.4127 39.8426 23.3928" fill="#0D3F60"/>
<path d="M21.4324 23.3929C21.4324 21.2755 23.311 19.5586 25.6273 19.5586C27.9437 19.5586 29.8223 21.2755 29.8223 23.3929" fill="white"/>
<path d="M23.8108 23.3928C23.8108 22.4095 24.6243 21.6151 25.624 21.6151C26.6238 21.6151 27.4373 22.4127 27.4373 23.3928" fill="#0D3F60"/>
<path d="M25.2417 19.5619C25.2678 19.5619 25.294 19.5586 25.3234 19.5586C25.3234 19.5586 25.294 19.5586 25.2417 19.5619Z" fill="#0D3F60"/>
<path d="M38.369 19.5587C38.3168 19.5554 38.2874 19.5554 38.2874 19.5554C38.3168 19.5587 38.3429 19.5587 38.369 19.5587Z" fill="#0D3F60"/>
<path d="M56.6354 42.1347L53.1657 51.8371L48.5166 39.7355L56.6354 42.1347Z" fill="#00A0CC"/>
<path d="M5.77954 42.8266L9.21328 52.135L12.879 40.4274L5.77954 42.8266Z" fill="#00A0CC"/>
<path d="M5.84814 42.5767L9.31782 52.2824L13.9669 40.1807L5.84814 42.5767Z" fill="#00A0CC"/>
<path d="M61.706 46.1419C61.706 37.237 54.3452 30.0202 45.2626 30.0202C39.1205 30.0202 33.7689 33.3227 30.9461 38.214C28.1234 33.3259 22.7718 30.0202 16.6297 30.0202C7.54708 30.0202 0.186279 37.237 0.186279 46.1419C0.186279 50.0978 1.64341 53.7174 4.05454 56.5234L5.72403 58.5894L30.6848 83.0617L55.407 59.2749C59.2851 54.8481 61.706 51.2926 61.706 46.1419Z" fill="#ED144C"/>
<path d="M60.6473 54.2235C61.4249 54.909 61.6797 56.2095 61.1864 57.5035C60.5591 59.1468 58.9517 60.175 57.6154 59.7874L54.3189 58.8297C54.296 58.8233 54.2732 58.8136 54.2503 58.804C54.2372 58.8008 54.2242 58.8008 54.2144 58.7976L49.7646 57.5067C49.415 57.4042 49.2647 56.9718 49.428 56.5394C49.5914 56.1102 50.0129 55.8411 50.3624 55.9404L52.7866 56.6419C52.7736 56.4145 52.7866 56.1774 52.8226 55.9372L49.9181 55.0947C49.5685 54.9922 49.4182 54.5598 49.5816 54.1274C49.745 53.6982 50.1664 53.4291 50.516 53.5284L53.4205 54.3708C53.5446 54.1818 53.6786 54.0057 53.8256 53.8423L51.3295 53.1184C50.9799 53.0159 50.8296 52.5835 50.993 52.151C51.1564 51.7218 51.5778 51.4527 51.9274 51.552L56.0864 52.7596C56.2302 52.7628 56.3739 52.7853 56.5144 52.8205L55.8316 52.292C55.5441 52.0709 55.5212 51.5745 55.7826 51.1933C56.0407 50.8121 56.4883 50.6808 56.7725 50.9018" fill="#A1CBEC"/>
<path d="M0.790591 55.6905C0.248251 56.5682 0.392004 57.8847 1.24472 58.9834C2.33267 60.3768 4.17532 60.9053 5.33841 60.1526L8.2102 58.2979C8.22981 58.2851 8.24941 58.2691 8.26901 58.2563C8.27881 58.2499 8.29188 58.2467 8.30168 58.2403L12.1765 55.7354C12.4803 55.54 12.4967 55.0787 12.2124 54.7168C11.9282 54.3516 11.4479 54.2139 11.1408 54.4125L9.03025 55.7738C8.97471 55.5528 8.89303 55.3286 8.78521 55.1108L11.314 53.4771C11.6178 53.2818 11.6341 52.8205 11.3499 52.4585C11.0657 52.0934 10.5854 51.9556 10.2783 52.1542L7.74954 53.7879C7.57638 53.6405 7.39342 53.5092 7.20393 53.3971L9.37656 51.9941C9.6804 51.7987 9.69674 51.3374 9.4125 50.9755C9.12826 50.6103 8.648 50.4726 8.34089 50.6712L4.71766 53.0095C4.58044 53.0543 4.44976 53.1152 4.32561 53.1889L4.82221 52.4874C5.0313 52.1927 4.90389 51.7154 4.5445 51.4239C4.18512 51.1324 3.71792 51.1356 3.50883 51.4271" fill="#A1CBEC"/>
</g>
<defs>
<clipPath id="clip0">
<rect width="62" height="95" fill="white"/>
</clipPath>
</defs>
</svg>
