<svg width="763" height="857" viewBox="0 0 763 857" fill="none" xmlns="http://www.w3.org/2000/svg">
<path d="M246.773 432.652C246.773 432.652 218.938 459.999 196.725 462.903C174.51 465.807 128.23 461.853 128.23 461.853" stroke="#00A1CD" stroke-width="20" stroke-miterlimit="10"/>
<path d="M423.199 0C298.55 0 197.502 32.048 197.502 168.959C197.502 203.683 201.935 238.692 206.603 273.006C211.786 311.103 218.232 349.086 227.836 386.27C232.058 402.615 237.055 416.957 235.438 434.123C234.02 449.167 229.976 464.464 223.527 478.028C206.133 514.614 201.51 552.278 214.388 591.349C222.934 617.274 243.623 637.939 266.777 650.908C314.779 677.795 372.049 676.414 424.973 676.414C483.101 676.414 550.494 671.794 598.17 632.96C617.831 616.944 632.081 595.248 639.991 570.654C644.668 556.113 646.208 541.579 648.029 526.515C650.549 505.677 645.002 487.698 637.461 468.792C626.14 440.41 613.189 402.116 620.663 371.009C638.02 298.499 648.897 202.943 648.897 166.188C648.897 29.278 547.848 0 423.199 0Z" fill="#00A1CD"/>
<path d="M48.6389 465.552C46.0119 464.853 44.7909 461.578 45.9259 458.275C47.0609 454.97 50.1369 452.839 52.7639 453.538L70.9799 458.388C70.8389 456.659 70.8929 454.857 71.1119 453.02L49.2719 447.205C46.6459 446.506 45.4249 443.231 46.5589 439.927C47.6939 436.623 50.7709 434.491 53.3969 435.192L75.2369 441.005C76.1109 439.535 77.0849 438.162 78.1489 436.907L59.3789 431.909C56.7529 431.21 55.5319 427.935 56.6659 424.63C57.8009 421.326 60.8779 419.195 63.5039 419.894L94.7799 428.221C95.8579 428.224 96.9269 428.363 97.9829 428.591L92.7819 424.701C90.5999 423.07 90.3279 419.316 92.1789 416.359C94.0289 413.402 97.3279 412.317 99.5099 413.949L127.31 434.738C128.379 435.537 128.983 436.85 129.109 438.326C135.059 443.393 137.228 453.231 133.82 463.158C129.482 475.793 117.716 483.945 107.673 481.271L82.8879 474.672C82.7109 474.625 82.5489 474.551 82.3749 474.499C82.2849 474.481 82.1909 474.486 82.1019 474.462L48.6389 465.552Z" fill="#A2CCED"/>
<path d="M456.457 649.112L480.373 815.526H509.036L532.951 649.041" fill="#00A1CD"/>
<path d="M343.504 648.597L367.419 815.526H396.082L419.997 649.113" fill="#00A1CD"/>
<path d="M508.756 856.891H480.655L465.877 722.168H523.677L508.756 856.891Z" fill="#5652A3"/>
<path d="M395.499 855.971H367.397L352.476 721.246H410.276L395.499 855.971Z" fill="#5652A3"/>
<path d="M386.982 224.899C386.982 205.749 402.505 190.223 421.657 190.223C440.808 190.223 456.333 205.748 456.333 224.899" fill="white"/>
<path d="M476.734 224.899C476.734 205.749 492.259 190.223 511.41 190.223C530.561 190.223 546.085 205.748 546.085 224.899" fill="white"/>
<path d="M394.441 180.01C394.441 180.01 404.606 159.423 426.931 171.56" stroke="#0D4060" stroke-width="5" stroke-miterlimit="10"/>
<path d="M533.525 180.01C533.525 180.01 526.1 159.021 503.775 171.158" stroke="#0D4060" stroke-width="5" stroke-miterlimit="10"/>
<path d="M416.658 224.899C416.658 216.616 423.374 209.899 431.658 209.899C439.942 209.899 446.657 216.616 446.657 224.899" fill="#0D4060"/>
<path d="M506.41 224.899C506.41 216.616 513.126 209.899 521.41 209.899C529.694 209.899 536.408 216.616 536.408 224.899" fill="#0D4060"/>
<path d="M511.11 256.499C511.11 256.499 503.131 282.107 463.881 281.321C424.631 280.535 421.531 256.499 421.531 256.499H511.11Z" fill="#0D4060"/>
<g opacity="0.7">
<g opacity="0.7">
<path opacity="0.7" d="M386.982 254.066C386.982 258.209 376.673 261.567 363.959 261.567C351.245 261.567 340.936 258.209 340.936 254.066C340.936 249.923 351.244 246.565 363.959 246.565C376.674 246.565 386.982 249.923 386.982 254.066Z" fill="#A2CCED"/>
</g>
</g>
<g opacity="0.7">
<g opacity="0.7">
<path opacity="0.7" d="M583.706 254.066C583.706 258.209 573.398 261.567 560.683 261.567C547.968 261.567 537.661 258.209 537.661 254.066C537.661 249.923 547.968 246.565 560.683 246.565C573.398 246.565 583.706 249.923 583.706 254.066Z" fill="#A2CCED"/>
</g>
</g>
<path d="M61.504 487.693H13.499C6.075 487.693 0 481.619 0 474.195V417.092C0 406.592 8.592 401.002 19.092 401.002H57.139C66.963 401.002 75 406.041 75 415.863V474.195C75.001 481.619 68.928 487.693 61.504 487.693Z" fill="white"/>
<path d="M68.0019 412.516C68.0019 415.592 55.5179 418.087 37.6489 418.087C19.7799 418.087 7.29688 415.592 7.29688 412.516C7.29688 409.44 19.7799 406.946 37.6489 406.946C55.5179 406.946 68.0019 409.441 68.0019 412.516Z" fill="#AA4925"/>
<path d="M74.002 421.848C85.6 421.848 95.002 431.25 95.002 442.848C95.002 454.446 85.6 463.848 74.002 463.848" stroke="white" stroke-width="6" stroke-miterlimit="10"/>
<path d="M40.56 387.795C32.632 385.803 27.298 373.579 26.359 365.459C25.038 354.028 33.437 349.004 39.938 341.528C47.633 332.683 50.503 321.997 47.612 310.543C44.819 299.48 37.838 289.203 26.022 286.803" stroke="#0D4060" stroke-miterlimit="10"/>
<path d="M17.7061 317.171C23.2041 326.17 19.8701 334.669 14.2981 342.545C11.1231 347.034 8.46906 353.294 11.7161 357.732" stroke="#0D4060" stroke-miterlimit="10"/>
<path d="M56.3731 371.697C56.3731 371.697 45.0401 365.03 56.3731 350.363" stroke="#0D4060" stroke-miterlimit="10"/>
<path d="M714.921 474.995C714.921 474.995 698.295 536.103 628.176 518.528" stroke="#00A1CD" stroke-width="20" stroke-miterlimit="10"/>
<path d="M762.214 414.486C763.104 411.909 761.223 409.093 758.034 408.231C754.844 407.369 751.506 408.773 750.616 411.351L744.442 429.235C743.174 428.17 741.743 427.227 740.194 426.404L747.596 404.963C748.487 402.384 746.605 399.569 743.416 398.708C740.226 397.845 736.888 399.249 735.998 401.827L728.595 423.268C726.975 423.194 725.375 423.256 723.817 423.457L730.178 405.03C731.068 402.452 729.188 399.636 725.998 398.774C722.809 397.912 719.471 399.315 718.581 401.894L707.979 432.599C707.393 433.503 706.916 434.471 706.519 435.48L706.332 429.001C706.254 426.284 703.484 423.999 700.172 423.926C696.862 423.851 694.217 426.015 694.295 428.733L695.285 463.361C695.323 464.693 696.015 465.917 697.095 466.832C697.787 474.581 704.255 481.786 713.838 484.376C726.034 487.674 738.798 482.306 742.203 472.446L750.604 448.112C750.664 447.939 750.696 447.763 750.749 447.589C750.786 447.504 750.841 447.428 750.872 447.34L762.214 414.486Z" fill="#A2CCED"/>
<path d="M366.788 856.112C366.788 831.397 385.655 811.362 408.928 811.362C432.201 811.362 451.067 831.397 451.067 856.112" fill="#504B48"/>
<path d="M480.705 856.112C480.705 831.397 499.572 811.362 522.845 811.362C546.118 811.362 564.984 831.397 564.984 856.112" fill="#504B48"/>
</svg>
