<svg width="127" height="131" viewBox="0 0 127 131" fill="none" xmlns="http://www.w3.org/2000/svg">
<path d="M19.9793 64.9009C19.9793 64.9009 7.11337 66.3992 5.91211 86.9131" stroke="#2489B7" stroke-width="3" stroke-miterlimit="10" stroke-linecap="round"/>
<path d="M100.864 63.4981C100.864 63.4981 113.816 63.4416 117.245 43.1951" stroke="#2489B7" stroke-width="3" stroke-miterlimit="10" stroke-linecap="round"/>
<path d="M111.719 34.381C111.625 33.8336 112.037 33.3294 112.638 33.2624C113.238 33.1955 113.804 33.5906 113.898 34.138L114.122 35.4412C114.165 35.2306 114.221 35.0185 114.304 34.8232L115.314 28.3549C115.399 27.8142 115.959 27.4462 116.557 27.5389C117.155 27.6316 117.577 28.1557 117.492 28.703L116.888 32.5825C117.163 32.5053 117.448 32.4536 117.743 32.4274L118.448 27.9124C118.533 27.3716 119.093 27.0037 119.691 27.0964C120.289 27.189 120.711 27.7132 120.627 28.2605L119.921 32.7755C120.226 32.9009 120.508 33.0621 120.766 33.2458L121.357 29.4807C121.442 28.9399 122.002 28.572 122.6 28.6646C123.198 28.7573 123.62 29.2814 123.536 29.8288L122.452 36.7504C122.448 36.7708 122.443 36.7846 122.438 36.805C122.435 36.8386 122.433 36.8786 122.43 36.9122L121.628 42.0358C121.305 44.1107 119.162 45.5118 116.87 45.1499C115.068 44.866 113.694 43.5648 113.343 42.0167L111.719 34.381Z" fill="#A2CCED"/>
<path d="M11.5441 94.9987C11.6688 95.5399 11.2815 96.0679 10.6908 96.1669C10.1 96.266 9.5092 95.9095 9.38448 95.3683L9.08909 94.0812C9.05627 94.299 9.01032 94.5103 8.94468 94.7083L8.29482 101.223C8.2423 101.771 7.70404 102.167 7.10013 102.107C6.49622 102.048 6.04985 101.546 6.10237 101.005L6.48965 97.0976C6.22052 97.19 5.93826 97.2626 5.64287 97.3022L5.18994 101.85C5.13742 102.398 4.59916 102.794 3.99525 102.734C3.39134 102.675 2.94497 102.173 2.99749 101.632L3.45042 97.0844C3.1419 96.9722 2.84651 96.8336 2.57737 96.6686L2.19665 100.464C2.14414 101.012 1.60587 101.408 1.00196 101.348C0.398051 101.289 -0.0483168 100.787 0.00419699 100.246L0.700005 93.276C0.700005 93.2562 0.706569 93.243 0.713134 93.2232C0.713134 93.1836 0.713134 93.1506 0.719698 93.111L1.23171 87.9495C1.44176 85.8572 3.50293 84.3391 5.81354 84.5701C7.62527 84.7549 9.07596 85.9694 9.5092 87.4941L11.5441 94.9987Z" fill="#A2CCED"/>
<path d="M17.0581 69.1653C17.0581 40.4339 37.8536 0 62.2791 0C88.0043 0 107.5 39.853 107.5 68.5844C107.5 97.3159 87.2559 104.042 62.2791 104.042C37.3022 104.042 17.0581 97.8967 17.0581 69.1653Z" fill="#00A1CD"/>
<path d="M48.625 37.3522C48.625 34.2962 51.0932 31.8145 54.1324 31.8145C57.1717 31.8145 59.6398 34.2962 59.6398 37.3522" fill="white"/>
<path d="M65.0227 37.3522C65.0227 34.2962 67.4908 31.8145 70.5301 31.8145C73.5693 31.8145 76.0374 34.2962 76.0374 37.3522" fill="white"/>
<path d="M49.8135 29.5235C49.8135 29.5235 51.4283 26.2366 54.9729 28.1705" stroke="#0D4060" stroke-miterlimit="10" stroke-linecap="round"/>
<path d="M74.0485 29.5237C74.0485 29.5237 72.867 26.1707 69.3223 28.1112" stroke="#0D4060" stroke-miterlimit="10" stroke-linecap="round"/>
<path d="M51.7566 37.351C51.7566 36.0309 52.8266 34.9551 54.1394 34.9551C55.4522 34.9551 56.5222 36.0309 56.5222 37.351" fill="#0D4060"/>
<path d="M68.1538 37.351C68.1538 36.0309 69.2238 34.9551 70.5366 34.9551C71.8495 34.9551 72.9194 36.0309 72.9194 37.351" fill="#0D4060"/>
<path d="M69.6372 42.4009C69.6372 42.4009 68.3703 46.4931 62.1343 46.3677C55.8983 46.2423 55.406 42.4009 55.406 42.4009H69.6372Z" fill="#0D4060"/>
<path d="M73.3334 124.192L76.0444 99.7183H64.5833L68.9944 130.667L72.27 129.064" fill="#00A1CD"/>
<path d="M67.0903 117.13H74.1995L72.4468 130.449H68.8299L67.0903 117.13Z" fill="#FFCB05"/>
<path d="M68.8103 130.786C68.8103 127.427 71.5213 124.708 74.8559 124.708C78.1971 124.708 80.9016 127.433 80.9016 130.786" fill="#504B48"/>
<path d="M50.0365 128.813L45.7632 100.603H57.395L52.5834 130.443L48.9271 128.813" fill="#00A1CD"/>
<path d="M47.864 117.79H54.9731L53.227 130.595H49.6101L47.864 117.79Z" fill="#FFCB05"/>
<path d="M41.2278 130.786C41.2278 127.427 43.9388 124.708 47.2734 124.708C50.608 124.708 53.3191 127.433 53.3191 130.786" fill="#504B48"/>
</svg>
