<svg width="304" height="304" viewBox="0 0 304 304" fill="none" xmlns="http://www.w3.org/2000/svg">
<path d="M0.21051 303.28V0H304V303.28" fill="#F8D978"/>
<path d="M221.105 83.2009C221.105 83.2009 208.262 81.8272 203.32 68.71" stroke="#108AB2" stroke-width="2.2776" stroke-miterlimit="10" stroke-linecap="round"/>
<path d="M268.254 84.5855C268.254 84.5855 281.473 84.4637 283.811 69.585" stroke="#108AB2" stroke-width="2.0519" stroke-miterlimit="10" stroke-linecap="round"/>
<path d="M280.575 69.408C280.808 70.3829 281.805 71.2138 283.135 71.4022C284.83 71.6459 286.459 70.7818 286.736 69.4745L287.434 66.2506C287.434 66.2284 287.445 66.2063 287.445 66.1841C287.445 66.173 287.456 66.1619 287.456 66.1509L288.398 61.808C288.476 61.4646 288.166 61.1322 287.722 61.0768C287.279 61.0103 286.858 61.243 286.781 61.5754L286.271 63.9462C286.082 63.8243 285.872 63.7246 285.65 63.6471L286.271 60.8109C286.348 60.4675 286.038 60.1351 285.595 60.0797C285.152 60.0133 284.731 60.2459 284.653 60.5783L284.032 63.4144C283.811 63.4255 283.6 63.4587 283.39 63.5031L283.922 61.0657C283.999 60.7223 283.689 60.3899 283.246 60.3345C282.803 60.2681 282.381 60.5007 282.304 60.8331L281.417 64.899C281.351 65.0208 281.307 65.1538 281.273 65.2867L281.129 64.4669C281.074 64.1235 280.653 63.8686 280.21 63.913C279.766 63.9462 279.445 64.2675 279.5 64.6109" fill="#A1CBEC"/>
<path d="M304 122.608H0.21051V304H304V122.608Z" fill="#FFCA05"/>
<path d="M165.036 53.8647C165.036 33.4134 147.44 17.3604 125.212 17.3604C102.984 17.3604 84.9671 33.9341 84.9671 54.3965V88.2974H164.981V60.1131C164.981 60.1131 165.036 55.8035 165.036 53.8647Z" fill="#A4DBDE"/>
<path d="M0 122.63H43.3035V56.7894C43.3035 56.7894 43.3589 52.4908 43.3589 50.541C43.3589 30.0897 22.4385 14.0366 0.210534 14.0366" fill="#954F22"/>
<path d="M84.9705 88.2715L164.984 88.2715L164.984 66.8896L84.9705 66.8896L84.9705 88.2715Z" fill="#2D9D48"/>
<path d="M161.203 41.1461C159.729 41.1461 158.432 41.9881 157.646 43.2732C157.225 42.3426 156.538 41.556 155.651 41.0797C153.479 39.9053 150.897 40.9799 149.878 43.4837C149.501 44.4033 149.39 45.4004 149.512 46.342C147.551 45.7992 145.468 46.896 144.57 49.0785C143.551 51.5712 144.482 54.5514 146.654 55.7257C147.828 56.3572 149.113 56.335 150.222 55.7811C150.532 57.1659 151.363 58.3957 152.582 59.0493C154.687 60.1794 157.18 59.2044 158.255 56.8668C158.576 57.1992 158.931 57.4872 159.341 57.7088C161.446 58.8499 163.939 57.8528 165.014 55.5152C165.025 54.7951 165.025 54.1082 165.025 53.5875C165.025 49.3554 164.261 45.3117 162.865 41.5671C162.366 41.3012 161.801 41.1461 161.203 41.1461Z" fill="white"/>
<path d="M89.9756 49.9537C91.6266 50.0867 93.1336 49.2669 94.1087 47.8931C94.5187 48.9677 95.2278 49.9094 96.1919 50.5298C98.5521 52.0365 101.522 51.0727 102.84 48.3584C103.328 47.3503 103.516 46.2535 103.439 45.1899C105.599 45.9765 108.015 44.9351 109.167 42.5642C110.486 39.861 109.633 36.4377 107.284 34.931C106.009 34.1112 104.558 34.0336 103.295 34.5433C103.04 32.959 102.198 31.5077 100.868 30.6657C98.5853 29.2033 95.7265 30.0785 94.3525 32.5934C94.1309 32.3275 93.876 32.0838 93.599 31.8733C89.9313 36.2715 87.3051 41.4564 86.0862 47.0954C86.8508 48.6908 88.2802 49.8208 89.9756 49.9537Z" fill="white"/>
<path d="M165.203 84.9844H84.7455V89.3937H165.203V84.9844Z" fill="#FFCA05"/>
<path d="M32.799 79.5011C34.488 79.5011 35.8573 78.4495 35.8573 77.1524C35.8573 75.8553 34.488 74.8037 32.799 74.8037C31.11 74.8037 29.7407 75.8553 29.7407 77.1524C29.7407 78.4495 31.11 79.5011 32.799 79.5011Z" fill="#838383"/>
<path d="M251.389 195.828C251.389 223.68 242.945 253.482 203.597 254.501C166.233 255.465 155.806 224.256 155.806 196.393C155.806 168.541 177.203 162.016 203.597 162.016C229.992 162.016 251.389 167.976 251.389 195.828Z" fill="#00A0CC"/>
<path d="M180.671 210.894C180.671 210.894 180.705 203.305 192.639 203.261C202.456 203.228 203.054 211.37 203.054 211.37L180.671 210.894Z" fill="#0D3F60"/>
<path d="M196.162 198.021C196.162 193.556 200.018 189.944 204.783 189.944C209.537 189.944 213.404 193.556 213.404 198.021" fill="white"/>
<path d="M170.533 198.021C170.533 193.556 174.411 189.944 179.198 189.944C183.985 189.944 187.863 193.556 187.863 198.021" fill="white"/>
<path d="M171.419 193.933L166.787 192.094L170.898 195.329C170.843 195.517 170.81 195.683 170.765 195.861L166.743 195.362L170.588 196.98C170.533 197.5 170.544 197.822 170.544 197.822C172.804 190.632 177.48 190.011 178.411 189.967C174.333 190 172.361 191.972 171.419 193.933Z" fill="#0D3F60"/>
<path d="M178.411 189.956C178.466 189.956 178.522 189.956 178.577 189.956C178.577 189.944 178.522 189.944 178.411 189.956Z" fill="#0D3F60"/>
<path d="M217.194 195.351L213.171 195.849C213.138 195.672 213.094 195.495 213.038 195.318L217.149 192.083L212.517 193.922C211.576 191.961 209.603 190 205.526 189.944C206.456 190 211.121 190.62 213.393 197.799C213.393 197.799 213.404 197.467 213.349 196.957L217.194 195.351Z" fill="#0D3F60"/>
<path d="M236.308 219.735C236.308 219.735 220.451 236.863 205.847 218.062" stroke="#108AB2" stroke-width="2.772" stroke-miterlimit="10" stroke-linecap="round"/>
<path d="M208.728 214.794C209.271 216.035 208.861 217.741 207.575 219.027C205.935 220.666 203.487 221.054 202.124 219.869L198.755 216.955C198.733 216.933 198.711 216.91 198.689 216.888C198.678 216.877 198.655 216.877 198.644 216.866L194.101 212.933C193.747 212.623 193.802 212.025 194.234 211.593C194.666 211.161 195.309 211.061 195.664 211.371L198.135 213.509C198.245 213.232 198.389 212.955 198.567 212.678L195.597 210.119C195.243 209.809 195.298 209.211 195.73 208.779C196.162 208.347 196.805 208.247 197.16 208.557L200.129 211.116C200.373 210.95 200.639 210.817 200.894 210.695L198.345 208.491C197.991 208.18 198.046 207.582 198.478 207.15C198.91 206.718 199.553 206.618 199.908 206.929L204.163 210.596C204.329 210.673 204.484 210.784 204.628 210.895L204.107 209.898C203.897 209.477 204.129 208.867 204.65 208.546C205.16 208.225 205.758 208.302 205.98 208.723" fill="#A1CBEC"/>
<path d="M159.851 216.633C159.851 216.633 160.804 237.018 175.408 218.217" stroke="#108AB2" stroke-width="2.772" stroke-miterlimit="10" stroke-linecap="round"/>
<path d="M172.527 214.938C171.984 216.179 172.394 217.885 173.679 219.17C175.319 220.81 177.768 221.197 179.131 220.012L182.5 217.098C182.522 217.076 182.544 217.054 182.566 217.032C182.577 217.021 182.599 217.021 182.611 217.01L187.154 213.077C187.508 212.767 187.453 212.168 187.021 211.736C186.589 211.304 185.946 211.204 185.591 211.515L183.12 213.653C183.009 213.376 182.865 213.099 182.688 212.822L185.658 210.263C186.012 209.953 185.957 209.354 185.525 208.922C185.093 208.49 184.45 208.39 184.095 208.701L181.126 211.26C180.882 211.094 180.616 210.961 180.361 210.839L182.91 208.634C183.264 208.324 183.209 207.726 182.777 207.294C182.345 206.862 181.702 206.762 181.347 207.072L177.092 210.739C176.926 210.817 176.771 210.928 176.627 211.038L177.148 210.041C177.358 209.62 177.126 209.011 176.605 208.69C176.095 208.368 175.497 208.446 175.275 208.867" fill="#A1CBEC"/>
<path d="M207.498 252.916L210.567 286.285H214.246L217.304 252.905" fill="#00A0CC"/>
<path d="M190.19 252.816L193.259 286.285H196.927L199.996 252.916" fill="#00A0CC"/>
<path d="M190.91 269.59H198.977L196.993 286.197H192.882L190.91 269.59Z" fill="#5652A2"/>
<path d="M208.373 269.59H216.429L214.457 286.197H210.346L208.373 269.59Z" fill="#5652A2"/>
<path d="M183.752 286.285C183.752 282.33 186.954 279.128 190.91 279.128C194.866 279.128 198.068 282.33 198.068 286.285" fill="#4F4A47"/>
<path d="M201.204 286.285C201.204 282.33 204.406 279.128 208.362 279.128C212.318 279.128 215.52 282.33 215.52 286.285" fill="#4F4A47"/>
<path d="M213.005 186.621C213.005 186.621 209.714 179.962 202.489 183.884" stroke="#0D3F60" stroke-width="1.5479" stroke-miterlimit="10" stroke-linecap="round"/>
<path d="M172.073 186.621C172.073 186.621 174.477 179.83 181.702 183.763" stroke="#0D3F60" stroke-width="1.5479" stroke-miterlimit="10" stroke-linecap="round"/>
<path d="M104.17 207.194C104.17 207.194 120.193 200.348 121.389 181.48" stroke="#108AB2" stroke-width="3.073" stroke-miterlimit="10" stroke-linecap="round"/>
<path d="M116.193 184.704C116.414 186.189 117.81 187.54 119.772 187.995C122.276 188.571 124.802 187.474 125.39 185.557L126.83 180.838C126.841 180.805 126.841 180.771 126.852 180.738C126.863 180.727 126.874 180.705 126.874 180.694L128.814 174.324C128.969 173.825 128.559 173.293 127.894 173.138C127.24 172.983 126.575 173.271 126.42 173.781L125.367 177.248C125.102 177.049 124.802 176.872 124.481 176.728L125.744 172.573C125.899 172.075 125.489 171.543 124.825 171.388C124.16 171.233 123.506 171.521 123.351 172.03L122.088 176.185C121.755 176.174 121.434 176.196 121.124 176.24L122.209 172.662C122.365 172.163 121.955 171.631 121.29 171.476C120.636 171.321 119.971 171.609 119.827 172.119L118.01 178.079C117.899 178.257 117.81 178.445 117.744 178.644L117.633 177.403C117.589 176.883 117.002 176.451 116.326 176.462C115.65 176.462 115.14 176.894 115.184 177.415" fill="#A1CBEC"/>
<path d="M107.838 193.047V217.043C107.838 232.808 103.66 251.553 79.2827 251.553H70.6619C47.0267 251.553 42.1068 232.819 42.1068 217.043V159.689C42.1068 146.35 52.9216 135.537 66.2628 135.537H83.6817C97.0229 135.537 107.838 146.35 107.838 159.689V172.429V193.047Z" fill="#00A0CC"/>
<path d="M100.768 163.012L93.0117 167.742" stroke="#0D3F60" stroke-width="1.4114" stroke-miterlimit="10" stroke-linecap="round"/>
<path d="M73.9196 244.297L68.6341 288.733H64.9553L59.6808 244.274" fill="#00A0CC"/>
<path d="M70.8281 272.049H62.7613L64.7447 288.645H68.8557L70.8281 272.049Z" fill="#EC1651"/>
<path d="M77.9973 288.734C77.9973 284.779 74.795 281.577 70.8391 281.577C66.8833 281.577 63.681 284.779 63.681 288.734" fill="#4F4A47"/>
<path d="M90.995 244.297L85.7095 288.733H82.0307L76.7562 244.274" fill="#00A0CC"/>
<path d="M87.9035 272.049H79.8367L81.8201 288.645H85.9311L87.9035 272.049Z" fill="#EC1651"/>
<path d="M95.0616 288.734C95.0616 284.779 91.8593 281.577 87.9035 281.577C83.9476 281.577 80.7453 284.779 80.7453 288.734" fill="#4F4A47"/>
<path d="M74.9944 162.812L84.6901 166.912" stroke="#0D3F60" stroke-width="1.4114" stroke-miterlimit="10" stroke-linecap="round"/>
<path d="M53.1099 212.191C53.1099 212.191 31.1479 208.59 29.0093 186.145" stroke="#108AB2" stroke-width="3.073" stroke-miterlimit="10" stroke-linecap="round"/>
<path d="M33.8517 186.167C33.4195 187.607 31.846 188.748 29.8404 188.914C27.2808 189.125 24.9317 187.685 24.6325 185.702L23.879 180.827C23.879 180.794 23.879 180.76 23.8679 180.727C23.8679 180.705 23.8568 180.694 23.8568 180.672L22.8485 174.091C22.7709 173.57 23.2474 173.105 23.9233 173.05C24.5882 172.994 25.2087 173.371 25.2862 173.892L25.8403 177.481C26.1395 177.326 26.4608 177.193 26.7932 177.093L26.1284 172.795C26.0508 172.274 26.5273 171.809 27.2032 171.753C27.8681 171.698 28.4886 172.075 28.5661 172.595L29.231 176.894C29.5523 176.938 29.8737 177.005 30.1839 177.093L29.6188 173.404C29.5412 172.883 30.0177 172.418 30.6936 172.363C31.3585 172.307 31.979 172.684 32.0566 173.205L32.9984 179.365C33.076 179.553 33.1425 179.752 33.1757 179.963L33.4638 178.744C33.5857 178.234 34.2284 177.891 34.8932 177.991C35.5581 178.09 36.0013 178.589 35.8794 179.099" fill="#A1CBEC"/>
<path d="M173.203 192.205C172.383 193.036 171.751 194.044 171.364 195.163C172.859 196.204 174.92 196.182 176.383 194.953C177.879 193.701 178.256 191.629 177.436 189.956C176.328 190.167 175.308 190.588 174.411 191.197L173.203 192.205Z" fill="#0D3F60"/>
<path d="M198.39 192.56C197.57 193.39 196.938 194.399 196.55 195.518C198.046 196.559 200.107 196.537 201.57 195.307C203.066 194.055 203.442 191.983 202.622 190.311C201.514 190.521 200.495 190.942 199.597 191.551L198.39 192.56Z" fill="#0D3F60"/>
<path d="M95.2944 184.494C96.0257 184.461 96.5132 183.685 96.1919 183.021C95.2611 181.126 92.9896 178.013 88.1916 178.368C83.3715 178.722 81.8091 181.924 81.2994 183.785C81.1221 184.45 81.6651 185.104 82.3521 185.07L95.2944 184.494Z" fill="#0D3F60"/>
<path d="M275.312 63.3702C274.614 67.7353 273.55 72.0781 272.542 76.3434C271.999 78.6589 271.4 80.6863 271.677 83.0904C271.91 85.2064 272.996 87.3335 273.927 89.228C276.453 94.3242 276.298 99.6309 274.603 105.17C273.484 108.837 270.647 111.806 267.445 113.69C260.818 117.601 258.613 117.445 244.94 117.711C236.829 117.866 228.795 117.368 222.036 112.028C219.243 109.823 217.205 106.81 216.03 103.375C215.343 101.337 215.243 100.451 214.955 98.3457C214.545 95.421 215.387 91.6542 216.396 88.9732C217.903 84.9516 219.332 79.5895 218.202 75.2355C215.587 65.0764 213.814 51.66 213.714 46.4974C213.348 27.2315 227.377 22.8443 244.773 22.523C262.17 22.1906 276.365 26.4338 276.73 45.6997C276.764 47.6828 276.697 49.6769 276.575 51.6711C276.575 51.649 275.7 61.1545 275.312 63.3702Z" fill="#00A0CC"/>
<path d="M245.915 114.786L249.538 139.735L253.35 139.669L256.065 114.044" fill="#00A0CC"/>
<path d="M253.649 139.57L254.469 129.134L248.02 129.256L249.339 140.368L253.649 139.57Z" fill="#56C4CF"/>
<path d="M231.399 114.786L235.022 139.735L238.823 139.669L241.549 114.044" fill="#00A0CC"/>
<path d="M239.122 139.57L239.942 129.134L233.493 129.256L234.812 140.368L239.122 139.57Z" fill="#56C4CF"/>
<path d="M239.499 141.43C239.477 137.896 236.585 135.049 233.05 135.082C229.515 135.116 226.668 137.996 226.701 141.53" fill="#4F4A47"/>
<path d="M241.139 141.221C241.194 137.686 244.098 134.861 247.632 134.917C251.167 134.972 253.993 137.875 253.937 141.409" fill="#4F4A47"/>
<path d="M242.901 59.991C242.901 59.991 241.693 56.2353 235.92 56.3904C230.147 56.5455 229.715 60.0907 229.715 60.0907L242.901 59.991Z" fill="#0D3F60"/>
<path d="M233.815 53.0783C233.815 50.4526 231.543 48.3145 228.74 48.3145C225.936 48.3145 223.665 50.4416 223.665 53.0783" fill="white"/>
<path d="M248.918 53.0783C248.918 50.4526 246.635 48.3145 243.809 48.3145C240.984 48.3145 238.701 50.4416 238.701 53.0783" fill="white"/>
<path d="M248.474 50.8293L251.112 49.6661L248.774 51.7045C248.807 51.8264 248.829 51.9372 248.851 52.0369L251.145 51.7156L248.951 52.7349C248.984 53.0561 248.973 53.2666 248.973 53.2666C247.743 48.957 245.294 48.392 244.596 48.3145C246.846 48.4031 247.943 49.6107 248.474 50.8293Z" fill="#0D3F60"/>
<path d="M244.596 48.3367C244.53 48.3367 244.474 48.3256 244.397 48.3256C244.397 48.3146 244.474 48.3146 244.596 48.3367Z" fill="#0D3F60"/>
<path d="M221.36 51.726L223.654 52.0473C223.676 51.9365 223.698 51.8257 223.731 51.7149L221.393 49.6765L224.03 50.8397C224.562 49.6211 225.659 48.4135 227.909 48.3359C227.21 48.4135 224.751 48.9785 223.532 53.2881C223.532 53.2881 223.532 53.0776 223.554 52.7563L221.36 51.726Z" fill="#0D3F60"/>
<path d="M228.939 48.3255C229.061 48.3145 229.139 48.3145 229.139 48.3145C229.061 48.3145 229.006 48.3255 228.939 48.3255Z" fill="#0D3F60"/>
<path d="M217.393 85.0516C217.393 85.0516 219.277 80.9967 217.792 73.3303C216.307 65.6749 225.338 78.2381 225.338 78.2381L217.393 85.0516Z" fill="#00A0CC"/>
<path d="M234.213 49.4219L226.878 44.647" stroke="#0D3F60" stroke-width="0.8939" stroke-miterlimit="10" stroke-linecap="round"/>
<path d="M238.701 49.4441L245.372 44.647" stroke="#0D3F60" stroke-width="0.8939" stroke-miterlimit="10" stroke-linecap="round"/>
<path d="M231.443 48.924C230.634 48.4144 229.659 48.1152 228.607 48.1152C227.665 48.1152 226.8 48.37 226.047 48.791C226.446 49.9211 227.51 50.7409 228.773 50.7409C229.97 50.7409 231.011 49.9875 231.443 48.924Z" fill="#0D3F60"/>
<path d="M246.513 48.924C245.704 48.4144 244.729 48.1152 243.676 48.1152C242.735 48.1152 241.87 48.37 241.117 48.791C241.516 49.9211 242.579 50.7409 243.843 50.7409C245.039 50.7409 246.081 49.9875 246.513 48.924Z" fill="#0D3F60"/>
<path d="M203.575 62.5279C203.387 62.1402 202.899 62.0072 202.5 62.2399C202.09 62.4615 201.913 62.96 202.09 63.3478L202.534 64.2673C202.412 64.1565 202.279 64.0457 202.146 63.9571L201.016 62.8049C200.074 63.3256 199.221 64.0014 198.489 64.7769C197.614 65.7075 196.938 66.8708 197.137 68.0673L197.835 68.7763C197.847 68.7874 197.858 68.7985 197.869 68.7985C197.891 68.8207 197.902 68.8428 197.924 68.865L200.716 71.7233C201.847 72.8755 203.83 72.809 205.116 71.5682C206.135 70.5932 206.423 69.1641 205.958 68.0451C206.024 67.8457 206.024 67.6352 205.936 67.4469L203.575 62.5279Z" fill="#A1CBEC"/>
<path d="M164.759 106.755C165.879 105.403 166.998 104.041 168.128 102.689C169.17 101.426 170.233 100.174 171.275 98.9112C171.375 98.8004 171.508 98.6786 171.463 98.4902C171.641 98.5345 171.663 98.7672 171.862 98.8226C172.782 99.0552 173.469 99.7532 174.311 100.152C175.541 100.728 176.638 101.537 177.846 102.157C178.234 102.357 178.633 102.545 178.987 102.811C179.574 103.232 180.195 103.631 180.815 103.941C181.779 104.428 182.655 105.06 183.63 105.514C184.284 105.824 184.805 106.334 185.458 106.611C186.323 106.977 187.065 107.553 187.885 107.985C187.397 108.971 187.154 110.045 186.788 111.076C185.99 113.402 185.215 115.729 184.428 118.055C184.306 118.399 184.206 118.565 183.796 118.31C182.522 117.523 181.214 116.781 179.918 116.028L164.759 106.755Z" fill="#D5BA76"/>
<path d="M210.711 50.5193C211.066 50.8959 211.121 51.472 210.844 51.9484C209.636 54.0534 204.916 61.7974 203.719 63.9023C201.991 66.9379 192.583 83.1793 190.855 86.2038C189.015 89.4166 187.165 92.6184 185.325 95.8312C184.561 97.1607 183.818 98.5012 183.054 99.8306C182.843 100.196 182.854 100.373 183.264 100.606C185.081 101.603 186.866 102.667 188.672 103.686C190.245 104.572 190.544 105.647 189.591 107.154C189.503 107.298 189.469 107.497 189.281 107.575C188.838 108.151 188.605 108.228 187.885 108.007C187.375 107.852 186.854 107.386 186.4 107.131C185.802 106.799 185.192 106.456 184.594 106.101C183.32 105.359 182.034 104.617 180.76 103.874C179.198 102.966 177.646 102.069 176.084 101.16C174.71 100.362 173.447 99.5315 172.017 98.8557C171.297 98.5123 170.821 97.9251 171.131 97.1496C171.308 96.8061 171.474 96.4516 171.674 96.1303C172.272 95.1665 173.413 94.9006 174.4 95.4656C176.35 96.5846 178.311 97.7035 180.25 98.8446C180.616 99.0662 180.76 98.9554 180.948 98.6341C183.109 94.8341 185.292 91.0452 187.464 87.2452C189.813 83.1239 199.852 65.7968 202.201 61.6866C203.21 59.9251 207.708 52.5356 208.728 50.7851C209.182 49.9764 210.102 49.8656 210.711 50.5193Z" fill="#969E9B"/>
<path d="M181.569 116.991L183.763 110.632L180.594 116.426L181.569 116.991Z" fill="#C9A362"/>
<path d="M177.103 114.31L178.5 110.366L176.051 113.668L177.103 114.31Z" fill="#C9A362"/>
<path d="M169.613 109.058L172.605 102.987L168.327 108.272L169.613 109.058Z" fill="#C9A362"/>
<path d="M200.207 67.7356C200.174 67.7799 200.295 67.8021 200.262 67.8464C200.617 67.791 200.849 67.7245 201.104 67.4697C201.248 67.3257 201.315 67.1484 201.337 66.9601C201.37 66.6942 201.271 66.4172 201.071 66.2289L198.999 64.1018C198.711 63.8027 198.201 63.8248 197.869 64.1461C197.536 64.4674 197.503 64.9659 197.791 65.2651L200.207 67.7356Z" fill="#A1CBEC"/>
<path d="M200.794 65.4086C201.06 65.6745 201.437 65.8074 201.813 65.7299C201.813 65.7299 201.813 65.7299 201.825 65.7299H201.836C202.412 65.608 202.633 64.8879 202.212 64.4669L200.384 62.6057C200.096 62.3066 199.586 62.3287 199.254 62.65C198.921 62.9713 198.888 63.4698 199.176 63.769L200.794 65.4086Z" fill="#A1CBEC"/>
<path d="M199.076 69.3861C199.331 69.3085 199.608 69.2088 199.741 68.9651C199.752 68.9429 199.775 68.9097 199.786 68.8765C199.896 68.6106 199.819 68.3004 199.619 68.1009L197.88 66.3284C197.592 66.0292 197.082 66.0514 196.75 66.3727C196.417 66.6939 196.384 67.1925 196.672 67.4916L198.334 69.1867C198.522 69.3861 198.811 69.4636 199.076 69.3861Z" fill="#A1CBEC"/>
<path d="M251.932 261.823C252.12 262.033 252.452 262.055 252.663 261.856L271.157 245.083C271.367 244.895 271.389 244.562 271.19 244.352C271.002 244.141 270.669 244.119 270.459 244.318L251.965 261.092C251.754 261.291 251.743 261.612 251.932 261.823Z" fill="#515252"/>
<path d="M286.515 263.009H247.289V285.643H286.515V263.009Z" fill="#444445"/>
<path d="M256.851 260.04C262.215 260.04 267.567 260.029 272.93 260.051C276.786 260.062 280.653 260.162 284.509 260.129C287.08 260.106 288.31 261.779 288.199 263.873C288.155 264.748 288.254 265.513 289.174 265.945C289.517 266.1 289.595 266.499 289.628 266.864C289.872 268.947 289.872 271.03 289.628 273.102C289.573 273.545 289.44 273.955 289.019 274.187C288.288 274.586 288.188 275.251 288.199 276.004C288.221 278.918 288.199 281.832 288.21 284.745C288.21 285.499 288.155 286.241 287.933 286.961C287.157 288.346 285.938 288.833 284.398 288.833C272.442 288.822 260.475 288.822 248.519 288.833C246.967 288.833 245.771 288.302 244.962 286.961C244.696 286.086 244.663 285.189 244.663 284.28C244.674 277.334 244.674 270.398 244.663 263.452C244.962 261.303 245.97 260.239 247.821 260.173C248.763 260.14 249.715 260.261 250.657 260.129L256.851 260.04ZM269.284 274.232C269.461 269.579 265.616 264.061 259.178 264.05C250.846 264.028 245.472 273.7 251.533 281.488C259.865 288.545 269.495 282.341 269.284 274.232ZM281.34 270.742C282.204 270.742 283.057 270.742 283.922 270.742C284.952 270.742 284.952 270.742 284.853 268.715C284.853 268.637 284.853 268.559 284.841 268.482C284.819 268.161 284.742 267.983 284.564 267.972C284.42 267.972 284.287 267.961 284.143 267.961C282.348 267.961 280.542 267.939 278.747 267.972C277.705 267.983 277.827 267.573 277.827 269.9C277.827 270.72 277.838 270.742 278.282 270.742C279.301 270.753 280.32 270.742 281.34 270.742ZM281.307 266.443C282.182 266.443 283.057 266.466 283.944 266.443C284.963 266.41 284.852 266.875 284.864 264.516C284.864 264.438 284.864 264.361 284.864 264.283C284.864 263.895 284.753 263.707 284.564 263.696C284.409 263.685 284.243 263.685 284.088 263.685C282.315 263.685 280.542 263.674 278.758 263.685C277.75 263.696 277.849 263.397 277.838 265.657C277.838 266.288 277.96 266.466 278.259 266.454C279.268 266.421 280.287 266.443 281.307 266.443Z" fill="#656767"/>
<path d="M259.045 282.053C254.923 282.02 251.566 278.629 251.566 274.475C251.566 270.365 254.979 266.93 259.079 266.908C263.212 266.897 266.68 270.42 266.614 274.564C266.558 278.729 263.167 282.086 259.045 282.053Z" fill="#515252"/>
<path d="M288.963 274.541C288.454 274.541 288.033 274.12 288.033 273.611V265.202C288.033 264.692 288.454 264.271 288.963 264.271C289.473 264.271 289.894 264.692 289.894 265.202V273.611C289.905 274.12 289.484 274.541 288.963 274.541Z" fill="#444445"/>
<path d="M106.63 174.18C106.63 170.38 103.549 167.289 99.7377 167.289C95.9259 167.289 92.8455 170.369 92.8455 174.18" fill="white"/>
<path d="M84.8008 174.18C84.8008 170.38 81.7204 167.289 77.9086 167.289C74.0969 167.289 71.0164 170.369 71.0164 174.18" fill="white"/>
<path d="M98.6407 174.246C98.6407 172.518 100.037 171.122 101.765 171.122C103.494 171.122 104.89 172.518 104.89 174.246" fill="#0D3F60"/>
<path d="M76.6233 174.246C76.6233 172.518 78.0195 171.122 79.7481 171.122C81.4767 171.122 82.8728 172.518 82.8728 174.246" fill="#0D3F60"/>
<path d="M71.6259 170.767L67.7144 169.216L71.1827 171.941C71.1383 172.096 71.1051 172.24 71.0719 172.396L67.6812 171.975L70.9167 173.337C70.8724 173.769 70.8835 174.046 70.8835 174.046C72.8005 167.986 76.7341 167.454 77.5208 167.41C74.0858 167.466 72.4237 169.116 71.6259 170.767Z" fill="#0D3F60"/>
<path d="M109.821 171.941L106.43 172.362C106.397 172.218 106.364 172.063 106.32 171.908L109.788 169.183L105.876 170.734C105.079 169.083 103.417 167.421 99.9815 167.377C100.768 167.421 104.702 167.942 106.619 174.013C106.619 174.013 106.63 173.736 106.586 173.304L109.821 171.941Z" fill="#0D3F60"/>
</svg>
