<svg width="301" height="300" viewBox="0 0 301 300" fill="none" xmlns="http://www.w3.org/2000/svg">
<path d="M0.208008 296.858V0H301V296.858" fill="#F8D978"/>
<path d="M301 117.215H0V300H301V117.215Z" fill="#FFCA05"/>
<path d="M163.122 52.5529C163.122 32.3419 145.73 16.4775 123.76 16.4775C101.79 16.4775 83.9817 32.8675 83.9817 53.0784V86.5808H163.068V58.7278C163.068 58.7278 163.122 54.4798 163.122 52.5529Z" fill="#A4DBDE"/>
<path d="M0 117.236H42.8013V52.1585C42.8013 52.1585 42.8561 47.9105 42.8561 45.9835C42.8561 25.7726 22.1783 9.9082 0.208092 9.9082" fill="#954F22"/>
<path d="M83.985 86.5557L163.071 86.5557L163.071 65.425L83.985 65.425L83.985 86.5557Z" fill="#2D9D48"/>
<path d="M159.333 39.984C157.876 39.984 156.595 40.8161 155.817 42.0861C155.401 41.1664 154.722 40.3891 153.846 39.9183C151.699 38.7578 149.147 39.8198 148.14 42.2941C147.767 43.2029 147.658 44.1882 147.778 45.1188C145.84 44.5824 143.781 45.6663 142.894 47.8231C141.886 50.2865 142.806 53.2317 144.953 54.3922C146.114 55.0163 147.384 54.9944 148.479 54.447C148.786 55.8155 149.607 57.0308 150.812 57.6768C152.893 58.7935 155.357 57.8301 156.42 55.5199C156.737 55.8484 157.088 56.133 157.493 56.352C159.574 57.4797 162.038 56.4943 163.101 54.1842C163.111 53.4726 163.111 52.7937 163.111 52.2792C163.111 48.0968 162.356 44.1006 160.976 40.4C160.483 40.1373 159.924 39.984 159.333 39.984Z" fill="white"/>
<path d="M87.8369 48.6987C89.4688 48.8301 90.9583 48.0199 91.9221 46.6623C92.3273 47.7243 93.0283 48.6549 93.9811 49.268C96.3139 50.757 99.2491 49.8045 100.552 47.1221C101.034 46.1258 101.221 45.0419 101.144 43.9908C103.28 44.7682 105.667 43.739 106.806 41.396C108.109 38.7246 107.266 35.3415 104.944 33.8525C103.685 33.0423 102.25 32.9657 101.001 33.4693C100.75 31.9037 99.9172 30.4694 98.6029 29.6373C96.3468 28.1921 93.5211 29.0571 92.163 31.5424C91.944 31.2796 91.6921 31.0388 91.4183 30.8307C87.7931 35.1773 85.1974 40.3012 83.9927 45.874C84.7484 47.4396 86.1612 48.5564 87.8369 48.6987Z" fill="white"/>
<path d="M163.287 84.4131H83.7627V88.7706H163.287V84.4131Z" fill="#FFCA05"/>
<path d="M34.609 74.6031C36.2784 74.6031 37.6318 73.5639 37.6318 72.282C37.6318 71.0001 36.2784 69.9609 34.609 69.9609C32.9395 69.9609 31.5862 71.0001 31.5862 72.282C31.5862 73.5639 32.9395 74.6031 34.609 74.6031Z" fill="#838383"/>
<path d="M147.056 206.992C147.056 206.992 131.46 211.295 126.093 182.008" stroke="#108AB2" stroke-width="2.7001" stroke-miterlimit="10" stroke-linecap="round"/>
<path d="M130.069 180.64C129.828 181.921 128.59 183.059 126.87 183.399C124.68 183.826 122.511 182.808 122.062 181.122L120.945 176.983C120.934 176.95 120.934 176.928 120.923 176.895C120.923 176.884 120.912 176.863 120.902 176.852L119.401 171.268C119.281 170.83 119.653 170.381 120.233 170.272C120.803 170.162 121.372 170.425 121.493 170.863L122.314 173.906C122.555 173.742 122.818 173.6 123.103 173.479L122.117 169.834C121.997 169.396 122.369 168.947 122.95 168.837C123.519 168.728 124.089 168.991 124.209 169.429L125.195 173.074C125.48 173.074 125.764 173.107 126.027 173.151L125.184 170.02C125.063 169.582 125.436 169.133 126.016 169.023C126.586 168.914 127.155 169.177 127.276 169.615L128.678 174.837C128.765 174.99 128.831 175.155 128.886 175.33L129.017 174.257C129.072 173.808 129.587 173.458 130.178 173.479C130.759 173.501 131.197 173.885 131.142 174.344" fill="#A1CBEC"/>
<path d="M230.895 210.737C230.895 210.737 246.425 215.565 253.621 193.985" stroke="#108AB2" stroke-width="2.7001" stroke-miterlimit="10" stroke-linecap="round"/>
<path d="M250.948 190.734C250.959 192.037 251.989 193.373 253.632 193.997C255.712 194.796 258.023 194.161 258.757 192.585L260.564 188.698C260.575 188.665 260.586 188.643 260.597 188.61C260.608 188.599 260.619 188.588 260.619 188.566L263.061 183.322C263.259 182.906 262.963 182.402 262.415 182.194C261.868 181.986 261.265 182.151 261.079 182.567L259.754 185.424C259.546 185.216 259.316 185.03 259.053 184.866L260.652 181.439C260.849 181.023 260.553 180.519 260.006 180.311C259.458 180.103 258.856 180.267 258.67 180.683L257.071 184.11C256.786 184.067 256.512 184.045 256.238 184.045L257.607 181.1C257.804 180.683 257.509 180.18 256.961 179.972C256.413 179.764 255.811 179.928 255.625 180.344L253.347 185.249C253.226 185.391 253.139 185.545 253.051 185.698L253.106 184.614C253.128 184.165 252.679 183.727 252.098 183.64C251.518 183.563 251.025 183.87 251.003 184.318" fill="#A1CBEC"/>
<path d="M237.609 188.807C237.609 217.415 228.934 248.016 188.521 249.056C150.144 250.042 139.433 217.995 139.433 189.387C139.433 160.778 161.414 154.089 188.521 154.089C215.638 154.089 237.609 160.209 237.609 188.807Z" fill="#00A0CC"/>
<path d="M153.835 179.118C153.835 179.118 157.143 172.417 164.415 176.37" stroke="#0D3F60" stroke-width="1.5761" stroke-miterlimit="10" stroke-linecap="round"/>
<path d="M197.25 179.118C197.25 179.118 194.829 172.286 187.557 176.238" stroke="#0D3F60" stroke-width="1.5761" stroke-miterlimit="10" stroke-linecap="round"/>
<path d="M188.072 199.175C188.072 199.175 186.024 205.744 175.948 205.547C165.872 205.35 165.072 199.175 165.072 199.175H188.072Z" fill="#0D3F60"/>
<path d="M180.887 191.063C180.887 186.486 184.852 182.764 189.736 182.764C194.621 182.764 198.586 186.475 198.586 191.063" fill="white"/>
<path d="M154.569 191.063C154.569 186.486 158.555 182.764 163.473 182.764C168.391 182.764 172.377 186.475 172.377 191.063" fill="white"/>
<path d="M155.478 186.858L150.713 184.964L154.93 188.292C154.875 188.478 154.832 188.665 154.799 188.84L150.67 188.325L154.612 189.989C154.558 190.515 154.569 190.854 154.569 190.854C156.891 183.475 161.688 182.84 162.651 182.785C158.468 182.829 156.441 184.854 155.478 186.858Z" fill="#0D3F60"/>
<path d="M202.496 188.315L198.367 188.829C198.323 188.654 198.29 188.468 198.235 188.282L202.452 184.953L197.688 186.847C196.713 184.844 194.698 182.818 190.503 182.764C191.456 182.818 196.253 183.453 198.586 190.833C198.586 190.833 198.597 190.493 198.542 189.968L202.496 188.315Z" fill="#0D3F60"/>
<path d="M190.339 182.774C190.393 182.774 190.448 182.774 190.514 182.774C190.404 182.763 190.339 182.774 190.339 182.774Z" fill="#0D3F60"/>
<path d="M178.182 237.221L171.205 250.053C170.34 251.651 169.935 253.447 170.044 255.254L171.249 275.103C171.326 276.417 170.187 277.501 168.818 277.402C167.821 277.326 167 276.636 166.781 275.705L162.06 255.243C161.545 253.009 161.688 250.688 162.465 248.52L166.802 236.564" fill="#00A0CC"/>
<path d="M166.649 276.351L171.402 277.588L170.449 259.83L162.991 259.282L166.649 276.351Z" fill="#5652A2"/>
<path d="M157.296 276.548C157.57 273.143 160.943 270.614 164.842 270.899C168.741 271.183 171.676 274.172 171.402 277.588" fill="#4F4A47"/>
<path d="M201.214 232.809L204.237 250.49C204.599 252.264 205.442 253.917 206.701 255.275L220.337 266.738C221.246 267.723 220.052 268.249 218.913 268.982L217.906 269.99C217.084 270.526 217.993 270.471 217.226 269.858L200.426 259.994C198.575 258.538 197.184 256.622 196.395 254.465L191.872 239.027" fill="#00A0CC"/>
<path d="M217.544 270.45L221.06 266.585L209.22 257.29L203.032 261.286L217.544 270.45Z" fill="#5652A2"/>
<path d="M211.389 276.702C208.979 274.206 209.352 270.1 212.221 267.538C215.091 264.976 219.373 264.932 221.794 267.428" fill="#4F4A47"/>
<path d="M250.269 251.739C250.456 251.947 250.784 251.968 250.992 251.771L269.271 235.195C269.48 235.009 269.501 234.681 269.304 234.473C269.118 234.265 268.79 234.243 268.581 234.44L250.302 251.016C250.094 251.202 250.083 251.531 250.269 251.739Z" fill="#515252"/>
<path d="M284.462 252.91H245.691V275.278H284.462V252.91Z" fill="#444445"/>
<path d="M255.132 249.966C260.433 249.966 265.723 249.955 271.024 249.977C274.835 249.988 278.658 250.086 282.469 250.053C285.01 250.031 286.226 251.685 286.116 253.754C286.072 254.619 286.171 255.374 287.08 255.801C287.419 255.954 287.496 256.349 287.529 256.71C287.77 258.768 287.77 260.827 287.529 262.874C287.474 263.312 287.343 263.717 286.927 263.947C286.204 264.341 286.105 264.998 286.116 265.742C286.138 268.622 286.116 271.501 286.127 274.381C286.127 275.125 286.072 275.859 285.853 276.571C285.087 277.939 283.882 278.421 282.359 278.421C270.542 278.41 258.714 278.41 246.896 278.421C245.363 278.421 244.18 277.895 243.38 276.571C243.118 275.706 243.085 274.819 243.085 273.921C243.096 267.056 243.096 260.202 243.085 253.338C243.38 251.214 244.377 250.163 246.206 250.097C247.137 250.064 248.079 250.185 249.01 250.053L255.132 249.966ZM267.432 264.002C267.607 259.403 263.806 253.951 257.443 253.94C249.207 253.918 243.895 263.476 249.886 271.173C258.111 278.136 267.64 272.016 267.432 264.002ZM279.337 260.553C280.191 260.553 281.034 260.553 281.888 260.553C282.907 260.553 282.907 260.553 282.808 258.549C282.808 258.473 282.808 258.396 282.797 258.319C282.776 258.002 282.699 257.827 282.524 257.816C282.381 257.816 282.25 257.805 282.107 257.805C280.333 257.805 278.548 257.783 276.774 257.816C275.744 257.827 275.865 257.422 275.865 259.721C275.865 260.531 275.876 260.553 276.314 260.553C277.321 260.553 278.329 260.553 279.337 260.553ZM279.304 256.294C280.169 256.294 281.034 256.316 281.91 256.294C282.918 256.261 282.808 256.721 282.819 254.389C282.819 254.312 282.819 254.236 282.819 254.159C282.819 253.776 282.71 253.59 282.524 253.579C282.37 253.568 282.206 253.568 282.053 253.568C280.3 253.568 278.548 253.557 276.785 253.568C275.788 253.579 275.887 253.283 275.876 255.517C275.876 256.141 275.996 256.316 276.292 256.305C277.289 256.283 278.296 256.294 279.304 256.294Z" fill="#656767"/>
<path d="M257.301 271.731C253.226 271.698 249.908 268.348 249.908 264.243C249.908 260.181 253.281 256.787 257.334 256.765C261.419 256.754 264.847 260.235 264.781 264.33C264.726 268.447 261.375 271.753 257.301 271.731Z" fill="#515252"/>
<path d="M286.872 264.297C286.368 264.297 285.952 263.881 285.952 263.377V255.067C285.952 254.564 286.368 254.147 286.872 254.147C287.375 254.147 287.792 254.564 287.792 255.067V263.377C287.803 263.881 287.386 264.297 286.872 264.297Z" fill="#444445"/>
<path d="M246.907 245.258V230.86" stroke="black" stroke-width="0.4594" stroke-miterlimit="10"/>
<path d="M242.285 247.129L234.202 234.462" stroke="black" stroke-width="0.4594" stroke-miterlimit="10"/>
<path d="M238.244 249.703L227.521 247.13" stroke="black" stroke-width="0.4594" stroke-miterlimit="10"/>
<path d="M81.616 197.391C81.616 197.391 98.1867 192.716 101.757 174.366" stroke="#108AB2" stroke-width="3.073" stroke-miterlimit="10" stroke-linecap="round"/>
<path d="M88.7677 181.723V205.438C88.7677 221.018 84.6387 239.542 60.5438 239.542H52.023C28.6619 239.542 23.7991 221.028 23.7991 205.438V148.757C23.7991 135.575 34.4884 124.89 47.6749 124.89H64.8918C78.0783 124.89 88.7677 135.575 88.7677 148.757V161.348V181.723Z" fill="#00A0CC"/>
<path d="M28.3224 199.142C28.3224 199.142 9.6817 193.175 12.9126 171.125" stroke="#108AB2" stroke-width="3.073" stroke-miterlimit="10" stroke-linecap="round"/>
<path d="M17.5674 172.285C16.8117 173.566 15.0374 174.289 13.066 173.982C10.5579 173.588 8.64131 171.65 8.81654 169.68L9.24368 164.819C9.24368 164.786 9.25463 164.753 9.25463 164.72C9.25463 164.698 9.25463 164.687 9.25463 164.665L9.82415 158.107C9.86796 157.593 10.4484 157.253 11.0946 157.363C11.7517 157.472 12.2555 157.976 12.2008 158.49L11.8832 162.06C12.2008 161.972 12.5403 161.928 12.8908 161.906L13.2631 157.625C13.307 157.111 13.8874 156.771 14.5336 156.881C15.1907 156.99 15.6945 157.494 15.6398 158.009L15.2674 162.289C15.5741 162.41 15.8588 162.541 16.1326 162.706L16.4502 159.027C16.4941 158.512 17.0745 158.173 17.7207 158.282C18.3778 158.392 18.8816 158.895 18.8269 159.41L18.2902 165.541C18.3231 165.738 18.334 165.946 18.3231 166.154L18.8816 165.048C19.1116 164.589 19.8126 164.413 20.4259 164.665C21.0392 164.917 21.3568 165.497 21.1159 165.957" fill="#A1CBEC"/>
<path d="M96.2592 176.873C96.292 178.362 97.4858 179.862 99.3587 180.552C101.746 181.427 104.353 180.672 105.174 178.876L107.179 174.431C107.189 174.399 107.2 174.366 107.211 174.333C107.222 174.322 107.233 174.3 107.244 174.289L109.949 168.289C110.158 167.819 109.829 167.249 109.205 167.019C108.58 166.789 107.901 166.986 107.682 167.457L106.204 170.72C105.963 170.49 105.689 170.282 105.393 170.096L107.157 166.176C107.365 165.705 107.036 165.136 106.412 164.906C105.788 164.676 105.109 164.873 104.89 165.344L103.126 169.264C102.809 169.22 102.48 169.198 102.173 169.198L103.696 165.837C103.904 165.366 103.575 164.797 102.951 164.567C102.327 164.337 101.648 164.534 101.429 165.005L98.8987 170.61C98.7672 170.775 98.6577 170.939 98.5701 171.125L98.6249 169.888C98.6468 169.373 98.1211 168.88 97.4639 168.793C96.8068 168.705 96.2482 169.067 96.2263 169.581" fill="#A1CBEC"/>
<path d="M61.3105 167.775C61.3105 167.775 62.6905 173.633 69.4919 173.458C76.2932 173.282 76.8299 167.775 76.8299 167.775H61.3105Z" fill="#0D3F60"/>
<path d="M86.5774 163.056C86.5774 159.301 83.5327 156.246 79.7652 156.246C75.9976 156.246 72.9529 159.29 72.9529 163.056" fill="white"/>
<path d="M65.0125 163.056C65.0125 159.301 61.9678 156.246 58.2002 156.246C54.4436 156.246 51.3879 159.29 51.3879 163.056" fill="white"/>
<path d="M66.3047 233.4L74.486 248.366C75.5046 250.239 75.9865 252.33 75.855 254.443L74.4969 277.621C74.4093 279.154 75.7455 280.413 77.3445 280.292C78.5055 280.205 79.4693 279.395 79.7212 278.3L85.1863 254.388C85.7777 251.782 85.6135 249.067 84.6935 246.549L79.5897 232.601" fill="#00A0CC"/>
<path d="M79.8855 279.066L74.3328 280.512L75.3951 259.775L84.1021 259.118L79.8855 279.066Z" fill="#EC1651"/>
<path d="M90.794 279.274C90.4654 275.3 86.5226 272.344 81.9665 272.694C77.4213 273.034 73.9933 276.537 74.3218 280.522" fill="#4F4A47"/>
<path d="M41.4432 225.78L42.5494 246.703C42.6041 248.816 42.0565 250.918 40.9723 252.79L27.0629 265.72C26.2744 267.078 26.8877 268.775 28.3772 269.312C29.4505 269.706 30.6881 269.366 31.411 268.469L49.3179 256.546C51.0483 254.411 52.1545 251.871 52.483 249.21L53.6659 230.466" fill="#00A0CC"/>
<path d="M29.3409 271.654L24.3467 268.151L38.026 255.527L42.9764 260.772L29.3409 271.654Z" fill="#EC1651"/>
<path d="M33.7657 279.811C37.0295 277.402 37.4019 272.607 34.5981 269.103C31.7943 265.6 26.8658 264.702 23.6021 267.111" fill="#4F4A47"/>
<path d="M157.252 184.537C156.442 185.358 155.817 186.354 155.434 187.46C156.913 188.489 158.95 188.467 160.395 187.252C161.874 186.015 162.246 183.968 161.436 182.314C160.341 182.522 159.333 182.939 158.446 183.541L157.252 184.537Z" fill="#0D3F60"/>
<path d="M182.946 185.216C182.136 186.037 181.511 187.033 181.128 188.139C182.606 189.168 184.644 189.146 186.089 187.931C187.568 186.694 187.94 184.646 187.13 182.993C186.035 183.201 185.027 183.617 184.14 184.219L182.946 185.216Z" fill="#0D3F60"/>
<path d="M78.6809 163.122C78.6809 161.414 80.0609 160.034 81.7694 160.034C83.478 160.034 84.858 161.414 84.858 163.122" fill="#0D3F60"/>
<path d="M56.9187 163.122C56.9187 161.414 58.2987 160.034 60.0072 160.034C61.7158 160.034 63.0958 161.414 63.0958 163.122" fill="#0D3F60"/>
<path d="M269.184 61.7059C268.494 66.0196 267.442 70.3114 266.446 74.5266C265.909 76.8148 265.318 78.8184 265.591 81.1942C265.821 83.2854 266.895 85.3875 267.815 87.2597C270.312 92.296 270.159 97.5403 268.483 103.015C267.377 106.639 264.573 109.573 261.408 111.434C254.858 115.299 252.679 115.146 239.164 115.408C231.147 115.562 223.206 115.069 216.525 109.792C213.766 107.613 211.75 104.635 210.589 101.241C209.91 99.2264 209.812 98.3505 209.527 96.2703C209.122 93.3799 209.954 89.6574 210.951 87.0079C212.44 83.0335 213.853 77.7345 212.736 73.4317C210.151 63.3919 208.399 50.1333 208.3 45.0313C207.939 25.9918 221.804 21.6562 238.999 21.3387C256.194 21.0103 270.224 25.2035 270.586 44.243C270.619 46.2028 270.553 48.1735 270.432 50.1442C270.432 50.1333 269.567 59.5271 269.184 61.7059Z" fill="#00A0CC"/>
<path d="M240.127 112.528L243.709 137.184L247.476 137.119L250.16 111.795" fill="#00A0CC"/>
<path d="M247.772 137.021L248.583 126.707L242.208 126.827L243.512 137.809L247.772 137.021Z" fill="#56C4CF"/>
<path d="M225.78 112.528L229.361 137.184L233.118 137.119L235.812 111.795" fill="#00A0CC"/>
<path d="M233.414 137.021L234.224 126.707L227.85 126.827L229.153 137.809L233.414 137.021Z" fill="#56C4CF"/>
<path d="M233.786 138.86C233.764 135.367 230.906 132.553 227.412 132.586C223.918 132.619 221.103 135.466 221.136 138.958" fill="#4F4A47"/>
<path d="M235.407 138.651C235.462 135.159 238.331 132.367 241.825 132.422C245.319 132.476 248.112 135.345 248.057 138.838" fill="#4F4A47"/>
<path d="M224.061 54.9395C224.061 54.9395 225.298 58.6401 231.004 58.4102C236.71 58.1803 237.094 54.6768 237.094 54.6768L224.061 54.9395Z" fill="#0D3F60"/>
<path d="M228.168 51.5457C228.168 48.951 225.923 46.8379 223.152 46.8379C220.381 46.8379 218.135 48.94 218.135 51.5457" fill="white"/>
<path d="M223.973 51.5459C223.973 50.3416 222.998 49.3672 221.793 49.3672C220.589 49.3672 219.614 50.3416 219.614 51.5459" fill="#0D3F60"/>
<path d="M243.096 51.5457C243.096 48.951 240.839 46.8379 238.047 46.8379C235.254 46.8379 232.998 48.94 232.998 51.5457" fill="white"/>
<path d="M238.901 51.5459C238.901 50.3416 237.926 49.3672 236.721 49.3672C235.517 49.3672 234.542 50.3416 234.542 51.5459" fill="#0D3F60"/>
<path d="M242.658 49.3232L245.264 48.1736L242.953 50.1881C242.986 50.3086 243.008 50.4181 243.03 50.5166L245.297 50.1991L243.128 51.2063C243.161 51.5239 243.15 51.7319 243.15 51.7319C241.935 47.4729 239.514 46.9145 238.824 46.8379C241.048 46.9255 242.132 48.1189 242.658 49.3232Z" fill="#0D3F60"/>
<path d="M238.824 46.8488C238.759 46.8488 238.704 46.8379 238.627 46.8379C238.627 46.8379 238.704 46.8379 238.824 46.8488Z" fill="#0D3F60"/>
<path d="M215.857 50.2088L218.125 50.5264C218.146 50.4169 218.168 50.3074 218.201 50.1979L215.879 48.1724L218.486 49.322C219.012 48.1177 220.096 46.9243 222.319 46.8477C221.629 46.9243 219.198 47.4827 217.993 51.7416C217.993 51.7416 217.993 51.5336 218.015 51.2161L215.857 50.2088Z" fill="#0D3F60"/>
<path d="M223.338 46.8488C223.458 46.8379 223.535 46.8379 223.535 46.8379C223.469 46.8379 223.415 46.8488 223.338 46.8488Z" fill="#0D3F60"/>
<path d="M214.083 92.241C214.083 92.241 208.552 88.2339 208.892 84.6099C209.231 80.9859 215.354 77.4824 215.354 77.4824" stroke="#0A8AB2" stroke-width="2.0688" stroke-miterlimit="10" stroke-linecap="round"/>
<path d="M213.207 143.108C213.656 141.313 214.105 139.506 214.554 137.711C214.97 136.035 215.375 134.36 215.792 132.685C215.825 132.532 215.846 132.346 216.022 132.258C215.868 132.138 215.66 132.269 215.496 132.127C214.718 131.492 213.7 131.35 212.835 130.879C211.575 130.2 210.206 129.773 208.914 129.138C208.508 128.93 208.092 128.711 207.643 128.569C206.92 128.339 206.198 128.054 205.54 127.726C204.522 127.211 203.438 126.872 202.441 126.324C201.773 125.963 201.006 125.842 200.36 125.459C199.506 124.956 198.553 124.682 197.666 124.255C197.14 125.284 196.373 126.171 195.727 127.112C194.26 129.236 192.759 131.36 191.27 133.474C191.051 133.791 190.974 133.977 191.445 134.163C192.912 134.755 194.358 135.4 195.804 136.025L213.207 143.108Z" fill="#D5BA76"/>
<path d="M232.22 68.9539C231.683 68.8882 231.158 69.2057 230.928 69.7312C229.887 72.0742 226.273 80.9096 225.233 83.2526C223.743 86.6138 215.825 104.745 214.335 108.106C212.758 111.675 211.192 115.244 209.615 118.813C208.958 120.291 208.289 121.759 207.643 123.248C207.468 123.653 207.315 123.762 206.855 123.554C204.872 122.645 202.857 121.791 200.864 120.894C199.133 120.116 198.027 120.532 197.348 122.284C197.282 122.448 197.14 122.602 197.184 122.81C196.965 123.543 197.052 123.784 197.688 124.266C198.137 124.605 198.849 124.747 199.363 124.988C200.031 125.295 200.7 125.59 201.368 125.875C202.791 126.499 204.226 127.112 205.65 127.736C207.391 128.492 209.133 129.247 210.874 130.003C212.407 130.671 213.897 131.218 215.376 132.017C216.12 132.422 216.909 132.455 217.38 131.7C217.555 131.327 217.752 130.977 217.905 130.594C218.344 129.488 217.862 128.35 216.756 127.868C214.587 126.915 212.418 125.952 210.228 125.021C209.812 124.846 209.812 124.66 209.976 124.299C211.849 120.083 213.7 115.868 215.573 111.664C217.599 107.098 226.043 87.7525 228.069 83.1869C228.934 81.2381 232.395 72.7968 233.239 70.837C233.644 69.9173 233.151 69.0634 232.22 68.9539Z" fill="#969E9B"/>
<path d="M219.362 100.803C219.636 101.044 220.074 101 220.337 100.705C220.611 100.409 220.611 99.9713 220.337 99.7195L218.475 98.0225C218.672 97.9458 218.858 97.8473 219.045 97.7269L221.279 99.7633C221.553 100.004 221.991 99.9604 222.254 99.6647C222.527 99.3691 222.527 98.9312 222.254 98.6794L220.019 96.643C220.107 96.4678 220.184 96.2926 220.238 96.1174L222.155 97.8582C222.429 98.0991 222.867 98.0553 223.13 97.7597C223.404 97.4641 223.404 97.0262 223.13 96.7743L219.932 93.862C219.855 93.7416 219.756 93.6431 219.658 93.5336L220.457 93.8839C220.797 94.0263 221.213 93.862 221.388 93.5117C221.564 93.1613 221.443 92.7453 221.104 92.603L216.832 90.7198C216.668 90.6432 216.482 90.6541 216.317 90.7198C215.332 90.3476 214.127 90.6432 213.317 91.53C212.287 92.6577 212.287 94.3547 213.317 95.2853L215.857 97.5955C215.879 97.6174 215.89 97.6283 215.912 97.6393C215.923 97.6502 215.923 97.6612 215.934 97.6721L219.362 100.803Z" fill="#A1CBEC"/>
<path d="M228.595 89.0664C244.848 101.405 251.474 80.6689 251.474 80.6689" stroke="#0A8AB2" stroke-width="2.0688" stroke-miterlimit="10" stroke-linecap="round"/>
<path d="M219.68 86.6248C219.373 86.4278 219.296 86.0008 219.515 85.6614C219.734 85.322 220.162 85.2015 220.468 85.3986L222.593 86.7343C222.615 86.5263 222.67 86.3183 222.735 86.1103L220.183 84.5008C219.877 84.3038 219.8 83.8768 220.019 83.5374C220.238 83.198 220.665 83.0775 220.972 83.2746L223.524 84.884C223.666 84.7526 223.82 84.6322 223.973 84.5337L221.783 83.1542C221.476 82.9571 221.399 82.5301 221.618 82.1907C221.837 81.8513 222.264 81.7309 222.571 81.9279L226.218 84.2271C226.35 84.2709 226.481 84.3366 226.601 84.4023L226.054 83.7235C225.824 83.4388 225.879 82.9899 226.174 82.7272C226.47 82.4644 226.897 82.4754 227.127 82.76L230.062 86.373C230.172 86.5154 230.216 86.6905 230.205 86.8657C230.818 87.7087 230.862 88.9569 230.205 89.9641C229.383 91.2561 227.741 91.7159 226.569 90.9714L223.677 89.1539C223.655 89.143 223.633 89.1211 223.622 89.1102C223.612 89.0992 223.601 89.0992 223.59 89.0992L219.68 86.6248Z" fill="#A1CBEC"/>
<path d="M193.997 135.247L198.027 129.4L195.092 135.718L193.997 135.247Z" fill="#C9A362"/>
<path d="M199.068 137.349L201.543 133.703L200.272 137.842L199.068 137.349Z" fill="#C9A362"/>
<path d="M208.125 141.039L211.137 135.236L209.472 141.586L208.125 141.039Z" fill="#C9A362"/>
<path d="M211.937 83.1431C211.937 83.1431 213.798 79.136 212.331 71.5596C210.863 63.9833 219.789 76.4098 219.789 76.4098L211.937 83.1431Z" fill="#00A0CC"/>
<path d="M218.486 44.922C218.486 44.922 220.37 41.1119 224.499 43.3563" stroke="#0D3F60" stroke-width="0.8953" stroke-miterlimit="10" stroke-linecap="round"/>
<path d="M242.055 44.9213C242.055 44.9213 240.686 41.0346 236.546 43.279" stroke="#0D3F60" stroke-width="0.8953" stroke-miterlimit="10" stroke-linecap="round"/>
<path d="M51.3113 153.378C51.3113 153.378 53.9946 147.936 59.9088 151.144" stroke="#0D3F60" stroke-width="1.2798" stroke-miterlimit="10" stroke-linecap="round"/>
<path d="M85.4821 153.377C85.4821 153.377 83.5217 147.826 77.6184 151.034" stroke="#0D3F60" stroke-width="1.2798" stroke-miterlimit="10" stroke-linecap="round"/>
<path d="M51.9793 159.684L48.1132 158.151L51.5412 160.844C51.4974 160.997 51.4646 161.14 51.4317 161.293L48.0803 160.877L51.2784 162.224C51.2346 162.651 51.2455 162.924 51.2455 162.924C53.1403 156.936 57.0283 156.41 57.8059 156.366C54.4107 156.421 52.7679 158.063 51.9793 159.684Z" fill="#0D3F60"/>
<path d="M89.7317 160.845L86.3803 161.261C86.3474 161.118 86.3146 160.965 86.2708 160.812L89.6988 158.119L85.8327 159.651C85.0441 158.02 83.4013 156.378 80.0061 156.334C80.7837 156.378 84.6718 156.892 86.5665 162.892C86.5665 162.892 86.5774 162.618 86.5336 162.191L89.7317 160.845Z" fill="#0D3F60"/>
</svg>
