<svg width="294" height="294" viewBox="0 0 294 294" fill="none" xmlns="http://www.w3.org/2000/svg">
<g clip-path="url(#clip0)">
<path d="M0.203613 294V0H294V294" fill="#F8D978"/>
<path d="M216.629 74.6729C216.629 74.6729 228.449 82.7491 218.386 93.3278" stroke="#108AB2" stroke-width="1.7568" stroke-miterlimit="10" stroke-linecap="round"/>
<path d="M216.125 91.878C216.832 91.4377 217.893 91.5236 218.793 92.1894C219.94 93.0379 220.39 94.4877 219.801 95.4328L218.343 97.7419C218.333 97.7634 218.322 97.7741 218.311 97.7848C218.311 97.7956 218.3 97.8063 218.3 97.8063L216.329 100.921C216.179 101.168 215.804 101.189 215.503 100.964C215.203 100.738 215.086 100.362 215.236 100.115L216.307 98.4185C216.125 98.3755 215.943 98.3111 215.771 98.2359L214.485 100.276C214.335 100.523 213.96 100.545 213.66 100.319C213.36 100.094 213.242 99.718 213.392 99.471L214.678 97.4304C214.56 97.2908 214.453 97.1512 214.357 97.0008L213.253 98.7514C213.103 98.9984 212.728 99.0199 212.428 98.7944C212.128 98.5688 212.01 98.1929 212.16 97.9459L214.003 95.0247C214.035 94.9173 214.089 94.8099 214.143 94.7133L213.585 95.1214C213.35 95.2932 212.964 95.1966 212.717 94.9173C212.471 94.6381 212.471 94.2622 212.707 94.0904" fill="#A1CBEC"/>
<path d="M294 114.496H0.203613V294.011H294V114.496Z" fill="#FFCA05"/>
<path d="M173.828 190.383C173.828 190.383 183.012 204.538 173.817 220.39" stroke="#108AB2" stroke-width="3.073" stroke-miterlimit="10" stroke-linecap="round"/>
<path d="M171.385 214.987C172.371 213.913 174.214 213.57 176.036 214.268C178.361 215.159 179.797 217.404 179.229 219.262L177.836 223.837C177.825 223.869 177.814 223.901 177.804 223.934C177.804 223.955 177.804 223.966 177.793 223.987L175.918 230.163C175.768 230.646 175.157 230.85 174.546 230.624C173.935 230.388 173.56 229.808 173.71 229.314L174.728 225.953C174.407 225.963 174.075 225.942 173.732 225.888L172.51 229.926C172.36 230.41 171.749 230.614 171.138 230.388C170.527 230.152 170.152 229.572 170.302 229.078L171.524 225.04C171.256 224.868 171.01 224.675 170.785 224.471L169.734 227.94C169.584 228.423 168.974 228.627 168.363 228.401C167.752 228.165 167.377 227.585 167.527 227.091L169.274 221.313C169.284 221.109 169.317 220.916 169.359 220.722L168.599 221.668C168.277 222.065 167.58 222.086 167.045 221.721C166.509 221.356 166.327 220.733 166.648 220.336" fill="#A1CBEC"/>
<path d="M143.062 154.706C132.667 180.159 111.631 177.055 111.631 177.055" stroke="#0A8AB2" stroke-width="4.3132" stroke-miterlimit="10" stroke-linecap="round"/>
<path d="M158.139 142.699C158.525 142.065 158.257 141.206 157.55 140.787C156.843 140.369 155.953 140.54 155.578 141.174L152.931 145.577C152.696 145.223 152.417 144.879 152.106 144.568L155.289 139.295C155.675 138.661 155.407 137.802 154.7 137.383C153.992 136.964 153.103 137.136 152.728 137.77L149.545 143.043C149.159 142.925 148.773 142.849 148.388 142.806L151.12 138.274C151.506 137.641 151.238 136.781 150.531 136.363C149.824 135.944 148.934 136.116 148.559 136.749L144.005 144.299C143.801 144.503 143.63 144.74 143.469 144.976L143.855 143.236C144.015 142.506 143.501 141.733 142.719 141.518C141.937 141.303 141.165 141.722 141.004 142.452L138.957 151.742C138.882 152.096 138.968 152.461 139.161 152.773C138.818 154.878 139.879 157.187 142.001 158.444C144.691 160.044 148.088 159.378 149.556 156.951L153.167 150.969C153.189 150.926 153.21 150.883 153.231 150.84C153.242 150.818 153.264 150.808 153.274 150.775L158.139 142.699Z" fill="#A1CBEC"/>
<path d="M159.608 52.2165C159.608 32.391 142.59 16.8291 121.093 16.8291C99.5967 16.8291 82.1721 32.8957 82.1721 52.732V85.5956H159.554V58.2737C159.554 58.2737 159.608 54.0959 159.608 52.2165Z" fill="#A4DBDE"/>
<path d="M0 115.656H41.8791V51.8298C41.8791 51.8298 41.9326 47.6628 41.9326 45.7726C41.9326 25.9471 21.7004 10.3853 0.203609 10.3853" fill="#954F22"/>
<path d="M82.1754 85.5703L159.557 85.5703L159.557 64.8426L82.1754 64.8426L82.1754 85.5703Z" fill="#2D9D48"/>
<path d="M155.9 39.8873C154.475 39.8873 153.221 40.7036 152.46 41.9494C152.053 41.0472 151.388 40.2847 150.531 39.8229C148.431 38.6845 145.934 39.7262 144.948 42.1534C144.583 43.0448 144.476 44.0114 144.594 44.9243C142.697 44.398 140.683 45.4613 139.815 47.577C138.829 49.9934 139.729 52.8824 141.829 54.0208C142.965 54.633 144.208 54.6115 145.28 54.0745C145.58 55.417 146.384 56.6091 147.563 57.2427C149.599 58.3382 152.01 57.3931 153.049 55.127C153.36 55.4492 153.703 55.7284 154.1 55.9432C156.136 57.0494 158.547 56.0829 159.586 53.8168C159.597 53.1187 159.597 52.4528 159.597 51.9481C159.597 47.8455 158.858 43.9255 157.507 40.2955C157.025 40.0377 156.479 39.8873 155.9 39.8873Z" fill="white"/>
<path d="M87.0158 48.4254C88.6125 48.5542 90.0699 47.7595 91.0129 46.4278C91.4094 47.4695 92.0953 48.3824 93.0276 48.9838C95.3102 50.4444 98.1821 49.5101 99.4573 46.8788C99.9289 45.9015 100.111 44.8383 100.036 43.8073C102.126 44.5698 104.462 43.5603 105.576 41.262C106.852 38.6415 106.026 35.3229 103.755 33.8623C102.522 33.0676 101.118 32.9924 99.8967 33.4864C99.6502 31.9506 98.8358 30.5437 97.5498 29.7275C95.3423 28.3099 92.5775 29.1583 91.2487 31.5962C91.0344 31.3385 90.7879 31.1022 90.52 30.8981C86.9729 35.1618 84.4332 40.188 83.2544 45.6545C83.9938 47.201 85.3762 48.2965 87.0158 48.4254Z" fill="white"/>
<path d="M159.768 82.3848H81.9578V86.6592H159.768V82.3848Z" fill="#FFCA05"/>
<path d="M31.7201 79.2158C33.3536 79.2158 34.6778 78.1964 34.6778 76.9389C34.6778 75.6815 33.3536 74.6621 31.7201 74.6621C30.0867 74.6621 28.7625 75.6815 28.7625 76.9389C28.7625 78.1964 30.0867 79.2158 31.7201 79.2158Z" fill="#838383"/>
<path d="M20.4572 134.515C21.6789 142.183 23.5542 149.819 25.3224 157.316C26.2762 161.375 27.3156 164.941 26.8441 169.183C26.4262 172.899 24.5401 176.647 22.9005 179.966C18.4747 188.933 18.7426 198.255 21.711 207.975C23.6828 214.429 28.6444 219.627 34.249 222.946C45.8654 229.819 49.7233 229.551 73.7062 230.002C87.9267 230.27 101.997 229.401 113.849 220.014C118.736 216.148 122.326 210.853 124.373 204.807C125.584 201.23 125.744 199.673 126.269 195.957C126.987 190.813 125.509 184.208 123.751 179.493C121.115 172.426 118.607 163.008 120.579 155.35C125.166 137.501 128.273 113.927 128.445 104.841C129.088 70.9896 104.494 63.2892 73.9956 62.7093C43.4972 62.1294 18.614 69.5827 17.9711 103.434C17.9068 106.925 18.0247 110.426 18.2497 113.927C18.2497 113.927 19.7821 130.627 20.4572 134.515Z" fill="#00A0CC"/>
<path d="M93.21 116.43C93.21 111.812 97.1964 108.063 102.115 108.063C107.034 108.063 111.02 111.812 111.02 116.43" fill="white"/>
<path d="M101.719 116.43C101.719 114.282 103.455 112.553 105.587 112.553C107.72 112.553 109.456 114.293 109.456 116.43" fill="#0D3F60"/>
<path d="M66.7407 116.43C66.7407 111.812 70.7486 108.063 75.6888 108.063C80.629 108.063 84.6368 111.812 84.6368 116.43" fill="white"/>
<path d="M75.2495 116.43C75.2495 114.282 76.9855 112.553 79.1181 112.553C81.2613 112.553 82.9866 114.293 82.9866 116.43" fill="#0D3F60"/>
<path d="M95.5459 224.771L88.0338 271.103H83.6723L76.1709 224.922" fill="#00A0CC"/>
<path d="M71.07 225.631L63.5687 271.962H59.2071L51.6951 225.77" fill="#00A0CC"/>
<path d="M83.0295 271.039L80.0718 253.146H91.2488L88.1947 270.835L83.0295 271.039Z" fill="#56C4CF"/>
<path d="M59.0465 271.543L56.0566 254.22H66.7086L64.4046 272.015L59.0465 271.543Z" fill="#56C4CF"/>
<path d="M78.1428 272.403C78.1428 266.646 73.4919 261.985 67.748 261.985C62.0041 261.985 57.3533 266.646 57.3533 272.403" fill="#4F4A47"/>
<path d="M104.162 271.544C104.162 265.787 99.511 261.126 93.7671 261.126C88.0232 261.126 83.3723 265.787 83.3723 271.544" fill="#4F4A47"/>
<path d="M19.6428 275.087C20.5751 272.219 21.4967 269.352 22.429 266.495C23.2971 263.832 24.1865 261.168 25.0438 258.505C25.1188 258.258 25.2581 257.989 25.0867 257.721C25.4082 257.689 25.5796 258.043 25.9225 258C27.5407 257.796 29.0517 258.473 30.6484 258.58C32.9631 258.72 35.2135 259.321 37.5175 259.557C38.2569 259.632 39.0178 259.686 39.7465 259.869C40.936 260.169 42.1791 260.417 43.3579 260.513C45.1903 260.674 46.9799 261.147 48.8124 261.254C50.0448 261.329 51.2021 261.823 52.4131 261.856C54.0205 261.899 55.5529 262.339 57.1389 262.521C56.9782 264.401 57.2675 266.259 57.3425 268.128C57.5354 272.327 57.7605 276.526 57.9855 280.715C58.0177 281.337 57.9534 281.66 57.1497 281.52C54.6313 281.069 52.0916 280.715 49.5626 280.328L19.6428 275.087Z" fill="#D5BA76"/>
<path d="M57.2998 156.66C58.0928 157.036 58.5428 157.917 58.4035 158.84C57.8034 162.954 55.1779 178.236 54.5885 182.36C53.742 188.267 49.0161 220.046 48.1695 225.953C47.2694 232.225 46.337 238.486 45.4369 244.758C45.0618 247.357 44.7189 249.956 44.3331 252.555C44.2259 253.264 44.3545 253.543 45.1583 253.651C48.6732 254.102 52.1667 254.671 55.6709 255.144C58.725 255.562 59.8717 257.087 59.3037 260.084C59.2501 260.363 59.3251 260.707 59.0787 260.943C58.7464 262.135 58.4142 262.404 57.139 262.511C56.2388 262.586 55.1244 262.178 54.2242 262.06C53.0561 261.899 51.8773 261.738 50.7093 261.555C48.2124 261.179 45.7155 260.803 43.2186 260.428C40.1752 259.966 37.1318 259.515 34.0991 259.053C31.42 258.645 28.891 258.118 26.1905 257.947C24.8296 257.861 23.7151 257.227 23.7043 255.788C23.7794 255.133 23.8222 254.467 23.9294 253.823C24.2723 251.922 25.9119 250.762 27.8515 251.052C31.6558 251.61 35.4601 252.158 39.2536 252.749C39.9716 252.867 40.1323 252.609 40.2181 251.975C41.2683 244.565 42.3506 237.165 43.4115 229.766C44.5581 221.732 49.6055 187.838 50.7521 179.804C51.2451 176.368 53.7527 161.772 54.2778 158.346C54.5135 156.768 55.9174 156.016 57.2998 156.66Z" fill="#969E9B"/>
<path d="M52.7561 280.812L52.2525 269.299L50.8594 280.522L52.7561 280.812Z" fill="#C9A362"/>
<path d="M43.9901 279.351L43.7222 272.198L41.9219 278.986L43.9901 279.351Z" fill="#C9A362"/>
<path d="M28.3874 276.623L29.2447 266.034L26.062 276.215L28.3874 276.623Z" fill="#C9A362"/>
<path d="M271.046 65.5335C271.046 81.976 266.073 99.5784 242.894 100.169C220.883 100.738 214.743 82.309 214.743 65.8664C214.743 49.4239 227.345 45.5684 242.894 45.5684C258.443 45.5684 271.046 49.0803 271.046 65.5335Z" fill="#00A0CC"/>
<path d="M224.098 60.0027C224.098 60.0027 225.93 56.1149 230.142 58.3273" stroke="#0D3F60" stroke-width="0.9238" stroke-miterlimit="10" stroke-linecap="round"/>
<path d="M246.806 60.014C246.806 60.014 245.498 56.0618 241.287 58.242" stroke="#0D3F60" stroke-width="0.9238" stroke-miterlimit="10" stroke-linecap="round"/>
<path d="M242.594 69.7549C242.594 69.7549 242.755 73.2775 235.736 73.5782C229.96 73.836 229.413 70.0663 229.413 70.0663L242.594 69.7549Z" fill="#0D3F60"/>
<path d="M238.522 66.8222C238.522 64.1909 240.794 62.0537 243.601 62.0537C246.409 62.0537 248.681 64.1909 248.681 66.8222" fill="white"/>
<path d="M223.423 66.8222C223.423 64.1909 225.705 62.0537 228.524 62.0537C231.342 62.0537 233.625 64.1909 233.625 66.8222" fill="white"/>
<path d="M223.948 64.4057L221.215 63.321L223.637 65.2327C223.605 65.3401 223.584 65.4475 223.562 65.5441L221.194 65.2434L223.455 66.1992C223.423 66.5 223.434 66.6933 223.434 66.6933C224.773 62.4511 227.516 62.0859 228.063 62.0537C225.663 62.0859 224.505 63.2566 223.948 64.4057Z" fill="#0D3F60"/>
<path d="M228.063 62.0647C228.095 62.0647 228.127 62.0647 228.159 62.0647C228.159 62.054 228.127 62.054 228.063 62.0647Z" fill="#0D3F60"/>
<path d="M250.91 65.2434L248.542 65.5441C248.52 65.4475 248.499 65.3401 248.467 65.2327L250.888 63.321L248.156 64.4057C247.599 63.2458 246.441 62.0859 244.041 62.0645C244.587 62.0967 247.341 62.4618 248.67 66.704C248.67 66.704 248.681 66.5107 248.649 66.21L250.91 65.2434Z" fill="#0D3F60"/>
<path d="M261.455 74.5547C261.455 74.5547 262.023 88.8815 247.545 87.088" stroke="#108AB2" stroke-width="1.7568" stroke-miterlimit="10" stroke-linecap="round"/>
<path d="M247.363 84.4147C248.134 84.7154 248.702 85.6282 248.702 86.7452C248.702 88.1735 247.813 89.3979 246.709 89.4838L243.987 89.6879C243.966 89.6879 243.944 89.6879 243.934 89.6879C243.923 89.6879 243.912 89.6878 243.902 89.6986L240.226 89.9671C239.937 89.9886 239.701 89.6986 239.701 89.3334C239.701 88.9576 239.937 88.6354 240.226 88.6139L242.23 88.4635C242.155 88.2917 242.101 88.1091 242.058 87.9158L239.658 88.0984C239.369 88.1199 239.133 87.8299 239.133 87.4647C239.133 87.0888 239.369 86.7666 239.658 86.7452L242.058 86.5626C242.091 86.38 242.144 86.2082 242.208 86.0471L240.151 86.1975C239.862 86.2189 239.626 85.929 239.626 85.5638C239.626 85.1879 239.862 84.8657 240.151 84.8442L243.58 84.5865C243.687 84.5543 243.805 84.5221 243.912 84.5113L243.259 84.2965C242.98 84.2106 242.819 83.8455 242.905 83.4803C242.991 83.1152 243.28 82.8896 243.559 82.9863" fill="#A1CBEC"/>
<path d="M245.123 98.5049L246.999 118.996H249.26L251.135 98.4941" fill="#00A0CC"/>
<path d="M234.514 98.4404L236.39 118.996H238.64L240.526 98.5049" fill="#00A0CC"/>
<path d="M234.954 108.74H239.894L238.683 118.943H236.165L234.954 108.74Z" fill="#5652A2"/>
<path d="M245.659 108.74H250.599L249.388 118.943H246.87L245.659 108.74Z" fill="#5652A2"/>
<path d="M230.571 118.996C230.571 116.569 232.532 114.593 234.964 114.593C237.386 114.593 239.358 116.558 239.358 118.996" fill="#4F4A47"/>
<path d="M241.265 118.996C241.265 116.569 243.226 114.593 245.659 114.593C248.081 114.593 250.053 116.558 250.053 118.996" fill="#4F4A47"/>
<path d="M67.5124 112.487L62.883 110.447L66.9873 114.034C66.9337 114.238 66.8908 114.431 66.8587 114.624L62.8401 114.066L66.6765 115.86C66.6229 116.429 66.6336 116.794 66.6336 116.794C68.7769 109.233 73.0848 108.224 74.3065 108.095C70.3736 108.213 68.4447 110.35 67.5124 112.487Z" fill="#0D3F60"/>
<path d="M115.039 114.067L111.02 114.625C110.977 114.432 110.945 114.239 110.892 114.035L114.996 110.448L110.367 112.488C109.434 110.351 107.505 108.225 103.562 108.096C104.794 108.225 109.091 109.234 111.235 116.795C111.235 116.795 111.245 116.43 111.192 115.861L115.039 114.067Z" fill="#0D3F60"/>
<path d="M117.182 108.096C117.3 108.096 117.407 108.074 117.525 108.074C117.525 108.074 117.396 108.074 117.182 108.096Z" fill="#0D3F60"/>
<path d="M144.626 108.096C144.412 108.074 144.283 108.074 144.283 108.074C144.412 108.063 144.508 108.085 144.626 108.096Z" fill="#0D3F60"/>
<path d="M245.016 66.8228C245.016 65.6414 244.062 64.6855 242.883 64.6855C241.705 64.6855 240.751 65.6414 240.751 66.8228" fill="#0D3F60"/>
<path d="M230.485 66.8228C230.485 65.6414 229.531 64.6855 228.352 64.6855C227.173 64.6855 226.22 65.6414 226.22 66.8228" fill="#0D3F60"/>
<path d="M42.7579 210.145C24.0152 202.476 34.6778 172.373 34.6778 172.373" stroke="#0A8AB2" stroke-width="4.3132" stroke-miterlimit="10" stroke-linecap="round"/>
<path d="M54.9529 224.579C55.5745 224.976 56.4425 224.74 56.8818 224.053C57.3212 223.365 57.1712 222.463 56.5496 222.066L52.2417 219.273C52.6061 219.048 52.949 218.779 53.2705 218.479L58.4357 221.819C59.0572 222.216 59.9253 221.98 60.3646 221.292C60.804 220.605 60.654 219.703 60.0324 219.306L54.8672 215.966C54.9958 215.59 55.0815 215.203 55.1351 214.816L59.5716 217.695C60.1932 218.092 61.0612 217.856 61.5005 217.168C61.9399 216.481 61.7899 215.579 61.1683 215.182L53.7741 210.392C53.5705 210.188 53.3562 210.005 53.1097 209.833L54.835 210.273C55.553 210.456 56.346 209.973 56.5818 209.189C56.8175 208.405 56.4318 207.621 55.7031 207.438L46.5085 205.108C46.1549 205.022 45.7905 205.086 45.469 205.279C43.3794 204.871 41.0432 205.87 39.7251 207.943C38.0427 210.585 38.6107 214.011 40.9789 215.547L46.8407 219.338C46.8836 219.37 46.9265 219.381 46.9693 219.413C46.9908 219.424 47.0015 219.445 47.0229 219.456L54.9529 224.579Z" fill="#A1CBEC"/>
<path d="M171.256 180.857V204.12C171.256 219.402 175.296 237.574 198.872 237.574H207.209C230.067 237.574 234.825 219.413 234.825 204.12V148.52C234.825 135.589 224.366 125.107 211.463 125.107H194.618C181.715 125.107 171.256 135.589 171.256 148.52V160.871V180.857Z" fill="#00A0CC"/>
<path d="M204.069 230.528L209.181 273.616H212.728L217.84 230.518" fill="#00A0CC"/>
<path d="M207.059 257.432H214.85L212.932 273.531H208.967L207.059 257.432Z" fill="#EC1651"/>
<path d="M200.126 273.616C200.126 269.782 203.223 266.678 207.048 266.678C210.874 266.678 213.971 269.782 213.971 273.616" fill="#4F4A47"/>
<path d="M187.556 230.528L192.667 273.616H196.225L201.326 230.518" fill="#00A0CC"/>
<path d="M190.545 257.432H198.347L196.429 273.531H192.453L190.545 257.432Z" fill="#EC1651"/>
<path d="M183.612 273.616C183.612 269.782 186.709 266.678 190.535 266.678C194.36 266.678 197.457 269.782 197.457 273.616" fill="#4F4A47"/>
<path d="M220.583 186.398C220.583 186.398 231.835 201.928 216.511 217.501" stroke="#108AB2" stroke-width="3.073" stroke-miterlimit="10" stroke-linecap="round"/>
<path d="M213.521 213.881C214.861 213.302 216.682 213.763 218.054 215.149C219.801 216.921 220.187 219.563 218.911 221.023L215.761 224.621C215.739 224.643 215.718 224.664 215.686 224.696C215.675 224.707 215.664 224.729 215.654 224.739L211.399 229.594C211.067 229.97 210.413 229.905 209.963 229.443C209.503 228.982 209.406 228.294 209.738 227.908L212.053 225.266C211.753 225.147 211.453 224.986 211.164 224.804L208.388 227.972C208.056 228.348 207.402 228.283 206.952 227.822C206.502 227.36 206.395 226.672 206.727 226.286L209.503 223.118C209.331 222.849 209.181 222.57 209.063 222.291L206.684 225.019C206.352 225.394 205.698 225.33 205.248 224.868C204.787 224.406 204.691 223.719 205.023 223.332L208.999 218.8C209.085 218.618 209.203 218.457 209.32 218.295L208.238 218.843C207.788 219.069 207.134 218.811 206.802 218.253C206.459 217.694 206.556 217.06 207.006 216.824" fill="#A1CBEC"/>
<path d="M248.788 248.893C248.97 249.097 249.292 249.119 249.495 248.926L267.381 232.666C267.584 232.483 267.606 232.161 267.413 231.957C267.231 231.753 266.909 231.731 266.706 231.925L248.82 248.185C248.617 248.367 248.595 248.689 248.788 248.893Z" fill="#515252"/>
<path d="M282.234 250.031H244.298V271.973H282.234V250.031Z" fill="#444445"/>
<path d="M253.535 247.153C258.722 247.153 263.898 247.142 269.085 247.164C272.814 247.175 276.554 247.271 280.283 247.239C282.769 247.218 283.959 248.839 283.852 250.869C283.809 251.717 283.905 252.459 284.795 252.877C285.127 253.028 285.202 253.414 285.234 253.769C285.47 255.788 285.47 257.807 285.234 259.815C285.181 260.245 285.052 260.642 284.645 260.868C283.937 261.254 283.841 261.899 283.852 262.629C283.873 265.454 283.852 268.278 283.862 271.103C283.862 271.833 283.809 272.553 283.595 273.251C282.844 274.593 281.666 275.066 280.176 275.066C268.613 275.055 257.04 275.055 245.477 275.066C243.977 275.066 242.819 274.55 242.037 273.251C241.78 272.402 241.748 271.532 241.748 270.652C241.758 263.918 241.758 257.195 241.748 250.461C242.037 248.377 243.012 247.346 244.802 247.282C245.713 247.25 246.634 247.368 247.545 247.239L253.535 247.153ZM265.57 260.911C265.741 256.4 262.023 251.052 255.797 251.041C247.738 251.019 242.541 260.395 248.402 267.945C256.45 274.786 265.773 268.772 265.57 260.911ZM277.218 257.528C278.054 257.528 278.879 257.528 279.715 257.528C280.712 257.528 280.712 257.528 280.615 255.562C280.615 255.487 280.615 255.412 280.605 255.337C280.583 255.025 280.508 254.853 280.337 254.843C280.197 254.843 280.069 254.832 279.93 254.832C278.194 254.832 276.447 254.81 274.711 254.843C273.703 254.853 273.821 254.456 273.821 256.711C273.821 257.506 273.832 257.528 274.261 257.528C275.247 257.538 276.232 257.528 277.218 257.528ZM277.186 253.361C278.033 253.361 278.879 253.382 279.737 253.361C280.723 253.328 280.615 253.779 280.626 251.492C280.626 251.417 280.626 251.342 280.626 251.266C280.626 250.891 280.519 250.708 280.337 250.697C280.187 250.686 280.026 250.686 279.876 250.686C278.161 250.686 276.447 250.676 274.721 250.686C273.746 250.697 273.843 250.407 273.832 252.598C273.832 253.21 273.95 253.382 274.239 253.371C275.214 253.339 276.2 253.361 277.186 253.361Z" fill="#656767"/>
<path d="M255.668 268.493C251.682 268.461 248.435 265.174 248.435 261.147C248.435 257.162 251.735 253.833 255.7 253.812C259.697 253.801 263.052 257.216 262.987 261.233C262.934 265.282 259.654 268.525 255.668 268.493Z" fill="#515252"/>
<path d="M284.602 261.212C284.109 261.212 283.702 260.804 283.702 260.309V252.158C283.702 251.664 284.109 251.256 284.602 251.256C285.095 251.256 285.502 251.664 285.502 252.158V260.309C285.502 260.804 285.095 261.212 284.602 261.212Z" fill="#444445"/>
<path d="M76.1816 124.57C76.1816 124.57 78.6035 131.852 89.8127 131.401C101.022 130.95 101.761 124.055 101.761 124.055L76.1816 124.57Z" fill="#0D3F60"/>
<path d="M65.2405 104.852C65.2405 104.852 68.9269 97.3669 77.0391 101.781" stroke="#0D3F60" stroke-width="1.5" stroke-miterlimit="10" stroke-linecap="round"/>
<path d="M111.492 104.852C111.492 104.852 108.802 97.2164 100.69 101.63" stroke="#0D3F60" stroke-width="1.5" stroke-miterlimit="10" stroke-linecap="round"/>
<path d="M182.433 166.498C182.433 166.498 183.784 172.244 190.438 172.072C197.093 171.9 197.618 166.498 197.618 166.498H182.433Z" fill="#0D3F60"/>
<path d="M174.128 160.581C174.128 156.897 177.107 153.9 180.794 153.9C184.48 153.9 187.459 156.886 187.459 160.581" fill="white"/>
<path d="M195.229 160.581C195.229 156.897 198.208 153.9 201.894 153.9C205.58 153.9 208.56 156.886 208.56 160.581" fill="white"/>
<path d="M208.624 151.076C208.624 151.076 205.998 145.738 200.211 148.885" stroke="#0D3F60" stroke-width="1.2798" stroke-miterlimit="10" stroke-linecap="round"/>
<path d="M175.2 151.076C175.2 151.076 177.118 145.631 182.894 148.778" stroke="#0D3F60" stroke-width="1.2798" stroke-miterlimit="10" stroke-linecap="round"/>
<path d="M207.981 157.273L211.764 155.769L208.409 158.411C208.452 158.561 208.485 158.701 208.517 158.851L211.796 158.443L208.667 159.764C208.71 160.183 208.699 160.452 208.699 160.452C206.845 154.577 203.041 154.062 202.28 154.019C205.602 154.062 207.209 155.672 207.981 157.273Z" fill="#0D3F60"/>
<path d="M171.031 158.411L174.31 158.819C174.343 158.68 174.375 158.529 174.418 158.379L171.063 155.737L174.846 157.24C175.618 155.64 177.225 154.029 180.547 153.986C179.786 154.029 175.982 154.534 174.128 160.419C174.128 160.419 174.118 160.151 174.16 159.732L171.031 158.411Z" fill="#0D3F60"/>
<path d="M175.971 156.156C175.328 156.811 174.825 157.616 174.514 158.497C175.693 159.324 177.322 159.303 178.479 158.336C179.658 157.348 179.958 155.705 179.315 154.373C178.447 154.534 177.632 154.878 176.925 155.361L175.971 156.156Z" fill="#0D3F60"/>
<path d="M196.686 155.683C196.043 156.338 195.539 157.144 195.229 158.024C196.407 158.851 198.036 158.83 199.194 157.863C200.372 156.875 200.672 155.232 200.029 153.9C199.161 154.061 198.347 154.405 197.64 154.888L196.686 155.683Z" fill="#0D3F60"/>
</g>
<defs>
<clipPath id="clip0">
<rect width="294" height="294" fill="white"/>
</clipPath>
</defs>
</svg>
