<svg width="300" height="342" viewBox="0 0 300 342" fill="none" xmlns="http://www.w3.org/2000/svg">
<path d="M0 262.693V0H300V262.693" fill="#F3E1B4"/>
<path d="M300 111.722H0V297.971H300V111.722Z" fill="#2D9D48"/>
<path d="M79.9229 277.79H74.136V252.951H27.447V277.79H21.5288V250.622H21.6273V245.332H79.9229V250.698V277.79Z" fill="#FAAC18"/>
<path d="M80.7871 233.512H21.135C18.8705 233.512 17.0327 235.34 17.0327 237.594V242.938C17.0327 245.191 18.8705 247.02 21.135 247.02H80.7871C83.0515 247.02 84.8893 245.191 84.8893 242.938V237.594C84.8893 235.34 83.0515 233.512 80.7871 233.512Z" fill="#E49425"/>
<path d="M130.353 50.9409C130.353 33.4164 145.504 19.6689 164.637 19.6689C183.77 19.6689 199.282 33.8736 199.282 51.3981V80.4387H130.408V56.2854C130.408 56.2854 130.353 52.6063 130.353 50.9409Z" fill="#F8D978"/>
<path d="M99.5589 50.9409C99.5589 33.4164 84.4079 19.6689 65.275 19.6689C46.1421 19.6689 30.6411 33.8736 30.6411 51.3981V112.701H99.5151V56.2854C99.5151 56.2854 99.5589 52.6063 99.5589 50.9409Z" fill="#954F22"/>
<path d="M199.282 62.0977H130.408V80.4168H199.282V62.0977Z" fill="#FFCA05"/>
<path d="M90.359 74.7998C91.8151 74.7998 92.9954 73.8983 92.9954 72.7862C92.9954 71.674 91.8151 70.7725 90.359 70.7725C88.903 70.7725 87.7227 71.674 87.7227 72.7862C87.7227 73.8983 88.903 74.7998 90.359 74.7998Z" fill="#838383"/>
<path d="M161.585 253.561C161.41 253.757 161.103 253.768 160.906 253.593L143.885 238.213C143.688 238.039 143.677 237.734 143.852 237.538C144.027 237.342 144.333 237.332 144.53 237.506L161.552 252.886C161.749 253.06 161.76 253.365 161.585 253.561Z" fill="#515252"/>
<path d="M129.737 275.386L165.859 275.386L165.859 254.639L129.737 254.639L129.737 275.386Z" fill="#444445"/>
<path d="M162.755 251.994C163.62 252.114 164.495 252.005 165.359 252.038C167.065 252.092 167.995 253.072 168.269 255.042C168.258 261.409 168.258 267.766 168.269 274.134C168.269 274.972 168.236 275.788 167.995 276.594C167.251 277.824 166.147 278.313 164.724 278.313C153.709 278.303 142.704 278.303 131.688 278.313C130.276 278.313 129.15 277.867 128.428 276.594C128.22 275.93 128.165 275.255 128.165 274.569C128.176 271.902 128.165 269.225 128.176 266.558C128.176 265.872 128.1 265.263 127.421 264.892C127.038 264.686 126.907 264.305 126.852 263.902C126.623 261.997 126.623 260.092 126.852 258.187C126.896 257.861 126.962 257.491 127.279 257.349C128.132 256.957 128.22 256.25 128.176 255.444C128.078 253.529 129.204 251.994 131.578 252.016C135.134 252.038 138.689 251.95 142.244 251.94C147.178 251.929 152.111 251.94 157.045 251.929L162.755 251.994ZM161.946 271.565C167.525 264.435 162.58 255.575 154.901 255.586C148.972 255.597 145.427 260.647 145.592 264.914C145.406 272.359 154.277 278.041 161.946 271.565ZM137.321 261.725C137.726 261.725 137.737 261.703 137.737 260.952C137.737 258.819 137.846 259.2 136.895 259.189C135.243 259.167 133.58 259.178 131.928 259.189C131.797 259.189 131.666 259.2 131.545 259.2C131.392 259.2 131.316 259.374 131.294 259.668C131.294 259.744 131.294 259.809 131.283 259.885C131.195 261.747 131.195 261.747 132.136 261.747C132.924 261.747 133.722 261.747 134.51 261.747C135.451 261.725 136.392 261.736 137.321 261.725ZM137.354 257.785C137.628 257.796 137.748 257.621 137.748 257.045C137.737 254.976 137.825 255.249 136.895 255.238C135.265 255.227 133.624 255.238 131.994 255.238C131.852 255.238 131.699 255.238 131.556 255.249C131.381 255.259 131.283 255.434 131.283 255.782C131.283 255.858 131.283 255.923 131.283 256C131.294 258.166 131.184 257.741 132.125 257.763C132.935 257.785 133.744 257.763 134.554 257.763C135.473 257.785 136.413 257.763 137.354 257.785Z" fill="#656767"/>
<path d="M155.032 272.087C158.828 272.065 161.913 268.952 161.924 265.143C161.924 261.376 158.784 258.231 154.999 258.209C151.192 258.198 147.998 261.431 148.063 265.23C148.118 269.05 151.236 272.12 155.032 272.087Z" fill="#515252"/>
<path d="M127.487 265.207C127.957 265.207 128.351 264.826 128.351 264.348V256.641C128.351 256.173 127.968 255.781 127.487 255.781C127.016 255.781 126.623 256.162 126.623 256.641V264.348C126.623 264.816 127.016 265.207 127.487 265.207Z" fill="#444445"/>
<path d="M165.424 249.381L164.013 236.102" stroke="black" stroke-width="0.4285" stroke-miterlimit="10"/>
<path d="M169.023 249.284L175.117 239.781" stroke="black" stroke-width="0.4285" stroke-miterlimit="10"/>
<path d="M181.177 252.625L170.993 253.92" stroke="black" stroke-width="0.4285" stroke-miterlimit="10"/>
<path d="M154.255 130.247C154.255 130.247 142.725 130.247 144.585 151.276" stroke="#108AB2" stroke-width="1.926" stroke-miterlimit="10" stroke-linecap="round"/>
<path d="M147.582 151.462C147.177 150.624 146.105 150.09 144.858 150.177C143.272 150.297 141.981 151.407 141.992 152.637L142.014 155.674C142.014 155.696 142.014 155.718 142.014 155.739C142.014 155.75 142.014 155.761 142.014 155.772L142.036 159.876C142.036 160.202 142.375 160.431 142.791 160.409C143.207 160.376 143.546 160.093 143.546 159.767L143.535 157.535C143.732 157.601 143.939 157.655 144.158 157.677L144.169 160.355C144.169 160.681 144.508 160.91 144.924 160.877C145.34 160.844 145.679 160.561 145.679 160.235L145.668 157.557C145.865 157.503 146.051 157.426 146.226 157.35L146.237 159.647C146.237 159.974 146.576 160.202 146.992 160.169C147.407 160.137 147.746 159.854 147.746 159.527L147.724 155.696C147.757 155.576 147.768 155.445 147.779 155.315L148.075 156.022C148.195 156.316 148.621 156.469 149.015 156.338C149.409 156.218 149.639 155.87 149.508 155.565" fill="#A1CBEC"/>
<path d="M215.483 117.534C215.483 137.823 209.302 159.527 180.51 160.256C153.161 160.953 145.537 138.226 145.537 117.936C145.537 97.6471 161.191 92.9014 180.51 92.9014C199.828 92.9014 215.483 97.2444 215.483 117.534Z" fill="#00A0CC"/>
<path d="M157.975 110.655C157.975 110.655 160.338 105.898 165.512 108.706" stroke="#0D3F60" stroke-width="1.1243" stroke-miterlimit="10" stroke-linecap="round"/>
<path d="M188.911 110.655C188.911 110.655 187.194 105.811 182.008 108.608" stroke="#0D3F60" stroke-width="1.1243" stroke-miterlimit="10" stroke-linecap="round"/>
<path d="M182.369 124.881C182.369 124.881 180.914 128.625 173.738 128.516C166.562 128.397 165.993 124.881 165.993 124.881H182.369Z" fill="#0D3F60"/>
<path d="M177.25 119.134C177.25 115.89 180.072 113.256 183.562 113.256C187.041 113.256 189.863 115.89 189.863 119.134" fill="white"/>
<path d="M158.5 119.134C158.5 115.89 161.333 113.256 164.845 113.256C168.345 113.256 171.19 115.89 171.19 119.134" fill="white"/>
<path d="M159.145 116.14L155.754 114.802L158.762 117.164C158.73 117.294 158.697 117.425 158.664 117.555L155.721 117.185L158.533 118.361C158.5 118.731 158.5 118.971 158.5 118.971C160.163 113.735 163.576 113.289 164.254 113.245C161.278 113.289 159.834 114.725 159.145 116.14Z" fill="#0D3F60"/>
<path d="M192.653 117.185L189.71 117.555C189.677 117.425 189.655 117.305 189.611 117.164L192.62 114.802L189.228 116.14C188.539 114.715 187.095 113.289 184.109 113.245C184.787 113.278 188.211 113.735 189.863 118.971C189.863 118.971 189.874 118.731 189.83 118.361L192.653 117.185Z" fill="#0D3F60"/>
<path d="M176.44 151.963L172.436 161.52C171.933 162.717 171.78 164.012 171.988 165.275L174.285 179.186C174.438 180.111 173.705 180.949 172.732 180.982C172.021 181.004 171.386 180.579 171.167 179.937L166.321 165.841C165.796 164.306 165.72 162.652 166.124 161.073L168.323 152.322" fill="#00A0CC"/>
<path d="M171.113 180.404L174.581 180.927L172.612 168.475L167.284 168.627L171.113 180.404Z" fill="#5652A2"/>
<path d="M164.505 181.221C164.451 178.794 166.66 176.769 169.439 176.682C172.218 176.606 174.526 178.5 174.58 180.927" fill="#4F4A47"/>
<path d="M192.444 147.173L195.879 159.429C196.262 160.659 196.984 161.758 197.969 162.629L208.471 169.726C209.193 170.357 208.372 170.815 207.628 171.413L206.994 172.197C206.447 172.632 207.092 172.534 206.502 172.153L193.878 166.417C192.455 165.525 191.329 164.273 190.618 162.803L186.286 152.245" fill="#00A0CC"/>
<path d="M206.764 172.545L208.974 169.563L199.905 163.87L195.803 167.136L206.764 172.545Z" fill="#5652A2"/>
<path d="M202.859 177.411C200.966 175.822 200.933 172.905 202.782 170.891C204.631 168.877 207.661 168.529 209.553 170.118" fill="#4F4A47"/>
<path d="M178.431 119.166C178.431 117.751 179.591 116.598 181.013 116.598C182.435 116.598 183.595 117.751 183.595 119.166" fill="#0D3F60"/>
<path d="M160.775 119.166C160.775 117.751 161.935 116.598 163.357 116.598C164.779 116.598 165.939 117.751 165.939 119.166" fill="#0D3F60"/>
<path d="M207.924 134.187C207.924 134.187 219.487 134.906 220.832 118.84" stroke="#108AB2" stroke-width="1.926" stroke-miterlimit="10" stroke-linecap="round"/>
<path d="M218.426 115.934C218.655 116.826 219.596 117.577 220.832 117.73C222.407 117.926 223.895 117.109 224.136 115.901L224.738 112.919C224.738 112.897 224.748 112.875 224.748 112.853C224.748 112.842 224.759 112.832 224.759 112.821L225.569 108.793C225.635 108.478 225.35 108.173 224.934 108.129C224.519 108.075 224.136 108.293 224.07 108.608L223.633 110.796C223.458 110.687 223.261 110.6 223.053 110.535L223.578 107.912C223.644 107.596 223.359 107.291 222.944 107.248C222.528 107.193 222.145 107.411 222.079 107.727L221.554 110.35C221.346 110.361 221.149 110.393 220.963 110.448L221.412 108.195C221.478 107.879 221.193 107.574 220.778 107.531C220.362 107.476 219.979 107.694 219.913 108.01L219.158 111.765C219.104 111.885 219.06 112.004 219.027 112.124L218.885 111.373C218.83 111.057 218.436 110.829 218.021 110.872C217.605 110.916 217.321 111.21 217.375 111.525" fill="#A1CBEC"/>
<path d="M231.422 168.42C231.422 168.42 217.135 172.088 213.722 187.664" stroke="#108AB2" stroke-width="2.6357" stroke-miterlimit="10" stroke-linecap="round"/>
<path d="M225.055 157.22V177.444C225.055 190.734 228.588 206.517 249.231 206.517H256.527C276.535 206.517 280.703 190.723 280.703 177.444V129.115C280.703 117.871 271.547 108.761 260.247 108.761H245.5C234.2 108.761 225.044 117.871 225.044 129.115V139.859V157.22H225.055Z" fill="#00A0CC"/>
<path d="M276.831 172.078C276.831 172.078 292.791 166.994 290.034 148.186" stroke="#108AB2" stroke-width="2.6357" stroke-miterlimit="10" stroke-linecap="round"/>
<path d="M286.413 148.926C286.949 150.08 288.393 150.842 290.1 150.744C292.277 150.624 294.071 149.144 294.093 147.457L294.148 143.299C294.148 143.266 294.148 143.244 294.148 143.212C294.148 143.201 294.158 143.179 294.158 143.168L294.235 137.551C294.246 137.116 293.776 136.779 293.218 136.811C292.649 136.844 292.178 137.236 292.178 137.671L292.135 140.73C291.872 140.632 291.588 140.567 291.281 140.512L291.325 136.844C291.336 136.409 290.866 136.071 290.308 136.104C289.739 136.136 289.269 136.528 289.269 136.964L289.225 140.632C288.951 140.708 288.7 140.795 288.448 140.904L288.492 137.758C288.503 137.323 288.032 136.985 287.475 137.018C286.906 137.051 286.435 137.443 286.435 137.878L286.37 143.124C286.326 143.288 286.293 143.462 286.282 143.636L285.899 142.656C285.735 142.243 285.166 142.036 284.619 142.199C284.072 142.363 283.755 142.831 283.919 143.233" fill="#A1CBEC"/>
<path d="M218.48 185.629C218.48 184.366 217.496 183.06 215.898 182.44C213.875 181.645 211.621 182.233 210.888 183.757L209.083 187.512C209.072 187.534 209.061 187.567 209.05 187.588C209.039 187.599 209.029 187.61 209.029 187.621L206.589 192.682C206.403 193.085 206.677 193.575 207.202 193.782C207.727 193.989 208.317 193.836 208.514 193.434L209.838 190.68C210.035 190.876 210.265 191.061 210.516 191.224L208.93 194.533C208.744 194.936 209.018 195.425 209.543 195.632C210.068 195.839 210.658 195.687 210.855 195.284L212.442 191.975C212.715 192.019 212.989 192.051 213.262 192.051L211.895 194.892C211.709 195.295 211.982 195.785 212.507 195.991C213.032 196.198 213.623 196.046 213.82 195.643L216.095 190.908C216.205 190.778 216.303 190.625 216.391 190.473L216.325 191.529C216.292 191.964 216.73 192.399 217.299 192.476C217.857 192.563 218.349 192.269 218.371 191.823" fill="#A1CBEC"/>
<path d="M249.668 144.245C249.668 144.245 248.487 149.241 242.656 149.089C236.836 148.936 236.377 144.245 236.377 144.245H249.668Z" fill="#0D3F60"/>
<path d="M245.927 201.684L239.549 214.768C238.751 216.401 238.434 218.207 238.63 219.993L240.764 239.683C240.906 240.989 239.812 242.11 238.445 242.078C237.449 242.056 236.585 241.403 236.333 240.489L230.656 220.352C230.032 218.153 230.065 215.835 230.754 213.647L234.528 201.554" fill="#00A0CC"/>
<path d="M236.224 241.141L241.037 242.142L239.254 224.531L231.771 224.335L236.224 241.141Z" fill="#EC1651"/>
<path d="M226.893 241.773C227.002 238.366 230.262 235.7 234.167 235.798C238.073 235.895 241.147 238.747 241.037 242.143" fill="#4F4A47"/>
<path d="M266.886 194.163L266.821 212.025C266.865 213.832 267.422 215.595 268.418 217.141L280.856 227.579C281.589 228.701 281.129 230.17 279.882 230.692C278.974 231.073 277.902 230.834 277.246 230.105L261.417 220.7C259.842 218.959 258.802 216.836 258.398 214.583L256.604 198.669" fill="#00A0CC"/>
<path d="M279.161 232.728L283.285 229.539L271.054 219.351L267.029 224.031L279.161 232.728Z" fill="#EC1651"/>
<path d="M275.715 239.858C272.816 237.942 272.301 233.871 274.555 230.769C276.809 227.667 280.987 226.698 283.875 228.614" fill="#4F4A47"/>
<path d="M76.2578 192.824C76.2578 192.824 95.0516 199.91 114.042 176.562" stroke="#108AB2" stroke-width="3.8972" stroke-miterlimit="10" stroke-linecap="round"/>
<path d="M111.526 163.718C111.679 163.097 112.434 162.804 113.211 163.054C113.988 163.304 114.502 164.023 114.36 164.643L114.01 166.123C114.163 165.927 114.338 165.742 114.535 165.579L118.932 159.397C119.304 158.874 120.179 158.798 120.879 159.222C121.58 159.647 121.853 160.42 121.481 160.931L118.845 164.643C119.228 164.708 119.61 164.806 119.982 164.948L123.056 160.637C123.428 160.115 124.303 160.039 125.004 160.463C125.704 160.888 125.977 161.661 125.605 162.172L122.531 166.483C122.849 166.776 123.133 167.092 123.363 167.43L125.922 163.827C126.294 163.304 127.17 163.228 127.87 163.653C128.57 164.077 128.843 164.85 128.471 165.361L123.767 171.969C123.756 171.99 123.735 172.001 123.724 172.012C123.702 172.045 123.68 172.088 123.658 172.121L120.179 177.019C118.768 179 115.421 179.294 112.73 177.683C110.618 176.41 109.535 174.32 109.842 172.513L111.526 163.718Z" fill="#A1CBEC"/>
<path d="M57.3877 95.8076C85.7315 95.8076 108.715 102.774 108.715 132.555C108.715 140.109 107.709 147.717 106.647 155.184C105.466 163.467 103.125 171.729 100.937 179.816C99.9744 183.376 98.9462 186.489 99.3181 190.222C99.6353 193.499 101.331 196.818 102.797 199.768C106.757 207.725 107.807 215.91 104.875 224.411C102.928 230.05 98.2242 234.545 92.9623 237.364C82.0449 243.209 77.7348 242.915 55.4514 242.915C42.2367 242.915 28.4422 241.914 17.6013 233.467C13.1272 229.984 9.88912 225.271 8.09507 219.916C7.03395 216.748 6.90268 215.377 6.49793 212.101C5.92908 207.573 7.41683 201.782 9.12336 197.667C11.6941 191.496 14.1883 183.256 12.4927 176.497C8.54358 160.724 6.07129 139.945 6.07129 131.956C6.06035 102.175 29.0439 95.8076 57.3877 95.8076Z" fill="#00A0CC"/>
<path d="M72.3091 149.731C72.3091 149.731 73.8734 155.631 82.8437 155.849C91.8139 156.066 92.7656 150.635 92.7656 150.635L72.3091 149.731Z" fill="#0D3F60"/>
<path d="M77.8224 141.513C77.8224 137.453 74.289 134.155 69.9351 134.155C65.5813 134.155 62.0479 137.453 62.0479 141.513" fill="white"/>
<path d="M75.5579 141.514C75.5579 139.63 74.0264 138.096 72.1229 138.096C70.2304 138.096 68.688 139.62 68.688 141.514" fill="#0D3F60"/>
<path d="M101.276 141.513C101.276 137.453 97.7317 134.155 93.3451 134.155C88.9693 134.155 85.4141 137.442 85.4141 141.513" fill="white"/>
<path d="M99.0008 141.514C99.0008 139.63 97.4692 138.096 95.5658 138.096C93.6624 138.096 92.1309 139.62 92.1309 141.514" fill="#0D3F60"/>
<path d="M100.587 138.041L104.689 136.245L101.057 139.401C101.101 139.587 101.134 139.75 101.167 139.924L104.722 139.434L101.32 141.012C101.364 141.513 101.353 141.829 101.353 141.829C99.4492 135.178 95.6423 134.296 94.5483 134.177C98.0489 134.286 99.7664 136.158 100.587 138.041Z" fill="#0D3F60"/>
<path d="M94.5592 134.177C94.4498 134.177 94.3623 134.155 94.2529 134.155C94.2529 134.155 94.3733 134.155 94.5592 134.177Z" fill="#0D3F60"/>
<path d="M58.4814 139.424L62.0367 139.914C62.0695 139.751 62.1024 139.577 62.1461 139.392L58.5143 136.235L62.6165 138.031C63.437 136.159 65.1544 134.276 68.6441 134.167C67.5501 134.287 63.7433 135.168 61.8398 141.819C61.8398 141.819 61.8289 141.492 61.8726 141.003L58.4814 139.424Z" fill="#0D3F60"/>
<path d="M70.2412 134.177C70.4272 134.155 70.5475 134.155 70.5475 134.155C70.4381 134.155 70.3506 134.177 70.2412 134.177Z" fill="#0D3F60"/>
<path d="M32.9385 183.104C32.9385 183.104 41.7774 201.063 71.6746 196.982" stroke="#108AB2" stroke-width="3.8972" stroke-miterlimit="10" stroke-linecap="round"/>
<path d="M88.5432 235.09L97.5572 275.657L91.6281 277.78L72.7358 240.859" fill="#00A0CC"/>
<path d="M67.2879 238.464L69.2789 279.957L63.0654 281.045L50.5508 240.445" fill="#00A0CC"/>
<path d="M91.026 277.987L82.6465 262.574L93.914 258.558L97.0645 274.319L91.026 277.987Z" fill="#56C4CF"/>
<path d="M62.5621 280.991L57.9238 264.359L68.4365 262.52L69.8149 280.915L62.5621 280.991Z" fill="#56C4CF"/>
<path d="M91.7046 278.846C89.7245 273.36 92.5906 267.319 98.1041 265.36C103.617 263.39 109.689 266.242 111.658 271.728" fill="#4F4A47"/>
<path d="M84.3424 278.749C83.325 273.013 77.8335 269.181 72.0684 270.193C66.3034 271.206 62.4528 276.67 63.4701 282.406" fill="#4F4A47"/>
<path d="M78.6755 185.89C79.2116 185.542 79.9664 185.836 80.3602 186.554C80.754 187.273 80.6337 188.144 80.0977 188.492L78.8178 189.33C79.0694 189.287 79.321 189.276 79.5726 189.287L87.0223 187.774C87.6458 187.643 88.3459 188.187 88.5647 188.971C88.7835 189.755 88.4553 190.506 87.8318 190.636L83.3576 191.54C83.5873 191.844 83.7952 192.182 83.9811 192.541L89.1882 191.485C89.8118 191.355 90.5119 191.899 90.7307 192.683C90.9495 193.466 90.6213 194.217 89.9977 194.348L84.7906 195.404C84.8125 195.839 84.8016 196.253 84.7469 196.656L89.0898 195.774C89.7133 195.643 90.4134 196.188 90.6322 196.971C90.851 197.755 90.5228 198.506 89.8993 198.637L81.9245 200.258C81.9027 200.258 81.8808 200.258 81.8589 200.258C81.8151 200.269 81.7823 200.28 81.7386 200.291L75.8313 201.488C73.4356 201.978 70.7883 199.91 69.946 196.895C69.2896 194.533 69.935 192.258 71.4009 191.159L78.6755 185.89Z" fill="#A1CBEC"/>
<path d="M98.0927 129.812C98.0927 129.812 94.8875 124.533 89.1553 128.288" stroke="#0D3F60" stroke-width="1.3085" stroke-miterlimit="10" stroke-linecap="round"/>
<path d="M64.936 130.106C64.936 130.106 67.0692 124.511 73.0202 127.908" stroke="#0D3F60" stroke-width="1.3085" stroke-miterlimit="10" stroke-linecap="round"/>
<path d="M226.499 138.629C226.499 135.102 229.376 132.239 232.92 132.239C236.464 132.239 239.341 135.102 239.341 138.629" fill="white"/>
<path d="M246.824 138.629C246.824 135.102 249.701 132.239 253.246 132.239C256.79 132.239 259.667 135.102 259.667 138.629" fill="white"/>
<path d="M233.937 138.683C233.937 137.083 232.636 135.788 231.028 135.788C229.419 135.788 228.118 137.083 228.118 138.683" fill="#0D3F60"/>
<path d="M254.449 138.683C254.449 137.083 253.147 135.788 251.539 135.788C249.931 135.788 248.629 137.083 248.629 138.683" fill="#0D3F60"/>
<path d="M259.732 129.551C259.732 129.551 257.194 124.446 251.637 127.45" stroke="#0D3F60" stroke-width="1.2078" stroke-miterlimit="10" stroke-linecap="round"/>
<path d="M227.527 129.551C227.527 129.551 229.376 124.348 234.944 127.352" stroke="#0D3F60" stroke-width="1.2078" stroke-miterlimit="10" stroke-linecap="round"/>
<path d="M259.109 135.472L262.752 134.035L259.524 136.572C259.568 136.713 259.601 136.855 259.623 136.985L262.784 136.593L259.765 137.856C259.809 138.259 259.798 138.52 259.798 138.52C258.015 132.903 254.35 132.414 253.617 132.37C256.811 132.403 258.365 133.938 259.109 135.472Z" fill="#0D3F60"/>
<path d="M223.512 136.55L226.674 136.941C226.706 136.811 226.739 136.669 226.772 136.528L223.545 133.992L227.188 135.428C227.932 133.894 229.474 132.359 232.679 132.315C231.946 132.359 228.282 132.838 226.499 138.465C226.499 138.465 226.488 138.204 226.531 137.801L223.512 136.55Z" fill="#0D3F60"/>
</svg>
